<svg width="54" height="57" viewBox="0 0 54 57" fill="none" xmlns="http://www.w3.org/2000/svg">
<path d="M49.536 54V56H53.9601L51.0374 52.6787L49.536 54ZM40.032 43.2L38.3519 42.1149L37.5313 43.3857L38.5306 44.5213L40.032 43.2ZM45.72 30.6L47.6229 31.2156L48.2413 29.3042L46.3271 28.6944L45.72 30.6ZM37.584 28.008L38.1911 26.1024L36.3704 25.5223L35.708 27.3147L37.584 28.008ZM34.056 36.36L32.5525 37.6789L34.5144 39.9153L35.8449 37.2544L34.056 36.36ZM20.16 20.52L18.6332 21.8119L18.6448 21.8255L18.6565 21.8389L20.16 20.52ZM32.76 15.336L31.549 16.9277L33.2471 18.2197L34.4266 16.4416L32.76 15.336ZM37.584 8.064L39.2506 9.16959L40.3278 7.54575L38.7326 6.42669L37.584 8.064ZM11.952 25.488L13.4386 24.1501L13.4368 24.1481L11.952 25.488ZM13.248 26.928L14.1344 28.7209L16.4998 27.5514L14.7346 25.5901L13.248 26.928ZM34.2 49.896L35.6647 48.5341L34.3864 47.1594L32.9335 48.3481L34.2 49.896ZM38.016 54L36.5513 55.3619L37.1447 56H38.016V54ZM28.44 43.632L29.613 45.2519L31.4278 43.9377L29.9168 42.2832L28.44 43.632ZM18.576 32.832L20.0528 31.4832L19.0104 30.342L17.6432 31.0629L18.576 32.832ZM51.0374 52.6787L41.5334 41.8787L38.5306 44.5213L48.0346 55.3213L51.0374 52.6787ZM41.7121 44.285C44.0671 40.6386 46.0045 36.218 47.6229 31.2156L43.8171 29.9844C42.2675 34.774 40.4609 38.8494 38.3519 42.1149L41.7121 44.285ZM46.3271 28.6944L38.1911 26.1024L36.9769 29.9136L45.1129 32.5056L46.3271 28.6944ZM35.708 27.3147C34.4999 30.5838 33.3762 33.2476 32.2671 35.4656L35.8449 37.2544C37.0399 34.8644 38.2201 32.0562 39.46 28.7013L35.708 27.3147ZM35.5595 35.0411L21.6635 19.2011L18.6565 21.8389L32.5525 37.6789L35.5595 35.0411ZM21.6868 19.2281C20.09 17.341 19.496 16.4055 19.496 15.048H15.496C15.496 18.0105 17.062 19.955 18.6332 21.8119L21.6868 19.2281ZM19.496 15.048C19.496 14.6655 19.6197 14.4498 19.9034 14.2534C20.2718 13.9984 21.01 13.736 22.248 13.736V9.736C20.534 9.736 18.8962 10.0856 17.6266 10.9646C16.2723 11.9022 15.496 13.3425 15.496 15.048H19.496ZM22.248 13.736C25.4247 13.736 28.5962 14.681 31.549 16.9277L33.971 13.7443C30.2998 10.951 26.2713 9.736 22.248 9.736V13.736ZM34.4266 16.4416L39.2506 9.16959L35.9174 6.95841L31.0934 14.2304L34.4266 16.4416ZM38.7326 6.42669C33.7 2.89636 29.2716 0.807999 22.536 0.807999V4.808C28.1844 4.808 31.82 6.46363 36.4354 9.70131L38.7326 6.42669ZM22.536 0.807999C17.983 0.807999 13.763 1.94335 10.6334 4.37986C7.44211 6.86435 5.56 10.5723 5.56 15.264H9.56C9.56 11.7477 10.9179 9.22765 13.0906 7.53613C15.325 5.79664 18.593 4.808 22.536 4.808V0.807999ZM5.56 15.264C5.56 19.9479 7.59431 23.6444 10.4672 26.8279L13.4368 24.1481C10.9817 21.4276 9.56 18.6441 9.56 15.264H5.56ZM10.4654 26.8259L11.7614 28.2659L14.7346 25.5901L13.4386 24.1501L10.4654 26.8259ZM12.3616 25.1351C9.00015 26.797 6.13039 28.8223 4.10291 31.4982C2.04636 34.2124 0.952 37.4705 0.952 41.4H4.952C4.952 38.2735 5.80164 35.8796 7.2911 33.9138C8.80962 31.9097 11.0879 30.227 14.1344 28.7209L12.3616 25.1351ZM0.952 41.4C0.952 46.4411 2.72093 50.421 6.14485 53.078C9.48404 55.6693 14.1289 56.792 19.512 56.792V52.792C14.5991 52.792 10.964 51.7547 8.59716 49.918C6.31507 48.147 4.952 45.4309 4.952 41.4H0.952ZM19.512 56.792C25.8228 56.792 31.1088 55.0093 35.4665 51.4439L32.9335 48.3481C29.3712 51.2627 25.0093 52.792 19.512 52.792V56.792ZM32.7353 51.2579L36.5513 55.3619L39.4807 52.6381L35.6647 48.5341L32.7353 51.2579ZM38.016 56H49.536V52H38.016V56ZM27.267 42.0121C25.5974 43.2212 23.4452 43.864 20.664 43.864V47.864C24.0748 47.864 27.1067 47.0668 29.613 45.2519L27.267 42.0121ZM20.664 43.864C18.3806 43.864 16.9445 43.3852 16.1323 42.7961C15.4037 42.2675 15.032 41.5541 15.032 40.536H11.032C11.032 42.7579 11.9563 44.7085 13.7837 46.034C15.5275 47.2988 17.9074 47.864 20.664 47.864V43.864ZM15.032 40.536C15.032 39.399 15.3214 38.3988 15.9634 37.4714C16.6222 36.5198 17.7255 35.5414 19.5088 34.6011L17.6432 31.0629C15.4665 32.2106 13.7978 33.5722 12.6746 35.1946C11.5346 36.8412 11.032 38.6489 11.032 40.536H15.032ZM17.0992 34.1808L26.9632 44.9808L29.9168 42.2832L20.0528 31.4832L17.0992 34.1808Z" fill="white"/>
</svg>
