<svg width="36" height="36" viewBox="0 0 36 36" fill="none" xmlns="http://www.w3.org/2000/svg">
<path d="M1.5 18.75V26.25C1.5 26.6478 1.65804 27.0294 1.93934 27.3107C2.22064 27.592 2.60218 27.75 3 27.75H4.5C4.5 28.9435 4.97411 30.0881 5.81802 30.932C6.66193 31.7759 7.80653 32.25 9 32.25C10.1935 32.25 11.3381 31.7759 12.182 30.932C13.0259 30.0881 13.5 28.9435 13.5 27.75H22.5C22.5 28.9435 22.9741 30.0881 23.818 30.932C24.6619 31.7759 25.8065 32.25 27 32.25C28.1935 32.25 29.3381 31.7759 30.182 30.932C31.0259 30.0881 31.5 28.9435 31.5 27.75H33C33.3978 27.75 33.7794 27.592 34.0607 27.3107C34.342 27.0294 34.5 26.6478 34.5 26.25V8.25C34.5 7.05653 34.0259 5.91193 33.182 5.06802C32.3381 4.22411 31.1935 3.75 30 3.75H16.5C15.3065 3.75 14.1619 4.22411 13.318 5.06802C12.4741 5.91193 12 7.05653 12 8.25V11.25H9C8.3014 11.25 7.61239 11.4127 6.98754 11.7251C6.36269 12.0375 5.81916 12.4911 5.4 13.05L1.8 17.85C1.75613 17.9152 1.72084 17.9858 1.695 18.06L1.605 18.225C1.5388 18.3923 1.50323 18.5701 1.5 18.75ZM25.5 27.75C25.5 27.4533 25.588 27.1633 25.7528 26.9166C25.9176 26.67 26.1519 26.4777 26.426 26.3642C26.7001 26.2506 27.0017 26.2209 27.2926 26.2788C27.5836 26.3367 27.8509 26.4796 28.0607 26.6893C28.2704 26.8991 28.4133 27.1664 28.4712 27.4574C28.5291 27.7483 28.4994 28.0499 28.3858 28.324C28.2723 28.5981 28.08 28.8324 27.8334 28.9972C27.5867 29.162 27.2967 29.25 27 29.25C26.6022 29.25 26.2206 29.092 25.9393 28.8107C25.658 28.5294 25.5 28.1478 25.5 27.75ZM15 8.25C15 7.85218 15.158 7.47064 15.4393 7.18934C15.7206 6.90804 16.1022 6.75 16.5 6.75H30C30.3978 6.75 30.7794 6.90804 31.0607 7.18934C31.342 7.47064 31.5 7.85218 31.5 8.25V24.75H30.33C29.9082 24.286 29.3941 23.9152 28.8207 23.6615C28.2472 23.4078 27.6271 23.2767 27 23.2767C26.3729 23.2767 25.7528 23.4078 25.1793 23.6615C24.6059 23.9152 24.0918 24.286 23.67 24.75H15V8.25ZM12 17.25H6L7.8 14.85C7.93972 14.6637 8.1209 14.5125 8.32918 14.4084C8.53746 14.3042 8.76713 14.25 9 14.25H12V17.25ZM7.5 27.75C7.5 27.4533 7.58797 27.1633 7.7528 26.9166C7.91762 26.67 8.15189 26.4777 8.42597 26.3642C8.70006 26.2506 9.00166 26.2209 9.29264 26.2788C9.58361 26.3367 9.85088 26.4796 10.0607 26.6893C10.2704 26.8991 10.4133 27.1664 10.4712 27.4574C10.5291 27.7483 10.4994 28.0499 10.3858 28.324C10.2723 28.5981 10.08 28.8324 9.83335 28.9972C9.58668 29.162 9.29667 29.25 9 29.25C8.60218 29.25 8.22064 29.092 7.93934 28.8107C7.65804 28.5294 7.5 28.1478 7.5 27.75ZM4.5 20.25H12V24.42C11.1147 23.6288 9.9527 23.2196 8.76704 23.2814C7.58138 23.3432 6.46818 23.8711 5.67 24.75H4.5V20.25Z" fill="#4AAE34"/>
</svg>
