<svg width="36" height="36" viewBox="0 0 36 36" fill="none" xmlns="http://www.w3.org/2000/svg">
<path d="M28.5 3H7.5C6.30653 3 5.16193 3.47411 4.31802 4.31802C3.47411 5.16193 3 6.30653 3 7.5V28.5C3 29.6935 3.47411 30.8381 4.31802 31.682C5.16193 32.5259 6.30653 33 7.5 33H28.5C29.6935 33 30.8381 32.5259 31.682 31.682C32.5259 30.8381 33 29.6935 33 28.5V7.5C33 6.30653 32.5259 5.16193 31.682 4.31802C30.8381 3.47411 29.6935 3 28.5 3ZM30 28.5C30 28.8978 29.842 29.2794 29.5607 29.5607C29.2794 29.842 28.8978 30 28.5 30H7.5C7.10218 30 6.72064 29.842 6.43934 29.5607C6.15804 29.2794 6 28.8978 6 28.5V7.5C6 7.10218 6.15804 6.72064 6.43934 6.43934C6.72064 6.15804 7.10218 6 7.5 6H28.5C28.8978 6 29.2794 6.15804 29.5607 6.43934C29.842 6.72064 30 7.10218 30 7.5V28.5ZM25.5 13.5H22.5V10.5C22.5 10.1022 22.342 9.72064 22.0607 9.43934C21.7794 9.15804 21.3978 9 21 9H15C14.6022 9 14.2206 9.15804 13.9393 9.43934C13.658 9.72064 13.5 10.1022 13.5 10.5V13.5H10.5C10.1022 13.5 9.72064 13.658 9.43934 13.9393C9.15804 14.2206 9 14.6022 9 15V21C9 21.3978 9.15804 21.7794 9.43934 22.0607C9.72064 22.342 10.1022 22.5 10.5 22.5H13.5V25.5C13.5 25.8978 13.658 26.2794 13.9393 26.5607C14.2206 26.842 14.6022 27 15 27H21C21.3978 27 21.7794 26.842 22.0607 26.5607C22.342 26.2794 22.5 25.8978 22.5 25.5V22.5H25.5C25.8978 22.5 26.2794 22.342 26.5607 22.0607C26.842 21.7794 27 21.3978 27 21V15C27 14.6022 26.842 14.2206 26.5607 13.9393C26.2794 13.658 25.8978 13.5 25.5 13.5ZM24 19.5H21C20.6022 19.5 20.2206 19.658 19.9393 19.9393C19.658 20.2206 19.5 20.6022 19.5 21V24H16.5V21C16.5 20.6022 16.342 20.2206 16.0607 19.9393C15.7794 19.658 15.3978 19.5 15 19.5H12V16.5H15C15.3978 16.5 15.7794 16.342 16.0607 16.0607C16.342 15.7794 16.5 15.3978 16.5 15V12H19.5V15C19.5 15.3978 19.658 15.7794 19.9393 16.0607C20.2206 16.342 20.6022 16.5 21 16.5H24V19.5Z" fill="#4AAE34"/>
</svg>
