<svg width="24" height="27" viewBox="0 0 24 27" fill="none" xmlns="http://www.w3.org/2000/svg">
<path d="M20.84 7.60999C20.3292 7.099 19.7228 6.69364 19.0554 6.41708C18.3879 6.14052 17.6725 5.99817 16.95 5.99817C16.2275 5.99817 15.5121 6.14052 14.8446 6.41708C14.1772 6.69364 13.5708 7.099 13.06 7.60999L12 8.66999L10.94 7.60999C9.9083 6.5783 8.50903 5.9987 7.05 5.9987C5.59096 5.9987 4.19169 6.5783 3.16 7.60999C2.1283 8.64169 1.54871 10.041 1.54871 11.5C1.54871 12.959 2.1283 14.3583 3.16 15.39L4.22 16.45L12 24.23L19.78 16.45L20.84 15.39C21.351 14.8792 21.7563 14.2728 22.0329 13.6053C22.3095 12.9379 22.4518 12.2225 22.4518 11.5C22.4518 10.7775 22.3095 10.0621 22.0329 9.39464C21.7563 8.72718 21.351 8.12075 20.84 7.60999V7.60999Z" stroke="#4AAE34" stroke-width="2" stroke-linecap="round" stroke-linejoin="round"/>
</svg>
