<svg width="36" height="36" viewBox="0 0 36 36" fill="none" xmlns="http://www.w3.org/2000/svg">
<path d="M30.24 7.50025C28.6499 5.90606 26.5422 4.93306 24.2975 4.757C22.0528 4.58095 19.8191 5.21345 18 6.54025C16.0915 5.1207 13.716 4.47702 11.3519 4.7388C8.98776 5.00059 6.81065 6.14841 5.25895 7.95113C3.70725 9.75384 2.89622 12.0775 2.98919 14.4543C3.08216 16.831 4.07221 19.0843 5.75999 20.7602L15.075 30.0902C15.855 30.8579 16.9056 31.2882 18 31.2882C19.0944 31.2882 20.145 30.8579 20.925 30.0902L30.24 20.7602C31.9914 18.9981 32.9744 16.6147 32.9744 14.1302C32.9744 11.6458 31.9914 9.26235 30.24 7.50025ZM28.125 18.6902L18.81 28.0052C18.704 28.1123 18.5778 28.1972 18.4388 28.2552C18.2998 28.3132 18.1506 28.3431 18 28.3431C17.8493 28.3431 17.7002 28.3132 17.5612 28.2552C17.4221 28.1972 17.296 28.1123 17.19 28.0052L7.87499 18.6452C6.69862 17.4428 6.0399 15.8274 6.0399 14.1452C6.0399 12.463 6.69862 10.8477 7.87499 9.64525C9.07372 8.46173 10.6904 7.7981 12.375 7.7981C14.0595 7.7981 15.6763 8.46173 16.875 9.64525C17.0144 9.78584 17.1803 9.89743 17.3631 9.97359C17.5459 10.0497 17.742 10.0889 17.94 10.0889C18.138 10.0889 18.3341 10.0497 18.5169 9.97359C18.6996 9.89743 18.8655 9.78584 19.005 9.64525C20.2037 8.46173 21.8204 7.7981 23.505 7.7981C25.1895 7.7981 26.8063 8.46173 28.005 9.64525C29.1975 10.832 29.8779 12.4385 29.9003 14.1208C29.9227 15.803 29.2855 17.4271 28.125 18.6452V18.6902Z" fill="#4AAE34"/>
</svg>
