<svg width="36" height="36" viewBox="0 0 36 36" fill="none" xmlns="http://www.w3.org/2000/svg">
<path d="M31.305 25.875L27.24 18.855C28.0718 17.3273 28.5052 15.6145 28.5 13.875C28.5 11.0902 27.3938 8.41951 25.4246 6.45038C23.4555 4.48125 20.7848 3.375 18 3.375C15.2152 3.375 12.5445 4.48125 10.5754 6.45038C8.60625 8.41951 7.5 11.0902 7.5 13.875C7.49484 15.6145 7.92818 17.3273 8.76 18.855L4.695 25.875C4.56309 26.1035 4.49377 26.3627 4.49403 26.6265C4.4943 26.8903 4.56413 27.1494 4.69649 27.3776C4.82885 27.6058 5.01905 27.7951 5.24791 27.9263C5.47677 28.0575 5.73619 28.126 6 28.125H10.305L12.495 31.815C12.5688 31.9373 12.6597 32.0484 12.765 32.145C13.0431 32.413 13.4138 32.5635 13.8 32.565H14.01C14.2365 32.534 14.4528 32.4517 14.6426 32.3243C14.8324 32.1969 14.9905 32.0278 15.105 31.83L18 26.85L20.895 31.875C21.0111 32.07 21.17 32.2362 21.3597 32.3609C21.5494 32.4856 21.7649 32.5657 21.99 32.595H22.2C22.5914 32.5974 22.9682 32.4466 23.25 32.175C23.3509 32.0839 23.4369 31.9776 23.505 31.86L25.695 28.17H30C30.2643 28.1711 30.5242 28.1022 30.7534 27.9705C30.9825 27.8388 31.1728 27.6489 31.305 27.42C31.4452 27.1867 31.5192 26.9197 31.5192 26.6475C31.5192 26.3753 31.4452 26.1083 31.305 25.875ZM13.785 28.17L12.45 25.935C12.3185 25.7133 12.1322 25.5291 11.9088 25.4004C11.6855 25.2716 11.4328 25.2026 11.175 25.2H8.58L10.725 21.48C12.2021 22.9033 14.0637 23.8628 16.08 24.24L13.785 28.17ZM18 21.375C16.5166 21.375 15.0666 20.9351 13.8332 20.111C12.5999 19.2869 11.6386 18.1156 11.0709 16.7451C10.5032 15.3747 10.3547 13.8667 10.6441 12.4118C10.9335 10.957 11.6478 9.62059 12.6967 8.5717C13.7456 7.52281 15.082 6.8085 16.5368 6.51911C17.9917 6.22972 19.4997 6.37825 20.8701 6.9459C22.2406 7.51356 23.4119 8.47485 24.236 9.70822C25.0601 10.9416 25.5 12.3916 25.5 13.875C25.5 15.8641 24.7098 17.7718 23.3033 19.1783C21.8968 20.5848 19.9891 21.375 18 21.375ZM24.825 25.2C24.5672 25.2026 24.3145 25.2716 24.0912 25.4004C23.8678 25.5291 23.6815 25.7133 23.55 25.935L22.215 28.17L19.935 24.195C21.9442 23.8101 23.799 22.8515 25.275 21.435L27.42 25.155L24.825 25.2Z" fill="#4AAE34"/>
</svg>
