<svg width="36" height="36" viewBox="0 0 36 36" fill="none" xmlns="http://www.w3.org/2000/svg">
<path d="M28.4875 31.5029H26.9875V29.0024C26.9829 28.144 26.8309 27.2928 26.5382 26.4858C26.5218 26.4418 26.5046 26.401 26.4844 26.359C26.2414 25.6967 25.9058 25.0721 25.4875 24.5039L23.3877 21.7031C22.8051 20.9229 22.4894 19.9757 22.4875 19.0019V17.4872C22.491 16.2946 22.9644 15.1514 23.8052 14.3056L24.791 13.3197C25.9364 12.1681 26.6722 10.6724 26.8855 9.06218C26.8863 9.04132 26.8975 9.02391 26.8975 9.00285L26.8933 8.98226C26.9454 8.66288 26.9769 8.34046 26.9876 8.01702V4.50293H28.4876C28.8854 4.50293 29.2669 4.34489 29.5482 4.06359C29.8295 3.78229 29.9876 3.40075 29.9876 3.00293C29.9876 2.60511 29.8295 2.22357 29.5482 1.94227C29.2669 1.66097 28.8854 1.50293 28.4876 1.50293H7.48756C7.08974 1.50293 6.70821 1.66097 6.4269 1.94227C6.1456 2.22357 5.98756 2.60511 5.98756 3.00293C5.98756 3.40075 6.1456 3.78229 6.4269 4.06359C6.70821 4.34489 7.08974 4.50293 7.48756 4.50293H8.98756V8.01702C8.99822 8.34046 9.02972 8.66288 9.08187 8.98226L9.07764 9.00293C9.07764 9.02393 9.0888 9.04139 9.08964 9.06225C9.30287 10.6725 10.0387 12.1682 11.1841 13.3198L12.1699 14.3057C13.0107 15.1515 13.4841 16.2946 13.4875 17.4872V19.0019C13.4856 19.9755 13.1702 20.9227 12.5881 21.7031L10.4868 24.5038C10.0687 25.0723 9.73316 25.6971 9.49026 26.3596C9.47031 26.4012 9.45318 26.4416 9.43698 26.4851C9.14426 27.2923 8.99225 28.1438 8.98755 29.0024V31.5029H7.48755C7.08972 31.5029 6.70819 31.661 6.42689 31.9423C6.14558 32.2236 5.98755 32.6051 5.98755 33.0029C5.98755 33.4008 6.14558 33.7823 6.42689 34.0636C6.70819 34.3449 7.08972 34.5029 7.48755 34.5029H28.4875C28.8854 34.5029 29.2669 34.3449 29.5482 34.0636C29.8295 33.7823 29.9875 33.4008 29.9875 33.0029C29.9875 32.6051 29.8295 32.2236 29.5482 31.9423C29.2669 31.661 28.8854 31.5029 28.4875 31.5029ZM11.9875 7.50293V4.50293H23.9875V7.50293H11.9875ZM13.3052 11.1987C13.0938 10.9864 12.9044 10.7533 12.7398 10.5029H23.2353C23.0707 10.7533 22.8813 10.9864 22.6699 11.1987L21.6841 12.1846C20.514 13.3478 19.7638 14.8668 19.5513 16.5029H16.4238C16.2113 14.8668 15.4611 13.3476 14.291 12.1844L13.3052 11.1987ZM14.9883 23.5019C15.8562 22.339 16.3709 20.9506 16.4707 19.5029H19.5044C19.6042 20.9508 20.1191 22.3392 20.9875 23.5019L22.4877 25.5029H13.487L14.9883 23.5019ZM23.9875 31.5029H11.9875V29.0024C11.9917 28.8353 12.0054 28.6685 12.0284 28.5029H23.9467C23.9697 28.6685 23.9834 28.8353 23.9875 29.0024V31.5029Z" fill="#4AAE34"/>
</svg>
