<svg width="23" height="24" viewBox="0 0 23 24" fill="none" xmlns="http://www.w3.org/2000/svg">
<path d="M19.9478 2.9538C19.3772 2.4386 17.0672 0.789051 11.9179 0.766454C11.9179 0.766454 5.84826 0.40491 2.88937 3.0713C1.24197 4.68921 0.66216 7.0528 0.602339 9.99035C0.542517 12.9234 0.464288 18.4234 5.86206 19.9147H5.86666L5.86206 22.1879C5.86206 22.1879 5.82985 23.1099 6.44648 23.2952C7.19195 23.5211 7.63371 22.8206 8.34697 22.0659C8.73811 21.6501 9.27651 21.0446 9.68606 20.5791C13.3766 20.8819 16.2158 20.1859 16.538 20.0819C17.2834 19.8424 21.5032 19.3137 22.1888 13.8137C22.8975 8.15551 21.8437 4.5717 19.9478 2.9538ZM20.5736 13.416C19.9938 18.0076 16.5748 18.2968 15.9443 18.4957C15.6774 18.5815 13.1833 19.1916 10.045 18.9883C10.045 18.9883 7.70734 21.7586 6.98027 22.4772C6.86523 22.5902 6.73178 22.6353 6.64435 22.6128C6.5201 22.5811 6.48329 22.4365 6.48789 22.2241C6.48789 21.9168 6.5063 18.4414 6.5063 18.4414C6.50169 18.4414 6.50169 18.4414 6.5063 18.4414C1.93683 17.1986 2.20372 12.5166 2.25434 10.0672C2.30496 7.61771 2.77433 5.60662 4.16864 4.25535C6.66736 2.03186 11.8258 2.36177 11.8258 2.36177C16.179 2.37984 18.2636 3.66784 18.7468 4.09718C20.3528 5.45297 21.1719 8.68427 20.5736 13.416Z" fill="#4AAE34"/>
<path d="M14.0393 10.1531C13.8875 10.1531 13.7586 10.0356 13.7494 9.8819C13.6988 8.91025 13.234 8.43572 12.2861 8.38601C12.125 8.37697 12.0008 8.24139 12.01 8.08321C12.0192 7.92504 12.1573 7.80302 12.3183 7.81206C13.57 7.87985 14.2694 8.58486 14.3339 9.85026C14.3431 10.0084 14.2188 10.144 14.0578 10.1485C14.0485 10.1531 14.0439 10.1531 14.0393 10.1531Z" fill="#4AAE34"/>
<path d="M15.5303 10.6412H15.5257C15.3646 10.6367 15.2358 10.5057 15.2404 10.3475C15.2634 9.37132 14.9781 8.58044 14.3706 7.92966C13.7678 7.27888 12.9349 6.92638 11.8351 6.84955C11.6741 6.83599 11.5544 6.70041 11.5682 6.54224C11.582 6.38406 11.7201 6.26656 11.8811 6.28012C13.1236 6.3705 14.1038 6.79532 14.8032 7.54552C15.5073 8.30025 15.8478 9.24478 15.8248 10.361C15.8202 10.5192 15.6867 10.6412 15.5303 10.6412Z" fill="#4AAE34"/>
<path d="M17.058 11.2286C16.8969 11.2286 16.7681 11.1021 16.7681 10.9439C16.7543 9.19494 16.2435 7.86174 15.2035 6.86298C14.1773 5.87777 12.8751 5.37613 11.3427 5.36257C11.1816 5.36257 11.0528 5.23151 11.0528 5.07334C11.0528 4.91516 11.1862 4.78862 11.3427 4.78862C13.0315 4.80218 14.4672 5.35805 15.6039 6.45172C16.7451 7.54539 17.3295 9.05484 17.3479 10.9349C17.3525 11.0976 17.2237 11.2286 17.058 11.2286C17.0626 11.2286 17.0626 11.2286 17.058 11.2286Z" fill="#4AAE34"/>
<path d="M12.3551 13.6916C12.3551 13.6916 12.7647 13.7278 12.9855 13.4611L13.4135 12.9324C13.6206 12.6702 14.1222 12.503 14.6099 12.7697C14.8814 12.9188 15.3738 13.2171 15.6775 13.4385C16.0042 13.6735 16.6669 14.2158 16.6715 14.2204C16.989 14.4825 17.0626 14.8666 16.8464 15.2779C16.8464 15.2779 16.8464 15.2824 16.8464 15.2869C16.6255 15.6711 16.3264 16.0326 15.9536 16.367C15.949 16.367 15.949 16.3715 15.9444 16.3715C15.6361 16.6246 15.3324 16.7692 15.0379 16.8009C15.0011 16.8099 14.9597 16.8099 14.9044 16.8099C14.7756 16.8099 14.6467 16.7918 14.5179 16.7512L14.5087 16.7376C14.0485 16.6111 13.2847 16.2947 12.0146 15.6033C11.1863 15.1559 10.5006 14.6994 9.91622 14.243C9.6079 14.0034 9.29499 13.7368 8.97287 13.4204C8.96367 13.4114 8.94986 13.3978 8.94066 13.3888C8.93146 13.3798 8.91765 13.3662 8.90845 13.3572C8.89925 13.3481 8.88544 13.3346 8.87624 13.3255C8.86703 13.3165 8.85323 13.3029 8.84402 13.2939C8.52651 12.9776 8.25041 12.6702 8.00652 12.3674C7.54175 11.798 7.07698 11.1201 6.62141 10.3066C5.91735 9.0548 5.59524 8.3046 5.46639 7.85719L5.45258 7.84815C5.41117 7.72161 5.39276 7.59507 5.39276 7.46853C5.39276 7.41429 5.39276 7.37362 5.40196 7.33747C5.43878 7.04371 5.58603 6.74996 5.83912 6.44716C5.83912 6.44265 5.84373 6.44265 5.84373 6.43813C6.18425 6.06754 6.55239 5.77831 6.94353 5.56138C6.94353 5.56138 6.94813 5.56138 6.95273 5.56138C7.36688 5.34897 7.75803 5.42128 8.02953 5.73312C8.02953 5.73312 8.58633 6.38841 8.82562 6.70928C9.0511 7.01208 9.35481 7.49112 9.50667 7.75776C9.77817 8.23681 9.6079 8.72941 9.34101 8.93278L8.80261 9.35307C8.53111 9.57 8.56792 9.97222 8.56792 9.97222C8.56792 9.97222 9.36401 12.9459 12.3551 13.6916Z" fill="#4AAE34"/>
</svg>
