<svg width="20" height="18" viewBox="0 0 20 18" fill="none" xmlns="http://www.w3.org/2000/svg">
<path d="M17 4H16V3C16 2.20435 15.6839 1.44129 15.1213 0.87868C14.5587 0.316071 13.7957 0 13 0H3.00002C2.20437 0 1.4413 0.316071 0.878695 0.87868C0.316086 1.44129 1.52588e-05 2.20435 1.52588e-05 3V15C1.52588e-05 15.7957 0.316086 16.5587 0.878695 17.1213C1.4413 17.6839 2.20437 18 3.00002 18H17C17.7957 18 18.5587 17.6839 19.1213 17.1213C19.6839 16.5587 20 15.7957 20 15V7C20 6.20435 19.6839 5.44129 19.1213 4.87868C18.5587 4.31607 17.7957 4 17 4ZM3.00002 2H13C13.2652 2 13.5196 2.10536 13.7071 2.29289C13.8947 2.48043 14 2.73478 14 3V4H3.00002C2.7348 4 2.48044 3.89464 2.29291 3.70711C2.10537 3.51957 2.00002 3.26522 2.00002 3C2.00002 2.73478 2.10537 2.48043 2.29291 2.29289C2.48044 2.10536 2.7348 2 3.00002 2ZM18 12H17C16.7348 12 16.4804 11.8946 16.2929 11.7071C16.1054 11.5196 16 11.2652 16 11C16 10.7348 16.1054 10.4804 16.2929 10.2929C16.4804 10.1054 16.7348 10 17 10H18V12ZM18 8H17C16.2044 8 15.4413 8.31607 14.8787 8.87868C14.3161 9.44129 14 10.2044 14 11C14 11.7956 14.3161 12.5587 14.8787 13.1213C15.4413 13.6839 16.2044 14 17 14H18V15C18 15.2652 17.8947 15.5196 17.7071 15.7071C17.5196 15.8946 17.2652 16 17 16H3.00002C2.7348 16 2.48044 15.8946 2.29291 15.7071C2.10537 15.5196 2.00002 15.2652 2.00002 15V5.83C2.32128 5.94302 2.65945 6.00051 3.00002 6H17C17.2652 6 17.5196 6.10536 17.7071 6.29289C17.8947 6.48043 18 6.73478 18 7V8Z" fill="#4AAE34"/>
</svg>
