<svg width="81" height="98" viewBox="0 0 81 98" fill="none" xmlns="http://www.w3.org/2000/svg">
<path d="M31.3222 32.4768C31.4171 33.6692 31.5092 34.8586 31.5782 36.0509C31.6155 36.6557 32.0152 39.0948 31.7421 39.6308C30.9053 41.2588 25.4161 41.1241 24.0042 41.2788C18.9295 41.8156 13.8267 42.0434 8.72415 41.961L9.51489 42.7492C9.68742 39.7455 9.75165 36.7426 9.70756 33.7408L8.91681 34.5261C16.735 35.4165 24.648 34.9804 32.32 33.2363C33.3092 33.0128 32.8951 31.4966 31.9002 31.7202C24.3639 33.4221 16.5928 33.8388 8.91681 32.9526C8.70806 32.9548 8.50852 33.0387 8.36117 33.1861C8.21382 33.3335 8.13044 33.5327 8.12895 33.7408C8.17304 36.7484 8.10881 39.7512 7.93628 42.7492C7.93925 42.9566 8.02321 43.1546 8.17033 43.3013C8.31744 43.4479 8.51612 43.5316 8.72415 43.5346C16.7837 43.6406 24.8353 42.9871 32.7714 41.5827C32.9372 41.5358 33.0832 41.4362 33.187 41.2991C33.2908 41.162 33.3468 40.9949 33.3465 40.8232C33.2699 38.0372 33.1194 35.2551 32.8951 32.4768C32.8175 31.488 31.2417 31.4794 31.3222 32.4768Z" fill="#4AAE34" stroke="#4AAE34"/>
<path d="M8.73856 42.4656C5.15864 55.5182 2.9014 69.0866 1.46368 82.5376C1.14163 85.5442 0.529182 89.0439 1.62472 91.9731C2.98193 95.6045 6.90114 96.5991 10.4178 96.8685C18.469 97.4876 27.2794 95.8052 35.1782 94.2718C38.5108 93.6269 46.3177 92.8387 47.9854 89.0926C49.2104 86.3382 48.089 81.8612 47.7468 79.0294C47.1142 73.7871 46.2429 68.5736 45.2854 63.3801C44.5608 59.4362 44.1899 54.8303 42.6026 51.1042C40.7249 46.6932 35.6843 43.2853 31.8111 40.6914C30.9657 40.1181 30.1749 41.4882 31.0146 42.0499C34.3041 44.254 38.0134 46.9224 40.2706 50.2128C42.0419 52.7924 42.3381 56.4296 42.9333 59.4391C44.6327 68.0376 46.5937 76.9715 46.7317 85.7506C46.749 86.9172 46.8726 88.118 46.1078 89.0495C44.7534 90.7062 41.1419 91.2823 39.2067 91.7753C31.5753 93.7128 23.5327 94.7475 15.6856 95.2577C11.5939 95.5243 4.45417 95.9972 2.96469 90.9899C2.17682 88.3445 2.76051 85.2117 3.04805 82.5376C4.46852 69.2299 6.72286 55.799 10.2654 42.884C10.5328 41.9067 9.01173 41.4882 8.74432 42.4656H8.73856Z" fill="#4AAE34" stroke="#4AAE34"/>
<path d="M44.3853 57.6018C52.0397 54.1624 61.1922 58.8314 62.0606 67.3726C62.8945 75.5785 55.5075 81.9471 47.4965 80.6831C46.5045 80.5255 46.0761 82.0388 47.0767 82.1993C56.4966 83.6869 65.0568 76.0542 63.5099 66.4067C62.0118 57.0801 51.9707 52.4742 43.5888 56.2432C42.6658 56.6617 43.4652 58.0145 44.3853 57.6018Z" fill="#4AAE34" stroke="#4AAE34"/>
<path d="M11.9822 33.9864C12.0052 30.7629 12.0253 27.5375 12.0426 24.3102C12.0627 20.7332 12.448 18.3313 9.79973 15.6285C8.9371 14.7686 8.01121 13.9862 7.18309 13.1005C5.00063 10.7617 5.639 7.41115 8.96876 6.3736C9.83139 6.10991 10.8148 6.08702 11.6947 5.98097C15.358 5.54531 19.0356 5.21568 22.7076 4.89181C26.7073 4.53927 30.7099 4.20967 34.7154 3.97177C36.0496 3.89439 37.427 3.93735 38.741 3.79691C40.0149 3.65933 39.6842 3.5304 39.8078 4.55935C40.2535 8.28539 40.958 12.0745 40.8516 15.8549C40.8142 17.5059 40.0954 17.1247 38.2637 17.3712C36.2941 17.6348 34.3186 17.8412 32.3547 18.145C29.1917 18.6351 27.1473 18.7899 27.038 22.2523C26.9287 25.7146 27.5585 29.3575 28.1278 32.797C28.2917 33.7944 29.8128 33.3701 29.6489 32.3813C29.1112 29.1397 28.0243 24.9952 28.6339 21.7306C28.999 19.7787 30.963 19.945 32.7745 19.6612C35.0748 19.3058 37.3752 19.1052 39.6755 18.7527C42.8155 18.2712 42.5251 16.9326 42.3756 13.9575C42.2721 11.8423 42.088 9.72419 41.8321 7.62041C41.6826 6.34783 41.7775 4.19818 41.0816 3.09184C40.1845 1.65875 38.0308 2.23198 36.5241 2.30077C32.2684 2.5014 28.0157 2.874 23.7715 3.22654C19.6711 3.58195 15.5621 3.94308 11.4761 4.43606C8.37641 4.80866 4.95465 5.58256 4.18978 9.19968C3.71533 11.4554 4.84824 12.9716 6.33485 14.4906C8.42241 16.6231 10.4669 17.93 10.4784 21.0828C10.4985 25.3821 10.4324 29.6814 10.4007 33.9806C10.4007 34.9924 11.9736 34.9924 11.9793 33.9806L11.9822 33.9864Z" fill="#4AAE34" stroke="#4AAE34"/>
<path d="M40.8889 5.69011C42.272 5.33757 43.5918 5.25444 44.0318 6.75919C44.3982 8.15928 44.6094 9.59522 44.6615 11.0412C44.7047 11.732 44.9778 13.4231 44.6213 13.9275C44.2302 14.4807 42.2231 14.8103 41.4439 15.0052C40.4605 15.2545 40.8688 16.7736 41.8637 16.5243C43.0656 16.2176 45.2941 15.8794 45.9986 14.7042C46.7031 13.5291 46.2861 11.1846 46.1481 9.92346C45.9957 8.39292 45.9267 6.09137 44.9318 4.82739C43.9369 3.5634 41.8579 3.82135 40.4691 4.17389C39.4857 4.42611 39.894 5.94233 40.8889 5.69011Z" fill="#4AAE34" stroke="#4AAE34"/>
<path d="M66.3135 34.9621C70.7589 35.4494 75.1929 32.93 75.998 28.3097C76.7858 23.7726 72.9385 19.9978 68.6455 19.3529C64.0879 18.6593 60.1025 21.9009 59.3549 26.3578C58.5929 30.9237 61.7962 34.1625 66.1036 34.9335C67.0985 35.1112 67.524 33.595 66.5234 33.4173C62.978 32.781 60.2233 30.3476 60.9163 26.5241C61.5949 22.7809 65.0138 20.187 68.8295 20.9752C72.2513 21.6803 75.2216 24.7614 74.3762 28.39C73.5136 32.116 69.8819 33.7813 66.325 33.3886C65.3071 33.2768 65.3157 34.8503 66.3135 34.9621Z" fill="#4AAE34" stroke="#4AAE34"/>
<path d="M36.2767 4.03879C36.6332 6.26295 36.8834 8.49662 37.0272 10.7399C37.0933 11.7459 38.6719 11.7516 38.6058 10.7399C38.4505 8.35331 38.1811 5.98016 37.7978 3.62034C37.6367 2.62578 36.1185 3.04709 36.2767 4.03879Z" fill="#4AAE34" stroke="#4AAE34"/>
<path d="M37.2342 13.4599C37.1423 14.866 37.3119 16.2769 37.7346 17.6216C38.0221 18.5875 39.5576 18.1748 39.2557 17.206C38.8752 15.9957 38.725 14.7252 38.8129 13.4599C38.8761 12.4481 37.3004 12.451 37.2342 13.4599Z" fill="#4AAE34" stroke="#4AAE34"/>
<path d="M29.4275 20.1096C31.1844 24.1882 33.5164 29.7543 38.3155 30.9065C38.4648 30.9423 38.6213 30.9342 38.7662 30.8834C38.9111 30.8325 39.0381 30.7411 39.132 30.6199C39.2259 30.4988 39.2827 30.3531 39.2954 30.2006C39.3082 30.048 39.2764 29.895 39.204 29.76C37.4025 26.5108 36.5911 22.8084 36.8691 19.1064C36.9352 18.0975 35.3595 18.1004 35.2905 19.1064C35.0131 23.0881 35.9001 27.0645 37.8439 30.5539L38.7324 29.4075C34.4566 28.3814 32.3604 22.9757 30.7904 19.3328C30.3907 18.407 29.0307 19.2067 29.4275 20.1267V20.1096Z" fill="#4AAE34" stroke="#4AAE34"/>
<path d="M51.6574 4.77539L56.2581 2.45089C57.1639 1.9923 56.3645 0.636603 55.4616 1.09233L50.8609 3.41683C49.9551 3.87542 50.7545 5.23111 51.6574 4.77539Z" fill="#4AAE34" stroke="#4AAE34"/>
<path d="M51.8731 8.66796L56.4738 8.12629C57.4687 8.01164 57.4802 6.43525 56.4738 6.55563L51.8731 7.0973C50.8782 7.21195 50.8667 8.78548 51.8731 8.66796Z" fill="#4AAE34" stroke="#4AAE34"/>
<path d="M51.8617 12.987L55.4273 14.4201C56.3675 14.8042 56.7758 13.2736 55.8471 12.9039L52.2787 11.4507C51.3384 11.0695 50.9301 12.5972 51.8588 12.9669L51.8617 12.987Z" fill="#4AAE34" stroke="#4AAE34"/>
<path d="M45.225 52.5605L45.777 56.126C45.9323 57.1235 47.4534 56.6993 47.2982 55.7076L46.7461 52.1421C46.5908 51.1447 45.0697 51.5688 45.225 52.5605Z" fill="#4AAE34" stroke="#4AAE34"/>
<path d="M52.9544 52.1334C52.7416 53.1767 52.5307 54.2218 52.3218 55.269C52.1234 56.2549 53.6445 56.6791 53.8429 55.6874C54.0537 54.6422 54.2646 53.5961 54.4755 52.549C54.6739 51.563 53.1528 51.1388 52.9544 52.1334Z" fill="#4AAE34" stroke="#4AAE34"/>
<path d="M59.7718 55.0799C59.0901 56.0301 58.5587 57.0789 58.1961 58.1897C57.8798 59.1556 59.4009 59.5683 59.7172 58.6081C60.0447 57.6289 60.5229 56.7065 61.1348 55.8738C61.73 55.0512 60.3613 54.2659 59.7718 55.0799Z" fill="#4AAE34" stroke="#4AAE34"/>
<path d="M62.5927 62.7321L65.0196 61.3248C65.8966 60.8146 65.103 59.456 64.2231 59.9662L61.7962 61.3764C60.9192 61.8837 61.7129 63.2451 62.5927 62.7321Z" fill="#4AAE34" stroke="#4AAE34"/>
<path d="M63.602 69.3819C64.2877 69.198 65.0034 69.1532 65.7068 69.2501C66.1295 69.3046 66.4947 68.8488 66.4947 68.4648C66.4903 68.2576 66.406 68.06 66.2593 67.9132C66.1125 67.7664 65.9147 67.6817 65.7068 67.6766C64.861 67.5728 64.0029 67.6371 63.1822 67.8657C62.2045 68.1351 62.6071 69.6514 63.602 69.3819Z" fill="#4AAE34" stroke="#4AAE34"/>
<path d="M61.5576 76.1978L63.4496 77.2353C64.341 77.7226 65.1375 76.3755 64.2461 75.8768L62.3541 74.8392C61.4627 74.352 60.6662 75.6991 61.5576 76.1978Z" fill="#4AAE34" stroke="#4AAE34"/>
<path d="M56.6693 80.1216C57.0553 80.961 57.578 81.731 58.2163 82.4002C58.9121 83.1368 60.0278 82.0248 59.3319 81.2882C58.792 80.7116 58.3527 80.0489 58.0323 79.3277C57.926 79.1479 57.753 79.017 57.5507 78.9633C57.3483 78.9097 57.1329 78.9376 56.9511 79.0411C56.7742 79.1495 56.6458 79.3213 56.5923 79.5213C56.5388 79.7213 56.5643 79.9341 56.6636 80.1159L56.6693 80.1216Z" fill="#4AAE34" stroke="#4AAE34"/>
<path d="M49.9148 82.0278C50.049 82.9373 50.1851 83.8441 50.3231 84.7479C50.3863 85.1721 50.9154 85.3956 51.2921 85.2982C51.4914 85.2393 51.6602 85.1059 51.7631 84.9259C51.866 84.7459 51.8951 84.5331 51.8442 84.3322C51.7091 83.4236 51.5567 82.5179 51.4359 81.6122C51.3726 81.188 50.8407 80.9645 50.4669 81.0619C50.2679 81.1214 50.0996 81.2548 49.9968 81.4347C49.894 81.6145 49.8646 81.8269 49.9148 82.0278Z" fill="#4AAE34" stroke="#4AAE34"/>
<path d="M44.9201 53.2366C45.6333 52.8242 46.4282 52.5719 47.2493 52.4972C48.2528 52.4083 48.2614 50.8348 47.2493 50.9237C46.1502 51.0113 45.0834 51.337 44.1236 51.8781C43.2409 52.3768 44.0345 53.7353 44.9201 53.2366Z" fill="#4AAE34" stroke="#4AAE34"/>
<path d="M52.0744 52.5141C52.7957 52.4187 53.5294 52.5177 54.1993 52.8007C54.3817 52.8996 54.5952 52.9251 54.7958 52.8718C54.9965 52.8184 55.1689 52.6904 55.2776 52.5141C55.382 52.3335 55.4104 52.119 55.3565 51.9176C55.3026 51.7161 55.1709 51.5441 54.9901 51.4393C54.0805 51.009 53.0708 50.8327 52.0686 50.9291C51.8617 50.9356 51.6651 51.0204 51.5187 51.1663C51.3723 51.3122 51.2872 51.5083 51.2808 51.7145C51.2823 51.9226 51.3657 52.1217 51.513 52.2691C51.6604 52.4165 51.8599 52.5005 52.0686 52.5027L52.0744 52.5141Z" fill="#4AAE34" stroke="#4AAE34"/>
<path d="M58.8 55.12L61.1004 56.5846C61.963 57.132 62.7509 55.7705 61.8969 55.2288L59.5965 53.7614C58.7339 53.2139 57.946 54.5754 58.8 55.12Z" fill="#4AAE34" stroke="#4AAE34"/>
<path d="M63.5502 60.2785L64.4128 62.153C64.518 62.3332 64.6905 62.4646 64.8926 62.5183C65.0947 62.572 65.3099 62.5437 65.4911 62.4397C65.6691 62.3322 65.7984 62.1603 65.852 61.96C65.9056 61.7596 65.8794 61.5463 65.7787 61.3648L64.916 59.4903C64.8103 59.3107 64.6378 59.1799 64.436 59.1262C64.2341 59.0725 64.0192 59.1004 63.8378 59.2037C63.6596 59.3117 63.5302 59.4841 63.4766 59.6849C63.423 59.8858 63.4494 60.0995 63.5502 60.2814V60.2785Z" fill="#4AAE34" stroke="#4AAE34"/>
<path d="M65.1345 67.6138C65.1345 68.3093 65.1345 69.0057 65.1345 69.7032C65.1345 70.7149 66.7103 70.7178 66.7103 69.7032C66.7103 69.0057 66.7103 68.3093 66.7103 67.6138C66.7103 66.602 65.1345 66.5992 65.1345 67.6138Z" fill="#4AAE34" stroke="#4AAE34"/>
<path d="M63.947 75.5614L62.9377 77.4646C62.4632 78.3588 63.8262 79.1527 64.3006 78.2585L65.3099 76.3554C65.7844 75.4611 64.4243 74.6672 63.947 75.5614Z" fill="#4AAE34" stroke="#4AAE34"/>
<path d="M58.1646 83.5957L60.2608 82.131C60.4382 82.0231 60.5671 81.8512 60.6206 81.6511C60.6742 81.4509 60.6483 81.2379 60.5484 81.0562C60.4421 80.8772 60.2696 80.7468 60.068 80.6932C59.8663 80.6396 59.6517 80.667 59.4701 80.7696L57.371 82.2342C57.1939 82.3432 57.0654 82.5156 57.012 82.716C56.9585 82.9165 56.9841 83.1297 57.0835 83.3119C57.1897 83.491 57.3622 83.6213 57.5638 83.6749C57.7655 83.7285 57.9802 83.7011 58.1617 83.5986L58.1646 83.5957Z" fill="#4AAE34" stroke="#4AAE34"/>
<path d="M50.2111 85.7877L52.0802 85.1055C52.2786 85.0455 52.4462 84.9117 52.5484 84.7319C52.6506 84.5522 52.6797 84.3401 52.6294 84.1396C52.5723 83.9397 52.4388 83.7701 52.2576 83.6672C52.0765 83.5643 51.862 83.5364 51.6604 83.5893L49.7913 84.2714C49.593 84.3315 49.4253 84.4652 49.3231 84.645C49.2208 84.8248 49.1919 85.0369 49.2421 85.2374C49.2986 85.4377 49.4319 85.6078 49.6133 85.7108C49.7947 85.8138 50.0095 85.8414 50.2111 85.7877Z" fill="#4AAE34" stroke="#4AAE34"/>
<path d="M53.1267 62.8583C52.612 63.9073 52.2641 65.4378 53.5235 66.1257C54.6737 66.7419 56.235 66.1257 56.8245 65.0251C56.9616 64.7599 57.0448 64.4703 57.0693 64.173C57.0937 63.8756 57.059 63.5764 56.9671 63.2925C56.8752 63.0086 56.7279 62.7455 56.5337 62.5185C56.3394 62.2916 56.1021 62.105 55.8354 61.9697C54.7197 61.4596 53.2244 62.1761 53.0462 63.4229C52.9982 63.6237 53.0286 63.8351 53.131 64.0144C53.2335 64.1937 53.4005 64.3276 53.5983 64.3888C53.9663 64.4949 54.5098 64.2598 54.5673 63.8414C54.7024 62.9041 55.8842 63.6178 55.3839 64.3659C55.2286 64.6009 54.5874 64.9821 54.297 64.7557C54.0066 64.5293 54.3689 63.8958 54.4896 63.6522C54.9325 62.7465 53.5724 61.9468 53.1267 62.8583Z" fill="#4AAE34" stroke="#4AAE34"/>
<path d="M55.6629 69.4852C55.1224 70.368 54.6479 71.4227 55.1828 72.4259C55.2925 72.6534 55.4524 72.8531 55.6507 73.0102C55.8489 73.1672 56.0802 73.2774 56.3273 73.3326C56.5744 73.3878 56.8308 73.3864 57.0773 73.3287C57.3238 73.2709 57.554 73.1582 57.7505 72.9991C58.5326 72.3714 59.1163 71.1849 58.7943 70.1874C58.7213 69.958 58.6003 69.7466 58.4393 69.5673C58.2782 69.388 58.0808 69.2449 57.86 69.1473C57.6393 69.0498 57.4003 69.0001 57.1589 69.0015C56.9174 69.0029 56.679 69.0554 56.4594 69.1556C56.0655 69.3247 55.985 69.8979 56.1719 70.2333C56.2802 70.4101 56.4526 70.5386 56.6534 70.592C56.8543 70.6453 57.068 70.6195 57.2502 70.5199C57.0144 70.6202 57.2847 70.5056 57.2876 70.6747C57.2989 70.7909 57.2902 70.9082 57.2617 71.0215C57.2099 71.1906 56.9195 71.824 56.7211 71.8183C56.1086 71.8039 56.9224 70.4282 57.0087 70.2706C57.5377 69.4107 56.1748 68.611 55.6457 69.4766L55.6629 69.4852Z" fill="#4AAE34" stroke="#4AAE34"/>
<path d="M49.9637 68.0921C49.6115 68.2951 49.3386 68.611 49.1893 68.9882C49.04 69.3655 49.0231 69.782 49.1413 70.1701C49.2691 70.5706 49.5449 70.9077 49.9128 71.1131C50.2806 71.3185 50.7131 71.3769 51.1225 71.2764C51.5219 71.1982 51.8795 70.9788 52.1294 70.6586C52.3794 70.3383 52.5048 69.9389 52.4826 69.5338C52.4409 69.0764 52.2246 68.6525 51.8784 68.3495C51.5322 68.0466 51.0825 67.8878 50.6222 67.9058C50.4148 67.9109 50.2174 67.9952 50.0707 68.1414C49.924 68.2876 49.8394 68.4845 49.8343 68.6911C49.8358 68.899 49.9193 69.0978 50.0667 69.2448C50.2141 69.3917 50.4137 69.475 50.6222 69.4765C50.6222 69.4765 50.8752 69.4765 50.7631 69.4765C50.6509 69.4765 50.8464 69.5337 50.7947 69.4907C50.9758 69.6426 50.7458 69.4277 50.8953 69.6054C50.8349 69.5366 50.9759 69.7201 50.9126 69.6255C50.9385 69.6656 50.9126 69.7688 50.9356 69.6255C50.9068 69.7316 50.9356 69.6456 50.8982 69.68C50.8608 69.7143 50.8637 69.7172 50.8982 69.68L50.7976 69.7373C50.7976 69.7373 50.7401 69.7373 50.7573 69.7373C50.8493 69.7373 50.6509 69.7373 50.6308 69.7373C50.7717 69.7373 50.5646 69.6713 50.6653 69.7373C50.5273 69.6427 50.648 69.723 50.6653 69.7573C50.5733 69.6083 50.6653 69.8376 50.6279 69.6656C50.6538 69.8032 50.6279 69.5939 50.6279 69.5653C50.6279 69.7 50.6509 69.5051 50.6624 69.4707C50.6279 69.5624 50.7056 69.4707 50.6624 69.4707C50.6193 69.4707 50.6451 69.4965 50.7027 69.4363C50.6451 69.4822 50.6567 69.4793 50.7343 69.4363C51.6315 68.9634 50.835 67.6048 49.9378 68.0806L49.9637 68.0921Z" fill="#4AAE34" stroke="#4AAE34"/>
<path d="M65.0829 16.6069C65.2554 17.7152 65.427 18.8254 65.5976 19.9375C65.7529 20.9349 67.2711 20.5107 67.1187 19.519C66.9462 18.4108 66.7746 17.3006 66.604 16.1885C66.4487 15.191 64.9276 15.6152 65.0829 16.6069Z" fill="#4AAE34" stroke="#4AAE34"/>
<path d="M59.6942 19.8654L61.6208 21.9175C62.3166 22.657 63.4294 21.545 62.7364 20.8055L60.8099 18.7533C60.114 18.011 59.0012 19.1259 59.6942 19.8654Z" fill="#4AAE34" stroke="#4AAE34"/>
<path d="M56.2553 27.6591L58.984 28.2839C59.9703 28.5104 60.393 26.997 59.4038 26.7677L56.6751 26.1428C55.6888 25.9164 55.2661 27.4326 56.2553 27.6591Z" fill="#4AAE34" stroke="#4AAE34"/>
<path d="M59.5447 34.0737L61.6093 32.354C61.7561 32.206 61.8384 32.0061 61.8384 31.7979C61.8384 31.5898 61.7561 31.39 61.6093 31.2419C61.4593 31.0983 61.2595 31.0181 61.0515 31.0181C60.8435 31.0181 60.6436 31.0983 60.4936 31.2419L58.4291 32.9616C58.2823 33.1097 58.2 33.3095 58.2 33.5176C58.2 33.7258 58.2823 33.9257 58.4291 34.0737C58.579 34.2174 58.7789 34.2976 58.9869 34.2976C59.1949 34.2976 59.3948 34.2174 59.5447 34.0737Z" fill="#4AAE34" stroke="#4AAE34"/>
<path d="M64.4531 34.5549L63.6336 37.487C63.3633 38.4644 64.8844 38.8829 65.1576 37.9055C65.4307 36.9281 65.701 35.9508 65.9742 34.9734C66.2474 33.996 64.7234 33.5804 64.4531 34.5549Z" fill="#4AAE34" stroke="#4AAE34"/>
<path d="M69.7412 34.165C69.9479 35.1637 70.2702 36.1352 70.7015 37.0599C71.1214 37.9799 72.4814 37.1802 72.0645 36.2659C71.7 35.46 71.4308 34.6145 71.2622 33.7465C71.0638 32.7548 69.537 33.1733 69.7412 34.165Z" fill="#4AAE34" stroke="#4AAE34"/>
<path d="M73.9362 32.0765L75.9893 33.2C76.8807 33.6872 77.6772 32.3401 76.7858 31.8414L74.7327 30.7179C73.8413 30.2307 73.0448 31.5778 73.9362 32.0765Z" fill="#4AAE34" stroke="#4AAE34"/>
<path d="M75.7795 27.2347L78.5025 26.9797C79.506 26.8879 79.5147 25.3144 78.5025 25.409L75.7795 25.6612C74.7788 25.7558 74.7673 27.3293 75.7795 27.2347Z" fill="#4AAE34" stroke="#4AAE34"/>
<path d="M72.5071 21.1929C72.9844 20.4191 73.4637 19.6462 73.9448 18.8742C74.4768 18.0144 73.1138 17.2176 72.5819 18.0803L71.1442 20.3991C70.6093 21.2589 71.9752 22.0556 72.5071 21.1929Z" fill="#4AAE34" stroke="#4AAE34"/>
<path d="M12.3675 34.3601C12.2099 36.937 12.2012 39.5208 12.3416 42.0988C12.3991 43.1048 13.9748 43.1105 13.9202 42.0988C13.7799 39.5208 13.7885 36.937 13.9461 34.3601C14.0065 33.3483 12.4279 33.354 12.3675 34.3601Z" fill="#4AAE34" stroke="#4AAE34"/>
<path d="M16.6719 34.1592C16.6347 36.8229 16.8271 39.4847 17.247 42.1156C17.4051 43.113 18.9262 42.6889 18.7681 41.6972C18.3764 39.2041 18.1994 36.6823 18.239 34.1592C18.239 33.1445 16.6748 33.1445 16.6604 34.1592H16.6719Z" fill="#4AAE34" stroke="#4AAE34"/>
<path d="M21.6809 33.9529C21.9838 36.4579 22.2847 38.9639 22.5838 41.4709C22.7017 42.4654 24.2803 42.4769 24.1595 41.4709C23.8605 38.9658 23.5605 36.4598 23.2595 33.9529C23.1387 32.9612 21.5601 32.9469 21.6809 33.9529Z" fill="#4AAE34" stroke="#4AAE34"/>
<path d="M26.5434 33.7498L27.0524 38.7828C27.1357 39.6226 26.9431 41.2907 27.6965 41.8726C27.8478 42.0136 28.0472 42.0921 28.2543 42.0921C28.4614 42.0921 28.6608 42.0136 28.8121 41.8726C28.9385 41.7584 29.0295 41.6105 29.0743 41.4465C29.1191 41.2824 29.1159 41.1091 29.0652 40.9468C29.0177 40.7818 28.9178 40.6366 28.7803 40.5332C28.6429 40.4298 28.4754 40.3738 28.3032 40.3735H28.2399C27.2278 40.4165 27.222 41.9901 28.2399 41.9471H28.3032L27.5441 41.3738L27.5613 41.477C27.6303 41.2219 27.6965 40.9668 27.7655 40.7117L27.6965 40.7719H28.8121C28.6626 40.6573 28.7144 39.6254 28.6856 39.3388L28.4872 37.3813C28.3665 36.1717 28.2447 34.9603 28.122 33.7469C28.0214 32.7495 26.4428 32.7409 26.5434 33.7469V33.7498Z" fill="#4AAE34" stroke="#4AAE34"/>
<path d="M65.7097 25.1168C66.7247 25.1168 66.7276 23.5461 65.7097 23.5461C64.6918 23.5461 64.6918 25.1168 65.7097 25.1168Z" fill="#4AAE34" stroke="#4AAE34"/>
<path d="M64.0304 29.0895C65.0454 29.0895 65.0483 27.5188 64.0304 27.5188C63.0125 27.5188 63.0154 29.0895 64.0304 29.0895Z" fill="#4AAE34" stroke="#4AAE34"/>
<path d="M69.9048 26.7903C70.9198 26.7903 70.9227 25.2168 69.9048 25.2168C68.8869 25.2168 68.8869 26.7903 69.9048 26.7903Z" fill="#4AAE34" stroke="#4AAE34"/>
<path d="M68.2256 30.7571H68.4355C69.4506 30.7571 69.4534 29.1836 68.4355 29.1836H68.2256C67.2106 29.1836 67.2106 30.7571 68.2256 30.7571Z" fill="#4AAE34" stroke="#4AAE34"/>
<path d="M13.414 56.5213C12.72 60.7632 12.028 65.0062 11.3379 69.25C10.7829 72.6493 9.3797 76.7652 9.91741 80.2246C10.8548 86.2752 20.7952 84.3863 24.8151 83.7386C25.8157 83.5781 25.3901 82.0619 24.3952 82.2224C21.7412 82.6494 17.9687 83.3144 15.26 82.6351C9.60113 81.2163 11.8411 75.9053 12.4449 72.2136C13.2731 67.1233 14.1031 62.0311 14.9351 56.9369C15.0961 55.9481 13.5779 55.521 13.414 56.5213Z" fill="#4AAE34" stroke="#4AAE34"/>
<path d="M16.2837 53.0876C17.5661 51.9727 20.479 52.3539 22.0518 52.2766L27.5152 52.0099C30.0542 51.8838 30.8766 51.7234 31.9376 54.1453C32.5127 55.4551 32.6651 57.1519 32.9871 58.5477C33.7136 61.7005 34.3846 64.8629 34.9999 68.0348C35.437 70.2647 38.6661 80.6689 33.8497 80.2189C32.8376 80.1272 32.8462 81.6979 33.8497 81.7924C37.26 82.1106 38.4505 79.4823 38.114 76.5272C37.4239 70.5742 35.9632 64.5982 34.6319 58.7569C33.9303 55.6873 34.0568 50.6371 30.2296 50.2988C27.1442 50.0122 23.7541 50.617 20.6515 50.7689C18.6387 50.8664 16.7006 50.6142 15.1364 51.9727C14.3715 52.6405 15.4901 53.7497 16.2521 53.0848L16.2837 53.0876Z" fill="#4AAE34" stroke="#4AAE34"/>
<path d="M11.3264 30.038L14.9811 34.1194C15.3951 34.578 16.0708 33.8988 15.6597 33.4431L12.0079 29.3616C11.5967 28.903 10.9181 29.5823 11.3293 30.038H11.3264Z" fill="#4AAE34" stroke="#4AAE34"/>
<path d="M10.7426 26.206C12.3784 27.727 13.8899 29.3755 15.2628 31.1359C16.3842 32.5689 17.474 33.8358 19.1849 34.5351C19.76 34.7701 20.0073 33.8444 19.4408 33.6122C17.5747 32.8498 16.4964 31.1244 15.2801 29.6196C14.0941 28.1647 12.8044 26.7969 11.4212 25.5267C10.9698 25.1083 10.2883 25.7847 10.7426 26.206Z" fill="#4AAE34" stroke="#4AAE34"/>
<path d="M5.79119 92.4979C6.34999 93.7777 7.20889 94.9052 8.29569 95.7854C8.77014 96.1694 9.44586 95.4988 8.97429 95.1061C7.95009 94.2808 7.14283 93.2194 6.6222 92.0135C6.37491 91.4403 5.54678 91.9361 5.79119 92.4979Z" fill="#4AAE34" stroke="#4AAE34"/>
<path d="M8.74725 92.4631C9.59262 93.6249 10.4361 94.7866 11.2776 95.9484C11.637 96.4442 12.4709 95.9656 12.1057 95.4669L9.57825 91.9788C9.21882 91.4829 8.38494 91.9615 8.74725 92.4631Z" fill="#4AAE34" stroke="#4AAE34"/>
<path d="M11.8528 92.4922C12.6695 93.5527 13.4851 94.6151 14.2998 95.6794C14.6708 96.161 15.5047 95.6795 15.1309 95.1951L12.681 92.0079C12.31 91.5263 11.4762 92.0078 11.8528 92.4922Z" fill="#4AAE34" stroke="#4AAE34"/>
<path d="M15.4152 93.1285C16.0893 94.3491 17.0037 95.4215 18.1037 96.2813C18.5839 96.6567 19.2539 95.9946 18.7824 95.6048C17.7458 94.8029 16.8822 93.8008 16.2433 92.6584C15.9558 92.1195 15.1133 92.601 15.4152 93.1399V93.1285Z" fill="#4AAE34" stroke="#4AAE34"/>
<path d="M19.0241 93.8622C19.627 94.3384 20.0997 94.9584 20.3985 95.665C20.4627 95.7743 20.5678 95.8537 20.6907 95.886C20.8135 95.9182 20.9442 95.9006 21.0541 95.837C21.1626 95.7719 21.2414 95.6672 21.2736 95.5452C21.3058 95.4231 21.289 95.2934 21.2267 95.1835C20.8945 94.3993 20.3717 93.7098 19.7055 93.1772C19.2253 92.7931 18.5554 93.4637 19.0241 93.8535V93.8622Z" fill="#4AAE34" stroke="#4AAE34"/>
<path d="M55.2862 25.5804C54.951 26.7463 54.943 27.9815 55.2633 29.1516C55.5249 30.1261 57.046 29.7248 56.7843 28.7331C56.5389 27.837 56.5468 26.8907 56.8074 25.9988C57.0949 25.0243 55.5652 24.6087 55.2862 25.5804Z" fill="#4AAE34" stroke="#4AAE34"/>
<path d="M57.1726 33.3371C57.4367 34.0346 57.874 34.6539 58.4435 35.1371C58.5942 35.2794 58.7938 35.3587 59.0014 35.3587C59.2089 35.3587 59.4086 35.2794 59.5592 35.1371C59.706 34.989 59.7883 34.7893 59.7883 34.5811C59.7883 34.3729 59.706 34.1731 59.5592 34.025C59.1833 33.734 58.8867 33.3536 58.6966 32.9187C58.6357 32.7212 58.5016 32.5543 58.3215 32.452C58.1414 32.3498 57.929 32.3199 57.7275 32.3684C57.5263 32.4253 57.3557 32.5588 57.2524 32.74C57.1491 32.9213 57.1214 33.1358 57.1754 33.3371H57.1726Z" fill="#4AAE34" stroke="#4AAE34"/>
<path d="M63.1907 38.6938C63.934 38.9251 64.7176 38.9983 65.4911 38.9088C65.6984 38.9023 65.8955 38.8171 66.042 38.6706C66.1884 38.5241 66.2732 38.3273 66.2789 38.1206C66.2789 37.7365 65.9166 37.2837 65.4911 37.3353C64.8564 37.4196 64.2109 37.3658 63.599 37.1776C62.6271 36.8767 62.2102 38.3929 63.1792 38.6938H63.1907Z" fill="#4AAE34" stroke="#4AAE34"/>
<path d="M71.3486 38.5905L73.2349 37.7507C73.4151 37.6453 73.5463 37.4734 73.6002 37.2722C73.654 37.071 73.6261 36.8567 73.5224 36.6759C73.4142 36.499 73.2417 36.3706 73.0409 36.3172C72.8401 36.2639 72.6264 36.2896 72.4441 36.3893L70.5578 37.2291C70.3774 37.335 70.2461 37.5074 70.1923 37.7091C70.1385 37.9108 70.1665 38.1255 70.2703 38.3068C70.3791 38.4838 70.552 38.6123 70.7533 38.6657C70.9546 38.719 71.1688 38.6932 71.3515 38.5934L71.3486 38.5905Z" fill="#4AAE34" stroke="#4AAE34"/>
<path d="M76.7428 31.8754C76.5032 32.4944 76.2655 33.1117 76.0297 33.727C75.9749 33.9276 76.0019 34.1417 76.1048 34.3227C76.2076 34.5036 76.3781 34.6366 76.5789 34.6928C76.7805 34.7438 76.994 34.7153 77.175 34.6133C77.356 34.5114 77.4906 34.3438 77.5508 34.1454L78.2639 32.2939C78.3179 32.0929 78.2901 31.8788 78.1868 31.698C78.0835 31.5172 77.9128 31.3842 77.7118 31.3279C77.5107 31.2771 77.2976 31.3057 77.117 31.4077C76.9365 31.5097 76.8024 31.6772 76.7428 31.8754Z" fill="#4AAE34" stroke="#4AAE34"/>
<path d="M78.1142 25.1828C78.3372 25.8523 78.4404 26.5556 78.419 27.2607C78.396 28.2725 79.9718 28.2725 79.9976 27.2607C80.0186 26.4151 79.8961 25.5721 79.6353 24.7672C79.3248 23.807 77.8008 24.2168 78.1142 25.1828Z" fill="#4AAE34" stroke="#4AAE34"/>
<path d="M72.0155 18.3471C72.7717 18.5585 73.481 18.9106 74.1059 19.3847C74.2873 19.488 74.5023 19.5158 74.7042 19.4622C74.906 19.4085 75.0785 19.2777 75.1842 19.0981C75.2843 18.916 75.3103 18.7026 75.2568 18.5019C75.2033 18.3013 75.0743 18.1289 74.8967 18.0204C74.1556 17.4733 73.3191 17.0679 72.4296 16.8252C71.4519 16.5529 71.0321 18.0691 72.0098 18.3414L72.0155 18.3471Z" fill="#4AAE34" stroke="#4AAE34"/>
<path d="M65.2208 16.9451C65.481 16.706 65.7918 16.5283 66.1303 16.4251C66.4688 16.3219 66.8261 16.2959 67.176 16.349C67.3845 16.3475 67.5841 16.2642 67.7315 16.1173C67.8789 15.9703 67.9624 15.7714 67.9639 15.5636C67.9595 15.3567 67.8751 15.1595 67.7283 15.0132C67.5815 14.8669 67.3836 14.7827 67.176 14.7783C66.6181 14.7222 66.0546 14.7874 65.5244 14.9695C64.9942 15.1516 64.51 15.4462 64.1051 15.833C63.3632 16.5238 64.4789 17.6359 65.2208 16.9451Z" fill="#4AAE34" stroke="#4AAE34"/>
<path d="M59.3434 20.2844L60.9939 18.9946C61.3304 18.7338 61.2815 18.1577 60.9939 17.8826C60.8433 17.7402 60.6437 17.6609 60.4361 17.6609C60.2286 17.6609 60.0289 17.7402 59.8783 17.8826L58.2278 19.1723C57.8913 19.4332 57.9402 20.0092 58.2278 20.2844C58.3784 20.4267 58.5781 20.5061 58.7856 20.5061C58.9932 20.5061 59.1928 20.4267 59.3434 20.2844Z" fill="#4AAE34" stroke="#4AAE34"/>
</svg>
