<svg width="86" height="82" viewBox="0 0 86 82" fill="none" xmlns="http://www.w3.org/2000/svg">
<path d="M33.3485 2.01339C16.9899 5.7371 4.41135 18.673 1.57781 35.412C-1.09507 51.1981 5.60609 67.4399 19.5898 75.5139C34.0204 83.8466 53.0255 82.326 66.831 73.3961C81.6618 63.8045 88.623 45.4536 83.1312 28.394C76.3102 7.19892 54.0509 -2.26917 33.3485 2.00456C32.3407 2.21339 32.7643 3.76936 33.775 3.56053C51.8074 -0.163175 71.1426 6.68125 79.6082 23.9174C87.2033 39.4004 82.9851 58.5042 69.7025 69.3253C57.5797 79.1993 39.8014 82.2671 25.2423 76.461C10.6364 70.6313 1.82899 56.0953 2.62647 40.4123C3.54664 22.3261 16.356 7.52542 33.775 3.56053C34.7828 3.32816 34.3563 1.78397 33.3485 2.01339Z" fill="#4AAE34" stroke="#4AAE34"/>
<path d="M81.2294 25.8821C79.1201 26.9163 76.9121 27.7323 74.6392 28.3175C69.9653 29.5205 66.7053 28.1469 62.3264 26.5528C59.7763 25.6262 57.1151 24.1586 54.3779 24.0085C51.7167 23.8615 48.965 24.332 46.3505 24.7762C41.703 25.5615 35.5422 26.2322 32.5012 30.2677C30.5148 32.9149 24.7776 42.5035 29.9569 44.8566C37.2598 48.1714 37.8966 31.6383 45.848 38.4328C46.628 39.1004 47.7673 37.9651 46.9815 37.2915C45.2697 35.8208 42.7838 34.5678 40.4965 35.3708C37.1196 36.5473 36.4682 40.227 34.0699 42.3241C32.4165 43.7624 30.0445 44.2419 29.6384 41.0858C29.4982 40.0152 30.0182 38.6651 30.3658 37.6562C31.1451 35.4138 32.2559 33.3027 33.6609 31.3941C35.7466 28.5793 39.2112 27.9557 42.4595 27.1969C46.0672 26.3586 49.8851 25.5939 53.6038 25.6086C57.0887 25.6233 60.7285 27.6675 63.9623 28.844C67.8065 30.25 70.6226 30.9442 74.6772 29.9647C77.2236 29.3342 79.6947 28.4279 82.0473 27.2617C82.9762 26.8058 82.1641 25.4144 81.2411 25.8674L81.2294 25.8821Z" fill="#4AAE34" stroke="#4AAE34"/>
<path d="M42.3779 36.7377C47.2358 39.4878 51.3108 43.1733 55.7072 46.5616C59.7968 49.7059 65.163 53.6385 70.6052 53.2855C70.3773 52.8796 70.1466 52.4766 69.9158 52.0707C64.4562 59.4005 53.9429 51.5531 49.4063 47.0382C48.6731 46.3058 47.5396 47.447 48.2728 48.1794C53.639 53.5179 65.0433 61.2859 71.2975 52.8855C71.6598 52.4031 71.1748 51.6354 70.6052 51.6707C64.719 52.0561 58.5934 46.9822 54.3518 43.3938C50.8464 40.4172 47.2125 37.6142 43.1988 35.3435C42.2991 34.8347 41.4899 36.2259 42.3896 36.7377H42.3779Z" fill="#4AAE34" stroke="#4AAE34"/>
<path d="M66.3724 52.6771C69.3549 52.586 73.0035 51.9094 75.4105 49.9946C76.6112 49.0416 76.4241 48.7681 77.9139 48.3828C79.8511 47.9354 81.753 47.3455 83.6044 46.618C84.5421 46.2239 84.1302 44.662 83.1779 45.062C81.0192 45.968 77.5898 46.0092 75.7114 47.3092C74.3356 48.2593 73.5585 49.4093 71.8496 50.0182C70.0879 50.6467 68.2404 50.9979 66.3724 51.0594C65.3412 51.0918 65.3383 52.7066 66.3724 52.6742V52.6771Z" fill="#4AAE34" stroke="#4AAE34"/>
<path d="M42.5502 51.1972C47.1657 55.8356 59.7851 66.3979 64.7774 56.4121C65.2418 55.4885 63.8601 54.6709 63.3957 55.6003C59.0694 64.2595 47.5892 53.9797 43.6836 50.056C42.9533 49.3206 41.8199 50.4618 42.5502 51.1972Z" fill="#4AAE34" stroke="#4AAE34"/>
<path d="M38.9162 55.9418C43.5171 59.4067 52.228 66.3688 57.6117 60.5833C58.3158 59.8273 57.1853 58.6832 56.4784 59.4421C51.898 64.3746 43.6894 57.5272 39.7342 54.5477C38.9075 53.9271 38.1071 55.3271 38.925 55.9418H38.9162Z" fill="#4AAE34" stroke="#4AAE34"/>
<path d="M42.0857 65.3686C42.8274 65.8735 43.6743 66.2 44.5612 66.3229C45.4481 66.4458 46.3512 66.3619 47.2007 66.0775C49.0381 65.4451 50.1686 63.8833 51.1822 62.3067C51.7431 61.4243 50.3585 60.6214 49.7976 61.492C48.1939 63.9921 45.8131 65.9039 42.8949 63.9744C42.0185 63.4038 41.2269 64.8009 42.0857 65.3686Z" fill="#4AAE34" stroke="#4AAE34"/>
<path d="M44.6446 65.9099C44.2356 66.301 43.7473 66.5982 43.2132 66.781C42.6792 66.9638 42.1121 67.0278 41.5511 66.9688C39.8919 66.7746 37.5841 65.8451 38.2618 63.8509C38.4897 63.1862 38.8052 62.2862 39.6173 62.2627C40.4294 62.2391 40.7858 62.9597 41.0224 63.5891C41.2696 64.324 41.3921 65.0957 41.3846 65.8716C41.3846 66.9099 42.9971 66.9128 42.9884 65.8716C42.9884 64.3392 42.6758 62.3421 41.4314 61.3067C39.5238 59.7243 37.6192 61.1273 36.8597 63.0362C35.8519 65.5716 37.2278 67.2276 39.6173 68.1188C41.7615 68.9188 44.0779 68.707 45.778 67.051C46.52 66.3304 45.3866 65.1892 44.6446 65.9099Z" fill="#4AAE34" stroke="#4AAE34"/>
<path d="M36.179 64.6926C36.3046 64.5867 36.0476 64.7162 35.9658 64.725C35.7797 64.7476 35.5923 64.7584 35.4049 64.7574C34.8881 64.7604 34.3813 64.6144 33.9443 64.3367C32.7174 63.4838 33.2403 61.319 34.1459 60.4072C34.7447 59.8189 35.843 59.5395 36.1439 60.5101C36.3424 61.2846 36.4222 62.085 36.3806 62.8838C36.3806 63.322 36.4624 64.322 36.1644 64.6926C35.5217 65.4927 36.6493 66.6428 37.2978 65.8339C37.9464 65.025 37.9843 63.775 37.9872 62.7514C37.9872 61.6837 37.958 60.3366 37.4234 59.3777C36.5003 57.7247 34.1546 58.0953 33.0124 59.2659C31.5051 60.816 30.9677 63.922 32.7583 65.4427C33.8538 66.381 36.106 66.8398 37.2978 65.8251C38.1012 65.1633 36.9619 64.025 36.179 64.6926Z" fill="#4AAE34" stroke="#4AAE34"/>
<path d="M28.4584 59.9394C28.6366 58.8658 29.7641 57.2687 31.0203 57.3275C32.0894 57.3805 32.0748 59.2952 32.0105 60.06C31.9375 60.9835 31.47 63.216 30.1497 62.5689C29.6446 62.2886 29.2239 61.8767 28.9314 61.3762C28.639 60.8758 28.4856 60.3053 28.4875 59.7247C28.5401 58.6864 26.9364 58.6893 26.8838 59.7247C26.7962 61.5542 28.1808 63.7161 29.9715 64.2337C32.2617 64.8955 33.3834 62.2248 33.5821 60.3865C33.7603 58.7423 33.439 55.951 31.3532 55.7333C29.2675 55.5156 27.2344 57.5717 26.9131 59.51C26.7466 60.5247 28.2889 60.9777 28.4584 59.9394Z" fill="#4AAE34" stroke="#4AAE34"/>
<path d="M26.9863 59.3781C26.7204 59.8134 25.4264 59.1692 25.1751 58.9633C24.3222 58.2574 25.2423 57.1251 25.8061 56.4927C26.0836 56.1838 26.7204 55.4691 27.1878 55.6103C27.5296 55.7162 27.5471 56.1309 27.5676 56.4545C27.6108 57.4623 27.4103 58.4656 26.9833 59.3781C26.5422 60.3105 27.9239 61.1429 28.365 60.1929C29.0398 58.7575 29.6328 56.5191 28.8382 55.022C27.7486 52.9631 25.3621 54.4337 24.3543 55.7367C23.2092 57.2074 22.5782 59.1192 24.3543 60.3575C25.4672 61.1281 27.512 61.5753 28.3563 60.1929C28.9113 59.3046 27.5238 58.4928 26.9863 59.3781Z" fill="#4AAE34" stroke="#4AAE34"/>
<path d="M2.18249 44.9566C5.7288 46.7979 9.34527 48.4862 13.0522 49.9568C17.028 51.5481 21.3513 52.807 23.9102 56.5248C24.4945 57.3719 25.8849 56.566 25.2949 55.7101C23.3552 52.8952 20.6794 51.3245 17.5801 50.0157C12.6608 47.9361 7.74441 46.0243 2.99166 43.5448C2.07733 43.0712 1.26524 44.4624 2.18249 44.9389V44.9566Z" fill="#4AAE34" stroke="#4AAE34"/>
<path d="M7.72967 22.0258C10.3792 24.8465 13.8875 25.9612 17.5156 26.9878C22.5334 28.393 27.6252 29.5154 32.7671 30.3497C33.7749 30.5174 34.2102 28.9614 33.1936 28.7938C28.9082 28.0878 24.6579 27.2142 20.4543 26.1142C16.3647 25.0436 11.8807 24.0935 8.86312 20.8845C8.15328 20.1316 7.01982 21.2728 7.72967 22.0258Z" fill="#4AAE34" stroke="#4AAE34"/>
<path d="M66.6791 8.40496C58.0675 21.4291 48.2757 33.6091 39.296 46.3656C32.7993 55.5778 26.5188 64.9899 19.7241 73.9874C19.099 74.8139 20.4924 75.6199 21.1088 74.8022C27.8947 65.8018 34.1781 56.3925 40.6807 47.1803C49.6749 34.4238 59.455 22.2409 68.0667 9.21971C68.6509 8.33731 67.2517 7.54315 66.682 8.40496H66.6791Z" fill="#4AAE34" stroke="#4AAE34"/>
<path d="M1.88741 39.1654C3.07145 41.2343 4.08276 43.3987 4.91086 45.6362C5.12995 46.2245 6.07932 45.9686 5.85147 45.3744C4.9986 43.0565 3.95506 40.8143 2.73167 38.6712C2.66659 38.5584 2.55967 38.4764 2.43449 38.443C2.30931 38.4096 2.17616 38.4277 2.06421 38.4932C1.95226 38.5587 1.8707 38.6664 1.83756 38.7924C1.80442 38.9185 1.82233 39.0526 1.88741 39.1654Z" fill="#4AAE34" stroke="#4AAE34"/>
<path d="M2.25249 35.632C4.32068 39.3576 6.3178 43.1225 8.24382 46.9266C8.53594 47.4913 9.36851 46.9942 9.08516 46.4295C7.15913 42.6274 5.16202 38.8624 3.09383 35.1348C2.7871 34.5819 1.94577 35.079 2.25249 35.632Z" fill="#4AAE34" stroke="#4AAE34"/>
<path d="M3.01508 33.123L10.7474 48.1913C10.9957 48.6766 11.8254 48.3413 11.6384 47.8119L11.5216 47.4766C11.3113 46.8883 10.3706 47.1412 10.5809 47.7383C10.6189 47.8501 10.6569 47.9618 10.6978 48.0736L11.5741 47.6942L3.84179 32.6288C3.54968 32.067 2.71126 32.5612 3.00046 33.123H3.01508Z" fill="#4AAE34" stroke="#4AAE34"/>
<path d="M79.5089 28.1405C80.9407 29.5683 82.1801 31.1791 83.1953 32.9319C83.2643 33.0362 83.3701 33.11 83.4913 33.1383C83.6125 33.1666 83.7399 33.1472 83.8473 33.0841C83.9548 33.021 84.0342 32.919 84.0694 32.7988C84.1046 32.6787 84.0929 32.5495 84.0367 32.4378C82.9815 30.6081 81.6908 28.9268 80.1982 27.4375C79.7513 26.9934 79.0619 27.6876 79.5089 28.1317V28.1405Z" fill="#4AAE34" stroke="#4AAE34"/>
<path d="M77.7678 28.8231C79.9695 31.347 81.9149 34.0863 83.5752 37C83.6421 37.1093 83.7488 37.188 83.8726 37.219C83.9964 37.25 84.1274 37.231 84.2374 37.166C84.3475 37.101 84.4278 36.9952 84.4613 36.8712C84.4948 36.7473 84.4786 36.6151 84.4164 36.5029C82.7124 33.5184 80.7161 30.7132 78.4573 28.129C78.0425 27.6525 77.356 28.3496 77.7678 28.8231Z" fill="#4AAE34" stroke="#4AAE34"/>
<path d="M75.4952 29.2409C78.9655 32.5322 81.0454 36.9148 83.9928 40.6326C84.3872 41.1238 85.0737 40.4267 84.6823 39.9355C81.726 36.2147 79.6637 31.8439 76.1845 28.5467C75.7288 28.1143 75.0365 28.8056 75.4952 29.2409Z" fill="#4AAE34" stroke="#4AAE34"/>
</svg>
