<svg width="75" height="98" viewBox="0 0 75 98" fill="none" xmlns="http://www.w3.org/2000/svg">
<path d="M10.9608 37.021C7.74058 35.1465 3.64208 36.9622 3.32883 40.8727C2.98924 45.0594 6.98528 47.2423 10.6476 46.6606L9.6376 45.882C9.74884 52.7364 15.6331 58.1747 21.5555 60.4898C28.9825 63.3955 37.9319 63.3984 45.6517 61.8178C50.8832 60.7484 56.1907 58.492 59.5632 54.179C60.9918 52.3515 62.2272 50.0393 62.4292 47.6742L61.4134 48.4528C64.8708 49.4165 69.0249 47.7917 68.7673 43.4376C68.6004 40.4996 64.8444 38.1169 62.0984 38.8984C61.106 39.1922 61.5276 40.7376 62.5229 40.4526C64.3614 39.9296 66.396 41.4368 66.7883 43.1174C67.526 46.2787 64.5165 47.6448 61.8408 46.8986C61.7217 46.868 61.5973 46.8649 61.4768 46.8893C61.3563 46.9137 61.2429 46.9652 61.145 47.0397C61.047 47.1143 60.9671 47.2101 60.9112 47.3199C60.8553 47.4298 60.8248 47.5509 60.822 47.6742C60.6171 50.0922 58.8313 52.8275 57.0573 54.5903C51.2959 60.3106 42.0889 61.3007 34.4072 61.1362C25.531 60.9452 11.4292 57.2198 11.2419 45.8879C11.2395 45.7647 11.2095 45.6436 11.1539 45.5337C11.0983 45.4239 11.0187 45.328 10.9209 45.2534C10.8232 45.1788 10.71 45.1274 10.5896 45.1029C10.4693 45.0785 10.345 45.0817 10.226 45.1123C3.00681 46.261 4.25392 34.9879 10.1587 38.4195C11.0545 38.9395 11.8625 37.5381 10.9696 37.0269L10.9608 37.021Z" fill="#4AAE34" stroke="#4AAE34"/>
<path d="M29.6618 62.0588C28.6723 71.7748 17.3663 71.9364 10.6974 75.6912C5.06198 78.8642 4.213 84.5522 4.10469 90.5311C4.08419 91.5682 5.69139 91.5682 5.70896 90.5311C5.788 86.3209 5.94023 81.6935 9.27758 78.6409C12.1758 75.9967 16.3036 75.2123 19.8751 73.9166C25.4608 71.8953 30.6191 68.4255 31.269 62.0588C31.3744 61.0276 29.7672 61.0335 29.6618 62.0588Z" fill="#4AAE34" stroke="#4AAE34"/>
<path d="M42.616 62.5232C41.8987 70.4734 48.228 73.9109 54.8412 75.8177C58.9397 76.9929 63.5447 78.077 65.9657 81.9698C68.5741 86.1389 67.9506 91.586 67.4295 96.2309C67.3124 97.2592 68.9196 97.2534 69.0367 96.2309C69.8213 89.2444 69.9823 81.1325 63.1202 77.1339C56.1645 73.0765 43.181 73.9344 44.2115 62.529C44.3052 61.4978 42.6979 61.5037 42.6043 62.529L42.616 62.5232Z" fill="#4AAE34" stroke="#4AAE34"/>
<path d="M24.3132 71.7368C26.8923 74.0461 30.0891 74.2047 33.4089 74.24C38.1837 74.2929 42.8647 74.1048 47.3438 72.2921C48.2894 71.9072 47.8766 70.3501 46.9164 70.7379C43.3566 72.1775 39.6708 72.5859 35.8534 72.6329C32.396 72.674 28.2067 73.0677 25.449 70.5969C24.6791 69.9064 23.5403 71.0434 24.3132 71.7368Z" fill="#4AAE34" stroke="#4AAE34"/>
<path d="M9.99481 37.3856C12.2226 41.0581 15.6068 43.8756 19.7932 45.0038C25.171 46.4523 30.8825 44.71 36.3657 45.0038C45.3473 45.5004 56.1088 47.886 62.4 39.5391C63.0236 38.7106 61.6301 37.9085 61.0124 38.7253C55.2013 46.4376 44.551 43.861 36.3657 43.3909C31.9745 43.1411 27.6535 44.1812 23.2915 43.9168C18.2591 43.623 13.9791 40.8407 11.3824 36.5571C10.8438 35.6757 9.45615 36.4807 9.99481 37.3709V37.3856Z" fill="#4AAE34" stroke="#4AAE34"/>
<path d="M19.2104 44.5191C18.3354 48.1681 16.6557 51.5737 14.2952 54.4848C13.6423 55.2781 14.7724 56.4239 15.431 55.6248C17.9805 52.5102 19.8021 48.8619 20.762 44.948C21.0109 43.9432 19.4622 43.5113 19.2104 44.5191Z" fill="#4AAE34" stroke="#4AAE34"/>
<path d="M52.6045 44.6922C52.6824 48.7406 54.1007 52.6478 56.6357 55.7979C57.2797 56.6088 58.4097 55.463 57.7715 54.658C55.5225 51.8265 54.2707 48.3275 54.2117 44.7069C54.1854 43.6727 52.5811 43.6698 52.6045 44.7069V44.6922Z" fill="#4AAE34" stroke="#4AAE34"/>
<path d="M20.1766 72.2333C20.1766 72.2333 4.16028 70.9494 2.23692 59.3736C0.313548 47.7979 -1.60689 27.2259 15.0506 10.5086C31.7081 -6.20865 56.6914 0.857263 66.9435 18.2238C77.1956 35.5904 75.2722 56.1594 67.5846 64.5181C59.897 72.8767 50.2948 73.4438 50.2948 73.4438C50.2948 73.4438 42.2764 68.6989 43.2395 61.9473C53.4126 60.0494 59.4725 55.2398 61.8174 47.8008C68.8668 49.0877 70.7873 40.729 63.4071 39.3893L63.0997 33.0138C63.0997 33.0138 61.8174 34.2977 59.2559 33.6543C56.6943 33.0109 56.0532 22.0815 56.0532 22.0815C56.0532 22.0815 50.286 31.7269 47.0833 31.0835C43.8806 30.4401 49.0038 20.1541 49.0038 20.1541C49.0038 20.1541 37.4723 29.7967 31.067 29.7967C24.6616 29.7967 35.549 16.937 35.549 16.937C35.549 16.937 18.8915 37.5031 10.5627 37.5031C10.5627 37.5031 5.4396 34.9294 4.15736 40.7172C2.87511 46.5051 10.5627 45.8617 10.5627 45.8617C10.7417 48.2457 11.4803 50.5533 12.7183 52.5959C13.9562 54.6384 15.6583 56.3579 17.6853 57.6138C24.6587 61.9415 30.4258 61.9414 30.4258 61.9414C29.1436 67.0918 26.743 71.4547 20.1766 72.2333Z" fill="#4AAE34" stroke="#4AAE34"/>
<path d="M24.2635 40.7732C25.6201 40.7732 26.7197 39.6696 26.7197 38.3082C26.7197 36.9469 25.6201 35.8433 24.2635 35.8433C22.907 35.8433 21.8074 36.9469 21.8074 38.3082C21.8074 39.6696 22.907 40.7732 24.2635 40.7732Z" fill="#4AAE34" stroke="#4AAE34"/>
<path d="M48.6115 40.7732C49.968 40.7732 51.0676 39.6696 51.0676 38.3082C51.0676 36.9469 49.968 35.8433 48.6115 35.8433C47.2549 35.8433 46.1553 36.9469 46.1553 38.3082C46.1553 39.6696 47.2549 40.7732 48.6115 40.7732Z" fill="#4AAE34" stroke="#4AAE34"/>
<path d="M21.7516 35.0231C22.5809 34.2313 23.6489 33.7384 24.7876 33.622C25.9264 33.5055 27.0714 33.772 28.0428 34.3797C28.9211 34.9232 29.7349 33.5277 28.8538 32.99C27.5752 32.2073 26.0751 31.8694 24.5858 32.0288C23.0966 32.1881 21.7012 32.8357 20.6158 33.8714C19.8634 34.5854 20.9993 35.7253 21.7516 35.0114V35.0231Z" fill="#4AAE34" stroke="#4AAE34"/>
<path d="M45.8566 34.1419C46.7325 33.4234 47.8342 33.0408 48.9652 33.0623C50.0962 33.0839 51.1827 33.5082 52.0307 34.2594C52.8007 34.9469 53.9395 33.8099 53.1666 33.1195C52.0092 32.082 50.5173 31.4988 48.9656 31.4772C47.4138 31.4556 45.9064 31.997 44.7208 33.002C43.9245 33.6659 45.0662 34.8 45.8566 34.1419Z" fill="#4AAE34" stroke="#4AAE34"/>
<path d="M24.7493 49.869C32.273 50.9972 39.8113 51.5231 47.2911 49.869C48.2982 49.6457 47.8766 48.1062 46.8637 48.3148C39.6532 49.9131 32.4106 49.4048 25.168 48.3148C24.158 48.1649 23.7218 49.7191 24.7435 49.869H24.7493Z" fill="#4AAE34" stroke="#4AAE34"/>
<path d="M24.1142 54.9401C31.8613 57.1185 40.0475 57.1814 47.8269 55.1223C48.8252 54.8608 48.4124 53.3066 47.3995 53.5681C39.8986 55.5563 32.0042 55.4934 24.5357 53.3859C23.5375 53.1068 23.113 54.661 24.1083 54.9401H24.1142Z" fill="#4AAE34" stroke="#4AAE34"/>
<path d="M26.702 69.4512C27.2012 70.7775 27.8463 72.0438 28.6253 73.2265C28.9708 73.7495 29.8168 73.2589 29.4685 72.73C28.7327 71.6208 28.121 70.4335 27.6446 69.1897C27.4221 68.6021 26.4736 68.8577 26.702 69.4512Z" fill="#4AAE34" stroke="#4AAE34"/>
<path d="M28.4322 68.4993L31.1167 73.2677C31.4271 73.8171 32.2702 73.3235 31.9599 72.7712L29.2783 68.0028C28.968 67.4534 28.1073 67.9469 28.4322 68.4993Z" fill="#4AAE34" stroke="#4AAE34"/>
<path d="M29.7848 66.3221C30.9926 68.6645 32.3428 70.93 33.8276 73.106C34.1819 73.6231 35.0279 73.1325 34.6708 72.6095C33.1874 70.4325 31.8373 68.1671 30.6279 65.8256C30.3351 65.2645 29.4949 65.761 29.7848 66.3221Z" fill="#4AAE34" stroke="#4AAE34"/>
<path d="M12.8403 22.3725C14.1472 19.7713 16.0058 17.4889 18.2855 15.6856C19.0935 15.0422 17.9518 13.9081 17.1496 14.5457C14.7667 16.4414 12.8229 18.8343 11.4527 21.5587C10.9872 22.4812 12.3719 23.298 12.8403 22.3725Z" fill="white" stroke="#4AAE34"/>
<path d="M22.6299 12.9206H22.8436C23.877 12.9206 23.88 11.3105 22.8436 11.3105H22.6299C21.5965 11.3105 21.5936 12.9206 22.6299 12.9206Z" fill="white" stroke="#4AAE34"/>
<path d="M66.4955 55.4132C66.2014 58.1762 64.9958 60.7614 63.0703 62.7582C62.356 63.5104 63.4919 64.6533 64.2062 63.8982C66.4177 61.5837 67.7891 58.59 68.0998 55.3985C68.2081 54.3673 66.6038 54.3761 66.4955 55.3985V55.4132Z" fill="white" stroke="#4AAE34"/>
<path d="M59.7886 67.1476C60.822 67.1476 60.8249 65.5347 59.7886 65.5347C58.7523 65.5347 58.7552 67.1476 59.7886 67.1476Z" fill="white" stroke="#4AAE34"/>
</svg>
