<svg width="86" height="98" viewBox="0 0 86 98" fill="none" xmlns="http://www.w3.org/2000/svg">
<path d="M74.7578 57.368C78.366 47.1229 80.3569 35.7641 79.8361 24.8549C79.8319 24.6492 79.7633 24.4501 79.6402 24.2861C79.5171 24.1221 79.3458 24.0015 79.1508 23.9417C65.708 19.8396 48.4239 14.679 41.0189 1.45929C40.9342 1.31902 40.8152 1.20313 40.6732 1.1227C40.5313 1.04226 40.3713 1 40.2085 1C40.0458 1 39.8857 1.04226 39.7438 1.1227C39.6019 1.20313 39.4828 1.31902 39.3981 1.45929C31.2255 14.295 16.0968 18.5598 2.10922 21.3995C1.91362 21.4595 1.74187 21.5805 1.61873 21.7452C1.49558 21.9099 1.42739 22.1098 1.42389 22.3161C-0.748613 45.639 5.19323 74.8178 24.7423 89.4176C28.7723 92.3988 33.251 94.7065 38.0069 96.2522C40.9092 97.2103 41.9544 97.0166 44.7197 95.6192C46.8328 94.5377 48.8594 93.2923 50.7815 91.8941C51.7581 91.2023 50.8191 89.5455 49.8323 90.258C47.9284 91.6827 45.8994 92.9285 43.7705 93.9798C40.1725 95.6677 36.9172 94.0455 33.5419 92.4682C28.7015 90.2168 24.3076 87.0944 20.5754 83.2539C13.6741 76.146 9.30178 66.9489 6.6564 57.451C4.53784 49.6348 3.34952 41.5916 3.11664 33.4916C3.02412 30.8663 3.01384 28.2376 3.11664 25.6124C3.13719 25.0555 2.90077 22.7761 3.30512 22.33C2.37992 23.3676 4.84372 22.8315 4.54218 22.8245C5.73465 22.8557 7.17379 22.2539 8.33886 21.9771C10.3948 21.4894 12.4509 20.9395 14.4692 20.348C18.0399 19.3081 21.5231 17.9838 24.8862 16.3876C31.4757 13.2055 37.0646 8.63292 41.0292 2.40701H39.4084C45.7443 13.7278 59.0705 19.1582 70.6526 23.1843C72.366 23.7792 74.1615 24.5505 75.9399 24.9137C77.4579 25.2354 77.6533 24.6716 77.9959 25.4083C78.623 26.7918 77.9788 29.7872 77.9068 31.2676C77.5043 39.9972 75.8384 48.6203 72.9622 56.863C72.5544 58.0148 74.3706 58.5128 74.7749 57.368H74.7578Z" fill="#4AAE34" stroke="#4AAE34"/>
<path d="M66.7428 63.0818C58.135 63.3655 51.8505 70.252 51.7237 78.9095C51.5935 87.7849 58.6215 93.5023 67.1059 93.4366C75.4635 93.3536 82.9028 88.0132 82.7829 79.0824C82.6629 69.9234 75.587 63.3689 66.7428 63.0992C65.5332 63.0611 65.5332 64.96 66.7428 64.9981C74.5692 65.2367 80.792 70.9957 80.9051 79.0824C81.025 86.9859 74.3944 91.4339 67.1059 91.5342C59.6701 91.6415 53.4781 86.7265 53.6015 78.9233C53.7249 71.3346 59.1596 65.2402 66.7428 64.9946C67.9489 64.9323 67.9558 63.0369 66.7428 63.0818Z" fill="#4AAE34" stroke="#4AAE34"/>
<path d="M24.3997 76.4642C27.9854 80.9247 32.4924 84.5415 37.606 87.0621C40.5667 88.5044 43.2806 86.1386 45.8094 84.3815C46.7997 83.6897 45.8608 82.0502 44.8602 82.7455C43.5204 83.6759 41.156 85.5644 39.4804 85.7581C39.3159 85.7581 37.8218 85.0664 37.1091 84.6686C32.7333 82.2691 28.8668 79.0256 25.7292 75.1222C24.965 74.1745 23.6424 75.5234 24.3997 76.4642Z" fill="#4AAE34" stroke="#4AAE34"/>
<path d="M19.9107 65.5514C17.1882 60.5401 15.1502 55.1797 13.8524 49.6165C13.0933 46.3468 12.5451 43.0309 12.2111 39.6897C12.0329 37.9222 10.8952 32.8723 12.3549 31.5441C12.8861 31.0633 15.5178 30.6414 16.2237 30.4096C17.4984 29.9899 18.7605 29.5288 20.0101 29.0261C22.1693 28.1689 24.283 27.1991 26.3426 26.1206C31.1696 23.5574 35.6766 20.4223 39.7682 16.7818H38.4387C47.348 24.1768 58.5806 29.8873 70.0667 31.3089L69.1244 30.3612C68.9085 35.463 68.4836 40.8864 66.6126 45.67C66.1672 46.808 67.9833 47.2991 68.4254 46.175C70.3477 41.26 70.7795 35.6048 71.0056 30.3612C70.9996 30.1114 70.8988 29.8735 70.7241 29.6966C70.5494 29.5196 70.3141 29.417 70.0667 29.41C59.1289 28.0541 48.2492 22.4923 39.7682 15.4363C39.5879 15.2661 39.3503 15.1714 39.1034 15.1714C38.8566 15.1714 38.619 15.2661 38.4387 15.4363C30.4396 22.4903 20.8741 27.4947 10.5525 30.0257C10.3558 30.0837 10.1829 30.2043 10.0594 30.3694C9.93597 30.5345 9.86854 30.7354 9.86719 30.9422C10.0762 43.3456 12.3344 55.5415 18.2899 66.4991C18.8725 67.5714 20.4967 66.6133 19.9142 65.541L19.9107 65.5514Z" fill="#4AAE34" stroke="#4AAE34"/>
<path d="M15.4835 30.0294C13.3127 32.5645 11.6914 35.53 10.7238 38.7353C10.5079 39.4478 11.6148 39.7522 11.8273 39.0397C12.7305 36.025 14.2478 33.234 16.2819 30.8457C16.7617 30.2854 15.9392 29.4621 15.4732 30.0294H15.4835Z" fill="#4AAE34" stroke="#4AAE34"/>
<path d="M20.7707 27.5217C17.2405 32.6209 13.9939 37.9142 11.0459 43.3771C10.9871 43.4978 10.9716 43.6354 11.0021 43.7664C11.0326 43.8973 11.1072 44.0136 11.2132 44.0952C11.3191 44.1768 11.4499 44.2189 11.5831 44.2141C11.7163 44.2093 11.8437 44.1579 11.9436 44.0689C12.5261 43.5604 12.5364 43.4947 12.5467 42.7164C12.557 41.9382 11.4159 41.9728 11.4022 42.7164L11.135 43.2491L12.0361 43.9409C14.9821 38.4768 18.2289 33.1834 21.761 28.0855C22.1825 27.4733 21.1921 26.8957 20.7707 27.501V27.5217Z" fill="#4AAE34" stroke="#4AAE34"/>
<path d="M26.9489 24.8858C21.994 32.2117 17.1875 39.6355 12.5295 47.1573C12.1389 47.7903 13.1292 48.3714 13.5164 47.7419C18.1767 40.22 22.9843 32.7951 27.9393 25.4669C28.3539 24.8513 27.3635 24.2736 26.9489 24.8858Z" fill="#4AAE34" stroke="#4AAE34"/>
<path d="M66.1397 60.7435C66.2442 61.4442 66.1625 62.1604 65.9032 62.8188C65.7856 63.0389 65.7557 63.296 65.8193 63.5376C65.883 63.7793 66.0355 63.9873 66.2459 64.1194C66.6434 64.3511 67.3322 64.2508 67.5343 63.7735C67.9606 62.8275 68.1309 61.7844 68.0278 60.7505C68.0201 60.5016 67.9187 60.265 67.7442 60.089C67.5698 59.9129 67.3355 59.8105 67.0889 59.8027C66.8402 59.8045 66.602 59.9048 66.4258 60.0821C66.2495 60.2593 66.1493 60.4993 66.1466 60.7505L66.1397 60.7435Z" fill="#4AAE34" stroke="#4AAE34"/>
<path d="M57.8987 63.8184L59.0295 65.6101C59.6771 66.6477 61.3048 65.6861 60.6537 64.6519L59.5229 62.8602C58.8753 61.8226 57.2476 62.7842 57.8987 63.8184Z" fill="#4AAE34" stroke="#4AAE34"/>
<path d="M51.4291 70.3458L53.9375 71.8365C54.9826 72.4557 55.9284 70.7988 54.8867 70.197L52.3783 68.7063C51.3332 68.0837 50.3874 69.7439 51.4291 70.3458Z" fill="#4AAE34" stroke="#4AAE34"/>
<path d="M49.7534 78.4529C50.7756 78.5578 51.807 78.3859 52.7414 77.9548C53.2075 77.7542 53.3137 77.059 53.0841 76.6577C52.9557 76.4437 52.7502 76.2881 52.5106 76.2236C52.2711 76.1591 52.0161 76.1908 51.7991 76.3119C51.1463 76.5717 50.4373 76.6539 49.7431 76.5505C49.4941 76.5514 49.2554 76.6515 49.0789 76.8289C48.9025 77.0064 48.8026 77.2469 48.8008 77.4983C48.8069 77.7483 48.9082 77.9862 49.0837 78.1628C49.2592 78.3393 49.4954 78.4407 49.7431 78.446L49.7534 78.4529Z" fill="#4AAE34" stroke="#4AAE34"/>
<path d="M50.9596 85.6441L52.762 84.5442C53.79 83.9147 52.8511 82.2717 51.8128 82.9081L50.0104 84.0046C48.9824 84.6375 49.9213 86.277 50.9596 85.6441Z" fill="#4AAE34" stroke="#4AAE34"/>
<path d="M55.7639 92.33L57.6039 90.5418C58.4777 89.6944 57.1482 88.3523 56.2744 89.1997L54.4343 90.988C53.5605 91.8354 54.8901 93.1774 55.7639 92.33Z" fill="#4AAE34" stroke="#4AAE34"/>
<path d="M62.9359 91.9426C62.4692 93.0292 62.2066 94.1938 62.1614 95.3773C62.1169 96.5982 63.9947 96.5982 64.0392 95.3773C64.0625 94.5267 64.239 93.6875 64.5601 92.9007C64.6775 92.6812 64.7074 92.4247 64.6437 92.1836C64.5801 91.9425 64.4275 91.735 64.2174 91.6037C63.8234 91.3719 63.1277 91.4688 62.929 91.9495L62.9359 91.9426Z" fill="#4AAE34" stroke="#4AAE34"/>
<path d="M70.1798 92.7038C70.5027 93.4664 70.6141 94.3034 70.5019 95.125C70.4429 95.3669 70.4778 95.6224 70.5995 95.8392C70.7212 96.0559 70.9205 96.2174 71.1564 96.2906C71.3967 96.3566 71.6532 96.3243 71.87 96.2006C72.0869 96.0769 72.2467 95.8718 72.3147 95.63C72.5195 94.478 72.408 93.2914 71.9925 92.1988C71.9193 91.9604 71.7586 91.7592 71.5433 91.6364C71.328 91.5136 71.0744 91.4785 70.8343 91.5382C70.5955 91.6068 70.3929 91.7675 70.2705 91.9856C70.148 92.2037 70.1154 92.4617 70.1798 92.7038Z" fill="#4AAE34" stroke="#4AAE34"/>
<path d="M76.9336 89.8222L78.7017 92.0393C78.8788 92.2159 79.1176 92.315 79.3665 92.315C79.6154 92.315 79.8542 92.2159 80.0312 92.0393C80.2029 91.8589 80.2989 91.6185 80.2989 91.3683C80.2989 91.1182 80.2029 90.8777 80.0312 90.6973L78.2631 88.4802C78.0861 88.3036 77.8472 88.2046 77.5984 88.2046C77.3495 88.2046 77.1106 88.3036 76.9336 88.4802C76.7627 88.661 76.6672 88.9013 76.6672 89.1512C76.6672 89.4011 76.7627 89.6415 76.9336 89.8222Z" fill="#4AAE34" stroke="#4AAE34"/>
<path d="M80.4975 84.7547C81.0229 85.1875 81.6371 85.4967 82.2956 85.6601C82.9541 85.8234 83.6403 85.8367 84.3046 85.699C85.4902 85.4672 84.9898 83.6237 83.8042 83.8692C83.4613 83.9359 83.1084 83.9297 82.768 83.851C82.4276 83.7724 82.1071 83.6232 81.827 83.4127C81.6471 83.2417 81.4094 83.1465 81.1623 83.1465C80.9152 83.1465 80.6774 83.2417 80.4975 83.4127C80.172 83.7586 80.0966 84.4503 80.4975 84.7547Z" fill="#4AAE34" stroke="#4AAE34"/>
<path d="M82.5089 77.3359L84.3147 76.6061C84.5511 76.5322 84.7507 76.3701 84.8729 76.153C84.9951 75.9358 85.0308 75.6798 84.9727 75.437C84.9039 75.1956 84.744 74.9912 84.5274 74.8676C84.3108 74.744 84.0547 74.7113 83.8144 74.7764L82.0086 75.5062C81.773 75.5801 81.574 75.7416 81.4518 75.958C81.3297 76.1744 81.2935 76.4295 81.3507 76.6718C81.4187 76.9138 81.5783 77.1191 81.795 77.2434C82.0117 77.3676 82.2682 77.4009 82.5089 77.3359Z" fill="#4AAE34" stroke="#4AAE34"/>
<path d="M79.627 70.4806L81.8236 68.3222C82.6905 67.4714 81.3609 66.1293 80.494 66.9837L78.2975 69.1385C77.4272 69.9929 78.7601 71.3349 79.627 70.4806Z" fill="#4AAE34" stroke="#4AAE34"/>
<path d="M73.4249 62.0442C72.7627 62.9403 72.3872 64.0191 72.3489 65.1364C72.2872 66.3574 74.165 66.3539 74.2267 65.1364C74.2759 64.3564 74.5632 63.6109 75.0491 63.0023C75.3541 62.5942 75.1108 61.9404 74.7065 61.7018C74.4893 61.5816 74.2346 61.5504 73.9953 61.6149C73.756 61.6793 73.5505 61.8343 73.4215 62.0477L73.4249 62.0442Z" fill="#4AAE34" stroke="#4AAE34"/>
<path d="M57.7891 64.0818C58.5156 63.5998 59.2398 63.1167 59.9616 62.6325C60.1737 62.5029 60.3278 62.2954 60.3917 62.0536C60.4556 61.8118 60.4243 61.5544 60.3043 61.3354C60.1783 61.1186 59.9727 60.9608 59.7322 60.896C59.4916 60.8313 59.2355 60.8649 59.0193 60.9895L56.8433 62.4388C56.6313 62.5684 56.4771 62.7759 56.4133 63.0177C56.3494 63.2595 56.3807 63.5169 56.5007 63.7359C56.6266 63.9526 56.8323 64.1105 57.0728 64.1753C57.3134 64.24 57.5695 64.2064 57.7857 64.0818H57.7891Z" fill="#4AAE34" stroke="#4AAE34"/>
<path d="M51.5833 70.2969L52.6935 68.4914C53.3309 67.4537 51.7066 66.4956 51.0693 67.5333L49.9624 69.3388C49.3216 70.3764 50.9493 71.3345 51.5833 70.2969Z" fill="#4AAE34" stroke="#4AAE34"/>
<path d="M48.023 76.4883C47.6426 77.4799 47.5604 78.5627 47.7866 79.6013C48.023 80.798 49.8426 80.2931 49.5993 79.0963C49.4711 78.3962 49.5534 77.6734 49.8357 77.021C49.8999 76.7784 49.8669 76.5201 49.7437 76.3019C49.6206 76.0837 49.4173 75.9233 49.1778 75.8554C48.9381 75.794 48.6841 75.8285 48.469 75.9516C48.2538 76.0747 48.094 76.2769 48.023 76.516V76.4883Z" fill="#4AAE34" stroke="#4AAE34"/>
<path d="M48.465 84.3363L49.1777 86.1626C49.2502 86.4015 49.4107 86.6032 49.6262 86.7261C49.8417 86.8491 50.0958 86.8838 50.3359 86.8233C50.5753 86.7554 50.7784 86.5948 50.901 86.3765C51.0236 86.1582 51.0557 85.8998 50.9904 85.6576L50.2777 83.8313C50.2052 83.5925 50.0446 83.3907 49.8291 83.2678C49.6136 83.1449 49.3596 83.1101 49.1194 83.1707C48.8801 83.2385 48.677 83.3992 48.5544 83.6175C48.4318 83.8358 48.3997 84.0942 48.465 84.3363Z" fill="#4AAE34" stroke="#4AAE34"/>
<path d="M53.2452 91.4961C53.485 91.9838 53.7284 92.468 53.9682 92.9557C54.1016 93.1572 54.3061 93.2997 54.5401 93.3541C54.7741 93.4086 55.0199 93.3707 55.2272 93.2485C55.4345 93.1262 55.5877 92.9286 55.6556 92.6962C55.7235 92.4637 55.7009 92.2138 55.5925 91.9976C55.3492 91.5099 55.1093 91.0257 54.8694 90.538C54.736 90.3365 54.5314 90.1939 54.2974 90.1395C54.0634 90.0851 53.8177 90.1229 53.6104 90.2452C53.4031 90.3675 53.2499 90.565 53.182 90.7975C53.1141 91.03 53.1367 91.2798 53.2452 91.4961Z" fill="#4AAE34" stroke="#4AAE34"/>
<path d="M61.4315 96.5911L63.9569 96.9716C64.1966 97.0312 64.4498 96.9959 64.6645 96.8731C64.8792 96.7502 65.0393 96.5491 65.1118 96.3109C65.2351 95.8613 64.9609 95.2179 64.4572 95.1418L61.9318 94.7614C61.6913 94.7027 61.4376 94.7387 61.2225 94.8621C61.0073 94.9854 60.8468 95.1869 60.7736 95.4255C60.6536 95.8717 60.9244 96.515 61.4315 96.5911Z" fill="#4AAE34" stroke="#4AAE34"/>
<path d="M69.8749 96.7298L73.1097 96.2629C73.6168 96.1903 73.8841 95.5469 73.7676 95.0973C73.6958 94.8577 73.5356 94.6552 73.32 94.5316C73.1044 94.408 72.85 94.3727 72.6094 94.4332L69.3746 94.9001C68.8675 94.9727 68.6002 95.6161 68.7168 96.0657C68.7885 96.3053 68.9487 96.5078 69.1643 96.6314C69.3799 96.755 69.6343 96.7902 69.8749 96.7298Z" fill="#4AAE34" stroke="#4AAE34"/>
<path d="M79.1268 93.6789C80.3219 93.1501 81.3235 92.2577 81.9916 91.1262C82.6221 90.0886 80.9978 89.1236 80.3707 90.1682C79.8543 91.0113 79.0866 91.6676 78.1776 92.0428C77.7116 92.2435 77.6088 92.9352 77.835 93.3399C77.964 93.5533 78.1695 93.7084 78.4088 93.7728C78.6481 93.8372 78.9028 93.806 79.12 93.6858L79.1268 93.6789Z" fill="#4AAE34" stroke="#4AAE34"/>
<path d="M71.9067 53.833L71.5264 57.1119C71.4647 57.6239 71.9992 58.0562 72.4653 58.0597C72.7126 58.0544 72.9484 57.9528 73.1233 57.7762C73.2983 57.5996 73.3989 57.3616 73.4042 57.1119L73.7845 53.833C73.8462 53.3176 73.3116 52.8887 72.8456 52.8853C72.5982 52.8905 72.3625 52.9921 72.1875 53.1687C72.0126 53.3453 71.9119 53.5833 71.9067 53.833Z" fill="#4AAE34" stroke="#4AAE34"/>
<path d="M71.9685 45.8705C72.0802 45.9596 72.1634 46.08 72.2079 46.2165C72.2524 46.353 72.2561 46.4997 72.2187 46.6383C71.9308 47.8247 73.7435 48.3297 74.0313 47.1433C74.1661 46.6012 74.1315 46.0303 73.9321 45.5089C73.7327 44.9875 73.3783 44.5411 72.9177 44.231C72.7013 44.1072 72.4454 44.0741 72.2051 44.1388C71.9648 44.2035 71.7592 44.3608 71.6327 44.5769C71.5116 44.7962 71.4798 45.0544 71.5437 45.297C71.6077 45.5396 71.7623 45.7477 71.9753 45.8774L71.9685 45.8705Z" fill="#4AAE34" stroke="#4AAE34"/>
<path d="M79.9422 67.0905L82.1491 68.474C83.1771 69.1243 84.1228 67.4813 83.0983 66.838L80.888 65.4545C79.86 64.8077 78.9142 66.4471 79.9422 67.0939V67.0905Z" fill="#4AAE34" stroke="#4AAE34"/>
<path d="M72.976 62.0446L75.4945 62.8124C76.6527 63.1583 77.1496 61.339 75.9949 60.9827L73.4762 60.2148C72.318 59.8689 71.8212 61.6918 72.976 62.0446Z" fill="#4AAE34" stroke="#4AAE34"/>
<path d="M65.8964 60.5952L68.7748 60.1524C69.0143 60.0845 69.2176 59.9241 69.3408 59.7059C69.4639 59.4878 69.497 59.2294 69.4327 58.9868C69.3617 58.7475 69.2021 58.5451 68.9871 58.4214C68.7721 58.2977 68.5181 58.2624 68.278 58.3227L65.3995 58.762C65.1598 58.8306 64.9564 58.9917 64.8333 59.2105C64.7102 59.4292 64.6773 59.688 64.7417 59.9311C64.8127 60.1703 64.9723 60.3728 65.1873 60.4965C65.4023 60.6201 65.6562 60.6555 65.8964 60.5952Z" fill="#4AAE34" stroke="#4AAE34"/>
<path d="M73.4761 73.2714C72.6052 73.2957 71.7781 73.6621 71.1708 74.2926C70.5635 74.9231 70.2239 75.7679 70.2242 76.6472C70.1899 78.5462 71.7456 79.8778 73.5789 79.8329C75.4122 79.7879 76.9507 78.5323 76.8924 76.6161C76.8631 75.7187 76.4892 74.868 75.8497 74.2438C75.2103 73.6197 74.3553 73.2709 73.4658 73.2714C72.2562 73.2265 72.2562 75.1219 73.4658 75.1669C73.858 75.1601 74.2374 75.3075 74.5239 75.578C74.8104 75.8484 74.9814 76.2207 75.0009 76.6161C75.0523 77.4947 74.3636 77.9028 73.5686 77.9374C72.7736 77.972 72.0677 77.5223 72.0951 76.6472C72.0858 76.2684 72.2242 75.901 72.4805 75.6242C72.7369 75.3473 73.0907 75.1831 73.4658 75.1669C74.672 75.1184 74.672 73.223 73.4761 73.2714Z" fill="#4AAE34" stroke="#4AAE34"/>
<path d="M65.499 69.8442C64.7378 69.8658 64.0149 70.186 63.4839 70.7369C62.9528 71.2878 62.6554 72.0259 62.6548 72.7945C62.624 74.4513 63.9878 75.6273 65.5846 75.5893C67.1814 75.5512 68.5281 74.441 68.4801 72.7703C68.4553 71.9879 68.1307 71.2457 67.5747 70.6999C67.0187 70.1541 66.2745 69.8474 65.499 69.8442C64.2893 69.7992 64.2928 71.6981 65.499 71.7431C65.7806 71.7356 66.0538 71.8402 66.2597 72.0343C66.4655 72.2285 66.5873 72.4966 66.5989 72.7807C66.6434 73.4102 66.1534 73.6731 65.5709 73.7007C64.9884 73.7284 64.5018 73.4379 64.5223 72.8049C64.5167 72.5393 64.6143 72.282 64.7943 72.088C64.9743 71.8941 65.2222 71.779 65.4852 71.7673C66.7051 71.6946 66.712 69.7957 65.499 69.8442Z" fill="#4AAE34"/>
<path d="M65.499 69.8442C64.7378 69.8658 64.0149 70.186 63.4839 70.7369C62.9528 71.2878 62.6554 72.0259 62.6548 72.7945C62.624 74.4513 63.9878 75.6273 65.5846 75.5893C67.1814 75.5512 68.5281 74.441 68.4801 72.7703C68.4553 71.9879 68.1307 71.2457 67.5747 70.6999C67.0187 70.1541 66.2745 69.8474 65.499 69.8442C64.2893 69.7992 64.2928 71.6981 65.499 71.7431C65.7806 71.7356 66.0538 71.8402 66.2597 72.0343C66.4655 72.2285 66.5873 72.4966 66.5989 72.7807C66.6434 73.4102 66.1534 73.6731 65.5709 73.7007C64.9884 73.7284 64.5018 73.4379 64.5223 72.8049C64.5167 72.5393 64.6143 72.282 64.7943 72.088C64.9743 71.8941 65.2222 71.779 65.4852 71.7673C66.7051 71.6946 66.712 69.7957 65.499 69.8442Z" stroke="#4AAE34"/>
<path d="M66.3418 79.1866C65.5807 79.2064 64.8573 79.5256 64.326 80.0762C63.7947 80.6267 63.4974 81.3649 63.4977 82.1335C63.4634 83.7903 64.8273 84.9663 66.4241 84.9283C68.0209 84.8902 69.3676 83.7799 69.3196 82.1093C69.2964 81.3272 68.9728 80.5848 68.417 80.0394C67.8612 79.4939 67.117 79.188 66.3418 79.1866C65.1322 79.1416 65.1322 81.0371 66.3418 81.082C66.623 81.0763 66.8952 81.1815 67.1006 81.3753C67.3061 81.5691 67.4285 81.8362 67.4418 82.1197C67.4863 82.7492 66.9929 83.0155 66.4138 83.0397C65.8347 83.0639 65.3482 82.7768 65.3653 82.1439C65.3597 81.8776 65.4578 81.6198 65.6384 81.4258C65.8191 81.2318 66.068 81.117 66.3316 81.1062C67.5446 81.0336 67.5515 79.1347 66.3418 79.1866Z" fill="#4AAE34"/>
<path d="M66.3418 79.1866C65.5807 79.2064 64.8573 79.5256 64.326 80.0762C63.7947 80.6267 63.4974 81.3649 63.4977 82.1335C63.4634 83.7903 64.8273 84.9663 66.4241 84.9283C68.0209 84.8902 69.3676 83.7799 69.3196 82.1093C69.2964 81.3272 68.9728 80.5848 68.417 80.0394C67.8612 79.4939 67.117 79.188 66.3418 79.1866C65.1322 79.1416 65.1322 81.0371 66.3418 81.082C66.623 81.0763 66.8952 81.1815 67.1006 81.3753C67.3061 81.5691 67.4285 81.8362 67.4418 82.1197C67.4863 82.7492 66.9929 83.0155 66.4138 83.0397C65.8347 83.0639 65.3482 82.7768 65.3653 82.1439C65.3597 81.8776 65.4578 81.6198 65.6384 81.4258C65.8191 81.2318 66.068 81.117 66.3316 81.1062C67.5446 81.0336 67.5515 79.1347 66.3418 79.1866Z" stroke="#4AAE34"/>
<path d="M55.1916 79.1725C54.7716 81.4647 54.5834 83.7941 54.6297 86.1247C54.6297 86.8649 55.7913 86.8684 55.7742 86.1247C55.7228 83.8978 55.8974 81.6714 56.2951 79.4803C56.4287 78.754 55.3252 78.4427 55.1916 79.1725Z" fill="#4AAE34" stroke="#4AAE34"/>
<path d="M57.1961 82.7282C57.0714 84.7139 57.1184 86.7068 57.3366 88.6843C57.4188 89.4141 58.5634 89.4245 58.4811 88.6843C58.2629 86.7068 58.216 84.7139 58.3407 82.7282C58.3886 81.988 57.2441 81.9914 57.1961 82.7282Z" fill="#4AAE34" stroke="#4AAE34"/>
<path d="M59.9855 84.7098C59.8793 86.6005 59.9136 88.4967 60.0884 90.3823C60.1569 91.119 61.3049 91.1259 61.2329 90.3823C61.0565 88.4968 61.0221 86.6005 61.1301 84.7098C61.1712 83.9661 60.0267 83.9696 59.9855 84.7098Z" fill="#4AAE34" stroke="#4AAE34"/>
<path d="M63.0935 87.107C62.8439 88.6451 63.0206 90.2228 63.604 91.6658C63.8782 92.3576 64.9747 92.0463 64.7074 91.358C64.1808 90.1161 64.0042 88.7516 64.1969 87.4149C64.3065 86.6885 63.2066 86.3772 63.0935 87.107Z" fill="#4AAE34" stroke="#4AAE34"/>
<path d="M65.8554 89.2378C65.751 90.2279 65.974 91.225 66.4894 92.074C66.8732 92.707 67.86 92.1294 67.4797 91.4895C67.0696 90.8163 66.9003 90.0216 67 89.2378C67.0788 88.501 65.9342 88.5045 65.8554 89.2378Z" fill="#4AAE34" stroke="#4AAE34"/>
<path d="M68.9769 89.663C69.1619 90.1368 69.3436 90.6107 69.5286 91.0811C69.7924 91.7729 70.8992 91.4685 70.632 90.7767L70.0803 89.3551C69.8165 88.6634 68.7096 88.9677 68.9769 89.663Z" fill="#4AAE34" stroke="#4AAE34"/>
</svg>
