<svg width="86" height="82" viewBox="0 0 86 82" fill="none" xmlns="http://www.w3.org/2000/svg">
<path d="M33.3498 2.01539C16.8307 5.78255 4.14396 18.9737 1.49189 35.932C-0.961949 51.679 5.86195 67.6985 19.7951 75.6266C34.44 83.9634 53.7193 82.2403 67.5203 72.9405C82.0451 63.1501 88.6408 44.7776 82.9852 27.9435C75.9541 7.00298 53.8755 -2.23022 33.3498 2.00633C32.3136 2.21831 32.7491 3.82327 33.7883 3.60826C51.5809 -0.0650287 70.683 6.52449 79.306 23.4131C87.148 38.7695 83.2105 57.9354 70.0973 68.9431C58.1735 78.9364 40.5821 82.1525 26.0093 76.7107C11.1451 71.1568 1.98146 56.603 2.65724 40.7439C3.43815 22.5289 16.29 7.59649 33.7883 3.60826C34.8215 3.38114 34.386 1.77918 33.3498 2.01539Z" fill="#4AAE34" stroke="#4AAE34"/>
<path d="M38.729 20.8814C23.3001 24.7122 17.9509 47.3031 32.8842 55.6247C47.5231 63.8011 66.8535 49.7893 61.4172 33.0793C58.2335 23.3101 48.3101 18.9827 38.741 20.8814C37.7018 21.0904 38.1403 22.6984 39.1795 22.4834C49.5685 20.4211 60.1648 26.829 60.6784 38.1214C61.1289 47.9693 53.2117 55.4764 43.7898 56.2365C34.9416 56.9511 26.8862 51.1762 25.769 42.0945C25.2132 37.7329 26.2756 33.318 28.752 29.6981C31.2285 26.0783 34.9443 23.5088 39.1855 22.4834C40.1947 22.229 39.7592 20.6271 38.729 20.8814Z" fill="#4AAE34" stroke="#4AAE34"/>
<path d="M42.1047 15.9638V20.5062C42.1047 21.5751 43.7507 21.5782 43.7507 20.5062V15.9638C43.7507 14.8948 42.1047 14.8918 42.1047 15.9638Z" fill="#4AAE34" stroke="#4AAE34"/>
<path d="M29.0338 21.687L31.8811 25.227C32.5509 26.0568 33.7103 24.8757 33.0465 24.052L30.1992 20.506C29.5294 19.6762 28.3701 20.8572 29.0338 21.6809V21.687Z" fill="#4AAE34" stroke="#4AAE34"/>
<path d="M21.1587 35.1507L24.8349 35.8684C25.8711 36.0713 26.3157 34.4724 25.2735 34.2664L21.5972 33.5488C20.561 33.3428 20.1195 34.9448 21.1587 35.1507Z" fill="#4AAE34" stroke="#4AAE34"/>
<path d="M22.8495 50.486C23.9963 49.9271 25.069 49.2251 26.0422 48.3964C26.8561 47.709 25.6847 46.5401 24.8768 47.2215C24.002 47.9441 23.0415 48.5544 22.0175 49.0384C21.0624 49.5018 21.8974 50.9341 22.8495 50.4738V50.486Z" fill="#4AAE34" stroke="#4AAE34"/>
<path d="M30.7096 54.6375C30.0527 55.5886 29.5461 56.6367 29.2079 57.7445C28.8895 58.765 30.4814 59.2041 30.7967 58.1866C31.0977 57.2125 31.5499 56.2927 32.1363 55.4612C32.737 54.583 31.3163 53.7532 30.7126 54.6223L30.7096 54.6375Z" fill="#4AAE34" stroke="#4AAE34"/>
<path d="M42.7207 57.3419V60.4459C42.7207 61.5148 44.3666 61.5179 44.3666 60.4459V57.3419C44.3666 56.2729 42.7207 56.2729 42.7207 57.3419Z" fill="#4AAE34" stroke="#4AAE34"/>
<path d="M53.6232 54.0106L56.4525 56.3454C57.2664 57.0147 58.4378 55.8457 57.6178 55.1704L54.7886 52.8357C53.9746 52.1664 52.8033 53.3353 53.6232 54.0106Z" fill="#4AAE34" stroke="#4AAE34"/>
<path d="M60.6181 45.5648C61.7726 46.283 62.9877 46.8971 64.2494 47.3999C65.2315 47.7996 65.661 46.1886 64.6848 45.7979C63.5612 45.3362 62.479 44.778 61.4501 44.1294C60.5491 43.5631 59.7201 44.9985 60.6181 45.5648Z" fill="#4AAE34" stroke="#4AAE34"/>
<path d="M62.0329 33.9365L64.9133 32.922C65.9104 32.5707 65.4809 30.9657 64.4778 31.32L61.5974 32.3345C60.6003 32.6858 61.0298 34.2908 62.0329 33.9365Z" fill="#4AAE34" stroke="#4AAE34"/>
<path d="M55.8127 24.697C56.5376 23.7098 57.2604 22.7216 57.9812 21.7324C58.6119 20.8723 57.1823 20.0426 56.5576 20.8935C55.8367 21.8828 55.1149 22.871 54.3921 23.8582C53.7613 24.7212 55.191 25.551 55.8127 24.697Z" fill="#4AAE34" stroke="#4AAE34"/>
<path d="M41.4291 16.9329C42.5395 16.4504 43.7732 16.3358 44.9522 16.6059C45.9854 16.836 46.4269 15.2341 45.3907 15.0039C43.778 14.6369 42.0905 14.8113 40.5852 15.5006C39.615 15.9276 40.453 17.3599 41.4171 16.9329H41.4291Z" fill="#4AAE34" stroke="#4AAE34"/>
<path d="M28.1508 23.3981C29.0208 22.3499 29.9686 21.3699 30.986 20.4667C31.782 19.7581 30.6136 18.5862 29.8207 19.2918C28.8032 20.195 27.8554 21.1749 26.9854 22.2231C26.3096 23.0377 27.469 24.2188 28.1508 23.3981Z" fill="#4AAE34" stroke="#4AAE34"/>
<path d="M20.474 32.2498C20.0928 33.4022 19.8852 34.6057 19.8582 35.8201C19.8312 36.8891 21.4771 36.8891 21.5072 35.8201C21.535 34.7551 21.7224 33.7005 22.0628 32.6919C22.4022 31.6744 20.8104 31.2384 20.474 32.2498Z" fill="#4AAE34" stroke="#4AAE34"/>
<path d="M20.1885 48.8658C20.6972 50.2894 21.4551 51.6094 22.4261 52.7631C23.1079 53.5838 24.2702 52.4028 23.5885 51.5912C22.809 50.6495 22.1991 49.5775 21.7864 48.4236C21.429 47.4243 19.8371 47.8543 20.1975 48.8658H20.1885Z" fill="#4AAE34" stroke="#4AAE34"/>
<path d="M27.58 58.1171C28.5554 59.1661 29.8149 59.9032 31.2022 60.2369C32.2324 60.4822 32.6739 58.8802 31.6407 58.6349C30.5309 58.3785 29.5226 57.7931 28.7454 56.9542C28.0155 56.176 26.8502 57.3509 27.58 58.1292V58.1171Z" fill="#4AAE34" stroke="#4AAE34"/>
<path d="M41.6963 62.2265L45.8081 61.9237C46.8623 61.848 46.8683 60.1854 45.8081 60.2642L41.6963 60.567C40.6451 60.6427 40.6361 62.3052 41.6963 62.2295V62.2265Z" fill="#4AAE34" stroke="#4AAE34"/>
<path d="M56.8728 57.9564C57.9881 57.0843 59.1004 56.2101 60.2097 55.3339C61.0477 54.6798 59.8733 53.517 59.0473 54.162L55.7075 56.7814C54.8725 57.4386 56.0469 58.5984 56.8728 57.9564Z" fill="#4AAE34" stroke="#4AAE34"/>
<path d="M65.0696 45.5436C64.9825 46.2725 64.755 46.9772 64.3998 47.618C63.8892 48.5568 65.3008 49.3956 65.8234 48.4568C66.3102 47.5547 66.6163 46.5649 66.7245 45.5436C66.7229 45.3241 66.6357 45.1139 66.4817 44.9587C66.3277 44.8034 66.1193 44.7155 65.9015 44.7139C65.6844 44.7185 65.4774 44.8073 65.3236 44.9618C65.1698 45.1164 65.0809 45.3248 65.0756 45.5436H65.0696Z" fill="#4AAE34" stroke="#4AAE34"/>
<path d="M63.6939 31.1049C63.988 31.3 64.2237 31.5723 64.3756 31.8925C64.5275 32.2127 64.5898 32.5686 64.5559 32.9218C64.5058 33.134 64.5375 33.3574 64.6446 33.5468C64.7516 33.7363 64.9261 33.8777 65.1326 33.9424C65.517 34.0544 66.0847 33.8091 66.1448 33.364C66.2616 32.6548 66.1706 31.9266 65.8831 31.2688C65.5955 30.6109 65.1239 30.052 64.5259 29.6604C63.6248 29.0547 62.8139 30.5083 63.6939 31.0958V31.1049Z" fill="#4AAE34" stroke="#4AAE34"/>
<path d="M56.2631 20.3939C57.3193 20.9618 58.3386 21.597 59.3146 22.2956C60.1826 22.9013 61.0056 21.475 60.1466 20.8603C59.1699 20.1627 58.1507 19.5275 57.0951 18.9585C56.161 18.4558 55.329 19.8882 56.2631 20.3939Z" fill="#4AAE34" stroke="#4AAE34"/>
<path d="M35.2388 29.7149C34.5469 29.5112 33.8057 29.563 33.1483 29.8611C32.4909 30.1592 31.9606 30.684 31.6527 31.3411C31.028 32.719 31.7278 34.2573 33.0433 34.8993C34.3588 35.5413 35.9116 35.1083 36.5333 33.7516C36.8286 33.1336 36.8902 32.4282 36.7067 31.7676C36.5231 31.107 36.107 30.5365 35.5362 30.1631C34.6351 29.6029 33.8002 31.0383 34.7042 31.5985C35.7434 32.2435 34.9355 34.0211 33.7221 33.3852C32.3225 32.6493 33.5058 30.899 34.8033 31.3169C35.8125 31.6439 36.248 30.042 35.2388 29.7149Z" fill="#4AAE34" stroke="#4AAE34"/>
<path d="M52.2084 40.5287C51.5362 40.8562 51.0037 41.4172 50.7086 42.1086C50.4134 42.8 50.3754 43.5755 50.6016 44.2929C51.1032 45.7828 52.7881 46.5247 54.2538 46.1098C55.7195 45.6949 56.5545 44.1505 56.2631 42.6485C56.1834 42.2396 56.0183 41.8525 55.7789 41.5128C55.5395 41.1732 55.2313 40.8887 54.8746 40.6782C54.5179 40.4678 54.1209 40.3362 53.7099 40.2921C53.2989 40.2481 52.8834 40.2926 52.4908 40.4227C51.4846 40.7255 51.9141 42.3457 52.9293 42.0247C54.7494 41.4463 55.3831 44.3019 53.6471 44.5472C51.9111 44.7925 51.6017 42.5849 53.0464 41.9459C54.0165 41.519 53.1786 40.0866 52.2175 40.5135L52.2084 40.5287Z" fill="#4AAE34" stroke="#4AAE34"/>
<path d="M38.3746 48.6265C37.9499 48.9263 37.6557 49.3792 37.5529 49.8915C37.45 50.4038 37.5463 50.9364 37.8219 51.3791C37.9601 51.6213 38.1471 51.8316 38.3709 51.9964C38.5947 52.1612 38.8502 52.2769 39.1211 52.3359C39.3919 52.395 39.672 52.3962 39.9433 52.3393C40.2146 52.2825 40.4711 52.169 40.6962 52.006C41.6664 51.3216 42.1679 49.862 41.4411 48.8203C40.7143 47.7785 39.3176 47.5575 38.5458 48.6113C38.4375 48.8024 38.4083 49.0287 38.4645 49.2413C38.5208 49.4539 38.6579 49.6356 38.8461 49.7469C39.0363 49.853 39.2598 49.8806 39.4697 49.8242C39.6797 49.7677 39.8598 49.6315 39.9724 49.4441C39.8012 49.6773 39.7141 49.4441 39.9213 49.6076C40.0205 49.6894 40.1076 49.7439 40.1376 49.8711C40.1532 50.0441 40.1142 50.2178 40.0264 50.3673C39.9385 50.5168 39.8061 50.6345 39.648 50.7038C39.4107 50.7826 39.2876 50.6705 39.2005 50.4464C39.1651 50.3582 39.1527 50.2623 39.1645 50.1678C39.1645 50.1678 39.2125 50.0558 39.2095 50.0588C40.0805 49.4532 39.2546 48.0178 38.3776 48.6234L38.3746 48.6265Z" fill="#4AAE34" stroke="#4AAE34"/>
<path d="M12.6228 67.7862L74.3833 15.1852C75.1942 14.4947 74.0228 13.3258 73.2179 14.0102L11.4574 66.6112C10.6465 67.3017 11.8178 68.4706 12.6228 67.7862Z" fill="#4AAE34" stroke="#4AAE34"/>
<path d="M44.3634 29.8208C45.4237 29.8208 45.4267 28.1583 44.3634 28.1583C43.3002 28.1583 43.3032 29.8208 44.3634 29.8208Z" fill="#4AAE34" stroke="#4AAE34"/>
<path d="M31.022 41.6162H31.2262C32.2864 41.6162 32.2894 39.9567 31.2262 39.9567H31.022C29.9617 39.9567 29.9617 41.6162 31.022 41.6162Z" fill="#4AAE34" stroke="#4AAE34"/>
<path d="M47.6493 50.5162C48.7096 50.5162 48.7096 48.8536 47.6493 48.8536C46.5891 48.8536 46.5861 50.5162 47.6493 50.5162Z" fill="#4AAE34" stroke="#4AAE34"/>
<path d="M56.4765 37.0583H56.2693C55.2091 37.0583 55.2091 38.7178 56.2693 38.7178H56.4765C57.5368 38.7178 57.5368 37.0583 56.4765 37.0583Z" fill="#4AAE34" stroke="#4AAE34"/>
<path d="M38.6178 38.9267C39.6781 38.9267 39.6781 37.2642 38.6178 37.2642C37.5576 37.2642 37.5546 38.9267 38.6178 38.9267Z" fill="#4AAE34" stroke="#4AAE34"/>
</svg>
