<svg width="74" height="98" viewBox="0 0 74 98" fill="none" xmlns="http://www.w3.org/2000/svg">
<path d="M11.4361 44.322C8.38911 41.1071 4.03807 45.035 4.01953 48.4815C4.01953 52.5069 8.34584 54.7223 11.8965 53.2078C12.8947 52.7812 12.0325 51.3398 11.0405 51.7634C8.80319 52.7202 5.98492 51.3459 5.72843 48.8746C5.51212 46.8025 8.06771 43.228 10.2278 45.5043C10.9725 46.2935 12.1685 45.1082 11.4237 44.322H11.4361Z" fill="#4AAE34" stroke="#4AAE34"/>
<path d="M59.0408 53.1554C62.6564 55.706 66.4326 52.0766 67.0754 48.5845C67.3844 46.9664 67.6657 44.7541 66.1978 43.5992C64.8968 42.5753 62.9933 42.813 61.4821 43.1238C60.416 43.3432 60.8641 44.9522 61.9333 44.7358C62.7028 44.5774 63.9605 44.3031 64.7145 44.684C66.0031 45.327 65.6107 47.4814 65.3326 48.6637C64.7794 50.9918 62.3628 53.4601 59.8937 51.711C59.0037 51.0863 58.157 52.5338 59.0377 53.1554H59.0408Z" fill="#4AAE34" stroke="#4AAE34"/>
<path d="M10.8857 51.9215C10.982 53.982 11.6729 55.9724 12.8773 57.6588C14.0817 59.3453 15.7494 60.6575 17.6842 61.4411C19.696 62.2852 21.8653 62.6356 23.9049 63.3852C28.5062 65.0704 31.0433 69.4523 28.6978 74.0689C28.2095 75.0288 29.6743 75.8759 30.1626 74.913C32.063 71.171 31.5315 66.5574 28.1663 63.7783C22.7831 59.3324 13.1045 61.1943 12.5854 51.9215C12.5267 50.8489 10.8301 50.8428 10.8919 51.9215H10.8857Z" fill="#4AAE34" stroke="#4AAE34"/>
<path d="M6.86547 44.0261C6.86547 44.0261 -1.92624 33.3607 3.48474 22.0188C8.89572 10.677 19.7146 7.34632 20.3913 11.3534C20.3913 11.3534 27.1528 0.0176764 47.4432 2.01667C67.7336 4.01567 60.9691 19.3585 60.9691 19.3585C60.9691 19.3585 68.4072 18.0239 71.1143 26.6933C73.8213 35.3627 66.38 45.3668 66.38 45.3668C66.9795 44.5837 63.6885 42.737 61.6459 43.3648C61.6459 43.3648 59.6155 37.3617 60.9691 32.029C58.9388 34.028 52.1774 34.6954 50.1533 33.3607C48.1292 32.026 52.1836 27.3606 52.1836 27.3606C52.1836 27.3606 37.9686 33.3607 35.277 32.6933C32.5854 32.026 35.9507 22.6923 35.9507 22.6923C35.9507 22.6923 24.455 34.6954 10.2523 35.3627C11.5966 38.6141 11.9334 41.7406 10.9291 44.6995C8.41364 43.505 7.17758 43.3831 6.86547 44.0261Z" fill="#4AAE34" stroke="#4AAE34"/>
<path d="M7.46507 43.4502C3.05223 37.9896 1.22592 30.0423 3.80934 23.4846C5.45952 19.2886 8.42302 15.382 12.2024 12.8193C13.3983 12.0087 18.8556 8.81823 19.5726 11.6004C19.6215 11.7545 19.714 11.8917 19.8394 11.9956C19.9647 12.0996 20.1176 12.1661 20.28 12.1872C20.4424 12.2084 20.6076 12.1833 20.756 12.115C20.9044 12.0466 21.0299 11.9378 21.1177 11.8015C29.4613 -1.86847 68.7071 -0.692232 60.2306 18.9595C60.1552 19.1035 60.1232 19.2657 60.1381 19.4271C60.1531 19.5884 60.2146 19.7422 60.3153 19.8703C60.416 19.9984 60.5516 20.0955 60.7063 20.15C60.861 20.2046 61.0284 20.2144 61.1886 20.1784C67.0137 19.2368 70.6385 25.2977 70.8332 30.2526C71.0403 35.4024 68.67 40.8296 65.6416 44.9586L67.1867 45.6046C67.6039 42.92 63.3085 42.2801 61.4111 42.5757L62.4525 43.1577C61.287 39.644 61.0541 35.8945 61.7757 32.2668C61.8206 32.0901 61.8061 31.9038 61.7344 31.7359C61.6627 31.568 61.5375 31.4276 61.3779 31.3358C61.2183 31.2441 61.0329 31.2059 60.8494 31.2271C60.6659 31.2482 60.4942 31.3276 60.3604 31.4532C58.5835 32.9067 54.2325 33.9611 51.9983 33.0957C49.3469 32.0688 51.507 29.439 52.7678 27.9671C53.4105 27.2114 52.6225 26.282 51.7387 26.6538C47.74 28.3389 43.6547 29.9661 39.4736 31.1667C38.6578 31.4014 37.159 32.0626 36.303 31.895C34.4921 31.5477 35.067 29.4573 35.3327 28.025C35.6703 26.2926 36.1456 24.589 36.7542 22.9301C37.0385 22.1317 35.9013 21.5314 35.3389 22.1164C28.8834 28.7869 19.6251 33.9093 10.237 34.5431C9.73637 34.5766 9.21721 35.055 9.42116 35.6005C10.546 38.599 10.9663 41.3568 10.0979 44.4924L11.334 43.9926C9.93416 43.3832 7.56088 42.0211 6.24754 43.4563C5.51824 44.2517 6.71412 45.4401 7.44651 44.6387C8.52094 44.5432 9.59497 44.826 10.478 45.437C10.5904 45.4972 10.715 45.5319 10.8427 45.5387C10.9704 45.5456 11.098 45.5243 11.2163 45.4764C11.3347 45.4286 11.4407 45.3554 11.5268 45.2621C11.6129 45.1689 11.6769 45.0579 11.7141 44.9373C12.669 41.5396 12.2704 38.4345 11.0374 35.1556L10.2185 36.213C20.0701 35.5487 29.7363 30.3044 36.5163 23.2988L35.101 22.4851C34.1461 25.1576 30.9353 33.7142 36.2845 33.568C41.6337 33.4217 47.7183 30.1429 52.5761 28.0829C52.2362 27.6441 51.8942 27.2064 51.5502 26.7696C50.107 28.4639 47.1682 32.151 49.696 34.083C52.5607 36.277 59.044 34.668 61.544 32.6203L60.1255 31.8067C59.3266 35.7261 59.5597 39.782 60.8024 43.5873C60.869 43.7971 61.0139 43.9742 61.2077 44.0827C61.4016 44.1913 61.63 44.2234 61.8468 44.1724C62.4966 44.0759 63.1595 44.1124 63.7944 44.2796C64.4292 44.4469 65.0222 44.7413 65.5365 45.1445C65.4939 45.3364 65.5208 45.5368 65.6124 45.7112C65.704 45.8856 65.8546 46.0228 66.0381 46.0992C66.2216 46.1756 66.4264 46.1862 66.617 46.1293C66.8076 46.0723 66.972 45.9514 67.0816 45.7875C71.0619 40.3451 74.0161 32.5746 71.717 25.956C70.1193 21.3546 65.8641 17.7284 60.7096 18.5512L61.6676 19.7701C71.3956 -2.74607 28.8031 -4.12343 19.6251 10.933L21.1702 11.1311C20.5182 8.60491 17.6412 8.675 15.5583 9.27531C10.9601 10.6039 7.14986 14.4221 4.60352 18.2708C-0.85073 26.5136 0.0423476 36.9718 6.22898 44.6234C6.94591 45.4584 8.13873 44.2669 7.46507 43.4502Z" fill="#4AAE34" stroke="#4AAE34"/>
<path d="M40.8487 59.3261C38.7659 60.6517 37.3073 62.9828 38.2375 65.4755C39.0688 67.7122 41.1083 68.2698 43.151 67.2672C43.2798 67.1946 43.3867 67.0894 43.4606 66.9624C43.5345 66.8355 43.5726 66.6914 43.5712 66.5451C43.5434 64.9178 43.3673 62.1905 41.1299 62.5592C41.2814 63.0955 41.439 63.6349 41.5811 64.1712L43.6114 63.5039L42.5391 62.6994C42.3104 64.9422 42.3506 67.9376 43.8493 69.7995C44.798 70.9757 44.3036 69.5375 44.5941 70.8173C44.8351 71.8869 44.6744 73.2063 44.7115 74.3003C44.8866 79.5477 45.0638 84.795 45.243 90.0424C45.2801 91.115 46.9736 91.118 46.9396 90.0424C46.7727 85.0997 46.6048 80.1591 46.4359 75.2206C46.3833 73.6025 46.6553 71.6096 46.2628 70.0402C45.8704 68.4709 44.4581 67.6786 44.2325 65.8716C44.1151 64.8194 44.1151 63.7577 44.2325 62.7055C44.2317 62.577 44.2011 62.4505 44.143 62.3355C44.0849 62.2206 44.0009 62.1203 43.8973 62.0423C43.7938 61.9644 43.6735 61.9108 43.5458 61.8858C43.418 61.8608 43.2861 61.865 43.1602 61.898L41.1299 62.5653C40.0823 62.9097 40.5119 64.3541 41.5811 64.1773C41.706 64.8041 41.7988 65.4367 41.8593 66.0727C41.8593 66.1885 41.8593 66.3043 41.8593 66.4201C39.0781 64.352 39.0214 62.4699 41.6893 60.7736C42.6163 60.1916 41.7542 58.7441 40.8333 59.3322L40.8487 59.3261Z" fill="#4AAE34" stroke="#4AAE34"/>
<path d="M38.9513 56.1635C36.3802 56.846 34.9525 59.1864 35.0359 61.743C35.1101 64.0376 36.272 66.8441 38.9945 66.707C40.0792 66.6491 40.0854 64.9792 38.9945 65.034C37.0539 65.1346 36.649 62.5779 36.7356 61.1701C36.8344 59.5307 37.7862 58.2051 39.4024 57.7755C40.4531 57.4951 40.0205 55.8831 38.9513 56.1635Z" fill="#4AAE34" stroke="#4AAE34"/>
<path d="M36.7664 54.1858C33.9852 55.2493 32.8418 56.6236 32.4957 59.5672C32.2176 61.9105 33.0273 64.8085 35.929 64.7475C37.0198 64.7201 37.0229 63.0472 35.929 63.0746C33.6731 63.1325 34.013 60.0639 34.3561 58.6135C34.7392 56.9832 35.7467 56.3768 37.2176 55.81C38.225 55.423 37.7862 53.8079 36.7664 54.198V54.1858Z" fill="#4AAE34" stroke="#4AAE34"/>
<path d="M33.6701 59.2956C30.6293 57.8878 34.8104 53.0152 36.6954 52.61C38.5804 52.2047 42.6255 52.7989 44.2757 53.6034C48.293 55.5658 49.0316 61.5262 50.5211 65.2652C51.2164 67.0143 52.0167 68.7207 52.7213 70.4698C55.3449 77.0062 57.7522 83.631 60.1378 90.2496C60.5025 91.2582 62.1434 90.8224 61.7726 89.8077C60.1986 85.4664 58.5979 81.1363 56.9703 76.8173C54.4456 70.1438 52.0446 63.2296 49.1367 56.7298C47.7955 53.7344 46.4173 52.2473 43.0891 51.6135C40.9785 51.2143 37.5267 50.291 35.4593 51.004C32.3691 52.0675 28.5403 58.7654 32.8017 60.7552C33.7813 61.2123 34.6559 59.771 33.6577 59.3109L33.6701 59.2956Z" fill="#4AAE34" stroke="#4AAE34"/>
<path d="M58.7937 50.1964C58.3302 54.7429 55.2832 59.7283 51.2504 61.9954C50.3017 62.5256 51.1577 63.9731 52.1064 63.4368C56.7078 60.8496 59.9649 55.3493 60.4902 50.1964C60.5984 49.1268 58.9019 49.1329 58.7937 50.1964Z" fill="#4AAE34" stroke="#4AAE34"/>
<path d="M33.9638 45.9829C33.7348 46.4516 33.616 46.965 33.616 47.4852C33.616 48.0054 33.7348 48.5189 33.9638 48.9875C34.078 49.1787 34.2639 49.3178 34.4814 49.3749C34.6988 49.4319 34.9303 49.4022 35.1257 49.2922C35.3164 49.1775 35.4548 48.9948 35.5124 48.7819C35.5699 48.5691 35.5421 48.3426 35.4347 48.1495C35.3415 47.9423 35.2934 47.718 35.2934 47.4913C35.2934 47.2646 35.3415 47.0404 35.4347 46.8331C35.5406 46.6397 35.5676 46.4137 35.5101 46.2013C35.4527 45.9889 35.3152 45.8061 35.1257 45.6904C34.9307 45.5805 34.6997 45.5509 34.4828 45.608C34.2658 45.665 34.0805 45.8041 33.9669 45.9951L33.9638 45.9829Z" fill="#4AAE34" stroke="#4AAE34"/>
<path d="M21.6646 43.2431L25.3729 44.3706C25.2493 43.9043 25.1257 43.4381 24.999 42.9719C24.0283 43.9209 22.9228 44.7257 21.7172 45.3609C20.7561 45.8698 21.609 47.3142 22.5732 46.8053C23.9036 46.0967 25.1242 45.204 26.198 44.1542C26.301 44.0502 26.3749 43.9215 26.4125 43.7809C26.45 43.6403 26.45 43.4924 26.4123 43.3518C26.3746 43.2112 26.3007 43.0827 26.1976 42.9787C26.0945 42.8747 25.9658 42.7989 25.8241 42.7586L22.1158 41.6311C21.0713 41.3264 20.6263 42.9292 21.6677 43.2431H21.6646Z" fill="#4AAE34" stroke="#4AAE34"/>
<path d="M51.2503 40.9909C50.0795 41.5231 48.9621 42.1628 47.9129 42.9015C47.7883 42.9778 47.6856 43.0842 47.6143 43.2106C47.5431 43.3369 47.5056 43.4791 47.5056 43.6237C47.5056 43.7683 47.5431 43.9105 47.6143 44.0369C47.6856 44.1633 47.7883 44.2696 47.9129 44.3459C48.8338 45.0426 49.8175 45.6546 50.8517 46.1743C51.822 46.6649 52.6811 45.2235 51.7077 44.7329C50.6736 44.2113 49.6891 43.5994 48.7658 42.9046V44.349C49.8157 43.6097 50.9342 42.97 52.1063 42.4384C53.0983 41.9874 52.2361 40.546 51.2503 40.9939V40.9909Z" fill="#4AAE34" stroke="#4AAE34"/>
<path d="M20.4502 39.077C21.1573 38.4952 22.0314 38.1465 22.9499 38.0798C23.8683 38.0131 24.7848 38.2319 25.5707 38.7053C26.4977 39.2538 27.363 37.8094 26.4267 37.2609C25.3148 36.6094 24.0231 36.3201 22.735 36.4339C21.4469 36.5477 20.2279 37.0588 19.2512 37.8947C18.4137 38.5895 19.6189 39.7657 20.4502 39.077Z" fill="#4AAE34" stroke="#4AAE34"/>
<path d="M47.9995 38.6872C48.7731 38.1872 49.6683 37.9007 50.5921 37.8573C51.516 37.8139 52.4347 38.0152 53.2529 38.4403C54.2202 38.934 55.0762 37.4926 54.1089 36.9959C53.0292 36.425 51.8152 36.1471 50.5908 36.1904C49.3665 36.2338 48.1758 36.5969 47.1404 37.2428C46.2134 37.8156 47.0694 39.2631 47.9964 38.6872H47.9995Z" fill="#4AAE34" stroke="#4AAE34"/>
<path d="M28.1912 75.504C32.7585 79.3618 39.8722 79.9652 45.3883 78.0577C46.4111 77.7042 45.9693 76.0891 44.9371 76.4457C40.0607 78.1338 33.4816 77.7803 29.3902 74.3126C28.5651 73.6178 27.3599 74.794 28.1912 75.4949V75.504Z" fill="#4AAE34" stroke="#4AAE34"/>
<path d="M28.4662 73.1609C22.7693 74.0914 17.505 76.7404 13.3981 80.7433C9.29118 84.7462 6.54362 89.9061 5.53368 95.5125C5.33591 96.5638 6.96756 97.0148 7.16842 95.9574C9.24505 84.8867 17.6752 76.6896 28.9174 74.7729C29.9897 74.5901 29.5354 72.9781 28.4662 73.1609Z" fill="#4AAE34" stroke="#4AAE34"/>
<path d="M54.9772 74.3827C59.3654 76.8205 63.6484 79.4868 66.5377 83.6615C69.1706 87.4645 70.5273 91.9074 71.3492 96.396C71.5439 97.4534 73.1787 97.0055 72.984 95.9542C72.0569 90.9475 70.4562 85.9927 67.3227 81.882C64.3159 77.9358 60.141 75.3212 55.8332 72.9383C54.8815 72.4111 54.0255 73.8525 54.9772 74.3827Z" fill="#4AAE34" stroke="#4AAE34"/>
<path d="M23.9111 76.0556C26.1576 78.641 29.1734 80.4622 32.5298 81.2603C33.5866 81.5194 34.0409 79.9074 32.9779 79.6483C29.9079 78.9202 27.1525 77.2479 25.1101 74.8733C24.3963 74.0536 23.2035 75.242 23.9111 76.0556Z" fill="#4AAE34" stroke="#4AAE34"/>
<path d="M35.5366 82.0803C38.7535 82.7659 42.0757 82.8208 45.3141 82.2418C46.3864 82.056 45.9321 80.4439 44.8629 80.6298C41.9213 81.1494 38.9049 81.0945 35.9847 80.4683C34.9217 80.2459 34.4674 81.8548 35.5366 82.0803Z" fill="#4AAE34" stroke="#4AAE34"/>
<path d="M27.0446 11.4117C28.5948 9.82271 30.6715 8.83451 32.8975 8.62651C33.976 8.52595 33.9853 6.85302 32.8975 6.95357C30.2254 7.17611 27.7236 8.33878 25.8487 10.2294C25.0823 10.9973 26.2813 12.1796 27.0446 11.4117Z" fill="white" stroke="#4AAE34"/>
<path d="M37.8976 7.77006L38.0676 7.6055C38.8401 6.84368 37.6411 5.66135 36.8686 6.42316L36.6986 6.59077C35.926 7.35259 37.1251 8.53492 37.8976 7.77006Z" fill="white" stroke="#4AAE34"/>
</svg>
