<svg width="705" height="537" viewBox="0 0 705 537" fill="none" xmlns="http://www.w3.org/2000/svg">
				<path d="M0 8C0 3.58173 3.58172 0 8 0H460.839C463.981 0 466.832 1.83927 468.128 4.70185L703.887 525.702C706.284 530.997 702.411 537 696.599 537H8.00001C3.58174 537 0 533.418 0 529V8Z" fill="#4AAE34" fill-opacity="0.8" style="mix-blend-mode:multiply"/>
				<path d="M0 8C0 3.58173 3.58172 0 8 0H460.839C463.981 0 466.832 1.83927 468.128 4.70185L703.887 525.702C706.284 530.997 702.411 537 696.599 537H8.00001C3.58174 537 0 533.418 0 529V8Z" fill="#272B30" fill-opacity="0.4"/>
			</svg>
