<svg width="116" height="83" viewBox="0 0 116 83" fill="none" xmlns="http://www.w3.org/2000/svg">
<g opacity="0.3">
<path d="M52.8607 82.7696C50.1796 82.7998 47.4988 82.678 44.8314 82.4047C44.2231 82.4047 43.6453 82.1613 43.0675 82.1005C41.5772 82.1005 40.026 81.9484 38.5662 81.7051C36.0114 81.3097 33.4567 80.7927 30.9019 80.3061C29.9666 80.2004 29.0591 79.9219 28.2254 79.4849C28.1078 79.4405 27.9781 79.4405 27.8605 79.4849C27.1515 79.3997 26.4623 79.194 25.8227 78.8766C24.7278 78.2684 23.5113 77.873 22.4164 77.1735C21.3215 76.4739 20.3178 76.1394 19.375 75.5615C17.8239 74.6187 16.3336 73.5846 14.8129 72.5201C14.1742 72.1248 13.5051 71.7598 12.8968 71.334C11.7411 70.5128 10.5549 69.6612 9.46001 68.7487C8.37228 67.9109 7.35507 66.9852 6.41861 65.9811C4.93929 64.5638 3.5669 63.0389 2.31271 61.419C1.41779 59.9223 0.8093 58.2722 0.518302 56.5528C0.164238 54.8216 -0.00898564 53.0582 0.00131682 51.2912C0.00131682 50.105 0.00131682 48.9493 0.00131682 47.7632C-0.00801103 47.5812 0.0323532 47.4002 0.118079 47.2395C0.203805 47.0788 0.331672 46.9444 0.487951 46.8508C1.30913 46.3337 2.09988 45.8167 2.95147 45.3301C4.09151 44.5599 5.18804 43.7273 6.23614 42.8361C7.11357 42.1107 7.89088 41.2721 8.54762 40.3422C8.65225 40.1639 8.81252 40.025 9.00381 39.9468C9.4665 39.713 9.94401 39.5098 10.4333 39.3385C11.1936 39.0344 11.954 38.6694 12.7448 38.4261C14.0221 38.0307 15.2995 37.6961 16.5769 37.392C19.3298 36.8257 22.0121 35.9588 24.5757 34.8068L29.3812 32.5866C30.185 32.1714 30.9667 31.7145 31.723 31.218C32.9396 30.3968 34.0954 29.454 35.3727 28.6937C37.2584 27.5683 39.2049 26.5342 41.1514 25.5001C43.0979 24.4661 44.1928 23.9186 45.9264 23.2191C47.66 22.5196 48.6027 22.2155 49.9409 21.7288C51.2792 21.2422 53.2865 20.4211 54.8984 19.6607C55.6284 19.2957 56.4496 19.0828 57.2099 18.7787C59.0348 18.0487 60.8596 17.258 62.6844 16.5584C64.0226 16.0414 65.3609 15.5852 66.7295 15.0986C67.244 14.8644 67.7721 14.6613 68.311 14.4903C69.7404 14.0645 71.2003 13.6995 72.5994 13.2433C73.9984 12.7871 74.9108 12.3309 76.0665 11.8443L76.7053 11.5706C78.0739 11.0536 79.4729 10.5669 80.8415 10.0195C81.5554 9.7725 82.2559 9.48825 82.9401 9.16787L87.6846 7.00851L90.1786 5.91356C90.8781 5.60942 91.5472 5.2749 92.2467 5.00118C92.9463 4.72745 94.4974 4.2104 95.6227 3.7542C96.748 3.29799 97.8733 2.75054 98.9986 2.2335C100.124 1.71646 100.793 1.41237 101.706 1.0474C102.618 0.682437 103.47 0.439069 104.352 0.13493C104.621 -0.00372432 104.932 -0.0369118 105.225 0.0418358C105.517 0.120583 105.77 0.305646 105.933 0.56077C106.515 1.19064 107.063 1.85049 107.575 2.53766C108.427 3.9367 109.187 5.42699 109.948 6.91727C110.708 8.40755 111.438 9.95866 112.107 11.5706C112.776 13.1825 113.05 13.882 113.476 15.0682C114.249 17.0374 114.839 19.0736 115.24 21.151C115.474 22.2967 115.646 23.4541 115.757 24.6182C115.757 25.9868 116 27.3554 116 28.7545C116 30.1535 115.787 32.1304 115.665 33.8032C115.609 34.6595 115.508 35.5123 115.361 36.3579C115.057 37.8482 114.723 39.3994 114.388 40.8592C114.236 41.5588 113.993 42.2583 113.78 42.9578C113.094 45.2449 112.156 47.4483 110.982 49.5272C110.1 51.1696 109.126 52.7815 108.153 54.363C106.566 57.2654 104.511 59.8858 102.07 62.1185C101.158 62.9701 100.367 63.9129 99.4548 64.7645C98.5424 65.6161 97.9342 66.0419 97.2042 66.6806C96.4743 67.3193 96.3831 67.3802 95.9877 67.7451C95.1206 68.5288 94.1604 69.203 93.1288 69.7525L88.8708 72.1855L84.2175 74.6795C83.7309 74.9532 83.2138 75.1965 82.7272 75.5006C81.557 76.175 80.3246 76.7353 79.0471 77.1735C78.013 77.5384 77.0094 77.9946 76.0057 78.3596C75.002 78.7245 74.2721 78.9678 73.4205 79.2112L69.5884 80.2757L66.547 80.9752L63.171 81.6747C62.7148 81.6747 62.2586 81.6747 61.772 81.8571L59.0651 82.1917L52.8607 82.7696ZM73.086 78.4508L74.0896 78.1466C73.9104 78.1032 73.7228 78.1086 73.5464 78.162C73.3699 78.2155 73.211 78.3152 73.086 78.4508C72.7514 78.4508 72.3865 78.4508 72.1432 78.6637H71.5957C69.3755 79.2416 67.0944 79.3328 64.8742 80.0019C63.6625 80.2936 62.4333 80.5069 61.1941 80.6406L60.7075 80.7927V81.0056H61.9545L70.44 79.3328C71.0032 79.1755 71.5525 78.972 72.0823 78.7245L73.086 78.4508ZM18.3409 61.5407C18.6451 61.8144 18.9188 62.1185 19.2229 62.3618L20.2266 63.183C20.2687 63.3323 20.3301 63.4753 20.409 63.6088L23.4504 66.4069C23.4504 66.4069 23.6634 66.4069 23.8763 66.4069C24.0892 66.4069 23.6937 66.1331 23.6025 66.0723C22.9942 65.464 22.4164 64.8558 21.7777 64.3083C21.139 63.7609 20.774 63.5175 20.257 63.1222C19.74 62.7268 19.6183 62.149 19.1925 61.7536C17.587 60.194 16.1121 58.5054 14.7824 56.7049C14.7824 56.7049 14.7824 56.5224 14.7824 56.4007C14.6175 56.2961 14.4645 56.1737 14.3263 56.0358L11.2849 51.3824C10.5549 50.1659 9.88581 48.9493 9.18629 47.7327C8.91257 47.2461 8.63884 46.7595 8.3347 46.2729C8.43429 46.9165 8.62905 47.5418 8.91258 48.1281C9.46003 49.1318 10.1292 50.105 10.7374 51.1695L12.3798 53.7851L14.0221 56.1574C14.081 56.2779 14.18 56.3741 14.3021 56.4296C14.4242 56.4851 14.5617 56.4964 14.6912 56.4616C14.6912 56.7353 14.6912 57.0698 14.6912 57.2827C15.3299 58.1952 15.999 59.1379 16.6985 59.9895C17.3981 60.8411 17.7022 60.9932 18.1888 61.5102C18.123 61.4048 18.0266 61.3222 17.9124 61.2733C17.7982 61.2243 17.6718 61.2115 17.5501 61.2365C17.5501 61.7535 17.9151 61.9056 18.1584 62.2098C18.3698 62.4921 18.6149 62.7474 18.8883 62.9701C19.1621 63.183 19.3142 63.6088 19.8921 63.7C19.7232 63.412 19.5188 63.1464 19.2837 62.9093C18.8818 62.5265 18.5702 62.0589 18.3714 61.5407H18.3409ZM29.8982 76.4131C29.6441 76.3536 29.3988 76.2616 29.1683 76.1394C28.5317 75.7792 27.7867 75.6604 27.0697 75.8048C25.9444 76.0481 24.7886 76.1697 23.6329 76.3522H23.268C23.3652 76.5494 23.5263 76.7079 23.7252 76.8017C23.924 76.8956 24.1487 76.9195 24.3628 76.8693C26.2239 76.9297 28.0849 76.7457 29.8982 76.3219C29.8982 76.626 29.8982 76.8389 29.6245 76.8998L28.2559 77.143L26.0356 77.5688C26.2415 77.8048 26.5005 77.9886 26.7913 78.105C27.0822 78.2213 27.3965 78.2669 27.7084 78.2379C29.1378 78.2379 30.5673 77.9338 31.9663 77.7513C32.2704 77.7513 32.5747 77.5688 32.9092 77.9642C31.8447 78.3291 30.7802 78.4204 29.594 78.8158C30.5964 79.2628 31.692 79.4611 32.7875 79.3936C34.0041 79.2416 35.2206 78.9679 36.4371 78.755L33.122 77.7209L29.8982 76.4131ZM1.06582 52.3252C1.06582 51.9907 1.06582 51.6562 1.06582 51.3216H0.883347V52.3252C0.805457 53.5486 0.897565 54.7769 1.15706 55.975C1.41658 57.9969 2.17997 59.9212 3.37722 61.5711C4.4919 62.9993 5.69036 64.3602 6.96613 65.6466C8.6725 67.4303 10.5695 69.0214 12.6231 70.3911C13.8396 71.2427 15.1474 71.9422 16.3336 72.8242C16.9496 73.2947 17.7219 73.5123 18.4929 73.4325C18.9182 73.4027 19.3451 73.4027 19.7704 73.4325L21.3214 73.615V73.7975C20.5915 74.1929 19.6791 73.7975 18.7971 74.2233C19.1012 74.497 19.3142 74.6795 19.6791 74.5274C19.8582 74.4347 20.0555 74.3829 20.257 74.3753L23.4504 74.6491L23.8763 74.862C22.8254 75.1383 21.7364 75.241 20.6524 75.1661C20.7916 75.4035 21.0006 75.5922 21.251 75.7065C21.5013 75.8208 21.7808 75.8551 22.0514 75.8048L26.6135 75.4094H27.0089L26.2181 74.9532C24.9103 74.2841 23.5417 73.615 22.2339 72.8851C21.6173 72.5568 21.0274 72.1806 20.4698 71.7598C20.1961 71.7598 20.0137 71.4252 20.2266 71.0298L20.7436 71.2427C22.3965 72.4386 24.1702 73.458 26.0356 74.2841C27.7388 75.0445 29.4116 75.8961 31.1452 76.5956C34.531 77.8627 38.0218 78.8295 41.5771 79.4849C41.8897 79.5311 42.2074 79.5311 42.5199 79.4849C42.8478 79.4683 43.174 79.5419 43.4629 79.6978C43.7973 79.9279 44.1839 80.0708 44.5876 80.1133C44.9913 80.1558 45.3993 80.0966 45.7743 79.9411C46.0133 79.7829 46.2936 79.6984 46.5803 79.6984C46.8669 79.6984 47.1472 79.7829 47.3862 79.9411L47.812 80.0932C48.9069 80.2452 49.9714 80.4582 51.0663 80.5798C53.9884 80.883 56.9339 80.883 59.8559 80.5798L61.924 80.2452C60.8 80.1691 59.6722 80.1691 58.5481 80.2452C56.6479 80.3362 54.7434 80.2446 52.8607 79.9715C52.643 79.9646 52.4301 79.9058 52.2396 79.8C52.0492 79.6942 51.8867 79.5445 51.7658 79.3633C51.6786 79.2396 51.5485 79.1528 51.4008 79.1199L49.576 78.8462C50.3668 79.3024 50.5188 79.3937 50.6101 79.637H50.1234C49.0285 79.4545 47.9032 79.3024 46.8388 79.0287C44.8923 78.5421 42.9762 77.9946 41.0297 77.4775C38.2065 76.563 35.4689 75.4029 32.8483 74.0104C30.9507 73.0577 29.1124 71.9913 27.3434 70.817C24.596 69.1815 22.071 67.1984 19.8312 64.9167C18.8579 63.8826 17.8847 62.8181 16.9419 61.8753C16.3944 61.2974 15.847 60.7195 15.33 60.0808C14.8129 59.4421 14.1438 58.6209 13.5051 57.8302C14.1438 57.8302 14.0526 58.5601 14.6609 58.408L12.8056 55.975C12.6535 55.7621 12.471 55.6099 12.3494 55.4274C11.4978 53.998 10.6462 52.5685 9.76416 51.1695C9.49044 50.6829 9.18627 50.2267 8.88213 49.7705H8.69966C8.97338 50.3179 9.2471 50.9262 9.55124 51.4737C10.5245 53.0856 11.5281 54.6975 12.5926 56.3095C12.7105 56.4512 12.7871 56.6228 12.8139 56.8052C12.8407 56.9876 12.8168 57.1738 12.7448 57.3435C12.6011 57.2301 12.4864 57.0842 12.4102 56.9178C11.8019 56.0054 11.1328 55.0929 10.5245 54.1501C9.5575 52.7076 8.72277 51.1807 8.03055 49.588C7.42227 48.1281 6.81403 46.5466 6.17534 45.2084C6.06131 45.0042 5.92896 44.8108 5.77995 44.6305C4.92836 45.1171 4.92837 45.1172 5.32376 45.7863C5.59682 46.226 5.84063 46.6831 6.05366 47.1548C6.75318 48.8276 7.45268 50.5308 8.12179 52.2036C8.32205 52.8568 8.58698 53.4886 8.91258 54.0893C9.91624 55.7012 11.0111 57.2827 11.954 58.8947L12.9576 60.4154C12.6839 60.1416 12.3798 59.8983 12.1364 59.6246C11.4369 58.7426 10.7375 57.891 10.0988 56.9786C9.3982 56.0172 8.77766 55 8.24347 53.9372C7.27022 51.7778 6.41865 49.5576 5.50623 47.3678C5.23204 46.7485 4.85116 46.1824 4.38093 45.695C4.04638 46.1817 4.38093 46.5466 4.38093 46.8508C5.05004 48.4019 5.77992 49.8922 6.41861 51.5041C6.78358 52.3557 7.08774 53.2377 7.39188 54.1197C7.48313 54.2371 7.53268 54.3816 7.53268 54.5303C7.53268 54.679 7.48313 54.8235 7.39188 54.9409C6.75319 53.4506 6.17533 51.8995 5.59747 50.6221C5.0196 49.3447 4.32007 47.7327 3.59014 46.2425L2.92103 46.6987C3.49889 48.0369 4.04637 49.3142 4.65464 50.5916C5.39598 51.815 5.86288 53.1848 6.02322 54.6063C5.91145 54.4937 5.80976 54.3716 5.71915 54.2413C4.92839 52.4165 4.10716 50.5613 3.28598 48.7364C3.06231 48.2741 2.80831 47.827 2.52563 47.3982C2.52563 47.3982 2.28231 47.2157 2.13024 47.1548C2.17161 47.555 2.2428 47.9515 2.34316 48.341C2.92102 49.9834 3.49894 51.6257 4.10722 53.2681C4.38094 54.0588 4.74587 54.7888 5.0196 55.5796C5.29332 56.3703 5.20207 56.3094 5.29331 56.6744H5.14128C5.14128 56.6744 4.83715 56.492 4.77633 56.3703C4.7155 56.2487 4.32005 55.3667 4.13757 54.8497C3.43805 52.8423 2.73858 50.835 2.00865 48.7669C1.93914 48.6186 1.85772 48.4762 1.76528 48.341C1.95686 51.9729 2.63193 55.563 3.77261 59.0163C3.23013 58.531 2.86605 57.8777 2.73855 57.161C2.34317 55.6708 1.94781 54.1197 1.52201 52.7206C1.33953 52.599 1.18742 52.4773 1.09617 52.3252H1.06582ZM112.989 37.9091C113.068 37.6602 113.129 37.4061 113.172 37.1487C113.172 36.875 113.172 36.5709 113.172 36.2971C113.88 32.8246 114.013 29.2593 113.567 25.7435C113.293 23.3712 112.898 21.0598 112.442 18.7179C112.168 17.258 111.651 15.8286 111.316 14.3383C110.944 12.7545 110.403 11.215 109.704 9.74574C108.914 8.07298 108.244 6.33941 107.575 4.63623C107.174 3.47671 106.495 2.43272 105.598 1.59483C105.416 1.41235 105.264 1.1994 104.868 1.35147C105.507 2.47678 106.085 3.57174 106.724 4.63623C107.788 6.58773 108.693 8.62193 109.431 10.719C109.826 11.8443 110.13 13 110.495 14.1254C110.86 15.2507 111.073 15.6764 111.316 16.4672C111.712 17.775 111.955 19.0828 112.229 20.4211C112.428 21.3353 112.58 22.2591 112.685 23.1887C112.685 24.0099 112.685 24.831 112.867 25.6826L113.05 28.9369C113.084 29.3147 113.01 29.6944 112.837 30.0319C112.686 29.7618 112.602 29.4592 112.594 29.1498C112.594 28.1462 112.594 27.1121 112.381 26.1085C112.198 24.5573 111.985 23.0671 111.742 21.4856C111.742 20.7252 111.438 19.9649 111.286 19.2045C111.246 18.9464 111.185 18.6921 111.103 18.4442C110.678 17.3493 110.525 16.1935 110.008 15.0986C109.491 14.0037 108.701 11.8747 108.001 10.2932C107.528 9.25197 107.001 8.23673 106.42 7.25178C105.811 6.12646 105.142 5.06199 104.504 3.93667C104.199 3.38922 103.895 2.81139 103.561 2.26394C103.226 1.71649 103.105 1.56438 102.375 1.8381C101.645 2.11183 100.671 2.62888 99.8199 2.99385L94.4974 5.18365L90.3003 6.88683L87.4717 8.16425L86.2856 8.74212L83.2442 10.1411C82.0277 10.6582 80.7807 11.1752 79.5642 11.6314C78.3476 12.0876 76.9181 12.6047 75.6103 13.0913L73.8159 13.8516L72.5994 14.3383C71.1395 14.9161 69.558 15.129 68.1285 15.6765C66.6991 16.2239 65.8779 16.4368 64.783 16.893C63.6881 17.3492 62.9278 17.6837 61.9849 18.0791L61.2549 18.3225C61.0023 18.3724 60.7571 18.4541 60.525 18.5658L58.0615 19.5695L54.0164 21.2118L50.975 22.4284C49.1198 23.1279 47.2037 23.7058 45.4093 24.5878L40.1477 27.173C39.6002 27.4467 39.0528 27.7203 38.5054 28.0549C37.4409 28.6936 36.3763 29.3931 35.3118 30.0622C34.2474 30.7313 33.0612 31.6134 31.9055 32.2825C30.9496 32.9059 29.9301 33.4259 28.8641 33.8336L28.5296 34.0464C28.043 34.2898 27.5868 34.5939 27.1001 34.8068C26.0661 35.263 25.032 35.6584 24.0587 36.0842C22.3917 36.8261 20.6612 37.4165 18.8883 37.8482C18.1888 38.0003 17.4589 38.122 16.7593 38.3045C16.0598 38.487 15.2691 38.7302 14.5087 38.9431H14.3567L14.9346 39.3689C13.0951 40.0031 11.4216 41.0425 10.0379 42.4103L11.1024 44.2351C11.9236 45.695 12.6839 47.2765 13.5355 48.5843C14.3871 49.8921 15.6645 52.0515 16.8202 53.7243C17.8885 55.2803 19.0462 56.7731 20.2874 58.1951C21.3021 59.2706 22.3785 60.2861 23.5112 61.2365C24.1803 61.8144 24.9712 62.3314 25.6707 62.8789L26.6439 63.6697L29.1075 65.5858C30.2024 66.3765 31.2668 67.2281 32.3921 67.9581C33.5175 68.688 35.1294 69.4483 36.4676 70.2391C38.2908 71.3485 40.2549 72.2078 42.3071 72.7939C43.6453 73.1588 44.9835 73.615 46.3521 73.9496C47.7207 74.2841 48.9981 74.4666 50.3363 74.6795C51.6746 74.8924 53.3777 75.1662 54.8072 75.3791C56.5435 75.6881 58.3054 75.8307 60.0688 75.8048L64.6005 75.5615C67.9462 75.3632 71.2773 74.9671 74.5762 74.3753C76.6375 74.0141 78.6703 73.5059 80.659 72.8547C82.5965 72.3473 84.4807 71.6547 86.2856 70.7865C87.7759 69.9958 89.327 69.4787 90.8782 68.688C92.0891 68.031 93.2392 67.2676 94.3149 66.4069C95.5314 65.4641 96.6568 64.3996 97.8125 63.3655C98.9683 62.3314 100.094 61.1757 101.188 60.0504C102.283 58.9251 103.135 57.891 104.23 56.7961C104.504 56.492 104.96 56.2487 105.051 55.8837C105.359 55.2062 105.704 54.5462 106.085 53.9067L106.967 51.9907C108.129 49.8724 109.145 47.6775 110.008 45.4213C110.313 44.6001 110.617 43.8094 110.89 43.0186C111.164 42.2278 111.468 41.3155 111.742 40.4943C111.947 39.8775 112.109 39.2474 112.229 38.6085C112.472 36.662 112.654 34.7156 112.867 32.7996C112.854 32.6134 112.895 32.4272 112.987 32.2648C113.079 32.1023 113.218 31.9709 113.384 31.8871C113.398 31.9574 113.398 32.0296 113.384 32.1C113.411 32.3833 113.411 32.6683 113.384 32.9516C113.263 34.4115 112.989 36.1451 112.989 37.9091ZM56.3583 78.8462C56.6707 78.8952 56.9888 78.8952 57.3012 78.8462C58.4739 78.4982 59.7018 78.3744 60.9204 78.4812C61.4167 78.5117 61.9144 78.5117 62.4107 78.4812C64.5385 78.3641 66.6538 78.0793 68.7368 77.6297C70.3792 77.2039 72.0823 76.8997 73.7551 76.5347L76.0057 75.9873C76.614 75.8352 77.2527 75.744 77.8306 75.5615C79.6858 75.0141 81.5106 74.4666 83.3355 73.8279C84.4348 73.5078 85.5035 73.0904 86.5289 72.5809C87.6988 71.9499 88.8358 71.2597 89.9353 70.5128L94.3149 67.4714C94.3848 67.4546 94.4578 67.4546 94.5278 67.4714C95.4311 67.1336 96.2508 66.6044 96.9305 65.9203C98.6033 64.4604 100.276 62.8789 101.858 61.3886C103.128 60.1687 104.307 58.8574 105.386 57.4652C106.399 56.0586 107.333 54.5965 108.184 53.0856C109.127 51.4432 109.948 49.7097 110.89 48.0673C112.084 45.7882 113.013 43.3799 113.658 40.8896C114.171 39.1461 114.488 37.3507 114.601 35.5368C114.601 34.4419 114.844 33.347 114.966 32.2825C115.088 31.218 115.24 30.4272 115.27 29.4844C115.301 28.5415 115.27 27.6292 115.27 26.6863C115.282 24.844 115.078 23.0066 114.662 21.2118C114.236 19.6607 113.871 18.1704 113.354 16.5584C112.837 14.9465 112.016 13.0608 111.316 11.3272C111.183 11.034 111.03 10.7495 110.86 10.4756C110.871 10.7877 110.932 11.096 111.043 11.3881C111.407 12.5134 111.803 13.6084 112.137 14.7337C112.472 15.859 112.533 16.5585 112.837 17.4405C113.264 18.746 113.559 20.0909 113.719 21.4551C114.054 23.432 114.236 25.4394 114.479 27.5379C114.733 29.8765 114.682 32.2381 114.327 34.5635C114.054 36.6013 113.689 38.6086 113.324 40.6463C113.115 41.6736 112.851 42.6889 112.533 43.6877C112.198 44.7218 111.772 45.695 111.347 46.7291C111.134 47.2157 110.891 47.7024 110.647 48.189L108.761 51.5953C108.656 51.7507 108.534 51.8935 108.397 52.0211H108.244C108.64 51.1391 108.974 50.2571 109.4 49.4055C109.826 48.5539 110.343 47.6719 110.769 46.7899C111.148 45.9357 111.483 45.0628 111.773 44.1743C112.299 42.7216 112.646 41.21 112.807 39.673C112.697 39.9611 112.606 40.2557 112.533 40.5551L111.62 43.049C111.134 44.3872 110.678 45.7254 110.13 47.0636C109.583 48.4018 109.005 49.2534 108.488 50.4092C107.638 52.2959 106.684 54.1338 105.629 55.9141L105.355 56.279C104.595 57.1306 103.774 57.9518 103.105 58.8642C101.93 60.3824 100.639 61.8061 99.242 63.1222C97.5511 64.7636 95.7417 66.2783 93.8283 67.6539C92.3137 68.877 90.6474 69.8993 88.8708 70.6953C88.1409 70.9994 87.3805 71.3036 86.681 71.6686C85.3979 72.3583 84.0268 72.8699 82.6056 73.1893H82.3926C80.9632 73.615 79.5642 74.0712 78.1347 74.4666C77.2123 74.7059 76.2784 74.8987 75.3366 75.0445C73.5118 75.3486 71.687 75.6832 69.8621 75.9265C68.0373 76.1698 67.0032 76.1089 65.5737 76.1698C64.7222 76.1698 63.8706 76.1698 63.019 76.1698C62.1674 76.1698 61.4678 76.3826 60.6771 76.4435C59.1508 76.6107 57.6109 76.6107 56.0846 76.4435C54.5639 76.1697 53.0432 76.0177 51.4616 75.744C49.8801 75.4703 47.8424 75.1357 46.048 74.7403C44.8922 74.497 43.7974 74.0712 42.6721 73.7367C41.5467 73.4021 40.8168 73.2196 39.9348 72.8242C39.0528 72.4288 37.745 71.7902 36.6805 71.2427L34.6124 70.1174C34.217 69.8741 33.852 69.6004 33.4262 69.3875C32.0685 68.682 30.7759 67.8575 29.5637 66.9239C28.3321 65.7896 26.9983 64.7715 25.5794 63.8825C24.9408 63.3351 24.2716 62.8181 23.6634 62.2402C22.8019 61.6117 22.0339 60.8641 21.3823 60.02C21.2205 59.7276 21.0037 59.4694 20.7436 59.2596C20.063 58.6984 19.4775 58.0309 19.01 57.2827C18.926 57.1384 18.8238 57.0055 18.7059 56.8873C18.1888 56.3095 17.611 55.7316 17.1244 55.0929C16.1815 53.7851 15.2386 52.4773 14.387 51.1087C13.5355 49.7401 12.4101 47.824 11.3457 46.1817C10.9807 45.5734 10.6158 44.9955 10.2812 44.3873C9.94669 43.779 9.67291 43.1098 9.36877 42.5015C9.25261 42.355 9.11992 42.2224 8.97337 42.1062L8.12179 42.9578C7.7264 43.414 7.7264 43.414 8.12179 43.9614L10.3725 47.7936C11.3457 49.436 12.2885 51.0783 13.2617 52.6902C13.6571 53.3897 14.083 54.0589 14.5392 54.728C15.4212 55.9749 16.2423 57.2219 17.1852 58.408C18.128 59.5942 18.9492 60.3545 19.8616 61.4494L24.4845 66.3765C24.6366 66.559 24.8191 66.7719 24.8191 66.9543C24.8191 67.1368 24.5758 67.2889 24.4541 67.4714L24.9103 67.8668C25.0762 68.0714 25.2922 68.2294 25.5375 68.3253C25.7827 68.4213 26.0487 68.4519 26.3094 68.4142C26.5222 68.4142 26.796 68.4142 27.0089 68.688C27.2218 68.9617 28.0125 69.4179 28.56 69.722C29.1074 70.0262 30.3544 70.5736 31.2059 71.0298C32.2748 71.431 33.295 71.9514 34.2473 72.5809C34.421 72.7078 34.617 72.8007 34.8252 72.8547L38.3532 74.1016L40.2085 74.862C41.4733 75.4254 42.7864 75.8733 44.1319 76.2002C44.953 76.2002 45.7743 76.3827 46.5955 76.5652C47.8729 76.8389 49.1198 77.1734 50.3972 77.4775L52.8303 77.9946L55.8717 78.4812C55.9021 78.0555 56.2671 78.2075 56.2366 78.8462H56.3583ZM40.6343 79.5458L38.5054 79.0591C38.3242 79.0285 38.139 79.0285 37.9578 79.0591L35.464 79.637L34.4603 79.9411C36.4068 80.7623 38.2925 79.9411 40.2085 79.9411C40.3234 79.8094 40.4253 79.6667 40.5127 79.5153L40.6343 79.5458ZM46.7171 79.9715C46.5346 80.4581 46.1088 80.3973 45.683 80.3973H45.3181L43.0978 80.7623L42.7025 80.9143C44.5367 81.2624 46.4288 81.1475 48.2074 80.5798V80.4277L46.7171 79.9715ZM103.865 1.26023C104.443 2.20306 104.929 3.20672 105.446 4.30162C105.963 5.39653 106.663 6.21771 107.271 7.16054C106.437 5.03454 105.289 3.04564 103.865 1.26023ZM80.6895 75.3791C80.3515 75.5189 80.0063 75.6407 79.6554 75.744L73.7247 77.2343C73.5769 77.2929 73.4345 77.3641 73.2989 77.4472V77.6297C75.9003 77.2992 78.4287 76.5387 80.7807 75.3791H80.6895ZM72.8123 77.5992H72.4169C71.3138 77.8634 70.1969 78.0665 69.0713 78.2075C68.3078 78.2601 67.5628 78.4669 66.8815 78.8158C68.9537 78.8564 71.0096 78.4411 72.9035 77.5992H72.8123ZM46.9604 81.5531C48.3616 81.7115 49.7795 81.4909 51.0663 80.9143C50.5784 80.7181 50.0335 80.7181 49.5456 80.9143L47.8728 81.3402L46.9604 81.5531ZM44.4665 76.8389C46.3895 77.3421 48.339 77.7382 50.306 78.0251C48.4338 77.4406 46.5083 77.0432 44.5577 76.8389H44.4665ZM12.6231 39.4298C11.5013 39.78 10.4124 40.2278 9.36877 40.768C9.52084 41.3763 9.70335 41.4675 10.0683 41.1329C10.71 40.5186 11.4638 40.0334 12.2886 39.7035C12.2886 39.7035 12.6231 39.5818 12.6231 39.4298ZM40.3606 80.3061V80.4886C41.2965 80.4787 42.227 80.3457 43.1283 80.0932C42.2462 79.5153 41.3643 80.2453 40.4215 80.3061H40.3606ZM41.5771 76.8389V76.6259L38.9008 75.7744V75.9265L41.5771 76.8389ZM47.6599 78.39L45.2268 77.8729V78.0251L47.6599 78.39ZM57.9095 81.4314C57.2099 81.1273 57.1795 81.1272 56.7841 81.6747L57.9095 81.4314ZM31.7535 72.3072C31.4797 71.7294 31.4493 71.6989 30.9931 72.0031C31.0725 72.1162 31.188 72.1989 31.3207 72.2376C31.4533 72.2763 31.5953 72.2687 31.723 72.216L31.7535 72.3072ZM109.948 9.38079H110.1L109.522 8.1946H109.37L109.948 9.38079ZM61.4678 79.3328H63.2319H61.4678ZM39.0224 80.6711V80.884H39.509C39.509 80.884 39.509 80.8839 39.509 80.6406L39.0224 80.6711ZM43.4932 77.3863H43.0978H43.4932ZM48.4202 78.6333H48.177C48.177 78.6333 48.3899 78.6029 48.4811 78.6333H48.4202Z" fill="#49535E"/>
<path d="M59.4908 41.4061C59.7032 42.2444 59.7032 43.1225 59.4908 43.9608C59.292 44.4087 59.0687 44.8453 58.8217 45.2686C58.1845 46.3852 57.3965 47.4086 56.4799 48.31C56.2427 48.6124 56.1237 48.9908 56.1453 49.3745C56.8408 49.6386 57.609 49.6386 58.3046 49.3745C58.8437 49.228 59.4127 49.2328 59.9492 49.3884C60.4857 49.544 60.9689 49.8444 61.346 50.2565C62.0039 50.8751 62.8286 51.2874 63.7183 51.4426C64.4855 51.5603 65.2692 51.5098 66.0149 51.2945C66.7607 51.0792 67.4507 50.7042 68.0371 50.1956C68.3256 50.0216 68.6463 49.9078 68.9799 49.8611C70.1665 49.741 71.3651 49.8546 72.508 50.1956C73.0471 50.3139 73.6108 50.2272 74.0895 49.9524C74.6899 49.6062 75.2597 49.2094 75.7926 48.7663L76.7963 48.0363C77.1613 47.793 77.4958 47.5193 77.8912 47.3064C78.2448 47.153 78.6112 47.0309 78.9861 46.9414C79.217 46.8947 79.4548 46.8947 79.6856 46.9414C80.8599 47.0047 82.0201 46.6609 82.9704 45.9681C83.1024 45.8919 83.2164 45.7882 83.3049 45.664L84.6431 43.2005C84.8256 42.9267 84.9776 42.6226 85.1905 42.3489C85.2419 42.2906 85.3051 42.2439 85.3759 42.212C85.4467 42.18 85.5235 42.1635 85.6011 42.1635C85.6788 42.1635 85.7556 42.18 85.8264 42.212C85.8972 42.2439 85.9604 42.2906 86.0118 42.3489L84.0044 45.9073C83.9049 46.0898 83.7704 46.2509 83.6087 46.3814C83.4469 46.5118 83.261 46.6091 83.0616 46.6677C82.5141 46.8806 81.9971 47.1847 81.4497 47.4584C80.6815 47.6554 79.8759 47.6554 79.1077 47.4584C78.9472 47.4136 78.777 47.4187 78.6194 47.4731C78.4619 47.5274 78.3246 47.6284 78.2258 47.7626C77.2465 48.9231 76.689 50.3811 76.6442 51.8989C76.6442 52.933 76.6442 53.9975 76.6442 54.9403C76.6442 55.0924 76.6442 55.214 76.6442 55.3965C75.9183 53.4451 75.8437 51.3111 76.4314 49.3137L74.8498 50.5302C74.2923 50.9176 73.6412 51.1487 72.9641 51.1993C72.7024 51.2078 72.4422 51.1558 72.2038 51.0473C71.4451 50.8037 70.6578 50.6605 69.862 50.6215C69.862 50.6215 69.862 50.804 69.862 50.8344C70.4398 51.3514 70.4094 52.1421 70.6223 52.7808C70.8714 53.6295 70.9843 54.5124 70.9568 55.3965C70.8482 55.9219 70.6529 56.4255 70.3789 56.8867C70.7135 56.8867 71.0785 56.4913 71.3218 57.0388C72.1713 55.326 72.6285 53.4455 72.66 51.5338C73.0858 51.5338 73.0858 51.8684 73.0858 52.1117C73.1004 53.8616 72.7373 55.5941 72.0213 57.1909C71.645 58.0175 71.083 58.746 70.3789 59.3198C70.1052 59.3198 70.166 59.0462 70.3789 58.8333L71.261 57.5254L70.8352 57.7688C70.3182 58.1641 69.8619 58.6203 69.3449 58.9853C68.8953 59.2822 68.352 59.403 67.8189 59.3244C67.2858 59.2459 66.8005 58.9735 66.4556 58.5595L66.0906 58.1642L65.8169 57.9512C65.6804 58.4902 65.6804 59.0547 65.8169 59.5936C65.8169 60.1411 66.3947 60.3843 66.7597 60.7797C66.5525 60.8209 66.3378 60.7995 66.1428 60.7183C65.9479 60.637 65.7815 60.4996 65.6648 60.3235C65.2938 59.7796 65.1219 59.1242 65.1782 58.4682C65.2905 56.668 65.7664 54.9092 66.5772 53.2979C66.7293 53.0242 66.8509 52.7505 67.2463 52.72C67.3909 52.6802 67.5188 52.5948 67.6113 52.4767C67.9762 52.0813 68.2804 51.6556 68.7062 51.1385C68.5541 51.1385 68.4324 51.1385 68.3716 51.1385C67.4621 51.6842 66.4926 52.1231 65.4823 52.4463C65.4346 52.4682 65.3827 52.4795 65.3302 52.4795C65.2777 52.4795 65.2259 52.4682 65.1782 52.4463C63.9303 52.4268 62.7111 52.0695 61.6502 51.4123C61.4167 51.2437 61.2025 51.0499 61.0115 50.8344C60.7406 50.5607 60.4106 50.3526 60.0469 50.2261C59.6831 50.0996 59.2952 50.0579 58.9129 50.1044C58.9129 50.1044 59.5212 50.4086 59.6125 50.6519C59.7181 50.8915 59.7725 51.1504 59.7725 51.4123C59.7725 51.6741 59.7181 51.933 59.6125 52.1726L58.2438 55.1836C58.1379 55.32 58.0153 55.4426 57.8789 55.5485C57.5443 55.5485 57.6051 55.1836 57.7267 54.9403L58.9129 52.4767C59.0543 52.2765 59.1302 52.0375 59.1302 51.7924C59.1302 51.5474 59.0543 51.3083 58.9129 51.1081C58.5784 52.0509 58.2743 52.9634 57.9093 53.8758C57.5443 54.7882 57.1489 55.7006 56.7536 56.613C56.6389 56.8151 56.4954 56.9995 56.3277 57.1604C56.054 57.4646 55.5674 57.5863 55.4457 58.0729C55.324 58.5595 55.172 58.2554 55.0504 58.2554C54.3988 58.2501 53.7484 58.1992 53.1039 58.1033C52.791 57.9892 52.5168 57.7888 52.3131 57.5254C52.1368 57.2658 51.9842 56.991 51.8569 56.7043H51.6744C51.6744 56.8867 51.3702 57.0692 51.1878 56.8867C51.1418 56.8139 51.1175 56.7296 51.1175 56.6435C51.1175 56.5573 51.1418 56.4729 51.1878 56.4001C51.9636 54.4179 53.1093 52.6014 54.5638 51.0473C54.7641 50.8963 54.9779 50.7639 55.2024 50.6519C55.1324 51.0521 54.9287 51.4166 54.6246 51.686C54.3754 51.9457 54.1418 52.2198 53.925 52.5071C54.4725 52.1117 55.02 51.686 55.5978 51.321C56.1757 50.9561 56.8144 50.6823 57.4227 50.2565H56.3886C55.6891 50.2565 55.3849 49.8307 55.4761 49.1008C55.5706 48.3866 55.9155 47.7292 56.4494 47.2456C57.3493 46.2164 58.1063 45.0706 58.7 43.8391C58.9507 43.4528 59.0631 42.9929 59.0189 42.5345C58.9747 42.0761 58.7766 41.6462 58.4567 41.3148C58.3695 41.2175 58.2667 41.1352 58.1526 41.0714C57.3352 40.5612 56.4692 40.1334 55.5674 39.7941C54.5719 39.5473 53.5515 39.4146 52.526 39.3987C52.031 39.3391 51.5307 39.3391 51.0357 39.3987C50.454 39.5201 49.8534 39.5201 49.2717 39.3987C49.0202 39.3537 48.7628 39.3537 48.5113 39.3987L45.7741 39.9766L44.588 40.3415C43.7364 40.6457 42.9152 40.9803 42.0636 41.3453L40.3909 42.1056C39.1907 42.646 38.2209 43.5942 37.6536 44.782C37.3799 45.3902 36.9845 45.9986 36.7108 46.6373C36.4629 47.1983 36.2595 47.778 36.1025 48.3709C35.3877 50.1445 35.1771 52.0812 35.4942 53.967C35.6161 55.039 35.9578 56.0744 36.4979 57.0084C36.8484 57.753 37.4226 58.3696 38.1403 58.7724C38.1403 58.4987 38.1402 58.2553 38.3227 58.012C38.4589 56.9552 38.767 55.9279 39.2351 54.9706C39.4567 54.3352 39.742 53.7238 40.0867 53.1458C40.6646 52.2638 41.2729 51.3819 41.9116 50.5607C42.0947 50.3553 42.3406 50.2163 42.611 50.1653C42.738 50.1561 42.8613 50.1185 42.9719 50.0553C43.0824 49.9921 43.1774 49.905 43.2498 49.8003C44.0283 48.5917 44.9932 47.5138 46.1087 46.6068C46.1087 46.6068 46.1087 46.6068 46.2912 46.3635L45.8958 45.5423C45.5308 45.816 45.2267 46.029 44.9529 46.2723C43.9513 47.1417 43.0986 48.1691 42.4285 49.3137C42.4285 49.3137 42.1852 49.3137 42.0636 49.3137C41.9982 49.1266 41.9863 48.925 42.0293 48.7316C42.0723 48.5381 42.1685 48.3605 42.3069 48.2187C43.4018 47.1238 44.4055 45.9681 45.3483 44.8732C45.8263 44.3953 46.3343 43.9484 46.869 43.5351H47.2035C47.3874 43.496 47.5626 43.4238 47.7206 43.3221C48.2448 42.8953 48.8623 42.5984 49.523 42.4557C50.1837 42.313 50.8688 42.3285 51.5224 42.5009C52.5884 42.7149 53.5826 43.1964 54.4116 43.9C54.6245 44.0521 54.8678 44.1433 55.172 44.3258C54.8374 45.4207 53.5905 45.3903 52.9518 46.1811L53.1646 46.6677C51.578 47.3181 50.1851 48.3654 49.1196 49.7091C49.1196 48.9792 49.1196 48.8878 50.8228 47.4584H50.3058C49.8871 47.4791 49.4703 47.5299 49.0588 47.6105C48.4145 47.7536 47.7398 47.6447 47.1731 47.3064C47.0286 47.2163 46.8562 47.182 46.6882 47.21C46.5203 47.238 46.3682 47.3263 46.2607 47.4584C45.622 48.0667 44.9834 48.6749 44.4055 49.344C43.585 50.2688 42.8802 51.2901 42.3069 52.3854L42.0636 52.568C41.729 52.0814 42.0636 51.7163 42.0636 51.2601C41.8203 51.5643 41.5162 51.8684 41.2729 52.203C40.2735 53.6952 39.4949 55.3239 38.9614 57.0388C38.8031 57.7198 38.6913 58.4108 38.6268 59.107C38.594 59.2757 38.6219 59.4505 38.7053 59.6007C38.7888 59.7509 38.9225 59.8668 39.0831 59.9281C39.578 60.1422 40.0859 60.325 40.6038 60.4756C41.3959 60.643 42.2143 60.643 43.0064 60.4756C42.9708 59.5476 43.203 58.629 43.6755 57.8296C43.7051 57.7097 43.7051 57.5845 43.6755 57.4646C43.6213 56.4963 43.8541 55.5335 44.3446 54.6969C45.1306 52.9728 46.0885 51.3323 47.2035 49.8003C47.395 49.5478 47.6201 49.3226 47.8727 49.1312C48.116 49.557 47.8727 49.8307 47.7206 50.074C47.5455 50.3597 47.3525 50.6339 47.1428 50.8952C46.0576 52.4519 45.1497 54.1249 44.4359 55.8831C44.3896 56.1344 44.3896 56.3921 44.4359 56.6435C44.4235 57.3767 44.2358 58.0962 43.8884 58.742C43.7537 59.0219 43.6837 59.3285 43.6837 59.6392C43.6837 59.9498 43.7537 60.2565 43.8884 60.5364L47.2948 60.141C47.1265 58.603 47.5507 57.0586 48.481 55.8222C48.5686 55.9176 48.6172 56.0425 48.6172 56.172C48.6172 56.3016 48.5686 56.4264 48.481 56.5218C48.1382 57.2844 47.9126 58.0945 47.8119 58.9245C47.7664 59.2066 47.7664 59.494 47.8119 59.7761C47.8119 59.9858 47.8951 60.1869 48.0434 60.3352C48.1917 60.4835 48.3928 60.5668 48.6026 60.5668L49.515 60.7493C49.2576 60.129 49.181 59.4486 49.294 58.7866C49.4071 58.1246 49.7051 57.5082 50.1537 57.0084C50.4274 57.2213 50.1537 57.4038 50.1537 57.5863C49.9798 58.1043 49.8376 58.6324 49.728 59.1678C49.6767 59.5302 49.7196 59.8998 49.8528 60.2407C49.986 60.5817 50.2049 60.8826 50.4883 61.1143C50.8229 61.4489 51.0965 61.8746 51.4615 62.1787C51.8264 62.4829 52.4043 62.8479 53.0126 63.2737C52.7483 62.7032 52.6321 62.0753 52.6746 61.4481C52.7171 60.8208 52.917 60.2144 53.2559 59.6849C53.2559 59.8978 53.408 60.0498 53.2559 60.2018C53.0432 61.1121 53.0432 62.0592 53.2559 62.9695C53.408 63.5474 53.2559 63.6082 53.9554 63.6994H54.4725C53.9762 62.9869 53.7204 62.1344 53.7425 61.2663C53.8913 60.3853 54.2456 59.5518 54.7766 58.8333C55.0807 59.3503 54.7766 59.6544 54.7766 59.9889C54.5839 60.4619 54.4313 60.9503 54.3204 61.4488C54.2604 61.7321 54.2736 62.0259 54.3587 62.3026C54.4439 62.5794 54.5982 62.8298 54.807 63.0303C54.9053 63.1219 54.9785 63.2371 55.0199 63.3649C55.0199 63.882 55.3849 63.8211 55.8411 63.7299C55.5728 63.2193 55.4103 62.6598 55.3633 62.085C55.3162 61.5101 55.3857 60.9317 55.5674 60.3843C55.8476 59.6257 56.1727 58.8844 56.5406 58.1642C56.666 57.97 56.8198 57.7956 56.9968 57.6471H57.2402C57.3923 57.9512 57.2401 58.1641 57.0576 58.4074C56.3596 59.4251 55.9498 60.6126 55.8715 61.8442C55.9352 62.7537 56.3113 63.6133 56.936 64.2773C58.1018 64.9667 59.3775 65.4502 60.7073 65.7068C61.6562 65.8499 62.6254 65.7665 63.5358 65.4635H64.3266C65.6692 65.3542 66.9899 65.0573 68.25 64.5815C68.8887 64.4294 69.5274 64.5815 70.1661 64.3077C70.8048 64.034 72.0213 63.7603 72.9337 63.4866L73.9374 63.152L77.6784 61.9963C77.8318 61.9242 77.9749 61.8322 78.1041 61.7225C77.3182 60.3265 76.88 58.7617 76.8267 57.1604C76.812 56.9478 76.812 56.7344 76.8267 56.5218H77.0093L77.283 57.3429C77.5567 58.4074 77.7999 59.472 78.0737 60.5364C78.1402 60.7591 78.232 60.9734 78.3474 61.1751C78.3793 61.235 78.4228 61.288 78.4753 61.3311C78.5277 61.3743 78.5882 61.4067 78.6531 61.4265C78.7181 61.4462 78.7863 61.453 78.8539 61.4464C78.9215 61.4398 78.987 61.42 79.0469 61.388L80.5981 60.7189C80.1395 60.595 79.7163 60.3654 79.3624 60.0485C79.0086 59.7316 78.7339 59.3362 78.5603 58.8941C78.2308 58.1819 78.1045 57.3925 78.1954 56.613C78.4637 57.0003 78.6595 57.4332 78.7732 57.8904C78.9446 58.3698 79.1479 58.8372 79.3815 59.2895C79.5198 59.5157 79.7057 59.709 79.9263 59.8561C80.1469 60.0032 80.3969 60.1004 80.6589 60.141L81.4192 60.4148C82.3621 60.141 83.3049 59.9281 84.2173 59.5632C85.1298 59.1982 85.5859 58.8028 86.2855 58.5291C86.9109 58.2013 87.4683 57.7575 87.9278 57.2213C87.6953 56.9726 87.4291 56.7575 87.1371 56.5826C86.4172 56.2163 85.7776 55.7103 85.2554 55.0941C84.7332 54.4779 84.339 53.7639 84.0957 52.9938C83.5117 51.4885 83.1927 49.8936 83.1528 48.2796C83.1377 48.067 83.1377 47.8535 83.1528 47.6409C83.1528 47.6409 83.1528 47.6409 83.1528 47.3368C83.2801 47.4583 83.3833 47.6028 83.457 47.7626C83.457 48.2492 83.457 48.7054 83.457 49.1616C83.6698 50.7705 84.1208 52.3387 84.7952 53.8149C85.1918 54.5697 85.7658 55.2169 86.4679 55.7006L88.1711 56.765C88.414 56.6435 88.6289 56.4725 88.8017 56.263C88.9746 56.0535 89.1017 55.8101 89.1748 55.5485C88.6578 55.2748 88.1407 55.0314 87.6845 54.7577C86.7049 54.1479 85.8938 53.3023 85.3253 52.2981C84.7568 51.2939 84.449 50.1633 84.4302 49.0095C84.4253 47.81 84.4964 46.6113 84.6431 45.4207C84.6431 45.4207 84.6431 45.4207 84.6431 45.1166C84.6431 45.4207 84.6431 45.5727 84.6431 45.7552C84.6431 46.5156 84.6431 47.2456 84.6431 48.0059C84.5625 49.5506 84.9666 51.0817 85.7988 52.3854C86.5122 53.6384 87.6936 54.5573 89.0836 54.9403C89.2559 54.9911 89.4399 54.9861 89.6093 54.926C89.7787 54.8659 89.9247 54.7538 90.0264 54.6057C90.578 53.882 91.2461 53.2551 92.0033 52.7505C92.4828 52.3831 92.9213 51.965 93.3111 51.5035C93.3563 51.4194 93.38 51.3253 93.38 51.2298C93.38 51.1342 93.3563 51.0401 93.3111 50.956C92.8683 49.8433 92.5718 48.6779 92.4291 47.4888C92.4138 47.2356 92.4138 46.9817 92.4291 46.7285C92.8853 46.7285 92.8853 47.063 92.9461 47.3064C93.2199 48.4621 93.524 49.6178 93.8282 50.8952C94.0617 50.7152 94.2757 50.5114 94.4668 50.287C95.4869 49.0757 96.4218 47.7953 97.2649 46.4548C97.6602 45.6336 98.1773 44.8732 98.5727 44.052C98.8274 43.4352 99.0508 42.8058 99.2418 42.1664C99.4412 41.8156 99.5848 41.436 99.6676 41.0411C99.8197 39.5812 99.9109 37.9997 99.9717 36.6615C99.9407 36.2521 99.8798 35.8455 99.7893 35.4449C99.6372 34.8063 99.5763 34.7454 98.816 34.3804C98.5423 34.715 98.2382 35.08 97.9949 35.4449C97.9006 35.5551 97.8488 35.6954 97.8488 35.8403C97.8488 35.9853 97.9006 36.1255 97.9949 36.2356C98.4206 36.8439 98.8464 37.4827 99.3026 38.0909C99.3026 38.0909 99.3026 38.2734 99.3026 38.3342C99.2844 38.5048 99.2327 38.6702 99.1506 38.8208C99.1506 38.8208 98.8768 38.8209 98.816 38.5776L97.5387 36.6007C97.4272 36.4213 97.3053 36.2487 97.1736 36.0836L95.805 36.479C95.6226 37.2089 96.5653 37.3915 96.5045 38.1214C96.322 38.1214 96.17 38.1214 96.1092 37.9085C95.4241 37.2019 94.8126 36.4274 94.2843 35.597C93.5347 34.5356 92.7222 33.5199 91.8512 32.5556C91.6079 32.2514 91.2429 31.9778 91.5167 31.4607C92.1249 31.4607 92.1553 32.3123 92.794 32.586C92.6419 31.8865 92.4899 31.2782 92.3378 30.6395C92.6719 30.4481 92.9297 30.1473 93.0678 29.7879C93.1778 29.5353 93.3615 29.3217 93.5948 29.1752C93.8282 29.0287 94.1003 28.9561 94.3756 28.9668C96.1317 28.8363 97.8772 29.3319 99.3026 30.3658C99.3026 30.3658 99.3026 30.5787 99.3026 30.822L98.664 30.5483C97.6666 29.9098 96.5288 29.5236 95.3489 29.423C94.8651 29.3481 94.3727 29.3481 93.889 29.423C93.6761 29.423 93.524 29.6967 93.159 29.94C93.4279 30.0453 93.7019 30.1367 93.9802 30.2137L95.7442 30.5179C96.2161 30.6053 96.6479 30.8414 96.9762 31.1916C97.3045 31.5418 97.5122 31.9877 97.569 32.4643C97.569 32.6468 97.569 32.8294 97.569 32.8902L99.1506 33.5593C99.2325 33.429 99.2844 33.282 99.3023 33.1292C99.3203 32.9763 99.3039 32.8214 99.2544 32.6757C99.2048 32.53 99.1233 32.3972 99.0159 32.287C98.9085 32.1767 98.7779 32.0919 98.6335 32.0386C98.6335 32.0386 98.6335 32.0386 98.451 32.0386C98.4266 31.9862 98.4139 31.9291 98.4139 31.8713C98.4139 31.8135 98.4266 31.7564 98.451 31.704C98.451 31.704 98.6639 31.4911 98.7248 31.5215C98.9939 31.5832 99.2583 31.6645 99.5155 31.7648L99.7893 31.1566C99.9717 30.5483 100.185 29.94 100.337 29.3013C100.481 28.8558 100.583 28.3976 100.641 27.9327C100.68 27.7557 100.652 27.5703 100.562 27.4129C100.472 27.2555 100.327 27.1373 100.154 27.0811C99.3581 26.6709 98.4434 26.5525 97.569 26.7465C97.3257 26.7465 97.052 26.8986 96.8087 26.5336C97.3827 26.1838 98.0566 26.0341 98.7248 26.1078C99.4015 26.1673 100.073 26.2791 100.732 26.4424C100.747 26.179 100.747 25.915 100.732 25.6517C100.685 25.4856 100.576 25.3439 100.428 25.2563C99.7378 24.9244 98.9579 24.8283 98.2078 24.9825C97.4778 25.165 96.6566 25.2259 96.4133 26.2295H96.2612C96.2612 25.8037 96.2612 25.4083 96.2612 24.9825C96.2612 24.0701 95.9875 23.6443 94.9838 23.3097C95.2575 23.6139 95.4704 23.8268 95.6529 24.0701C95.8157 24.2741 95.9304 24.5122 95.9884 24.7668C96.0463 25.0213 96.046 25.2855 95.9875 25.5399C95.929 25.7943 95.814 26.0322 95.6507 26.2358C95.4874 26.4395 95.2803 26.6037 95.0447 26.7162C94.2843 27.1115 93.5544 27.5068 92.7636 27.8718C92.3187 28.0557 91.8613 28.2082 91.395 28.3281C90.9084 28.3281 90.6347 28.3281 90.5738 27.7502C90.5588 27.5985 90.5588 27.4456 90.5738 27.2939C90.7345 25.5686 91.5642 23.9748 92.8853 22.8535C93.4912 22.3792 94.042 21.8385 94.5276 21.2416C94.9053 20.7955 95.3696 20.4307 95.8924 20.1693C96.4152 19.9079 96.9855 19.7554 97.569 19.7209C97.8123 19.7209 98.0861 19.7209 98.2686 20.0251C97.2953 20.3292 96.17 20.2988 95.4401 21.1808L94.5276 22.2149C94.7883 22.3413 95.0742 22.407 95.364 22.407C95.6537 22.407 95.9398 22.3413 96.2004 22.2149C97.0818 21.7512 98.0635 21.5109 99.0594 21.5153H99.4547C99.3895 20.9213 99.1693 20.355 98.816 19.873C98.6878 19.5864 98.4707 19.3488 98.1967 19.1954C97.9228 19.042 97.6066 18.9809 97.2953 19.0214C96.7478 19.0214 96.17 19.0214 95.5921 19.0214C95.3447 19.0318 95.1039 19.1051 94.8926 19.2343C94.1122 19.7092 93.439 20.3411 92.9155 21.0898C92.392 21.8384 92.0295 22.6875 91.8512 23.5834C91.7823 23.7573 91.6903 23.921 91.5775 24.0701C91.5699 22.8883 91.8968 21.7286 92.5203 20.7246C93.2982 19.6779 94.3509 18.8673 95.5617 18.3827C96.0787 19.2343 96.7174 18.3827 97.3561 18.5652C96.8391 17.6832 96.1395 17.4094 94.8013 17.5007C94.8013 17.5007 94.8013 17.3182 94.8013 17.2269C94.7955 17.1561 94.7955 17.085 94.8013 17.0141C94.5884 16.5275 94.1323 16.497 93.7369 16.497C93.0609 16.4041 92.3752 16.4041 91.6991 16.497C91.121 16.6043 90.5864 16.8769 90.16 17.2817C89.7335 17.6865 89.4336 18.2063 89.2964 18.7781C89.1748 19.4877 89.0835 20.1873 89.0227 20.8766C88.8129 22.3535 88.9271 23.8584 89.3573 25.2867C89.7831 26.5033 90.2393 27.7198 90.7259 28.9363C91.141 29.8927 91.2882 30.9441 91.1517 31.9777C91.1517 32.6164 90.9388 33.2247 90.7868 33.8634C92.1659 34.6771 93.4079 35.7035 94.4668 36.9048C94.0106 36.9048 93.7977 36.7527 93.524 36.5702L90.4826 34.3196C90.1763 34.4348 89.9142 34.6439 89.734 34.917C89.5537 35.1902 89.4644 35.5134 89.4789 35.8403C89.5561 36.8729 89.411 37.9101 89.0531 38.8817C88.7622 39.9695 88.1074 40.9247 87.1978 41.5885C86.9668 41.7389 86.7085 41.8422 86.4375 41.8927C86.3659 41.9255 86.2882 41.9424 86.2095 41.9424C86.1307 41.9424 86.0529 41.9255 85.9813 41.8927C85.8292 41.6494 85.9814 41.4973 86.2247 41.4061C86.7245 41.2353 87.1457 40.8896 87.4108 40.4328C88.2687 39.2771 88.689 37.8545 88.597 36.4181C88.544 35.767 88.7519 35.1216 89.1748 34.6237C89.7918 33.9104 90.1867 33.0323 90.311 32.0974C90.4353 31.1626 90.2835 30.2119 89.8743 29.3622C89.4181 28.3585 89.0836 27.3244 88.6882 26.3208L88.4145 25.8037L88.2016 26.4728C87.9695 26.3266 87.7728 26.1307 87.6255 25.8993C87.4783 25.6679 87.3842 25.4067 87.35 25.1346C87.1982 23.7715 87.1372 22.3998 87.1675 21.0287C87.1524 19.8463 87.3908 18.6744 87.867 17.592C88.05 17.0121 88.3494 16.4757 88.7469 16.0155C89.1443 15.5553 89.6314 15.181 90.1784 14.9155C91.1724 14.5958 92.1891 14.3517 93.2198 14.1855C93.6297 14.2078 94.0273 14.3334 94.3756 14.5506C95.1968 14.9764 95.9875 15.4934 96.8087 15.9192C98.1058 16.5845 99.2304 17.5425 100.093 18.7173C100.822 19.7792 101.424 20.9223 101.888 22.1236C102.444 23.5562 102.693 25.0898 102.618 26.6248C102.625 27.1279 102.522 27.6265 102.314 28.0847C102.036 28.6303 101.9 29.2369 101.918 29.8488C101.947 29.9995 101.947 30.1543 101.918 30.305C101.712 30.0849 101.57 29.8133 101.506 29.5188C101.441 29.2244 101.458 28.918 101.553 28.6322C102.222 26.9106 102.222 25.001 101.553 23.2794C101.245 22.2295 100.837 21.2111 100.337 20.238C99.7696 18.8365 98.8968 17.5791 97.7819 16.5578C96.8087 15.9191 95.7442 15.4022 94.7405 14.8243C94.561 14.7779 94.3727 14.7779 94.1931 14.8243L91.6384 15.4934C90.9857 15.6857 90.4241 16.1068 90.0568 16.6795C89.5669 17.3573 89.2176 18.1262 89.0296 18.9411C88.8415 19.7559 88.8185 20.6002 88.9619 21.4241V20.8462C88.9744 20.6436 88.9744 20.4405 88.9619 20.238C89.0478 19.1789 89.3369 18.1463 89.8135 17.1966C89.8428 17.0635 89.9182 16.9449 90.0264 16.862C90.8451 16.0752 91.9324 15.6294 93.0678 15.615C93.2491 15.6451 93.434 15.6451 93.6152 15.615C94.1582 15.5087 94.7188 15.5362 95.2487 15.6952C95.7786 15.8542 96.2619 16.1398 96.6566 16.5275C96.7615 16.5998 96.8736 16.661 96.9911 16.71C98.0201 17.1602 98.9044 17.8865 99.5459 18.8085C99.936 19.3147 100.244 19.8792 100.458 20.4813C100.912 21.3003 101.298 22.1547 101.614 23.036C102.157 24.6183 102.323 26.3052 102.101 27.9631C102.022 28.8108 101.785 29.6363 101.401 30.3962C101.143 30.9409 100.988 31.5287 100.945 32.1298C100.824 33.2678 100.886 34.4176 101.127 35.5362C101.204 36.3861 101.204 37.2411 101.127 38.0909C101.134 39.2941 100.971 40.4922 100.641 41.6493C100.473 42.1935 100.259 42.7226 100.002 43.2309C99.3581 44.7332 98.5524 46.1609 97.5995 47.4888C96.9303 48.3404 96.3524 49.2833 95.7442 50.1653L95.4401 50.6215L91.9729 53.9974L91.03 54.9403C90.2697 55.7615 89.5397 56.6738 88.7185 57.4342C86.8673 59.0762 84.6268 60.2174 82.21 60.7493C81.9049 60.8289 81.6092 60.9411 81.328 61.0839C79.2563 61.9957 77.134 62.7878 74.9715 63.4562C73.6637 63.8819 72.3559 64.3077 71.0481 64.6727C70.5873 64.7832 70.1201 64.8646 69.649 64.9161L68.0676 65.2506H67.5505L65.6344 65.6764H65.2694C64.0225 65.6764 62.8059 66.0109 61.5589 66.1326C60.434 66.202 59.3109 65.9711 58.3046 65.4635L55.9323 64.399C55.5821 64.2718 55.2091 64.22 54.8375 64.2469C53.6072 64.2878 52.4086 63.8519 51.4919 63.0303C50.9527 62.5491 50.3839 62.1022 49.7887 61.6922C48.8215 61.0653 47.6866 60.7471 46.5344 60.7797C45.5916 60.7797 44.6792 60.9622 43.7364 61.0839C42.6275 61.251 41.4998 61.251 40.3909 61.0839C39.0875 60.9346 37.8906 60.2926 37.0453 59.2895C36.3246 58.5465 35.7105 57.7072 35.2204 56.7955C34.7225 55.7353 34.4334 54.5891 34.3689 53.4196C34.2702 51.7494 34.4974 50.0759 35.038 48.4925C35.2813 47.8538 35.3725 47.1238 35.6766 46.5156C36.2849 45.3294 36.9541 44.2042 37.6232 43.0484L37.8969 42.7747C38.8742 41.922 39.9972 41.2522 41.212 40.7977L44.7096 39.4595L45.1659 39.3075L48.0551 38.7904C48.2865 38.7495 48.5233 38.7495 48.7547 38.7904C50.2339 38.8664 51.7159 38.8664 53.1951 38.7904C54.2617 38.8046 55.3077 39.0871 56.2365 39.6116C56.4526 39.7711 56.6986 39.8856 56.9598 39.9483C57.221 40.011 57.4922 40.0206 57.7572 39.9766L59.0954 41.4365L59.4908 41.4061ZM49.7583 46.698C50.914 46.698 51.2182 46.5156 51.5832 46.0594H50.4274C50.2747 46.0607 50.1267 46.112 50.0059 46.2054C49.8851 46.2987 49.7981 46.4291 49.7583 46.5765H48.3288L49.7583 46.698ZM69.2841 52.203C68.4429 53.0328 67.8616 54.0896 67.6113 55.2444C67.5193 55.6143 67.5243 56.0018 67.6255 56.3694C67.7267 56.7369 67.9208 57.0722 68.1891 57.3429C68.7366 57.3429 68.98 56.7043 69.4058 56.4305C69.6455 56.2752 69.8376 56.0567 69.961 55.7991C70.0844 55.5415 70.1344 55.2548 70.1052 54.9706C70.1564 53.9624 69.8673 52.9662 69.2841 52.1422V52.203ZM53.4993 44.4779C52.9207 43.9962 52.2284 43.6706 51.4884 43.5322C50.7484 43.3938 49.9852 43.4471 49.2717 43.6871C48.9577 43.7671 48.6696 43.9267 48.4352 44.1504C48.2008 44.3742 48.028 44.6546 47.9335 44.9645C47.7206 45.5424 47.9335 45.8161 48.6026 45.7857C50.0895 45.5533 51.5545 45.1973 52.9822 44.7212L53.4993 44.4779ZM57.0576 52.3854C56.7254 52.5102 56.4089 52.6735 56.1148 52.8721C55.5205 53.3699 54.9616 53.9085 54.4421 54.484C54.1452 54.8382 53.9088 55.239 53.7425 55.6702C53.56 56.1264 53.7426 56.4914 54.1076 56.7955C54.4725 57.0996 54.655 56.7955 54.8983 56.7955C55.1371 56.723 55.3566 56.5979 55.5408 56.4295C55.725 56.2611 55.8692 56.0536 55.9628 55.8222C56.1453 55.3356 56.419 54.8794 56.5711 54.3928C56.9371 53.7901 57.1071 53.0888 57.0576 52.3854ZM92.794 27.1115C93.0069 27.1115 93.159 27.1115 93.2503 27.1115L95.7746 25.9254C95.8864 25.8151 95.9699 25.6795 96.018 25.53C96.08 25.2808 96.0636 25.0186 95.9711 24.7791C95.8786 24.5396 95.7144 24.3344 95.5009 24.1918C95.3034 24.0865 95.0764 24.0503 94.856 24.0889C94.6356 24.1275 94.4344 24.2386 94.2843 24.4047C93.6247 25.0631 93.1252 25.8644 92.8244 26.7465C92.8244 26.7465 92.8244 26.929 92.794 27.1115ZM94.5885 31.339C94.8982 32.3541 95.4886 33.2608 96.2917 33.9546C96.3703 34 96.4594 34.0239 96.5502 34.0239C96.6409 34.0239 96.7301 34 96.8087 33.9546C96.9975 33.9068 97.1712 33.812 97.3136 33.6791C97.456 33.5462 97.5625 33.3794 97.6232 33.1943C97.6839 33.0092 97.6968 32.8118 97.6607 32.6204C97.6247 32.4289 97.5408 32.2497 97.417 32.0994C97.2122 31.8041 96.9112 31.5891 96.5654 31.4911C95.9616 31.396 95.3517 31.3452 94.7405 31.339H94.5885ZM100.823 22.9448C100.823 22.519 100.823 22.2149 100.245 22.3366C100.105 22.3644 99.9603 22.3644 99.8197 22.3366C98.9182 22.1762 97.9889 22.315 97.1736 22.7319V22.9144C97.6298 23.7356 97.6907 23.7355 98.5118 23.4314C98.8414 23.2844 99.1892 23.182 99.5459 23.1272L100.823 22.9448ZM101.31 24.8001C101.127 23.6748 101.006 23.5226 100.063 23.5834C99.453 23.6181 98.85 23.7306 98.2686 23.918C97.6603 24.1005 97.6907 24.1613 97.8427 24.8609C98.3907 24.5962 98.9887 24.4512 99.597 24.4355C100.205 24.4198 100.81 24.5337 101.371 24.7696L101.31 24.8001ZM95.6834 34.715L95.5313 34.9279C95.6794 34.9789 95.8144 35.062 95.9267 35.1712C96.0068 35.2756 96.1071 35.3626 96.2218 35.427C96.3364 35.4915 96.4629 35.5321 96.5937 35.5463C96.7245 35.5605 96.8567 35.5481 96.9825 35.5097C97.1083 35.4714 97.2251 35.408 97.3257 35.3233C97.8578 35.019 98.2988 34.5779 98.6031 34.0458C98.6031 34.0458 98.6031 33.7417 98.6031 33.4984L97.8427 34.35C97.1432 35.1103 97.052 35.1407 96.1092 34.8062L95.6834 34.715ZM67.7025 58.3162C67.3863 57.9192 67.1112 57.4912 66.8814 57.0388C66.7583 56.6101 66.6668 56.173 66.6077 55.731C66.3035 57.5254 66.6077 58.225 67.7634 58.225L67.7025 58.3162ZM52.9518 54.7882C52.3131 55.4269 52.2827 55.5485 52.6477 56.1872C52.8301 55.6701 52.9214 55.1835 53.0126 54.7882H52.9518ZM89.1748 24.3742H88.9923C88.9923 24.6784 88.9923 24.9826 88.9923 25.2867H89.1748V24.3742ZM46.7778 45.664V45.3903V45.664Z" fill="#49535E"/>
<path d="M27.3735 35.5988C27.1606 35.0818 27.3736 34.9297 27.7689 34.808C28.6149 34.3039 29.488 33.847 30.3845 33.4394C31.9741 32.6752 33.5087 31.8011 34.977 30.8238C35.3119 30.6233 35.657 30.4405 36.0111 30.2764C37.2885 29.7897 38.3529 28.8469 39.5999 28.269C41.7897 27.2045 43.797 25.8055 46.0781 24.8322C47.2642 24.3456 48.3895 23.707 49.5757 23.1595C50.184 22.8858 50.8531 22.7337 51.4918 22.5209L54.3202 21.5171C56.0234 20.848 57.7266 20.2093 59.3994 19.5098C61.0722 18.8103 62.1062 18.3237 63.4749 17.7458C64.8435 17.168 65.6038 16.8638 66.5163 16.4989L71.1088 15.0086C71.8691 14.7957 72.6295 14.7045 73.3594 14.4307C74.9713 13.8529 76.4008 13.2446 78.104 12.6363C79.1076 12.2409 80.1417 11.9063 81.1454 11.4501L87.2281 8.59122L88.6576 7.983L95.9266 4.9416C97.4903 4.22716 99.1503 3.74556 100.854 3.51215C101.167 3.48163 101.483 3.48163 101.796 3.51215C101.644 4.02918 101.279 3.99878 101.006 4.09002C100.732 4.18126 99.5762 4.36366 98.8766 4.57656C98.1771 4.78946 97.2039 5.15448 96.3828 5.48903L92.0032 7.31389C90.9894 7.69913 89.9756 8.12487 88.9618 8.59122C88.9618 8.59122 88.6272 8.74334 88.6272 8.83458C88.6272 9.38203 88.0797 9.59492 87.7148 9.86865C86.22 11.0339 84.8989 12.4062 83.7914 13.9441C82.6021 15.8047 81.5841 17.7694 80.75 19.814C80.02 21.4563 79.2293 23.0682 78.4081 24.6498C77.6677 25.9236 76.5375 26.9259 75.1842 27.5087H75.0018L72.1732 28.4212C71.9891 28.4704 71.7967 28.4806 71.6083 28.4511C71.42 28.4217 71.2399 28.3533 71.0796 28.2502C70.9192 28.1471 70.7823 28.0117 70.6773 27.8526C70.5723 27.6935 70.5017 27.5142 70.47 27.3262C70.3856 26.8682 70.4076 26.3969 70.5342 25.9486C70.6607 25.5004 70.8885 25.0873 71.2 24.741C71.7779 23.7678 72.3862 22.8554 72.9944 21.9125C73.2434 21.52 73.5177 21.1441 73.8156 20.7872C74.4718 19.9486 74.9762 19.0016 75.3058 17.9891C75.4652 17.5411 75.5173 17.0619 75.458 16.5901C75.4585 16.3308 75.3718 16.0788 75.2118 15.8747C75.0518 15.6706 74.8279 15.5262 74.5759 15.4648C73.5796 15.199 72.5309 15.199 71.5345 15.4648C70.672 15.6324 69.834 15.9083 69.0406 16.2859C68.0977 16.7726 67.0333 17.0159 65.9992 17.4112L62.1974 18.9928L58.1524 20.6048L54.8373 21.9733C53.9249 22.3383 53.0125 22.7033 52.0696 22.977C50.2016 23.5374 48.3974 24.2917 46.6864 25.2276L42.9455 27.1742L39.9041 28.6644L38.5354 29.5768L36.4977 30.7022L32.7568 32.9224C32.3614 33.1657 31.9052 33.3482 31.5098 33.5611L27.8297 35.4163C27.6828 35.4894 27.5303 35.5504 27.3735 35.5988ZM87.0457 9.74696C86.8635 9.73187 86.6804 9.73187 86.4982 9.74696L83.4568 11.0852C82.5444 11.4806 81.6624 11.9672 80.7196 12.3322C79.2902 12.91 77.8302 13.3967 76.4008 13.9441L74.6672 14.674L74.9409 14.8869C75.3362 15.0169 75.6795 15.2701 75.9204 15.6095C76.1612 15.9489 76.2869 16.3565 76.2791 16.7726C76.2518 18.0654 75.827 19.3184 75.0626 20.3614C74.1197 21.9429 73.0248 23.4028 72.0212 25.0452C71.7738 25.4368 71.5504 25.8431 71.3521 26.2617C71.2399 26.4559 71.1809 26.6762 71.1809 26.9005C71.1809 27.1247 71.2399 27.3449 71.3521 27.5391C71.4989 27.6907 71.691 27.7905 71.8995 27.8234C72.108 27.8563 72.3214 27.8206 72.5078 27.7216L74.6064 26.9308C75.7557 26.564 76.7506 25.8258 77.4348 24.8322C77.8838 24.1644 78.2804 23.4627 78.621 22.7337C79.1685 21.6388 79.7767 20.544 80.2633 19.3882C81.0647 17.4436 82.085 15.5968 83.3047 13.8833C84.0785 12.6535 85.0319 11.5463 86.1333 10.5986C86.4398 10.3273 86.7245 10.0324 86.9849 9.71652L87.654 9.44281C87.1978 9.38198 87.1977 9.382 87.0457 9.74696Z" fill="#49535E"/>
<path d="M34.6731 35.051C34.8304 34.9093 35.004 34.7868 35.1902 34.6861C36.7413 34.0169 38.2315 33.3174 39.8739 32.77C41.7306 32.053 43.4884 31.1025 45.1051 29.9415C45.9271 29.4321 46.7804 28.975 47.6598 28.5728L51.492 26.6872L52.8607 25.9268C53.8118 25.3865 54.8362 24.9869 55.9021 24.7406C57.2718 24.3347 58.5661 23.7081 59.7341 22.8854C60.2758 22.4753 60.8689 22.1379 61.4982 21.8817C62.794 21.3426 64.0195 20.6482 65.1478 19.8136C66.2278 19.0207 67.3782 18.3284 68.5846 17.7455L70.7744 16.681C71.4068 16.3739 72.1149 16.2577 72.8122 16.3465C73.2962 16.4161 73.7614 16.5816 74.1808 16.8331C74.3257 16.9218 74.4335 17.0601 74.4839 17.2224C74.5343 17.3848 74.5238 17.5598 74.4545 17.715C74.1812 18.7491 73.7283 19.7272 73.1164 20.6044C72.7514 21.1214 72.4472 21.7297 72.0518 22.2468C71.6565 22.7638 70.5616 24.102 69.862 25.0448C69.1152 26.0183 68.4247 27.0338 67.7939 28.0862C67.258 29.0596 67.0957 30.1952 67.3376 31.2797L68.9192 30.7018C69.1904 30.5744 69.4864 30.5082 69.786 30.5082C70.0857 30.5082 70.3815 30.5744 70.6527 30.7018C71.2377 30.9581 71.8694 31.0904 72.508 31.0904C73.1467 31.0904 73.7783 30.9581 74.3632 30.7018C75.5676 30.2509 76.6213 29.4711 77.4046 28.4511C78.3134 27.3816 79.137 26.2427 79.8682 25.0448C81.1303 23.0176 82.0837 20.8138 82.6967 18.5058C83.0273 17.4243 83.5194 16.3989 84.1565 15.4644C84.949 14.2761 85.8017 13.129 86.7113 12.0276C87.7691 10.8417 89.0375 9.86207 90.4522 9.13827L92.7333 7.98262C92.9772 7.87419 93.2321 7.79255 93.4936 7.73926V7.89138C93.3661 8.02885 93.2232 8.15128 93.0679 8.25634L90.3002 9.65535C90.1327 9.73143 89.9787 9.83416 89.844 9.95951C87.6043 11.5535 85.7536 13.6328 84.4302 16.0423C83.8607 16.8826 83.4008 17.7922 83.0617 18.7491L82.788 19.7224C82.3804 21.1136 81.83 22.459 81.1456 23.737C80.5981 24.619 80.1419 25.501 79.5944 26.3526C79.2237 26.9518 78.8067 27.5213 78.3475 28.0557C77.7103 28.9009 76.9638 29.6578 76.1273 30.3064C75.5932 30.7584 74.956 31.0717 74.272 31.2188C73.4459 31.3465 72.6133 31.4278 71.7781 31.4622H71.1394C70.9569 32.5267 70.744 33.5303 70.5919 34.5036C70.3991 35.7383 69.9085 36.9074 69.1625 37.9099C68.6454 38.6703 68.1284 39.4002 67.6722 40.191C67.4939 40.5242 67.3857 40.8904 67.3543 41.267C67.323 41.6436 67.3691 42.0226 67.4898 42.3808C67.5125 42.5554 67.6002 42.7151 67.7355 42.8279C67.8708 42.9406 68.0438 42.9981 68.2197 42.989H69.9533C69.7404 43.1715 69.6492 43.3235 69.4971 43.3539C69.1191 43.5292 68.7024 43.6045 68.287 43.5725C67.8717 43.5406 67.4715 43.4024 67.1248 43.1715C66.9504 42.9815 66.8251 42.7518 66.7598 42.5024C66.6686 42.0628 66.6758 41.6085 66.781 41.172C66.8862 40.7356 67.0867 40.3278 67.3681 39.978C68.0372 39.096 68.5542 38.1228 69.132 37.2104C69.648 36.3972 69.9898 35.4859 70.1358 34.5339C70.1358 33.9256 70.3791 33.3173 70.5007 32.7091C70.5303 32.4768 70.5303 32.2418 70.5007 32.0096C70.5007 31.2797 70.1662 30.9755 69.4971 31.2188C68.8746 31.4359 68.2738 31.7109 67.7026 32.0401C67.0639 32.3746 66.6685 32.2529 66.5773 31.4925C66.3022 30.1024 66.5864 28.6599 67.3681 27.478C68.5542 25.7444 69.7708 24.102 71.109 22.49C71.9289 21.3916 72.6805 20.2439 73.3596 19.0532C73.5306 18.728 73.6535 18.3797 73.7246 18.0192C73.9071 17.3805 73.7245 17.046 72.9338 17.0156C71.8722 17.0385 70.8307 17.3093 69.8924 17.8063C67.7761 18.9143 65.7431 20.1747 63.8096 21.5777C63.2916 21.915 62.7415 22.2003 62.1673 22.4292C61.2843 22.8092 60.4475 23.2888 59.6734 23.8587C58.5112 24.5968 57.2522 25.17 55.9324 25.5619C54.9791 25.8286 54.0604 26.2063 53.1952 26.6872C51.8265 27.4171 50.4275 28.0862 49.0285 28.7857C47.6294 29.4853 45.4092 30.7322 43.6756 31.8271C42.7645 32.3918 41.8083 32.88 40.8167 33.2869L37.1062 34.8685C36.5587 35.0814 35.9505 35.2335 35.403 35.416H34.886L34.6731 35.051Z" fill="#49535E"/>
<path d="M59.4905 41.4371V40.9808C59.8645 41.1086 60.2001 41.3291 60.466 41.6216C60.7319 41.9141 60.9194 42.2691 61.0112 42.6536C61.1936 43.5052 61.2544 44.3568 61.4369 45.2084C61.5327 45.658 61.6754 46.0963 61.8627 46.5162C62.1077 46.9593 62.5088 47.2954 62.988 47.459C63.7836 47.8414 64.6894 47.9277 65.5428 47.7023C65.9382 47.7023 66.3032 47.3982 66.729 47.3069C68.4039 46.9632 70.0431 46.4643 71.6256 45.8167C72.4467 45.5907 73.2792 45.4079 74.1195 45.2692C75.4774 44.9932 76.818 44.6379 78.1342 44.2048C79.1995 43.675 80.2171 43.0542 81.1756 42.3495C81.4797 42.1366 81.6318 41.6804 81.8751 41.3458C82.1184 41.0113 82.6963 40.4638 83.0917 40.038C84.0954 38.9127 85.4335 38.1523 86.3459 36.9966C87.0549 36.1965 87.6393 35.2944 88.0795 34.3202C88.0795 34.0161 88.4749 33.7423 88.6574 33.4078C88.8399 33.0732 89.3265 32.0696 89.6307 31.3701C89.8138 30.8275 89.8138 30.2398 89.6307 29.6973C89.474 29.2859 89.474 28.8313 89.6307 28.4199C89.7827 28.4199 89.9652 28.6023 89.9956 28.724C90.317 29.2561 90.5017 29.8595 90.5336 30.4803C90.5654 31.1012 90.4433 31.7202 90.1781 32.2825C89.5394 33.499 88.9311 34.7156 88.2012 35.9017C87.3927 37.1963 86.3633 38.3389 85.1598 39.2776C84.5533 39.7725 83.9746 40.3006 83.4262 40.8592C83.0696 41.2301 82.7535 41.6379 82.4834 42.0757C82.2073 42.5545 81.8216 42.9609 81.3581 43.2618C80.3722 44.015 79.2874 44.6291 78.1342 45.0867C76.8568 45.4517 75.5794 45.7862 74.2716 46.0295C73.0383 46.2138 71.8328 46.551 70.6828 47.0332L70.3178 47.1853L67.2764 48.0065C67.0479 48.0452 66.8238 48.1063 66.6073 48.189C65.7503 48.5806 64.7876 48.6768 63.8701 48.4627H63.3834C62.7086 48.3953 62.0757 48.1042 61.5852 47.6358C61.0948 47.1674 60.7749 46.5485 60.6765 45.8775C60.6765 45.1476 60.4029 44.3872 60.342 43.6269C60.2 42.8621 59.8767 42.1424 59.3992 41.5283L59.4905 41.4371Z" fill="#49535E"/>
<path d="M89.6916 48.4013C90.5128 47.9147 90.5431 47.793 90.239 47.0935C89.7042 45.6491 89.0426 44.2547 88.2621 42.9268C88.2307 42.7559 88.2307 42.5807 88.2621 42.4098C88.3093 42.385 88.3614 42.371 88.4146 42.3685C88.4679 42.3661 88.521 42.3754 88.5703 42.3957C88.6196 42.416 88.6638 42.4468 88.6999 42.486C88.736 42.5253 88.7631 42.5719 88.7792 42.6227C89.1442 43.231 89.5396 43.8088 89.8437 44.4475C90.6032 45.9216 91.1753 47.4848 91.5469 49.1009C91.5469 49.405 91.7902 49.77 91.5469 50.0741C90.969 49.6787 91.3947 48.888 90.8169 48.4622L89.6308 50.1957C90.2695 50.9256 90.5736 52.0814 91.9118 51.8381C91.9118 52.5072 91.4252 52.7505 90.8778 52.416C90.3039 52.1491 89.8566 51.669 89.6308 51.0777C89.5765 50.9471 89.5048 50.8244 89.4179 50.7128L88.3838 51.0169C88.4045 51.421 88.5547 51.8077 88.8122 52.1199C89.0696 52.4321 89.4205 52.6532 89.8133 52.7506C90.1478 52.7506 90.5128 52.7505 90.6344 53.2068C90.2416 53.3434 89.8168 53.3584 89.4153 53.2499C89.0138 53.1414 88.6543 52.9144 88.3838 52.5984C88.1933 52.3534 88.0301 52.0883 87.8972 51.8077C87.7056 51.3356 87.3635 50.9399 86.9239 50.6823C86.5933 50.5456 86.3012 50.33 86.0732 50.0543C85.8453 49.7786 85.6883 49.4512 85.6161 49.1009C85.6161 47.9755 85.6162 46.8198 85.3729 45.6945C85.2899 44.8074 85.4474 43.9144 85.829 43.1093C85.9888 43.0451 86.1596 43.013 86.3317 43.0149C86.5039 43.0168 86.674 43.0528 86.8322 43.1206C86.9904 43.1884 87.1337 43.2868 87.2539 43.4101C87.374 43.5334 87.4686 43.6792 87.5322 43.8392C87.892 44.4699 88.288 45.0792 88.7183 45.6641C89.1531 46.3156 89.4052 47.0718 89.4483 47.8539C89.5161 48.042 89.5974 48.2249 89.6916 48.4013ZM86.9239 44.5996C86.6903 45.7332 86.6903 46.9027 86.9239 48.0363C87.0199 48.3266 87.1872 48.588 87.4105 48.7967C87.6664 48.8871 87.9455 48.8871 88.2013 48.7967C88.307 48.7326 88.3955 48.6437 88.4591 48.5377C88.5227 48.4317 88.5595 48.3119 88.5663 48.1885C88.5897 47.7026 88.5173 47.2169 88.3534 46.759C88.0502 46.1281 87.7047 45.5185 87.3193 44.9342C87.2025 44.806 87.0696 44.6935 86.9239 44.5996ZM86.9239 49.6179C87.3801 50.2566 87.593 50.3174 88.1404 50.0132L86.9239 49.6179Z" fill="#49535E"/>
<path d="M57.5442 38.7606C57.2829 38.8453 57.0065 38.8729 56.7336 38.8414C56.4607 38.8099 56.1978 38.7201 55.9627 38.5781C54.6361 38.1392 53.2533 37.8933 51.8568 37.8481H50.9139C50.2448 37.8481 49.5757 37.8481 48.9066 37.8481C47.3251 38.0306 45.8652 38.1524 44.162 38.3957C42.8861 38.4696 41.6458 38.8448 40.5428 39.4905L40.2691 39.6427C39.4479 40.7071 38.2922 41.4674 37.4406 42.5015C36.2664 43.8312 35.4131 45.4129 34.9466 47.1245C34.5817 48.4931 34.2775 49.8921 33.9126 51.2911C33.5621 52.627 33.5621 54.0307 33.9126 55.3666C34.0646 55.9749 34.2775 56.5527 34.46 57.161C34.4756 57.3025 34.4756 57.4454 34.46 57.5869C34.2471 57.5869 34.095 57.5868 34.0038 57.3435C33.8744 57.1511 33.7625 56.9476 33.6693 56.7353C32.7909 54.6644 32.6618 52.352 33.3042 50.1962C33.6692 49.0101 33.8517 47.7632 34.2471 46.577C34.8738 44.6443 35.9113 42.8701 37.2885 41.3762C37.2885 41.3762 37.5014 41.1633 37.5014 41.0417C37.5014 40.4638 37.9576 40.1597 38.353 39.8251C39.4772 38.9991 40.746 38.3904 42.0939 38.0306C43.731 37.7113 45.3869 37.498 47.0514 37.392C48.5031 37.1083 49.9844 37.0061 51.4614 37.0878C52.9404 37.1594 54.3985 37.4675 55.7802 38.0003L56.6622 38.3044C57.0576 38.3957 57.24 38.5781 57.5442 38.7606Z" fill="#49535E"/>
<path d="M89.479 58.8325C89.1421 59.3438 88.6819 59.7622 88.1408 60.049C86.9177 60.8455 85.6125 61.5083 84.2478 62.0259C83.3354 62.3909 82.5143 62.9687 81.6322 63.3337C80.7063 63.6878 79.7621 63.9924 78.8038 64.2462L74.0592 65.4627L72.5689 65.8581C70.744 66.3447 68.9192 66.8313 67.0639 67.2571C65.6522 67.6327 64.2045 67.857 62.7452 67.9262C62.289 67.9262 61.8328 67.9262 61.3766 67.9262C60.3325 67.927 59.2986 67.7202 58.3352 67.3179C58.3352 67.3179 58.1223 67.0746 58.0007 66.9529C57.879 66.8313 58.3352 66.6793 58.5176 66.7097L59.9775 66.8922C60.5588 67.0031 61.1499 67.0541 61.7415 67.0442C63.5623 66.9609 65.373 66.727 67.1552 66.3447L73.0859 64.7936C74.9716 64.3374 76.8573 63.9724 78.7125 63.4554C80.0339 63.1695 81.305 62.6877 82.4838 62.0259C83.3529 61.5714 84.2464 61.1653 85.1603 60.8094C86.316 60.2011 87.4413 59.5624 88.5666 58.9237L89.3574 58.5283L89.479 58.8325Z" fill="#49535E"/>
<path d="M94.7403 43.3228C94.9002 43.9762 95.2007 44.5869 95.6209 45.1122C96.0412 45.6375 96.571 46.0648 97.1734 46.3642C96.8388 46.8204 96.5347 46.6683 96.261 46.5162C95.6181 46.1444 95.1076 45.5807 94.8011 44.9043C94.6186 44.5089 94.497 44.0831 94.3145 43.6573H92.7938C92.7938 44.0527 92.9459 44.4177 93.0067 44.7522H92.8547C92.0639 43.5965 91.3643 42.4103 90.6344 41.133H91.2427C91.2427 40.8288 91.2427 40.4943 91.2427 40.1901C91.2427 39.2473 90.969 38.274 90.8778 37.3312C90.8658 37.079 90.9181 36.8278 91.0298 36.6013C91.0529 36.5372 91.0891 36.4785 91.1363 36.4293C91.1834 36.3801 91.2403 36.3413 91.3034 36.3155C91.3665 36.2897 91.4343 36.2775 91.5024 36.2795C91.5705 36.2816 91.6375 36.2979 91.6989 36.3275L94.2841 37.3617C94.7727 37.5582 95.1966 37.8872 95.5083 38.3117C95.8199 38.7362 96.0069 39.2393 96.0481 39.7643L96.7172 39.9164C96.4542 41.2397 95.7588 42.438 94.7403 43.3228ZM91.9726 37.6049C91.9997 38.2878 92.1872 38.9546 92.5201 39.5514C92.7933 40.1117 93.1085 40.6506 93.4629 41.1634C93.767 41.5588 94.0712 41.5284 94.4666 41.1634C94.6913 40.9603 94.8629 40.7051 94.9663 40.4203C95.0697 40.1356 95.1019 39.8299 95.0599 39.5298C95.0179 39.2298 94.903 38.9446 94.7254 38.6991C94.5477 38.4537 94.3127 38.2556 94.0408 38.122C93.3752 37.8997 92.6941 37.7268 92.0031 37.6049H91.9726ZM92.216 40.92C92.216 42.0454 92.3985 42.6536 93.0676 42.8969C93.7367 43.1402 93.8583 42.897 94.3145 42.3799C93.8735 42.3344 93.4517 42.1761 93.0895 41.9204C92.7273 41.6648 92.437 41.3203 92.2463 40.92H92.216Z" fill="#49535E"/>
<path d="M80.4159 49.2841L80.051 47.8242C80.2489 47.9191 80.4244 48.055 80.566 48.2228C80.7076 48.3905 80.8119 48.5864 80.8721 48.7975C81.0873 49.4342 81.26 50.0845 81.3891 50.744C81.602 51.8389 81.7541 52.9642 81.9366 54.0591C81.9366 54.4241 81.9366 54.7586 81.9366 54.9715C81.6113 55.2428 81.3063 55.5376 81.0241 55.8535C80.9268 56.0116 80.7864 56.1385 80.6194 56.2193C80.4523 56.3002 80.2656 56.3315 80.0813 56.3097H79.1689C79.1689 56.3097 78.7735 56.3097 78.7431 56.1273C78.7127 55.9448 78.1349 55.519 77.8307 55.2452C77.5333 54.9496 77.3054 54.5917 77.1634 54.1971C77.0213 53.8026 76.9688 53.3815 77.0096 52.9642C76.9367 51.9175 77.1357 50.8698 77.5874 49.9228C77.8075 49.4842 78.0513 49.0578 78.3173 48.6455C78.5911 48.2805 78.9256 48.2805 79.321 48.6455C79.7164 49.0104 79.7468 49.0408 79.9597 49.1929C80.1726 49.345 80.1726 49.1016 80.4159 49.2841ZM80.7201 53.907C80.9098 53.2437 80.9076 52.5402 80.7138 51.8781C80.52 51.216 80.1425 50.6225 79.6251 50.1662L80.0813 51.3522C80.355 52.2038 80.9329 52.9642 80.7504 53.9374C80.3885 54.6373 79.8548 55.2338 79.1994 55.6711C80.3855 55.6711 80.4463 55.671 80.6896 54.6066C80.7157 54.3743 80.7259 54.1406 80.7201 53.907ZM78.5606 50.2269C78.1779 50.7936 77.9463 51.4487 77.8878 52.13C77.8292 52.8113 77.9457 53.4962 78.2261 54.1199C78.5303 54.7282 79.0777 54.8194 79.4731 54.1199C79.6616 53.8771 79.7585 53.5756 79.7468 53.2683C79.5804 52.2024 79.2306 51.1734 78.7127 50.2269H78.5606Z" fill="#49535E"/>
<path d="M23.4809 55.3652L24.1803 55.8214C24.8201 56.1034 25.44 56.4286 26.0356 56.7947L29.7766 59.5928C31.603 61.116 33.5117 62.5374 35.4943 63.8507C36.5892 64.4894 37.5929 65.2802 38.6878 65.9493C39.3265 66.3447 40.0869 66.6184 40.756 67.0138C42.3458 67.9409 44.0151 68.7245 45.7439 69.3557C46.6395 69.6138 47.5551 69.7969 48.4811 69.9031C48.9373 69.9031 49.3631 69.9031 49.7889 70.1465C49.9721 70.2021 50.1463 70.284 50.306 70.3897V70.5722H49.5152C47.9223 70.5039 46.3464 70.2174 44.8314 69.7206C43.1518 69.0759 41.5334 68.282 39.9956 67.3483C39.2353 66.8617 38.3837 66.4968 37.6233 66.0406C36.1635 65.0977 34.582 64.1853 33.2742 63.1512C31.9664 62.1171 30.2328 60.8093 28.7121 59.6232C27.6577 58.7716 26.5628 57.9504 25.4273 57.1596C24.9711 56.8251 24.4237 56.6122 23.9675 56.3081C23.71 56.1323 23.4923 55.9044 23.3288 55.6389C23.3288 55.6389 23.4505 55.5477 23.4809 55.3652Z" fill="#49535E"/>
<path d="M95.501 53.2057C96.1397 52.2324 96.8088 51.2896 97.4171 50.1643C98.4763 48.507 99.4018 46.7679 100.185 44.9635C100.367 44.5681 100.58 44.1727 100.793 43.7773C101.688 42.0364 102.157 40.1081 102.162 38.1507C102.162 36.5388 102.162 34.9269 102.314 33.3149C102.314 33.0108 102.314 32.6154 102.77 32.5241C103.226 32.4329 102.922 32.6762 102.922 32.7371C102.922 33.7407 102.922 34.7444 102.922 35.7785C102.998 36.6791 102.998 37.5847 102.922 38.4853C102.868 39.7021 102.663 40.9075 102.314 42.0742C101.408 44.3677 100.32 46.5848 99.0594 48.7044C98.512 49.6168 97.8429 50.4988 97.2346 51.4113L96.018 53.0232C95.9076 53.1119 95.7845 53.1835 95.653 53.236L95.501 53.2057Z" fill="#49535E"/>
<path d="M57.1182 42.3506C56.9923 42.405 56.8505 42.4102 56.721 42.3652C56.5915 42.3201 56.4835 42.2281 56.4186 42.1073C56.2709 41.8717 56.0603 41.682 55.8104 41.5598C54.8371 41.2557 53.8639 41.0124 52.769 40.7691C51.693 40.5741 50.5907 40.5741 49.5147 40.7691H48.146C46.695 41.0417 45.2777 41.4699 43.9185 42.0464C42.6477 42.6994 41.4185 43.4308 40.2384 44.2362C39.8236 44.5797 39.4371 44.956 39.0827 45.3615L38.4136 45.9394C38.0791 45.6961 38.1703 45.5137 38.4136 45.3312C38.7206 44.6922 39.1802 44.1386 39.7518 43.7193C40.9351 42.891 42.1637 42.1294 43.4319 41.4382C44.4196 41.0293 45.4362 40.6937 46.4733 40.4345C48.2155 40.0154 50.0042 39.8212 51.7957 39.8566C52.9505 39.8556 54.0919 40.1047 55.1413 40.5866C55.3653 40.717 55.6137 40.7998 55.8712 40.8299C56.7532 41.0428 57.0269 41.3469 57.1182 42.3506Z" fill="#49535E"/>
<path d="M82.5748 34.8967C83.0006 35.505 82.5748 36.0525 82.5748 36.5391C82.041 37.8386 81.0739 38.9132 79.8376 39.5805C79.56 39.7829 79.2331 39.9071 78.8911 39.9398C78.549 39.9725 78.2045 39.9126 77.8936 39.7665C77.5826 39.6203 77.3167 39.3933 77.1237 39.1091C76.9306 38.8249 76.8175 38.4939 76.7962 38.151C76.5864 37.2863 76.672 36.3762 77.0395 35.5658C77.3328 34.812 77.5766 34.04 77.7695 33.2544C77.8817 32.7762 77.9327 32.2856 77.9215 31.7945C77.893 31.3227 77.8217 30.8545 77.7086 30.3955C78.0431 30.3955 78.1648 30.578 78.256 30.7605C78.5308 31.294 78.6269 31.9018 78.5298 32.4941C78.3227 33.6367 78.0069 34.757 77.5869 35.8396C77.3061 36.491 77.2318 37.2128 77.3741 37.9078C77.7086 39.1243 78.621 39.7021 79.8376 38.7897C80.9368 37.9536 81.7796 36.8263 82.2707 35.5355C82.3811 35.327 82.4826 35.1138 82.5748 34.8967Z" fill="#49535E"/>
<path d="M83.6702 36.207C84.096 35.5987 84.3698 35.1425 84.7044 34.7167C85.1886 33.975 85.4464 33.1085 85.4464 32.2228C85.4464 31.3371 85.1886 30.4705 84.7044 29.7288C84.2236 29.0301 83.602 28.4395 82.8795 27.9952C82.5823 27.7871 82.3657 27.4831 82.266 27.1343C82.1664 26.7854 82.1897 26.4128 82.3321 26.0791C82.3634 26.023 82.4071 25.9746 82.4597 25.9378C82.5124 25.9009 82.5727 25.8764 82.6362 25.8662C82.7365 25.9302 82.8118 26.027 82.8491 26.14C82.8641 26.2408 82.8641 26.3433 82.8491 26.4441C82.8491 26.9611 83.0316 27.2045 83.4574 27.4782C84.3232 27.9701 85.0384 28.6889 85.5261 29.557C86.0138 30.4252 86.2555 31.41 86.2251 32.4053C86.1879 33.1352 85.9916 33.8481 85.6501 34.4943C85.3086 35.1404 84.8302 35.7042 84.2481 36.1461C84.2481 36.1461 83.944 36.1766 83.6702 36.207Z" fill="#49535E"/>
<path d="M63.5358 43.8413C63.3229 43.8413 63.2317 43.8413 63.2317 43.4763C63.1868 43.1942 63.1868 42.9068 63.2317 42.6247C63.4677 41.8728 63.7625 41.1405 64.1136 40.4349C65.0006 38.8526 66.0179 37.347 67.155 35.9337C67.6963 35.1413 68.1743 34.3074 68.5845 33.4398L68.8582 32.9531C68.9335 32.9706 69.0036 33.0057 69.0626 33.0556C69.1216 33.1055 69.1679 33.1687 69.1976 33.24C69.2273 33.3114 69.2397 33.3888 69.2335 33.4658C69.2274 33.5429 69.203 33.6173 69.1624 33.683C68.9875 34.2296 68.7422 34.7511 68.4324 35.2342C67.6417 36.3899 66.8205 37.5152 65.9689 38.6101C65.2967 39.4747 64.7442 40.4262 64.3265 41.4386C64.1136 42.2294 63.8399 43.0201 63.5358 43.8413Z" fill="#49535E"/>
<path d="M103.864 14.5803C103.864 14.1241 103.652 13.6375 103.53 13.1813C103.358 12.1043 103.125 11.0381 102.83 9.9879C102.569 9.20659 102.211 8.46077 101.766 7.76765C101.475 7.34744 101.083 7.00737 100.626 6.77879C100.168 6.55021 99.6611 6.44052 99.1503 6.45987C98.3805 6.4143 97.6087 6.4143 96.8389 6.45987C96.5651 6.45987 96.261 6.45985 96.0481 6.24695C95.8352 6.03406 96.0481 6.06448 96.2002 6.06448C97.7498 5.48632 99.4559 5.48632 101.006 6.06448C101.836 6.52563 102.473 7.27061 102.8 8.16305C103.485 9.79492 103.876 11.535 103.956 13.303C103.956 13.668 103.956 14.0633 103.956 14.4587L103.864 14.5803Z" fill="#49535E"/>
</g>
</svg>
