<svg width="258" height="257" viewBox="0 0 258 257" fill="none" xmlns="http://www.w3.org/2000/svg">
<g opacity="0.3">
<path d="M86.0638 187.083C80.9272 191.403 75.0147 194.704 68.6425 196.81C69.7325 199.146 70.3379 199.422 72.3331 198.37C74.3282 197.319 77.49 195.814 80.014 194.358C80.8485 193.767 81.6041 193.072 82.2623 192.29C83.3327 191.595 84.6961 191.258 85.8371 190.578C87.6782 189.383 89.5193 188.187 91.3605 186.992C90.6785 188.146 89.6727 189.074 88.4678 189.661C87.3973 190.356 86.3269 191.051 85.2136 191.774C86.7491 193.577 88.1058 193.791 89.9875 192.752C91.0151 192.085 92.0855 191.39 93.156 190.696L93.4062 191.081L91.5132 193.04C92.2447 193.527 93.1154 193.762 93.9927 193.709C94.8701 193.656 95.706 193.317 96.3733 192.745C96.9077 192.311 97.3766 191.802 97.7653 191.233C101.96 185.486 107.198 180.579 113.206 176.767C113.533 176.584 113.848 176.38 114.148 176.156L113.953 175.856C107.475 178.233 101.16 181.032 95.0473 184.234L94.7971 183.848C95.0825 183.604 95.3992 183.398 95.739 183.237C100.882 179.915 106.348 177.121 112.053 174.898C116.288 173.398 120.66 172.313 125.105 171.659C131.175 170.884 137.265 170.704 143.358 170.339C146.419 170.178 149.464 170.088 152.494 170.068C153.417 170.049 154.336 170.194 155.207 170.498C155.926 170.761 156.814 171.098 156.728 172.371C156.332 172.488 155.921 172.55 155.508 172.555C151.801 171.971 148.037 171.84 144.299 172.163C140.684 172.501 136.988 172.527 133.318 172.779C130.838 172.99 128.314 173.228 125.831 173.622C124.736 173.88 123.669 174.247 122.647 174.716C118.913 176.11 115.333 177.883 111.962 180.009C107.395 183.073 103.439 186.962 100.297 191.477C97.5241 195.035 94.3489 198.26 90.8344 201.088C90.1921 201.505 89.5498 201.922 89.1172 202.568C86.3091 205.545 82.55 207.447 78.4888 207.946C78.1743 207.957 77.8632 208.015 77.5662 208.119C76.2932 208.653 74.8789 208.749 73.5454 208.392C72.2119 208.035 71.0349 207.245 70.1993 206.146C68.8005 204.741 67.2154 203.519 65.8595 202.086C61.629 197.878 58.0769 193.039 55.3302 187.741L53.3357 184.106C51.6472 181.109 50.8629 177.686 51.0774 174.252C50.9046 172.109 51.0647 169.952 51.552 167.858C51.7127 167.158 52.0044 166.493 52.4113 165.901C55.0089 163.058 57.7453 160.43 60.3 157.615C64.8889 153.155 69.1407 148.36 73.0203 143.271C76.08 138.437 78.6967 133.337 80.8382 128.032C82.0619 125.23 83.3133 122.47 84.4813 119.581C85.6493 116.693 85.1566 117.621 83.1478 116.308C81.6218 115.369 79.9788 114.635 78.2612 114.125C77.4233 113.62 76.687 112.962 76.0903 112.187C75.5125 111.527 74.8754 110.922 74.1867 110.38C72.4141 108.623 70.2875 107.265 67.9487 106.395C67.5643 106.219 67.2602 105.904 67.0971 105.514C66.934 105.124 66.9238 104.687 67.0682 104.289C67.1734 103.795 67.3919 103.288 67.5121 102.723L65.1803 101.193C64.6596 100.886 64.2498 100.421 64.0098 99.8663C63.7698 99.3113 63.7121 98.6946 63.8447 98.1047C64.1356 96.1283 64.2641 94.1315 64.2291 92.1342C64.1109 91.5415 63.9379 90.9609 63.7122 90.4003L62.2171 85.2848C61.852 83.8785 63.0742 83.5111 63.9629 82.63C63.5152 81.9356 63.1535 81.1896 62.8856 80.4081C62.6155 79.5458 62.4459 78.6553 62.38 77.7542C62.1861 76.2368 62.1762 74.7215 61.9824 73.2041C61.82 72.0979 62.0254 70.9689 62.5668 69.9907C63.1083 69.0125 63.9559 68.2391 64.9795 67.7893C67.8239 66.1281 70.1521 63.7109 71.7054 60.8061C72.6353 59.1621 73.92 57.7462 75.4659 56.661C77.4865 55.0553 79.3228 53.2304 80.9412 51.22C81.267 50.6607 81.7195 50.1857 82.2624 49.8333C82.8053 49.4809 83.4233 49.2609 84.0668 49.1909C84.0668 49.1909 84.6316 49.3109 84.76 49.2275C86.5801 47.4374 89.4242 47.5996 91.2999 45.8951C91.9834 45.0647 92.8672 44.4223 93.8679 44.0282C94.8686 43.6341 95.9532 43.5015 97.0193 43.6429C97.5256 43.5093 97.9758 43.217 98.3039 42.809C99.0562 42.2305 99.93 41.8303 100.859 41.6381C101.789 41.4459 102.75 41.4668 103.67 41.6994C104.177 41.8625 104.721 41.875 105.235 41.7356C105.749 41.5961 106.212 41.3106 106.568 40.9135C107.266 40.0817 108.244 39.5345 109.319 39.3754C110.393 39.2163 111.488 39.4564 112.398 40.0501C112.663 40.1495 112.946 40.1927 113.229 40.1767C113.512 40.1606 113.789 40.0858 114.041 39.9571C115.006 39.3986 116.099 39.1003 117.214 39.0916C118.328 39.0828 119.426 39.3639 120.399 39.9072C121.515 40.2988 122.697 40.4626 123.877 40.3887C127.202 40.5426 130.524 39.8469 133.678 40.112C134.232 40.2427 134.807 40.2532 135.366 40.1428C135.924 40.0324 136.452 39.8036 136.914 39.4718C137.824 38.9632 138.878 38.7717 139.908 38.9278C141.181 39.0971 142.472 39.0604 143.733 38.8188C145.538 38.6733 147.351 38.6766 149.156 38.8285C149.71 38.8074 150.25 39.0018 150.664 39.3708C151.915 41.2975 154.393 41.2711 156.162 42.4962C156.832 42.8103 157.58 42.9181 158.311 42.8058C159.449 42.6939 160.599 42.8082 161.693 43.1423C162.787 43.4765 163.805 44.0239 164.687 44.7527C165.245 45.1409 165.898 45.3692 166.576 45.4129C167.345 45.4618 168.096 45.667 168.784 46.0162C169.471 46.3655 170.08 46.8515 170.573 47.444C170.823 47.7729 171.147 48.0386 171.518 48.2201C171.89 48.4016 172.298 48.4938 172.712 48.4895C173.905 48.4756 175.079 48.7941 176.102 49.4092C177.124 50.0244 177.956 50.9119 178.503 51.9726C178.688 52.3984 178.986 52.7657 179.364 53.0348C179.743 53.3039 180.187 53.4645 180.651 53.4996C181.207 53.4822 181.761 53.5747 182.281 53.7715C182.802 53.9682 183.279 54.2655 183.684 54.6465C184.09 55.0275 184.416 55.4846 184.645 55.9918C184.874 56.499 185.001 57.0464 185.018 57.6026C185.018 57.6026 185.185 57.8596 185.268 57.988C185.352 58.1165 185.463 58.2878 185.491 58.3306C187.097 58.4264 188.649 58.9519 189.983 59.8524C191.317 60.7529 192.384 61.9953 193.074 63.4496C193.408 63.9634 193.825 64.6058 194.233 64.7665C196.518 65.4741 197.01 66.981 196.499 69.3818L198.731 69.8197C199.444 69.9198 200.118 70.2065 200.684 70.6511C201.251 71.0956 201.69 71.6822 201.957 72.3511C202.485 73.1646 203.353 73.9396 203.541 74.7915C203.733 75.6815 204.159 76.5042 204.776 77.174C205.392 77.8437 206.177 78.3362 207.048 78.6006C207.527 78.7764 207.66 79.5428 208.207 79.9176C208.564 80.3865 208.967 80.8184 209.409 81.2067C210.06 81.553 210.559 82.1297 210.807 82.8241C211.055 83.5184 211.035 84.2804 210.751 84.9609C210.413 86.0292 210.017 87.0785 209.566 88.104C210.288 88.6313 210.98 89.1975 211.641 89.8001C211.971 90.1267 212.227 90.5212 212.391 90.9563C213.396 93.4119 214.73 95.7193 216.357 97.8152C216.886 98.6634 217.127 99.6593 217.044 100.655C217.154 103.262 217.108 105.909 217.202 108.586C217.225 109.035 217.361 109.47 217.597 109.851C218.24 110.732 218.523 111.825 218.389 112.907C218.255 113.989 217.713 114.979 216.875 115.676C216.659 115.934 216.475 116.217 216.327 116.519L217.518 117.511C218.732 118.099 219.687 119.112 220.205 120.358C220.722 121.604 220.764 122.996 220.324 124.271C220.269 124.93 220.457 125.588 220.854 126.118C221.345 126.779 221.876 127.41 222.445 128.006C222.91 128.527 223.212 129.173 223.315 129.863C223.417 130.554 223.315 131.26 223.02 131.893C222.515 132.708 223.017 133.295 223.391 133.965C225.115 136.619 224.834 137.593 222.96 140.331C222.595 140.887 222.36 141.518 222.272 142.177C222.057 142.316 222.404 142.944 222.329 143.297C221.471 145.537 221.456 148.012 222.286 150.263C222.564 150.691 222.114 151.591 221.866 152.24C221.673 152.649 221.599 153.104 221.654 153.553C221.708 154.003 221.889 154.427 222.174 154.778C222.661 155.436 222.914 156.237 222.894 157.055C222.874 157.873 222.581 158.661 222.063 159.293C221.314 160.427 220.794 161.695 220.53 163.027C220.219 164.967 219.174 166.714 217.611 167.905C217.082 168.192 216.67 168.654 216.444 169.211C216.218 169.769 216.191 170.387 216.37 170.962C216.556 171.952 216.445 172.976 216.051 173.903C215.656 174.831 214.996 175.621 214.154 176.174C213.052 177.076 212.224 178.267 211.761 179.613C211.043 181.114 210.171 182.536 209.161 183.858C208.512 184.827 207.681 185.61 207.004 186.536C206.556 187.212 205.94 187.759 205.215 188.123C204.49 188.487 203.682 188.654 202.873 188.609L199.461 188.511C198.372 188.427 197.97 188.932 197.928 189.993C197.711 192.751 197.466 193.032 194.8 193.424C194.033 193.556 193.242 193.462 192.546 193.609C191.851 193.756 190.858 193.914 190.526 194.434C190.109 195.042 189.501 195.495 188.798 195.72C188.095 195.945 187.338 195.929 186.645 195.675C184.72 195.182 182.73 194.995 180.747 195.121C180.129 195.116 179.516 194.998 178.939 194.773C176.502 193.738 174.08 192.633 171.659 191.527C171.147 191.345 170.694 191.029 170.348 190.611C170.002 190.193 169.775 189.689 169.691 189.153C169.575 188.473 169.291 187.833 168.865 187.291C168.439 186.75 167.884 186.323 167.251 186.05C166.492 185.701 165.81 185.204 165.244 184.59C164.678 183.975 164.24 183.255 163.953 182.47C163.586 181.909 163.036 181.492 162.396 181.29C161.792 181.147 161.223 180.882 160.724 180.513C160.225 180.144 159.806 179.677 159.492 179.141C159.178 178.605 158.977 178.012 158.899 177.396C158.821 176.78 158.869 176.154 159.039 175.557C159.052 174.82 158.891 174.091 158.57 173.427C157.708 172.1 157.273 170.679 158.127 169.089C158.228 168.927 158.295 168.746 158.324 168.557C158.353 168.368 158.344 168.175 158.298 167.99C158.251 167.804 158.168 167.63 158.053 167.477C157.938 167.325 157.793 167.197 157.628 167.101C157.075 166.495 156.406 166.007 155.662 165.665C154.917 165.323 154.111 165.133 153.291 165.108C146.126 165.134 138.938 164.749 131.76 164.661C129.709 164.739 127.671 165.022 125.676 165.507C121.205 166.401 116.678 167.21 112.149 168.202C105.347 169.766 98.8285 172.375 92.8264 175.938C91.028 177.105 89.0909 178.059 87.2798 179.112C86.8088 179.418 86.038 179.918 86.0891 180.372C86.2146 181.69 85.2193 182.032 84.4336 182.603C83.9633 182.999 83.4455 183.336 82.8921 183.604C78.4963 185.899 74.2595 188.487 70.2101 191.35C69.0112 192.128 67.6178 192.607 66.3761 193.413C65.9907 193.663 65.8126 194.326 65.5234 194.818C66.0304 195.037 66.5481 195.553 67.0296 195.545C68.018 195.408 68.9923 195.183 69.9405 194.872C74.4484 193.211 78.6711 190.86 82.4574 187.903C82.9053 187.418 83.4896 187.08 84.1334 186.934C84.7772 186.787 85.4503 186.84 86.0638 187.083ZM53.5164 168.166L54.1226 170.693C54.3261 170.248 54.3672 169.745 54.2384 169.273C54.1097 168.8 53.8192 168.388 53.4179 168.108C53.7604 167.885 54.3172 167.524 54.7514 167.912C56.1869 168.623 56.9643 167.571 57.9642 166.861C58.964 166.151 60.7473 165.054 62.2459 164.081C63.3844 163.463 64.4724 162.757 65.5 161.969C67.1315 160.469 68.6383 158.84 70.0055 157.096C73.7771 152.031 77.3947 146.822 81.0678 141.699C81.4532 141.449 81.644 140.899 82.3057 140.043C82.2795 141.034 82.4011 141.503 82.2276 141.798C81.6675 143.051 81.0039 144.255 80.2438 145.398C78.4425 147.967 76.6135 150.494 74.7138 153.005C70.6429 158.71 65.6648 163.71 59.9773 167.806C58.4354 168.943 57.0931 170.328 56.0052 171.906C54.9286 173.216 54.2671 174.817 54.1052 176.505C53.9434 178.193 54.2885 179.891 55.0966 181.381L57.7815 186.455C58.0873 186.926 58.5596 187.654 58.9405 187.771C59.3214 187.889 60.2176 188.707 60.748 189.337L63.1068 192.127C64.7152 193.761 64.8692 193.904 66.8088 192.767C70.9297 190.396 74.9523 187.967 79.0176 185.511C80.8159 184.343 82.6143 183.176 84.3698 182.036C84.3698 182.036 84.6266 181.869 84.6611 181.36L82.7562 181.988C86.621 178.566 91.6809 176.986 95.6013 173.65C95.3789 173.307 95.2955 173.179 95.24 173.093C92.4868 171.289 89.7764 169.458 87.0082 167.725C86.7394 167.597 86.4463 167.527 86.1485 167.521C85.8507 167.515 85.555 167.572 85.2812 167.69C84.1195 168.546 83.0198 169.484 81.9903 170.496C81.8551 170.664 81.7669 170.865 81.7344 171.078C81.702 171.292 81.7265 171.51 81.8055 171.711C81.9651 171.905 82.1618 172.065 82.384 172.182C82.6063 172.299 82.8496 172.37 83.0998 172.392C83.6092 172.427 83.9562 171.836 84.5511 171.815C85.1461 171.794 85.5789 171.148 86.2317 171.029L86.3984 171.286L83.7438 173.009L87.2624 175.898L86.7914 176.204C85.8351 175.668 84.836 175.16 83.9225 174.597C83.5291 174.29 83.0386 174.133 82.5398 174.155C82.041 174.178 81.5668 174.378 81.2026 174.72C77.1988 177.927 72.8247 181.315 68.579 184.618C67.8511 185.091 67.0803 185.591 66.4486 186.306C66.7256 185.602 67.1883 184.986 67.7873 184.524C71.8188 181.359 75.5656 178.318 79.4687 175.236C80.0058 174.82 80.4916 174.341 80.9162 173.81C81.0096 173.62 81.0583 173.412 81.0584 173.201C81.0585 172.99 81.0102 172.782 80.9171 172.592C80.5376 172.263 80.0522 172.081 79.5498 172.08C79.5498 172.08 79.0787 172.386 78.8218 172.552L74.7903 175.717C73.2489 176.718 71.7504 177.691 70.4035 178.991C72.6347 176.792 74.9856 174.717 77.4457 172.776C79.2913 171.213 79.2935 171.029 77.6747 169.098L74.2957 165.205C74.8328 165.282 75.032 165.214 75.1304 165.272L77.7032 167.923C79.9253 170.315 79.9959 170.33 82.4282 168.264L83.1989 167.763C84.7448 166.395 84.7343 166.097 83.2499 164.748L81.9068 163.429C82.4487 163.531 82.9569 163.766 83.3852 164.113L95.4419 171.623C95.9761 171.973 96.5955 172.171 97.2337 172.196C97.8719 172.222 98.5049 172.073 99.065 171.766C101.33 170.661 103.847 169.757 106.039 168.821C106.81 168.321 107.997 168.463 108.522 167.209C107.297 166.764 106.102 166.238 104.945 165.636C103.729 165.171 102.693 164.33 101.987 163.235C104.409 164.586 107.056 165.486 109.799 165.894C109.799 165.894 110.293 165.999 110.404 166.17C111.155 167.326 112.505 166.875 113.627 166.634C115.643 166.177 117.646 165.607 119.632 165.292C123.792 164.24 128.029 163.524 132.303 163.153C136.168 163.2 139.949 163.119 143.799 163.236C145.235 163.304 146.662 162.968 147.917 162.267C149.287 161.378 149.606 160.745 148.888 159.263C148.549 158.248 147.988 157.322 147.245 156.551C146.503 155.78 145.598 155.184 144.596 154.807L148.811 152.862C147.576 151.899 146.407 152.536 145.374 152.537C144.147 152.568 142.925 152.69 141.716 152.903C140.681 153.089 139.7 153.36 138.664 153.545L138.386 153.117L144.097 151.601L146.312 151.076C147.051 150.901 147.721 150.527 147.533 149.675C147.345 148.823 146.536 148.983 145.84 149.13C145.145 149.278 143.882 149.489 142.904 149.576C141.926 149.663 139.702 149.707 138.127 149.999C129.763 151.428 121.56 153.676 113.635 156.709C112.511 157.134 111.402 157.489 110.251 157.871L110 157.486C113.3 155.662 116.801 154.227 120.431 153.209C124.057 151.951 127.807 150.977 131.559 149.82C131.54 149.22 131.329 148.643 130.958 148.173C130.586 147.702 130.074 147.362 129.496 147.203C132.193 145.452 135.369 145.095 137.981 143.399C137.425 142.543 137.436 141.623 137.12 140.854C136.389 139.259 135.897 138.97 134.204 139.643C132.511 140.316 129.835 141.445 127.686 142.353C126.83 142.909 125.849 143.18 124.925 143.537C126.466 142.414 128.067 141.375 129.72 140.424C131.598 139.846 133.343 138.9 134.851 137.641C134.097 137.208 133.244 136.975 132.375 136.965C131.505 136.954 130.647 137.166 129.882 137.58C127.108 138.65 124.362 139.764 121.588 140.834C120.731 141.39 119.668 141.533 118.743 141.89L118.493 141.504C122.423 139.317 126.523 137.45 130.752 135.92C130.713 135.71 130.633 135.51 130.514 135.332C130.396 135.154 130.244 135.002 130.065 134.884C129.887 134.767 129.686 134.687 129.476 134.65C129.266 134.612 129.05 134.617 128.842 134.665C128.241 134.768 127.652 134.926 127.08 135.139C121.832 136.789 116.725 138.862 111.812 141.338C111.812 141.338 111.555 141.505 110.735 141.367C111.904 140.483 113.135 139.685 114.418 138.977C117.494 137.528 120.681 136.25 123.898 134.831C124.583 134.386 125.311 133.914 126.21 133.33C125.043 132.631 123.685 132.317 122.329 132.432C120.973 132.548 119.688 133.087 118.656 133.974C116.344 135.475 114.031 136.976 111.719 138.477C108.354 140.426 104.829 142.083 101.181 143.431C95.6893 145.73 90.5063 148.706 85.7526 152.29C84.9388 152.88 84.0957 153.427 83.2264 153.93C82.871 154.081 82.4905 154.162 82.1048 154.171C82.6162 153.272 83.3108 152.489 84.1435 151.874C88.8344 148.069 93.9152 144.77 99.3008 142.035C99.6104 141.913 99.8914 141.729 100.126 141.493C100.36 141.256 100.543 140.974 100.663 140.664C101.889 135.692 104.237 131.066 107.525 127.141C107.75 126.767 107.944 126.377 108.106 125.972C106.463 124.848 106.364 124.79 105.443 125.996C104.523 127.203 103.73 128.326 102.923 129.52C101.851 131.417 100.394 133.068 98.6439 134.367C101.01 131.056 103.184 127.613 105.156 124.053C103.526 123.042 102.46 123.369 101.539 124.576C99.6871 126.714 98.2799 129.199 97.3998 131.888C97.049 131.583 96.831 131.153 96.7917 130.69C96.7524 130.227 96.895 129.767 97.1894 129.407C97.9286 128.014 98.809 126.652 99.6187 125.274C100.428 123.896 100.428 123.896 100.861 123.25C98.9658 121.924 98.5978 121.92 97.6746 123.311C96.6657 124.817 95.7527 126.385 94.9411 128.006L94.0991 129.709C93.3554 128.001 94.0795 126.679 94.7608 125.385C95.442 124.09 96.3779 122.813 97.2155 121.478C96.4021 121.741 95.6587 122.184 95.041 122.775C94.4232 123.366 93.947 124.089 93.6482 124.89C92.9368 126.325 92.5485 127.977 91.9634 129.513L88.7206 127.237L90.0943 123.728C90.5187 122.6 91.9143 121.937 91.6243 120.178C89.7001 121.9 88.2744 124.108 87.4967 126.57C86.4998 125.878 86.6073 125.2 86.9994 124.398C87.3915 123.596 88.0457 121.041 88.6181 119.391C89.1904 117.741 88.9425 117.172 87.3124 116.161C86.9158 117.331 86.5342 118.431 86.0392 119.544C84.3912 123.474 82.5315 127.359 81.0525 131.362C78.3557 138.432 74.2713 144.891 69.0399 150.359C64.1896 155.637 58.8496 160.443 53.6913 165.435C53.8469 166.612 53.2452 167.185 53.5164 168.166ZM217.003 137.625C216.426 133.922 216.426 133.922 215.825 133.278C215.249 134.078 215.344 135.537 213.827 135.731C214.031 134.077 214.331 132.665 214.377 131.235C214.455 129.716 214.383 128.193 214.164 126.687C213.937 125.495 213.638 124.472 215.233 123.741L212.759 119.93C213.216 119.778 213.714 119.806 214.152 120.009C214.589 120.212 214.932 120.574 215.111 121.021C216.106 122.627 216.866 124.367 217.37 126.189C217.755 127.884 218.482 129.483 219.507 130.887C220.202 131.958 221.092 132.11 222.006 131.456C222.92 130.801 222.985 130.151 222.162 129.164C221.486 128.33 220.753 127.546 219.967 126.815C219.497 126.414 219.182 125.861 219.076 125.252C218.969 124.644 219.079 124.017 219.385 123.48C219.614 123.131 219.757 122.733 219.803 122.318C219.848 121.903 219.796 121.483 219.649 121.092C219.502 120.701 219.265 120.35 218.957 120.068C218.649 119.786 218.279 119.581 217.877 119.469C217.091 119.147 216.286 118.877 215.465 118.661C214.098 118.149 213.91 117.297 214.97 116.304C216.03 115.312 216.768 115.137 217.374 114.196C217.629 113.99 217.83 113.727 217.962 113.427C218.094 113.128 218.151 112.802 218.13 112.475C218.109 112.149 218.01 111.832 217.841 111.552C217.673 111.272 217.439 111.037 217.16 110.866C216.353 110.312 215.485 109.855 214.572 109.503C213.896 109.212 212.776 109.269 213.044 108.182C213.313 107.095 214.115 107.487 214.962 107.667C215.81 107.848 216.606 107.574 216.752 107.236C216.861 106.896 216.901 106.538 216.869 106.182C216.837 105.827 216.733 105.481 216.564 105.166C216.249 104.745 216.061 104.242 216.022 103.717C215.983 103.193 216.096 102.668 216.346 102.205C216.644 101.78 216.829 101.288 216.884 100.772C216.94 100.257 216.863 99.736 216.663 99.2582C216.462 98.7804 216.143 98.3614 215.737 98.0403C215.33 97.7192 214.848 97.5068 214.337 97.4225C213.937 97.3139 213.591 97.0616 213.366 96.714C213.14 96.3665 213.05 95.948 213.114 95.5386C213.171 94.835 213.08 94.1273 212.85 93.4602C212.619 92.7932 212.252 92.1812 211.773 91.6631C211.293 91.1449 210.712 90.7318 210.065 90.4498C209.418 90.1679 208.719 90.0232 208.013 90.0249C207.38 89.9433 206.752 89.8221 206.134 89.6621C206.452 89.2005 206.793 88.7557 207.156 88.3295C208.038 87.6225 208.849 86.831 209.578 85.9662C210.818 84.1265 210.166 83.0281 208.043 82.9456C207.307 82.9366 206.526 83.1395 205.762 83.0877C205.584 83.0738 205.412 83.0196 205.259 82.9294C205.105 82.8392 204.975 82.7154 204.876 82.5672C204.737 82.3531 204.998 81.8183 205.2 81.5659C205.706 81.1614 206.251 80.8076 206.827 80.5096C205.742 80.1312 204.711 79.6141 203.759 78.9712C203.13 78.1432 202.564 77.2703 202.063 76.3594C201.796 76.1067 201.586 75.7991 201.448 75.4577C201.311 75.1163 201.249 74.749 201.266 74.3814C201.317 74.0551 201.295 73.7217 201.203 73.4048C201.11 73.0879 200.948 72.7954 200.73 72.548C200.511 72.3006 200.24 72.1046 199.937 71.9737C199.634 71.8428 199.306 71.7802 198.976 71.7907C198.071 71.7088 197.135 71.7682 196.202 71.6435C195.269 71.5188 194.57 70.8166 194.896 69.6312L195.787 67.3482L192.588 67.295C192.704 66.1847 192.52 65.0634 192.054 64.0489C191.588 63.0344 190.858 62.164 189.94 61.5283C188.903 60.6803 187.803 60.2985 186.617 61.1902C186.145 61.4518 185.643 61.6549 185.123 61.795C184.847 61.4905 184.621 61.1435 184.456 60.7674C184.268 59.9156 184.264 59.0659 184.061 58.2847C183.453 55.941 181.705 55.3109 179.806 56.6045C179.578 56.8125 179.318 56.9815 179.035 57.1048C178.136 57.6885 177.366 56.9712 177.563 55.8692C177.761 54.7672 177.855 55.1931 177.93 54.84C178.017 54.2279 177.904 53.6037 177.607 53.0614C177.31 52.5191 176.845 52.0878 176.282 51.8322C175.285 51.1404 174.314 50.6755 173.115 51.4538C171.916 52.2321 171.273 52.6488 170.534 50.5726C169.795 48.4963 168.616 47.6183 165.973 48.4214C165.973 48.4214 165.673 48.6159 165.307 48.4274C165.15 48.2685 165.027 48.0791 164.946 47.8708C164.473 46.9429 163.728 46.1819 162.81 45.6898C161.892 45.1978 160.846 44.9982 159.812 45.1178C158.763 45.1899 157.712 45.4461 156.648 45.5889C155.585 45.7316 155.189 45.6844 154.958 44.8603C154.727 44.0363 153.39 43.3827 152.213 43.5382C151.785 43.6505 151.348 43.7305 150.908 43.7773C149.761 43.7916 149.427 43.2778 149.851 42.1502C150 41.8325 150.164 41.5224 150.344 41.2215C148.145 40.4584 146.152 40.1084 144.506 41.6033C144.346 41.7885 144.148 41.9379 143.927 42.0414C143.705 42.1449 143.464 42.2004 143.219 42.2041C142.974 42.2078 142.731 42.1596 142.507 42.0628C142.282 41.9661 142.08 41.823 141.914 41.6427C141.517 41.2782 141.011 41.0548 140.474 41.0073C139.937 40.9598 139.399 41.0909 138.944 41.3799L138.766 42.0431C138.605 43.6694 138.005 44.0585 136.754 43.3495C136.587 43.0926 136.337 42.7071 135.827 42.6726C134.46 42.1603 132.838 41.6308 131.721 42.7215C130.603 43.8123 129.614 43.6021 128.378 42.8224C127.867 42.4223 127.228 42.2229 126.581 42.2619C125.933 42.301 125.322 42.5757 124.864 43.0343C123.63 44.3219 123.63 44.3219 122.57 43.0629C122.167 42.4794 121.634 41.9982 121.013 41.6576C120.391 41.3169 119.699 41.1264 118.99 41.1012C118.282 41.076 117.578 41.2169 116.934 41.5126C116.289 41.8083 115.723 42.2505 115.281 42.804C114.796 43.1798 114.28 43.5145 113.739 43.8046C112.477 42.798 111.849 40.893 110.028 41.6495C109.326 41.8962 108.712 42.3448 108.264 42.9389C107.816 43.5329 107.553 44.246 107.509 44.9888C110.862 45.1855 114.11 43.625 117.389 45.2084C117.245 46.5801 116.396 46.5839 115.334 46.5426C113.736 46.4194 112.131 46.4234 110.534 46.5547C110.149 46.8049 109.098 47.0611 109.121 47.472C108.932 49.0555 107.684 49.196 106.672 49.7925C105.659 50.3889 104.017 51.5158 104.645 53.4208L110.561 52.5021L109.477 50.8322C110.398 49.6257 111.656 49.7826 112.861 49.6699C115.016 49.4272 117.245 50.0492 119.245 48.6294C119.691 48.3705 120.218 48.2898 120.721 48.4036C121.224 48.5175 121.665 48.8174 121.956 49.2431C119.273 52.1412 115.681 50.6389 112.584 51.4931C113.381 53.471 113.22 53.8797 111.375 54.2253C109.53 54.5709 109.048 54.579 107.871 54.7345C108.172 55.157 108.565 55.5057 109.02 55.754C110.284 56.5765 110.16 57.5096 108.963 58.1038C108.266 58.3979 107.549 58.6397 106.816 58.8278C106.223 58.913 105.655 59.1264 105.152 59.4527C104.65 59.7791 104.224 60.2107 103.904 60.7179L105.572 63.2871C104.232 63.7564 102.921 64.3029 101.644 64.9239C100.36 65.7578 100.308 66.5218 101.502 67.3293C102.695 68.1368 102.657 67.7965 103.134 68.1563C103.643 68.5551 104.103 69.0122 104.505 69.5181C103.526 69.731 102.559 69.9933 101.607 70.304C100.602 70.5707 99.6492 71.0043 98.7878 71.5865C97.2697 72.9981 97.7159 74.7167 99.6608 75.4625C100.293 75.7815 100.908 76.134 101.503 76.5187C100.518 77.158 99.9185 77.5471 99.2763 77.964C97.6064 79.048 97.6846 80.7623 99.4003 81.7177C100.188 82.1804 101.091 82.4464 101.878 82.9091C102.303 83.1841 102.707 83.4919 103.084 83.8299C102.784 84.0245 102.908 84.3092 102.866 84.337C102.823 84.3648 102.48 84.5872 102.266 84.7261C100.297 86.0047 100.125 86.116 101.918 87.752C102.335 88.3943 102.966 88.8976 103.511 89.4565C102.526 90.0958 101.993 90.8679 101.406 91.3704C101.799 92.8195 103.922 92.902 103.491 94.5817C103.491 94.5817 103.234 94.7485 103.106 94.8319C102.977 94.9152 102.035 95.5268 101.521 95.8603C101.883 96.4169 102.529 96.8497 103.104 97.2674C103.426 97.4781 103.777 97.6399 104.146 97.7474C104.739 98.0313 105.242 98.4732 105.6 99.0247C105.958 99.5761 106.157 100.216 106.175 100.873C105.413 100.637 104.677 100.628 104.483 100.328C103.26 98.4443 101.011 98.2613 99.34 97.094C99.1845 96.9399 98.989 96.8324 98.7756 96.7835C98.5622 96.7347 98.3394 96.7466 98.1324 96.8177C97.9254 96.8888 97.7424 97.0164 97.604 97.186C97.4656 97.3556 97.3773 97.5604 97.3492 97.7775C97.1737 98.3345 97.2171 98.9377 97.4703 99.4641C97.8868 99.8285 98.4255 100.022 98.9787 100.006C100.169 99.9643 101.284 99.0575 102.662 99.8672L102.279 102.185C103.699 103.217 105.271 104.025 106.937 104.578C108.083 104.69 109.166 105.155 110.037 105.908C110.908 106.662 111.524 107.668 111.799 108.786C111.912 109.274 112.197 109.705 112.601 110.001C113.006 110.297 113.503 110.438 114.002 110.399C114.668 110.393 115.374 110.543 116.082 110.509C118.674 110.47 118.674 110.47 118.995 113.121C119.307 113.291 119.638 113.424 119.982 113.516C121.487 113.741 122.964 114.13 124.385 114.674C125.117 115.093 125.963 115.273 126.802 115.186C127.641 115.1 128.432 114.753 129.064 114.193C129.656 113.886 130.288 113.661 130.941 113.522L129.917 115.039C129.574 115.261 129.399 115.741 129.155 116.021C129.478 116.664 129.934 117.233 130.493 117.687C131.051 118.142 131.7 118.474 132.395 118.66C133.091 118.847 133.819 118.883 134.53 118.769C135.241 118.654 135.92 118.39 136.521 117.994C137.297 117.519 138.112 117.112 138.958 116.778C139.3 116.555 139.848 116.93 140.314 116.992L140.592 117.421C139.449 117.923 138.348 118.515 137.3 119.193C136.809 119.669 136.227 120.042 135.588 120.289C134.95 120.536 134.269 120.652 133.585 120.63C132.901 120.609 132.228 120.45 131.607 120.163C130.986 119.877 130.428 119.468 129.968 118.962C128.856 118.027 127.46 117.496 126.008 117.455C125.18 117.406 124.391 117.083 123.768 116.536C122.976 115.809 121.976 115.351 120.909 115.226C119.929 115.159 118.979 114.853 118.144 114.334C117.308 113.815 116.613 113.1 116.117 112.251C113.11 113.899 110.231 115.464 107.351 117.029C106.709 117.446 105.981 117.918 104.956 117.184C107.87 115.693 110.69 114.025 113.4 112.189C111.158 110.236 108.999 109.629 106.597 111.554C105.883 112.108 105.124 112.6 104.328 113.027C104.028 113.222 103.549 113.046 102.656 113.078C104.868 110.485 107.987 110.226 109.978 108.325C110.009 108.072 109.986 107.816 109.91 107.574C109.834 107.331 109.707 107.107 109.538 106.918C109.368 106.728 109.161 106.577 108.928 106.474C108.696 106.371 108.444 106.318 108.19 106.32C107.13 106.241 106.065 106.392 105.069 106.764C103.789 107.229 102.8 108.237 101.394 108.602C101.137 108.769 100.643 108.664 100.048 108.685C101.247 106.689 103.865 106.876 104.882 104.694C104.109 104.233 103.281 103.871 102.418 103.616C101.608 103.578 100.821 103.336 100.131 102.911C99.4402 102.487 98.8683 101.894 98.4686 101.189C97.6997 101.561 96.9804 102.028 96.3278 102.579C95.8466 103.164 95.448 103.811 95.1432 104.504C94.6226 105.39 94.021 105.963 93.0452 105.866C92.4434 105.64 91.9299 105.227 91.5798 104.688C91.2297 104.148 91.0615 103.511 91.0996 102.869L93.1961 103.943C94.6947 102.97 93.5965 100.153 96.3248 100.512C95.2964 98.9277 95.2964 98.9277 93.317 98.6912C94.2852 97.0888 95.2106 95.5144 93.277 93.8483L90.6652 95.5438C91.0849 94.4592 91.5803 93.4052 92.1478 92.3901C92.6428 91.2775 93.4157 90.5932 94.203 91.0559C95.1224 91.5847 96.2067 91.7496 97.2417 91.5179C97.4558 91.3789 97.8899 91.7665 98.5938 92.1007C97.7803 92.6288 97.1148 92.6349 96.5605 92.8122C96.0061 92.9895 95.2758 93.6459 95.4081 94.4121C95.4357 94.6405 95.5098 94.861 95.6259 95.0597C95.7419 95.2584 95.8974 95.431 96.0828 95.5673C96.2682 95.7035 96.4797 95.8006 96.704 95.852C96.9282 95.9035 97.1605 95.9083 97.3868 95.8664C98.1497 95.77 98.8811 95.5026 99.5262 95.0838C100.171 94.6651 100.713 94.1059 101.112 93.4482C100.508 92.7743 100.167 91.9062 100.149 91.0017C100.132 90.0973 100.439 89.2165 101.016 88.5196C100.217 88.0459 99.6274 87.2873 99.3651 86.3962C99.1028 85.5051 99.1875 84.5477 99.6023 83.7166C98.7385 83.1168 97.6882 82.8472 96.6422 82.9565C95.5963 83.0659 94.6243 83.5472 93.9032 84.3127L94.0594 87.7409C94.6927 88.0601 95.8383 87.0122 96.6143 88.3951C96.3017 88.5691 96.0013 88.7642 95.7151 88.9788C94.0798 89.5535 92.4167 90.0854 90.7385 90.6879C90.1039 90.8226 89.5423 91.1893 89.164 91.7164C88.7856 92.2435 88.6177 92.8929 88.6931 93.5373C88.6186 94.3819 88.3169 95.1906 87.8199 95.8775C87.3229 96.5645 86.6493 97.1042 85.8704 97.4391C85.1425 97.9117 84.3205 97.9581 83.4416 96.8855C84.2979 96.3295 85.0258 95.857 85.7109 95.4123C86.396 94.9676 86.8009 94.2788 86.2277 93.6771C85.9755 93.4734 85.6821 93.3265 85.3678 93.2469C85.0535 93.1673 84.7256 93.1567 84.4068 93.2158C83.8825 93.2519 83.4649 93.8273 82.9082 94.1887C81.7979 93.5096 81.8521 92.5618 82.6807 91.9631C83.3536 91.3632 84.2258 91.0356 85.1272 91.0442C87.6693 91.585 89.288 90.0473 91.2703 88.8821C90.9141 88.3497 90.747 87.7129 90.7959 87.0742C90.8448 86.4355 91.1068 85.8318 91.5399 85.3598C88.6992 86.4315 86.0542 87.9633 83.7111 89.8941C84.9648 86.9501 87.5204 86.3868 89.3833 84.5689C87.938 82.3424 86.8058 82.286 84.5748 84.0995C84.1467 84.3774 83.7185 84.6554 83.2903 84.9333L82.929 84.3767C83.5001 83.7448 84.1079 83.1472 84.7491 82.5866C87.6374 80.481 91.0769 79.2633 94.6467 79.0827C95.2097 79.0888 95.762 78.9285 96.2342 78.6219C96.7065 78.3153 97.0777 77.8761 97.3013 77.3594C97.7941 76.4309 97.2359 75.7586 96.9197 74.9902C96.6357 74.4652 96.4703 73.8842 96.435 73.2884C96.3998 72.6927 96.4956 72.0965 96.7156 71.5417C96.9357 70.9869 97.2747 70.4872 97.7088 70.0775C98.1428 69.6679 98.6613 69.3581 99.2278 69.1705L100.598 68.281C98.0499 67.0747 96.0931 68.4667 94.0942 68.6688C92.0953 68.871 89.7389 69.3662 87.4402 69.7629C87.3703 68.5302 86.4312 67.7399 87.1659 66.7152C90.7904 67.8922 91.5845 67.8029 93.1777 66.0383L92.6991 64.6448C93.0577 64.1248 93.5638 63.7243 94.152 63.4943C94.7402 63.2643 95.3837 63.2154 95.9998 63.3542C97.1597 63.4533 98.3481 62.3777 99.976 63.5727C98.7388 64.0107 97.8418 64.4103 96.9471 64.6259C96.0525 64.8415 95.4058 65.6266 95.4757 66.8593C97.1471 66.809 98.5487 66.8118 99.3074 64.9804C99.7534 64.2646 100.401 63.6963 101.168 63.3465C101.73 62.9026 102.332 62.5118 102.966 62.1791L102.041 60.2847C99.4876 60.6641 97.1184 61.0459 94.6507 61.3697C94.1367 60.9267 93.6596 60.4425 93.2241 59.9221C93.0954 59.6128 93.065 59.2714 93.137 58.9442C93.137 58.9442 93.6508 58.6106 93.8221 58.4994C94.1279 58.5838 94.425 58.6963 94.7099 58.8358C95.0677 59.0601 95.4934 59.1504 95.9114 59.0907C96.3294 59.031 96.7128 58.8251 96.9935 58.5097C97.1472 58.3403 97.2649 58.1416 97.3393 57.9253C97.4136 57.709 97.4431 57.4797 97.426 57.2516C97.4089 57.0236 97.3457 56.8014 97.2399 56.5987C97.1342 56.3959 96.9882 56.2167 96.8109 56.0722C94.7286 56.1458 94.7286 56.1457 93.8338 52.8923C92.1391 52.5318 90.7885 52.9827 90.606 54.0141L91.2341 55.9191C89.1157 55.4684 88.3931 54.3552 89.1495 52.7078C89.6958 51.5074 90.3251 50.3466 91.0326 49.2335C88.9037 48.4854 88.1908 48.8873 87.8686 50.9223C87.7991 51.467 87.5485 51.9725 87.1572 52.3578C86.9431 52.4967 86.0981 52.1325 85.8329 51.8177C85.5678 51.503 84.9991 50.5333 84.1856 51.0614C83.5786 51.4825 83.0891 52.0516 82.7636 52.7148C82.6054 53.3285 82.5451 53.9632 82.5848 54.5957C81.5477 54.6165 80.537 54.9269 79.6669 55.4918C78.7969 56.0566 78.102 56.8534 77.6608 57.7922C77.147 58.1257 76.909 59.0716 76.4553 59.1227C74.3685 59.5645 73.9351 61.4282 72.8685 62.9727C72.5227 63.6434 72.1266 64.2868 71.6838 64.8977C70.8418 65.871 69.9216 66.7738 68.9323 67.597C68.4125 68.1242 67.7842 68.532 67.0911 68.7922C66.5459 68.924 66.0358 69.1726 65.5959 69.5206C65.1559 69.8687 64.7967 70.3079 64.5429 70.8082C64.2891 71.3085 64.1469 71.8578 64.126 72.4184C64.105 72.9789 64.2058 73.5374 64.4216 74.0552C64.7417 74.8916 64.8045 75.8046 64.602 76.6769C64.351 77.4164 64.3455 78.2171 64.5865 78.96C64.8274 79.7028 65.3018 80.3478 65.9391 80.7991C66.6422 78.8821 67.2747 76.9502 68.2475 74.9797C69.1779 72.2996 70.6436 69.8367 72.5554 67.7405C73.1665 67.1911 73.86 66.7409 74.6106 66.4063C74.6106 66.4063 75.2333 66.428 75.3873 66.5715C75.4624 66.7013 75.508 66.8461 75.5209 66.9955C75.5338 67.1449 75.5134 67.2952 75.4616 67.436C75.1392 67.8512 74.7739 68.2312 74.3716 68.5696L72.3029 71.0079C70.5395 73.7579 69.1285 76.7186 68.1033 79.8203C67.8485 80.3399 67.7638 80.9264 67.861 81.4969C67.9583 82.0673 68.2326 82.5928 68.645 82.9987C69.3943 83.9787 69.8247 85.1652 69.8778 86.3978C69.8401 87.0801 69.97 87.7612 70.2561 88.3818C70.5422 89.0023 70.9759 89.5434 71.5193 89.9577C72.2359 90.4054 72.2698 91.1137 71.7492 91.9993C71.5046 92.4114 71.3601 92.875 71.3273 93.3531C71.2945 93.8311 71.3744 94.3103 71.5604 94.7519C71.7465 95.1935 72.0336 95.5853 72.3985 95.8957C72.7635 96.2062 73.1962 96.4267 73.6619 96.5395C74.0755 96.6428 74.4345 96.899 74.6666 97.2566C74.8987 97.6141 74.9868 98.0465 74.9128 98.4664L74.8308 99.3713C76.573 100.346 78.1653 101.567 79.5582 102.997C80.3886 104.022 81.3884 104.896 82.5142 105.582C84.5202 107.414 86.8922 108.799 89.4733 109.646C90.9139 111.35 92.8086 112.611 94.937 113.281C96.798 114.257 98.4972 115.515 99.9745 117.009C101.065 117.96 102.412 118.568 103.847 118.756C105.763 118.881 107.667 119.151 109.543 119.562C111.708 120.049 113.972 119.819 115.994 118.904C116.807 118.376 117.664 117.82 118.7 117.635C119.735 117.449 119.642 117.023 120.251 116.932L120.529 117.36C118.518 119.7 115.302 119.901 112.707 121.342C113.958 123.269 114.606 123.517 116.385 122.789C118.164 122.06 121.167 120.78 123.73 119.664C124.286 119.303 124.967 119.226 125.564 119.021L125.814 119.407C123.54 121.248 120.294 121.59 118.103 123.56C118.375 124.262 118.808 124.891 119.368 125.394C119.927 125.898 120.598 126.263 121.324 126.46C123.142 126.799 125.015 126.693 126.782 126.149C128.55 125.606 130.159 124.643 131.472 123.341C129.957 123.351 128.795 123.436 127.635 123.337C127.361 123.275 127.103 123.156 126.878 122.987C126.653 122.818 126.466 122.604 126.33 122.358C126.136 122.058 126.583 121.342 126.941 121.049C127.086 120.869 127.272 120.725 127.483 120.63C127.694 120.534 127.924 120.49 128.155 120.5C128.386 120.509 128.612 120.573 128.814 120.685C129.016 120.798 129.189 120.957 129.318 121.148C129.693 121.584 130.161 121.928 130.688 122.155C131.215 122.383 131.787 122.487 132.361 122.46C133.054 122.497 133.735 122.42 134.4 122.414C135.066 122.408 135.843 122.573 135.789 123.521C135.735 124.469 135.155 124.42 134.418 124.411C131.476 124.191 129.525 126.248 127.064 127.238C127.867 129.881 127.867 129.881 130.591 129.39C131.363 131.141 132.782 130.89 134.233 130.313C135.684 129.736 136.055 129.556 136.952 129.157C137.848 128.757 139.358 128.081 140.511 127.515L140.789 127.943C139.248 128.944 137.664 129.973 136.026 130.731C136.862 133.049 137.465 133.51 139.41 133.038C141.356 132.566 142.568 131.901 144.331 131.243C146.095 130.585 146.763 130.395 148.041 130.113C148.298 129.947 148.939 130.747 149.245 131.218C149.551 131.689 149.15 132.01 148.893 132.177C148.636 132.344 147.958 132.236 147.625 131.722L147.124 130.952L140.46 133.999C141.372 134.992 142.62 135.613 143.962 135.742C145.304 135.871 146.646 135.498 147.73 134.697C148.098 134.352 148.533 134.086 149.007 133.914C149.481 133.742 149.985 133.668 150.489 133.697C150.048 134.018 149.591 134.315 149.119 134.587C147.92 135.365 146.554 135.886 145.313 136.692C145.02 136.83 144.761 137.031 144.554 137.281C144.348 137.53 144.2 137.822 144.12 138.136C144.076 138.534 144.12 138.936 144.248 139.315C144.376 139.695 144.585 140.042 144.86 140.332C145.135 140.622 145.47 140.849 145.842 140.997C146.214 141.145 146.614 141.21 147.013 141.187C148.139 141.126 149.26 141.007 150.374 140.832C150.752 140.815 151.131 140.834 151.505 140.888L151.756 141.274C150.362 141.752 148.984 142.16 147.633 142.611C149.184 143.274 150.914 143.395 152.542 142.954C152.884 142.918 153.202 142.764 153.443 142.519C153.683 142.274 153.831 141.953 153.861 141.611C154.088 140.59 154.623 139.662 155.394 138.955C156.165 138.248 157.134 137.795 158.172 137.657C159.678 137.165 160.309 137.668 160.638 139.768C159.067 139.692 157.319 139.062 156.346 141.032L157.402 142.659C155.938 143.123 154.588 143.574 153.209 143.982C151.831 144.389 150.553 144.671 149.233 144.981L149.51 145.409L152.641 145.263C153.577 145.204 154.576 144.494 155.725 145.513C154.11 146.356 152.32 146.809 150.498 146.837C150.094 146.928 149.671 146.883 149.294 146.71C148.917 146.536 148.608 146.244 148.415 145.877C147.831 144.978 147.433 145.115 146.479 146.646C148.194 147.309 149.952 147.856 151.741 148.282C153.521 148.587 155.377 148.539 157.23 148.675L157.424 148.975C156.44 149.614 155.205 149.868 153.98 150.419C155.815 153.245 158.692 151.864 160.786 153.122C159.93 153.678 158.768 153.763 157.53 154.201C159.374 156.29 161.872 154.608 163.992 156.092L161.762 156.688C161.109 156.807 160.176 156.682 160.263 157.661C160.35 158.639 161.256 158.721 162.035 158.702C162.703 158.637 163.375 158.608 164.046 158.613C164.485 158.632 164.836 158.892 165.724 159.228C164.343 159.82 163.419 160.177 162.564 160.549C162.542 160.734 162.562 160.922 162.623 161.098C162.685 161.274 162.785 161.433 162.917 161.565C163.05 161.696 163.21 161.795 163.386 161.855C163.563 161.915 163.751 161.934 163.935 161.911C164.699 161.963 165.465 161.83 166.202 161.839C166.938 161.848 167.706 161.532 168.472 162.617L163.872 163.595C165.346 165.864 167.709 163.599 169.673 165.124C168.509 165.393 167.755 165.639 166.946 165.799C166.137 165.959 165.741 165.912 165.159 166.046C164.774 166.076 164.415 166.255 164.161 166.546C163.906 166.836 163.774 167.215 163.795 167.601C163.925 168.551 164.747 168.505 165.412 168.499C167.013 168.433 168.601 168.254 170.217 168.118C170.602 167.868 171.306 168.202 172.254 168.257C169.863 170.479 166.979 168.943 164.893 170.418C165.205 171.555 166.055 171.551 166.778 171.446C169.452 171.252 172.089 171.002 174.688 170.693C175.752 170.551 175.973 169.859 175.815 168.866C175.657 167.873 175.251 167.529 175.482 167.135C176.536 165.477 175.381 163.792 175.84 162.155C173.504 160.994 173.504 160.994 173.394 158.387C173.503 157.744 173.366 157.084 173.011 156.537C172.656 155.99 172.108 155.596 171.476 155.433L169.343 155.053C168.767 152.384 168.613 152.241 166.113 152.89C165.855 153.058 165.554 153.148 165.246 153.148C164.841 153.065 164.473 152.857 164.191 152.555C164.191 152.555 164.442 151.722 164.669 151.697C166.002 151.173 167.412 150.874 168.843 150.813C171.291 150.928 171.822 153.809 173.863 154.797C174.283 155.114 174.624 155.525 174.856 155.998C175.089 156.47 175.208 156.991 175.203 157.517C175.106 158.232 175.268 158.958 175.661 159.563C176.054 160.168 176.651 160.612 177.343 160.814C178.753 161.299 178.802 161.937 178.247 163.332C178.033 163.729 177.903 164.166 177.863 164.615L178.09 168.059C179.173 168.695 181.463 167.817 181.883 170.526L178.609 170.826C178.907 171.225 179.296 171.547 179.745 171.764C180.193 171.982 180.687 172.088 181.185 172.075L183.703 172.205C184.354 172.27 185.09 172.279 185.303 173.357C184.832 173.663 184.276 174.025 183.505 174.525C184.413 174.734 185.304 175.01 186.171 175.35C186.449 175.779 187.378 176.271 187.144 176.849C187.055 178.306 187.86 178.514 188.919 178.74C189.741 178.883 190.546 179.116 191.318 179.434C192.516 179.874 193.656 180.412 194.769 180.907C196.438 179.823 195.248 177.613 196.428 176.056C198.391 177.329 200.446 178.457 202.574 179.43C203.206 177.825 204.435 176.526 206.003 175.805C207.978 175.192 209.007 173.307 210.55 172.123C211.278 171.65 211.364 170.377 211.673 169.446C211.982 168.515 211.543 168.496 211.704 168.087C211.865 167.678 212.201 166.79 212.584 166.724C212.967 166.658 213.581 167.416 213.529 168.18L213.467 168.647C213.466 169.399 213.683 170.135 214.092 170.766C214.502 171.397 215.086 171.895 215.774 172.2C216.074 172.006 216.416 171.783 216.416 171.783L215.385 168.132C216.027 167.715 216.849 167.668 217.504 167.365C219.582 166.442 221.431 163.477 220.672 161.839C219.913 160.202 220.5 159.699 221.601 158.863C223.613 157.557 223.387 156.364 221.335 155.079C219.284 153.794 219.737 153.743 221.026 152.541C221.425 152.345 221.799 152.103 222.14 151.818C223.234 150.317 222.445 148.82 220.248 147.873C219.717 147.678 219.284 147.281 219.044 146.768C218.912 146.002 219.706 145.913 220.371 145.906C222.43 145.422 223.154 144.1 222.342 142.192C222.083 141.653 221.756 141.15 221.369 140.694C221.369 140.694 221.147 140.351 220.764 140.418L218.794 141.696C219.01 139.122 220.295 137.07 219.462 134.568L217.003 137.625ZM72.0175 97.8503C70.4212 97.5476 69.3944 96.9971 69.6137 95.2723C69.5297 94.9138 69.3233 94.596 69.0301 94.3733C67.9543 93.185 68.0534 92.0251 69.244 90.7653C67.4532 90.1629 67.4967 88.9174 67.7115 87.5608C67.9131 86.8642 67.8846 86.1211 67.6301 85.442C67.3757 84.7629 66.9088 84.1839 66.2991 83.7913C65.4856 84.3194 63.8894 84.0168 64.1088 85.7611C64.1588 86.9079 64.5222 88.0189 65.1597 88.9737C65.6601 89.4348 65.9896 90.0518 66.0945 90.7241C66.1994 91.3965 66.0737 92.0848 65.7375 92.6765L67.3376 93.8287L66.5834 95.2919C68.0077 96.9235 68.0077 96.9236 67.1574 98.1451C66.3071 99.3665 66.2553 100.131 67.9905 100.647C69.7258 101.164 70.2523 100.944 71.3671 101.255C71.61 101.313 71.8359 101.428 72.0258 101.59C72.2158 101.753 72.3646 101.958 72.4601 102.188C72.5991 102.403 71.9825 103.046 71.5693 103.254C71.1562 103.461 69.9211 103.715 69.792 105.016C70.6903 105.379 71.6143 105.674 72.5564 105.899C72.9745 105.895 73.3848 106.013 73.7368 106.239C74.0888 106.464 74.3669 106.788 74.5373 107.169C75.112 108.805 76.3125 109.06 77.8427 108.98C78.3948 108.987 79.1587 109.038 79.4517 109.396C79.7447 109.753 79.267 110.612 78.8216 111.144C78.3761 111.677 78.7036 111.525 78.6285 111.878C79.1849 112.393 79.8871 112.724 80.6388 112.824C81.3904 112.924 82.1547 112.79 82.8269 112.439C83.8116 111.8 84.2587 112.301 84.3136 113.604C84.3363 113.887 84.3376 114.171 84.3174 114.454L84.2956 115.076L86.5469 115.075C88.0192 115.093 89.4488 115.139 90.8933 115.115C92.3379 115.09 92.5924 115.107 92.8764 116.201L91.4373 118.109C92.044 118.636 92.7198 119.077 93.446 119.422C94.9955 119.864 96.598 120.093 98.2093 120.103C98.719 120.028 99.2393 120.091 99.717 120.283C100.195 120.476 100.613 120.791 100.929 121.198C102.631 123.258 104.32 122.953 105.624 120.462C105.277 120.322 104.911 120.231 104.537 120.194C100.943 119.773 97.5572 118.281 94.8199 115.913C93.2568 114.6 91.3066 113.835 89.2677 113.735C87.6969 113.659 87.573 113.375 88.092 111.455C88.0407 111.309 87.955 111.177 87.8419 111.07C86.8413 109.529 84.6643 110.394 83.1754 109.413C83.2986 107.447 81.863 106.735 80.3117 106.221C79.9509 106.107 79.5717 106.064 79.1947 106.094C77.9192 106.191 77.346 105.59 77.4752 104.289C77.4752 104.289 77.1972 103.86 77.2806 103.989C76.275 103.029 75.1471 102.206 73.9264 101.541C73.1881 101.268 72.5778 100.731 72.2146 100.033C71.8514 99.3343 71.7614 98.5259 71.9621 97.7649L72.0175 97.8503ZM120.374 131.276C119.261 130.781 118.671 130.434 118.05 130.228C116.572 129.545 115.106 128.975 113.671 128.263C112.235 127.552 111.221 127.115 109.696 129.079C107.221 132.118 105.351 135.604 104.19 139.347C104.012 140.131 103.941 140.935 103.977 141.738C110.105 139.41 115.673 135.816 120.318 131.191L120.374 131.276ZM196.426 179.709C196.1 180.895 195.832 181.982 195.45 183.082C195.069 184.181 194.416 184.301 193.701 183.669C192.527 182.813 191.173 182.235 189.743 181.978C189.099 181.787 188.472 181.543 187.869 181.247C187.011 180.803 186.109 180.451 185.177 180.195C183.906 179.925 183.033 179.517 183.094 178.017C183.155 176.517 182.26 176.733 181.509 176.794L181.407 179.356C181.345 179.727 181.361 180.107 181.454 180.471C181.547 180.836 181.715 181.177 181.947 181.473C182.179 181.769 182.47 182.013 182.802 182.19C183.134 182.367 183.5 182.473 183.875 182.501C184.379 182.62 184.848 182.859 185.24 183.197C186.613 184.375 186.518 185.167 185.875 186.802C185.232 188.436 185.758 189.434 187.515 189.328C188.125 189.248 188.725 189.103 189.305 188.897L188.792 186.795C190.334 185.794 192.025 185.305 193.491 184.658C194.798 185.452 193.13 186.352 193.827 187.238C193.958 187.329 194.105 187.392 194.261 187.421C194.417 187.451 194.578 187.447 194.732 187.41C194.886 187.373 195.031 187.304 195.157 187.207C195.282 187.11 195.386 186.988 195.461 186.848C196.07 186.257 196.597 185.587 197.028 184.856C197.151 184.51 197.342 184.192 197.592 183.922C197.841 183.652 198.143 183.435 198.478 183.286C198.814 183.136 199.177 183.057 199.544 183.052C199.912 183.047 200.276 183.117 200.616 183.258C201.04 183.348 201.538 183.085 202.078 182.978C201.455 182.012 200.614 181.205 199.623 180.622C198.632 180.039 197.518 179.697 196.37 179.624L196.426 179.709ZM199.421 184.886C199.11 186 199.413 186.655 200.303 186.808C201.414 187.104 202.568 187.2 203.712 187.09C204.105 187.033 204.48 186.891 204.812 186.675C205.145 186.459 205.427 186.174 205.639 185.839C206.209 184.941 206.927 184.145 207.763 183.487C208.78 182.602 209.611 181.524 210.209 180.317C211.025 178.294 211.712 176.221 212.267 174.112C212.267 174.112 211.878 173.512 211.9 172.889C211.415 173.714 210.82 174.469 210.131 175.133C209.661 175.46 209.286 175.906 209.046 176.426C208.805 176.946 208.708 177.52 208.764 178.09C208.795 178.665 208.668 179.237 208.397 179.746C208.126 180.254 207.722 180.678 207.228 180.974C206.309 181.631 205.484 182.412 204.778 183.294C204.384 183.809 203.868 184.219 203.276 184.486C202.685 184.753 202.037 184.869 201.39 184.825L199.421 184.886ZM173.178 184.211C173.956 185.41 174.596 186.395 175.179 187.294C175.711 187.932 176.39 188.432 177.158 188.748C178.553 189.303 181.047 187.989 180.977 186.756C180.828 184.934 180.44 183.139 179.825 181.418C179.792 181.198 179.684 180.995 179.519 180.845C179.354 180.695 179.143 180.606 178.92 180.593C178.698 180.58 178.478 180.645 178.297 180.775C178.116 180.906 177.986 181.095 177.928 181.31C177.628 181.923 177.166 182.444 176.593 182.816C176.02 183.188 175.357 183.397 174.674 183.422C174.261 183.63 173.805 183.865 173.122 184.125L173.178 184.211ZM174.413 175.802C171.802 177.497 168.881 176.654 166.156 178.363C166.861 178.739 167.596 179.056 168.353 179.31C169.583 179.424 170.801 179.425 172.004 179.496C172.506 179.513 173.001 179.376 173.422 179.102C173.843 178.829 174.17 178.433 174.359 177.967C174.673 177.349 175.213 176.875 175.866 176.643C176.52 176.411 177.238 176.439 177.871 176.722C178.408 176.816 178.952 176.87 179.497 176.883C178.995 176.301 178.574 175.652 178.247 174.956C178.209 174.651 178.109 174.357 177.953 174.092C177.797 173.827 177.588 173.597 177.339 173.416C177.09 173.235 176.807 173.107 176.507 173.04C176.207 172.973 175.896 172.969 175.594 173.027C174.971 172.941 174.336 173.022 173.753 173.261C173.171 173.5 172.662 173.889 172.278 174.388L174.413 175.802ZM187.371 194.168C188.271 192.367 188.271 192.367 190.368 192.223L191.261 192.191C192.635 192.151 194.022 192.225 195.383 192.072C196.744 191.918 197.309 190.821 196.375 189.663C195.922 189.193 195.32 188.895 194.672 188.821C193.761 188.79 192.851 188.907 191.977 189.17C189.762 189.695 187.602 190.306 185.372 190.902C184.774 191.049 184.189 191.246 183.624 191.489C184.783 192.806 185.43 194.272 187.232 193.954L187.371 194.168ZM92.6198 50.2722C96.167 51.9863 99.2047 50.1969 102.227 49.6957C103.727 49.06 105.103 48.1663 106.294 47.0552L105.961 46.5414C105.039 46.6818 104.124 46.8691 103.221 47.1026C102.127 47.3866 101.102 47.8697 100.008 48.1537C97.4469 48.4936 94.9431 49.1775 92.5643 50.1868L92.6198 50.2722ZM98.9834 59.0437C99.7292 59.2349 100.509 59.2549 101.263 59.1023C102.018 58.9497 102.728 58.6284 103.341 58.1624C103.769 57.8845 104.197 57.6065 104.792 57.5854C105.387 57.5644 105.991 56.8071 106.772 56.6043C105.077 53.9925 103.029 54.7747 101.036 55.6424C99.0428 56.51 98.4156 56.8564 98.928 58.9582L98.9834 59.0437ZM86.2219 201.952L79.5123 199.492C79.1561 199.33 78.7538 199.301 78.3782 199.411C78.0027 199.521 77.679 199.761 77.4661 200.09C79.1278 201.993 81.5548 201.513 83.7566 202.092C83.4082 202.366 83.0356 202.608 82.6434 202.815C82.1295 203.148 81.6585 203.454 82.0349 203.94C82.1898 204.118 82.3879 204.254 82.61 204.333C82.8322 204.413 83.0711 204.434 83.3038 204.395C83.9646 204.271 84.5796 203.97 85.0835 203.525C85.5875 203.08 85.9617 202.507 86.1665 201.867L86.2219 201.952ZM89.6437 198.879C88.001 198.267 86.3243 197.75 84.6218 197.331C84.0335 197.241 83.4315 197.318 82.8851 197.554C82.3387 197.791 81.8701 198.176 81.533 198.667C83.1947 200.57 85.4505 200.201 87.4855 200.524C88.2923 200.548 89.1163 200.317 89.5452 198.821L89.6437 198.879ZM77.6706 205.374C75.5072 203.827 73.2604 202.401 70.9405 201.1C70.7738 200.843 70.1338 201.076 69.6522 201.085C70.7789 203.275 72.5716 205.052 74.7725 206.159C75.2796 206.308 75.8191 206.304 76.3242 206.149C76.8293 205.994 77.278 205.695 77.6149 205.288L77.6706 205.374ZM219.648 139.073C222.209 139.175 223.705 138.386 223.835 137.085C223.964 135.784 222.507 134.478 220.072 134.476L219.648 139.073ZM102.964 50.7384C100.554 50.6562 98.1761 51.3087 96.1452 52.6091C98.4935 55.1015 100.782 53.1895 103.046 53.3021L102.964 50.7384ZM170.099 175.437C170.247 175.05 170.31 174.636 170.284 174.222C170.034 173.837 169.617 173.194 169.506 173.023C168.307 172.952 167.105 173.019 165.921 173.22C165.721 173.297 165.544 173.424 165.406 173.588C165.268 173.752 165.173 173.949 165.131 174.159C165.117 174.411 165.156 174.662 165.245 174.897C165.335 175.133 165.474 175.346 165.652 175.524C167.04 176.072 168.584 176.071 169.971 175.521L170.099 175.437ZM106.037 44.9707C103.28 42.3175 100.283 43.0457 99.2498 46.5162L106.037 44.9707ZM81.1342 203.49L75.0818 200.542L73.6312 199.901C73.4124 199.847 73.1834 199.849 72.9656 199.907C72.9656 199.907 72.7515 200.046 72.6231 200.13C74.4521 202.112 76.8227 203.515 79.4411 204.163C80.0639 204.001 80.6622 203.756 81.2199 203.435L81.1342 203.49ZM120.105 128.894C119.389 127.685 118.361 126.689 117.129 126.012C115.897 125.334 114.506 124.999 113.101 125.042C113.915 126.174 114.977 127.104 116.206 127.762C117.435 128.42 118.798 128.789 120.191 128.839L120.105 128.894ZM92.9796 195.862C90.2069 194.497 88.2079 194.699 86.8716 196.297C89.582 198.128 91.7499 197.999 93.0652 195.806L92.9796 195.862ZM90.1359 82.0719C91.6631 83.3931 93.4779 83.1887 96.3038 81.3542C95.2393 79.2456 92.9707 79.501 90.1103 81.8448L90.1359 82.0719ZM174.465 181.975C174.423 181.776 174.341 181.586 174.224 181.419C174.107 181.251 173.957 181.109 173.785 181C173.612 180.891 173.419 180.818 173.217 180.784C173.016 180.751 172.81 180.758 172.611 180.806C171.335 180.904 169.927 180.235 168.837 181.369C170.247 183.071 171.732 183.202 174.44 181.749L174.465 181.975ZM111.771 123.837L108.843 121.295C107.421 122.948 107.388 123.274 108.171 124.104C108.954 124.935 110.227 125.021 111.745 123.61L111.771 123.837ZM179.057 190.924C179.3 193.079 179.815 193.779 181.031 193.964C181.314 193.957 181.594 193.893 181.853 193.777C182.112 193.661 182.345 193.495 182.54 193.288C182.674 193.132 182.769 192.945 182.816 192.744C182.862 192.543 182.86 192.334 182.808 192.135C182.756 191.935 182.657 191.751 182.518 191.598C182.379 191.445 182.206 191.328 182.012 191.257C181.03 191.014 180.035 190.827 179.032 190.697L179.057 190.924ZM92.8091 48.6887C94.5959 48.6213 96.3129 47.9767 97.7024 46.8513C97.0286 46.3758 96.387 45.575 95.8904 45.6539C95.1742 45.7521 94.5019 46.0564 93.9556 46.53C93.4093 47.0035 93.0125 47.6256 92.8136 48.3207L92.8091 48.6887ZM162.598 176.351C161.435 177.654 161.285 178.36 162.025 179.218C162.162 179.456 162.347 179.663 162.569 179.826C162.79 179.988 163.042 180.104 163.31 180.164C163.578 180.224 163.856 180.229 164.125 180.177C164.395 180.125 164.651 180.018 164.877 179.862L162.598 176.351ZM78.6363 197.017C80.0974 197.955 80.6368 197.849 82.384 196.228C81.2595 194.402 80.3798 194.547 78.5251 196.846L78.6363 197.017ZM176.703 191.235L174.138 189.065C173.86 188.637 173.169 188.416 172.85 189.049C172.803 189.277 172.81 189.514 172.871 189.738C172.933 189.963 173.046 190.17 173.202 190.342C173.673 190.717 174.224 190.977 174.812 191.102C175.4 191.227 176.009 191.214 176.592 191.063L176.703 191.235ZM64.7011 196.083C64.8962 196.958 65.302 197.773 65.8833 198.456C66.4647 199.139 67.2041 199.67 68.0372 200.003C67.4159 197.546 65.5521 197.112 64.5898 195.911L64.7011 196.083ZM85.8839 194.869C84.3311 193.321 83.9351 193.273 82.6461 194.475C84.0599 195.809 84.0599 195.809 85.7726 194.697L85.8839 194.869ZM204.54 180.771C205.525 180.132 206.167 179.715 206.809 179.298C207.452 178.881 206.945 178.662 206.833 178.491C206.746 178.38 206.631 178.293 206.501 178.239C206.37 178.186 206.227 178.167 206.087 178.185C204.897 178.227 204.227 178.601 204.386 180.628L204.54 180.771ZM138.316 148.416C140.991 148.505 141.644 148.385 142.575 147.476C141.828 147.264 141.042 147.226 140.277 147.364C139.512 147.502 138.789 147.812 138.162 148.272L138.316 148.416ZM133.485 149.787L136.452 149.2C134.587 147.733 134.544 147.761 133.415 149.772L133.485 149.787ZM160.213 166.396C160.252 165.519 160.443 164.969 160.276 164.712C159.95 164.328 159.529 164.034 159.055 163.862C159.055 163.862 158.584 164.167 158.541 164.195C158.612 164.616 158.735 165.027 158.908 165.417C159.264 165.732 159.65 166.012 160.059 166.253L160.213 166.396ZM157.066 158.641C156.615 157.29 155.669 157.052 154.441 156.754C154.539 157.312 154.854 157.809 155.317 158.136C155.78 158.462 156.353 158.592 156.912 158.498L157.066 158.641ZM184.993 183.662C184.501 183.79 184.021 183.96 183.557 184.168C183.272 184.388 183.065 184.693 182.966 185.039C182.966 185.039 183.244 185.467 183.272 185.51C183.691 185.523 184.104 185.405 184.451 185.17C184.569 184.789 184.589 184.351 184.756 183.39L184.993 183.662ZM123.249 128.862C124.027 130.061 124.027 130.061 125.239 129.396C124.668 128.61 124.02 128.361 123.249 128.862ZM151.351 159.307C152.406 159.901 152.406 159.901 153.25 159.232C153.122 159.089 152.964 158.979 152.786 158.909C152.609 158.839 152.418 158.811 152.228 158.828C152.038 158.845 151.855 158.906 151.692 159.007C151.53 159.107 151.394 159.244 151.293 159.406L151.351 159.307ZM171.679 186.402L172.021 186.179C171.632 185.58 171.187 184.895 170.021 185.348L171.679 186.402ZM62.4488 193.832C62.4911 193.335 62.3666 192.837 62.0948 192.419C61.823 192 61.4194 191.684 60.9479 191.52L62.4488 193.832ZM77.0176 198.555C76.8508 198.298 77.0693 197.791 76.9281 197.761C76.8109 197.701 76.6829 197.666 76.5515 197.657C76.4202 197.648 76.2884 197.666 76.1642 197.709C76.1642 197.709 75.9584 198.33 76.0568 198.388C76.1552 198.445 76.6322 198.805 76.9319 198.611L77.0176 198.555ZM132.398 132.174L132.592 132.473L133.881 132.489L133.686 132.189L132.398 132.174ZM151.193 154.845C151.45 154.679 151.844 154.91 151.972 154.827C152.042 154.752 152.089 154.66 152.111 154.561C152.132 154.461 152.126 154.358 152.093 154.262C152.004 154.202 151.904 154.163 151.799 154.147C151.694 154.131 151.587 154.139 151.485 154.169C151.485 154.169 151.352 154.621 151.191 155.03L151.193 154.845ZM161.109 171.901L160.809 172.096L161.254 172.781L161.511 172.614L161.109 171.901ZM92.6236 124.155L93.0284 123.466L92.8895 123.252L92.6236 124.155Z" fill="#49535E"/>
<path d="M166.216 122.392C166.987 121.892 167.672 121.447 168.995 120.954C168.39 122.929 167.422 124.531 168.936 125.739C170.451 126.947 171.69 126.325 173.349 126.161L172.821 125.347C172.368 124.181 172.644 123.575 173.834 123.533C174.208 123.556 174.581 123.598 174.951 123.66C177.416 123.945 179.894 123.253 181.856 121.734C183.44 120.705 183.421 119.926 182.108 118.466C181.685 117.91 181.304 117.323 180.969 116.711C181.868 116.568 182.759 116.376 183.637 116.134C184.969 115.836 186.276 115.435 187.546 114.936C187.786 114.861 188.008 114.735 188.195 114.566C188.381 114.397 188.529 114.189 188.628 113.957C188.726 113.725 188.773 113.475 188.765 113.223C188.757 112.971 188.694 112.724 188.581 112.499C187.997 111.6 187.719 111.172 186.127 111.719C185.699 111.997 185.174 112.033 184.237 112.276C186.097 110.642 187.601 109.301 189.275 107.849C189.97 108.92 190.74 109.637 192.078 109.073C192.436 109 192.774 108.849 193.068 108.631C193.362 108.413 193.605 108.133 193.779 107.812C193.953 107.49 194.054 107.133 194.076 106.768C194.097 106.403 194.038 106.037 193.903 105.697L193.145 102.842L197.741 103.266C198.215 105.027 196.407 104.68 195.816 105.55C195.744 105.857 195.702 106.169 195.692 106.484C195.722 107.298 195.485 108.1 195.017 108.767C194.548 109.433 193.874 109.928 193.098 110.175C192.565 110.473 191.996 110.7 191.405 110.849C191.205 110.891 191.015 110.973 190.848 111.09C190.68 111.207 190.538 111.357 190.429 111.53C190.32 111.702 190.247 111.895 190.213 112.097C190.18 112.299 190.187 112.505 190.235 112.703C190.415 115.325 189.739 116.251 187.037 117.153C186.309 117.625 185.331 117.712 184.422 117.999C184.366 118.488 184.36 118.981 184.404 119.471C184.47 120.122 184.356 120.779 184.074 121.37C183.792 121.961 183.353 122.463 182.805 122.822C181.692 123.636 180.534 124.387 179.337 125.073C178.601 125.434 177.911 125.882 177.282 126.407C174.4 129.374 170.97 128.496 167.593 127.889C167.346 127.849 167.11 127.759 166.9 127.622C166.69 127.486 166.511 127.307 166.375 127.097C166.239 126.887 166.148 126.651 166.109 126.404C166.07 126.157 166.083 125.904 166.148 125.662C166.314 125.17 166.411 124.656 166.435 124.136C166.444 123.548 166.371 122.961 166.216 122.392Z" fill="#49535E"/>
<path d="M139.396 124.953L138.627 121.801C140.361 121.657 142.103 121.645 143.838 121.765C144.742 122.104 145.537 122.682 146.14 123.436C147.384 124.697 148.458 126.069 149.69 127.217C151.376 128.798 153.482 129.861 155.755 130.279C156.489 130.477 157.268 130.422 157.966 130.122C159.036 129.427 159.809 129.96 160.506 130.846C161.426 132.078 162.775 132.918 164.286 133.201C165.433 133.318 166.588 133.342 167.74 133.271C168.061 133.649 168.332 134.066 168.546 134.513C168.734 135.335 169.181 136.075 169.822 136.623C170.463 137.172 171.264 137.499 172.105 137.558C172.888 137.752 173.714 137.672 174.445 137.33C175.176 136.989 175.768 136.407 176.121 135.681C177.159 136.337 178.275 136.86 179.443 137.237C181.082 137.512 181.65 136.23 181.825 134.717C182.953 134.897 184.099 134.93 185.236 134.816C186.287 134.482 187.285 133.998 188.199 133.379C188.921 134.493 188.277 135.093 187.622 135.397C185.299 136.6 182.895 137.491 180.598 138.922C180.43 139.026 180.242 139.092 180.045 139.114C179.849 139.136 179.65 139.114 179.464 139.05C177.451 138.607 175.367 138.591 173.347 139.003C172.171 139.215 170.958 139.055 169.876 138.547C168.794 138.04 167.897 137.208 167.308 136.168C167.11 135.89 166.856 135.656 166.564 135.479C166.271 135.303 165.946 135.188 165.607 135.142C163.721 134.87 161.957 134.046 160.539 132.772C159.954 132.305 159.242 132.025 158.496 131.969C156.279 131.895 154.103 131.356 152.11 130.385C150.116 129.414 148.35 128.033 146.926 126.334L145.557 124.788C145.327 124.431 145.025 124.126 144.671 123.891C144.317 123.657 143.917 123.499 143.499 123.427C143.08 123.356 142.652 123.372 142.24 123.475C141.828 123.578 141.442 123.765 141.106 124.025C140.62 124.402 140.136 124.594 139.396 124.953Z" fill="#49535E"/>
<path d="M188.686 123.629C188.634 124.393 188.527 125.072 188.533 125.737C188.581 126.291 188.511 126.848 188.328 127.373C188.145 127.898 187.853 128.378 187.47 128.781C187.088 129.185 186.625 129.503 186.111 129.714C185.596 129.925 185.043 130.025 184.488 130.006C182.108 130.091 182.108 130.091 181.557 132.335C181.006 134.58 180.081 134.937 178.303 134.448C177.073 133.997 175.882 133.447 174.74 132.804C174.178 132.5 173.519 131.954 173.768 131.306C174.016 130.657 174.919 130.923 175.552 131.242C176.325 131.745 177.128 132.199 177.957 132.603C179.352 133.158 179.851 132.895 180.098 131.213L180.25 130.323C180.789 127.965 181.046 127.798 183.333 128.321C183.8 128.384 184.251 128.517 184.69 128.536C186.43 128.685 187.074 128.084 187.039 126.342L186.783 124.073C186.579 122.258 187.11 121.67 188.92 121.834C190.731 121.998 190.9 122.071 191.863 122.054C192.826 122.037 193.404 121.053 193.005 120.156C192.554 119.275 192.014 118.443 191.392 117.673C190.948 116.988 190.559 116.389 191.362 115.563C192.956 116.988 194.029 118.905 194.41 121.009C194.647 122.499 193.872 123.367 192.17 123.559C191.011 123.639 189.848 123.662 188.686 123.629Z" fill="#49535E"/>
<path d="M86.4767 74.4659L82.729 75.2554L82.4511 74.8274C82.8781 74.4874 83.337 74.1895 83.8213 73.9379C84.8872 73.6111 86.0643 73.4557 87.1025 73.086C87.3887 73.0394 87.6621 72.9337 87.9053 72.7758C88.1486 72.6179 88.3563 72.4112 88.5154 72.1688C88.9616 70.4185 90.3656 70.2374 91.6839 70.1119C93.0023 69.9864 93.468 71.2665 93.9488 72.4759C93.1353 73.004 92.3646 73.5043 91.1657 74.2826L94.6707 74.8066L94.8931 75.1492C94.538 75.4432 94.1501 75.695 93.7371 75.8997C92.5171 76.083 91.3122 76.1957 90.1073 76.3084C88.9024 76.4212 87.8643 76.7908 87.8185 78.2203L83.3286 78.3353C84.0541 76.8127 85.1335 75.486 86.4767 74.4659Z" fill="#49535E"/>
<path d="M204.948 127.679C206.272 128.219 207.012 130.295 209.176 129.317L208.799 125.362L207.364 124.65C207.366 124.398 207.431 124.149 207.553 123.928C207.675 123.706 207.849 123.519 208.061 123.381C208.273 123.243 208.516 123.16 208.768 123.139C209.02 123.118 209.273 123.16 209.505 123.261C209.975 123.522 210.389 123.873 210.724 124.295C211.682 125.686 212.108 127.374 211.926 129.053C211.807 130.651 211.59 132.192 211.444 133.748C211.297 135.304 211.342 135.092 209.818 135.838L210.053 134.042C210.221 131.864 209.421 131.288 207.19 131.884C207.481 135.894 207.481 135.894 205.846 136.469C205.766 136.048 205.734 135.621 205.748 135.193C205.943 133.333 205.555 131.458 204.639 129.828C204.11 129.014 204.049 128.263 204.948 127.679Z" fill="#49535E"/>
<path d="M194.363 80.8102C196.397 80.0988 197.074 81.424 198.144 81.9468L199.429 81.1129C199.595 81.3698 199.762 81.6266 199.845 81.755C199.929 81.8835 199.464 82.8549 199.301 83.4476C198.612 85.1489 198.604 87.05 199.279 88.757C200.766 92.1734 200.294 93.6968 197.139 95.8671C196.94 95.9667 196.754 96.0879 196.582 96.2284L196.326 98.6465L192.775 96.0829C193.546 95.5825 194.017 95.2768 194.445 94.9988C195.304 94.6827 196.145 94.3194 196.964 93.9109C197.446 93.6254 197.842 93.2153 198.111 92.7236C198.379 92.2318 198.51 91.6767 198.489 91.117C198.468 90.5572 198.297 90.0132 197.993 89.5426C197.689 89.072 197.264 88.6922 196.762 88.443C196.498 88.3166 196.224 88.2091 195.945 88.1215C194.961 87.5431 195.027 86.7086 195.924 86.3089C196.821 85.9093 197.444 85.931 197.466 85.3083C197.335 84.3471 196.988 83.428 196.451 82.6198C195.823 81.9429 195.122 81.3361 194.363 80.8102Z" fill="#49535E"/>
<path d="M198.226 130.826C199.63 130.644 201.181 131.159 201.095 128.963L201.587 129.253C201.936 129.652 202.226 130.099 202.449 130.58C202.692 131.991 202.845 133.417 202.906 134.847C202.969 135.164 202.964 135.491 202.893 135.806C202.821 136.121 202.683 136.417 202.489 136.675C202.294 136.934 202.048 137.148 201.765 137.304C201.483 137.461 201.17 137.556 200.848 137.583C199.583 138.026 198.384 138.64 197.286 139.409L197.008 138.981C197.433 138.174 197.807 137.341 198.129 136.488C198.33 135.866 198.442 135.22 198.464 134.567C198.338 133.248 198.311 131.988 198.226 130.826Z" fill="#49535E"/>
<path d="M185.266 87.1419L186.765 86.169C185.792 84.6704 188.039 83.8199 187.845 82.3025C189.144 82.6158 189.105 83.4933 189.18 84.3579L189.58 87.5062C189.793 88.3242 189.773 89.1854 189.523 89.9928C189.273 90.8001 188.803 91.5216 188.165 92.0764C187.728 92.4245 187.38 92.8717 187.149 93.381C186.919 93.8903 186.813 94.4472 186.841 95.0054C186.637 98.9109 184.31 100.482 180.033 99.4249C180.878 99.2566 181.713 99.0398 182.533 98.7757C183.448 98.4232 184.279 97.8835 184.973 97.1913C185.229 96.9103 185.415 96.5738 185.518 96.2084C185.621 95.843 185.638 95.4588 185.567 95.0858C185.496 94.7129 185.339 94.3614 185.109 94.0593C184.879 93.7573 184.582 93.513 184.242 93.3454C183.978 93.1934 183.745 92.9935 183.555 92.7563C183.853 91.5281 184.63 91.6934 185.505 91.9165C185.791 92.0195 186.095 92.0622 186.398 92.0417C186.7 92.0213 186.996 91.9382 187.265 91.7977C187.534 91.6573 187.771 91.4627 187.961 91.226C188.152 90.9892 188.29 90.7154 188.369 90.4222C188.526 90.1182 188.6 89.7781 188.583 89.4364C188.566 89.0947 188.459 88.7638 188.273 88.4769C188.086 88.19 187.827 87.9574 187.522 87.8028C187.217 87.6482 186.876 87.5769 186.535 87.5964L185.266 87.1419Z" fill="#49535E"/>
<path d="M125.073 105.89C124.378 104.819 123.919 102.987 121.902 102.41C123.143 101.604 124.428 100.77 126.078 100.125C124.493 98.9021 123.03 100.399 121.678 99.8163C122.077 99.3137 122.594 98.918 123.183 98.6641C123.772 98.4103 124.415 98.3064 125.054 98.3619C125.693 98.4174 126.308 98.6305 126.845 98.9821C127.381 99.3337 127.822 99.8128 128.128 100.377C127.486 100.794 126.801 101.238 126.116 101.683C125.986 101.804 125.882 101.95 125.809 102.112C125.737 102.274 125.697 102.449 125.694 102.626C125.764 102.794 125.878 102.94 126.023 103.048C126.169 103.157 126.341 103.225 126.521 103.245C127.555 103.244 128.604 103.172 129.652 103.1C130.701 103.027 130.66 102.871 131.243 102.737C131.303 103.083 131.327 103.434 131.315 103.785C131.337 105.414 131.081 105.581 129.565 105.591C128.05 105.6 126.616 105.923 125.073 105.89Z" fill="#49535E"/>
<path d="M109.532 83.3565C110.153 83.1903 110.783 83.0656 111.42 82.9832C112.092 82.9305 112.766 83.0612 113.369 83.3611C113.608 83.4814 113.807 83.6684 113.941 83.8995C114.075 84.1306 114.139 84.3958 114.125 84.6627C114.112 84.9296 114.021 85.1869 113.863 85.403C113.706 85.6191 113.489 85.7846 113.239 85.8797C111.955 86.3518 110.613 86.6499 109.25 86.7656C108.257 86.9234 107.056 86.6679 106.772 85.5742C106.656 85.1165 106.634 84.6398 106.707 84.1732C106.781 83.7067 106.95 83.2603 107.202 82.861C108.262 81.787 109.465 80.8632 110.775 80.1153C111.032 79.9485 111.653 80.1542 111.89 80.4262C112.128 80.6981 111.937 81.248 111.723 81.387C110.953 81.9495 110.152 82.4691 109.325 82.9436L109.532 83.3565Z" fill="#49535E"/>
<path d="M197.97 114.681L198.888 116.094C199.223 116.905 199.826 117.576 200.597 117.995C201.368 118.414 202.259 118.556 203.122 118.397C204.271 118.199 204.787 117.681 204.589 116.532C204.627 115.603 204.346 114.688 203.794 113.94C203.242 113.192 202.451 112.654 201.552 112.417C201.337 112.357 201.133 112.264 200.947 112.14C200.883 111.993 200.861 111.831 200.883 111.671C200.906 111.512 200.973 111.363 201.075 111.239C201.178 111.116 201.313 111.023 201.466 110.972C201.618 110.92 201.782 110.913 201.938 110.949C202.812 111.041 203.637 111.397 204.304 111.969C205.458 113.204 206.101 114.831 206.104 116.522C206.137 117.06 206.023 117.597 205.773 118.075C205.092 118.998 204.104 119.646 202.986 119.902C201.869 120.158 200.697 120.007 199.682 119.474C197.692 118.94 197.047 117.289 197.97 114.681Z" fill="#49535E"/>
<path d="M137.017 84.4429C137.372 84.1678 137.813 84.0281 138.262 84.0492C138.71 84.0702 139.137 84.2505 139.465 84.5576C139.715 84.943 140.277 85.2471 140.742 85.4935C140.873 85.5759 141.026 85.619 141.181 85.6176C141.337 85.6163 141.489 85.5707 141.619 85.4861C141.75 85.4015 141.853 85.2812 141.918 85.1398C141.982 84.9983 142.005 84.8414 141.983 84.6874C142.103 84.211 142.108 83.7131 141.998 83.2344C141.888 82.7557 141.667 82.3098 141.352 81.933C140.462 80.5629 140.441 79.968 141.892 79.391C143.413 78.8934 144.964 78.496 146.537 78.2017C146.751 78.0627 147.213 78.4932 147.602 79.0926L142.872 80.3373C143.386 80.9264 143.73 81.6453 143.865 82.4156C144 83.186 143.923 83.9786 143.64 84.7079C143.54 85.3138 143.292 85.8855 142.918 86.3725C142.544 86.8595 142.056 87.2466 141.496 87.4993C141.239 87.6054 140.96 87.65 140.683 87.6294C140.405 87.6088 140.136 87.5235 139.897 87.3806C138.971 86.7038 137.989 85.9415 137.017 84.4429Z" fill="#49535E"/>
<path d="M160.916 116.947C166.711 117.811 165.947 117.759 168.102 114.047C169.464 116.145 167.721 118.616 164.371 119.269C164.164 120.255 163.848 121.215 163.43 122.132C163.021 122.656 162.448 123.028 161.803 123.188C161.021 123.401 160.187 123.301 159.478 122.909C158.769 122.517 158.241 121.864 158.005 121.088C159.512 120.597 161.033 122.471 162.609 120.961L160.916 116.947Z" fill="#49535E"/>
<path d="M134.734 74.1779L132.738 74.1962C133.683 72.1829 137.603 72.3158 140.959 74.5798C139.936 74.8788 139.198 75.0537 138.444 75.2994C136.497 75.9552 134.564 76.5406 132.672 77.2821C131.815 77.838 130.666 78.0363 130.522 79.408C130.522 79.408 129.879 79.8249 129.708 79.9361C129.557 79.8444 129.429 79.7199 129.332 79.5716C129.236 79.4233 129.174 79.2551 129.152 79.0797C128.813 77.9003 129.648 76.7494 131.127 76.2153C132.606 75.6812 133.773 75.2282 135.123 74.7774L134.734 74.1779Z" fill="#49535E"/>
<path d="M156.896 104.098C156.141 104.603 155.266 104.897 154.359 104.951C153.452 105.005 152.548 104.816 151.738 104.403C151.544 104.103 150.883 103.741 151.071 103.375C151.194 102.9 151.493 102.488 151.907 102.224C152.421 101.89 152.997 101.662 153.6 101.551C154.158 101.468 154.686 101.245 155.134 100.901C155.582 100.557 155.934 100.104 156.158 99.5861C156.312 99.3157 156.528 99.0863 156.789 98.917C157.05 98.7477 157.348 98.6435 157.657 98.6133C158.29 99.0861 158.734 99.7694 158.908 100.54C159.187 102.002 158.352 103.153 156.896 104.098ZM153.4 102.837L153.706 103.309L155.765 102.824L155.459 102.353L153.4 102.837Z" fill="#49535E"/>
<path d="M163.062 140.69C163.094 140.45 163.179 140.22 163.308 140.015C163.438 139.81 163.61 139.636 163.814 139.504C164.017 139.372 164.246 139.286 164.486 139.251C164.726 139.215 164.97 139.232 165.202 139.3C165.845 139.365 166.468 139.56 167.034 139.872C167.6 140.183 168.097 140.606 168.495 141.115C168.894 141.624 169.185 142.207 169.353 142.832C169.52 143.456 169.559 144.107 169.469 144.747C169.243 145.452 168.761 146.048 168.117 146.415C167.583 146.651 167.007 146.779 166.423 146.793C165.838 146.806 165.258 146.703 164.713 146.492C164.168 146.28 163.671 145.963 163.249 145.558C162.827 145.154 162.49 144.67 162.255 144.135C162.683 144.076 163.117 144.081 163.543 144.15C164.179 144.286 164.855 144.577 165.518 144.755C166.181 144.933 167.2 145.002 167.395 144.084C167.475 143.368 167.27 142.648 166.825 142.081C166.492 141.567 165.672 141.43 165.024 141.181L163.062 140.69Z" fill="#49535E"/>
<path d="M182.643 151.166C182.217 152.478 182.15 153.312 183.277 153.737C184.405 154.161 185.439 154.16 185.972 153.388C186.299 153.005 186.465 152.51 186.434 152.008C186.403 151.506 186.178 151.035 185.806 150.695C185.15 150.001 184.432 149.367 183.663 148.8C183.76 147.824 184.317 147.463 185.248 147.772C186.357 148.357 187.211 149.33 187.649 150.506C188.086 151.681 188.076 152.976 187.619 154.144C187.384 154.54 187.06 154.875 186.673 155.124C185.791 155.572 184.788 155.723 183.813 155.556C182.838 155.388 181.943 154.911 181.261 154.194C180.354 153.078 180.605 152.246 182.643 151.166Z" fill="#49535E"/>
<path d="M178.15 62.3047C178.209 62.0623 178.324 61.8368 178.484 61.6454C178.644 61.4541 178.846 61.302 179.074 61.2009C179.303 61.0998 179.551 61.0523 179.8 61.0621C180.05 61.0719 180.293 61.1386 180.513 61.2573C182.684 61.7532 184.634 62.9456 186.064 64.6526C187.039 65.6886 188.152 66.5837 189.373 67.3124C189.851 67.762 190.213 68.3202 190.43 68.9395C188.084 68.5144 185.669 68.0742 184.463 65.9356C184.013 65.1926 183.41 64.5547 182.693 64.0647C181.976 63.5748 181.162 63.2444 180.307 63.0956C179.744 62.7914 178.982 62.5556 178.15 62.3047Z" fill="#49535E"/>
<path d="M76.4528 77.8689C77.0702 76.0074 77.6847 75.5477 79.0586 75.5079C79.5943 75.4864 80.1217 75.6448 80.5567 75.9581C80.9917 76.2714 81.3093 76.7214 81.4587 77.2362C81.6678 78.0925 81.5869 78.9941 81.2285 79.7994C80.8702 80.6047 80.2548 81.2684 79.4787 81.6864C78.6978 81.9627 77.8431 81.9461 77.0734 81.6398C76.3037 81.3335 75.6715 80.7586 75.2939 80.0213C75.8831 80.06 76.4742 80.0626 77.0637 80.0287C77.6543 80.0938 78.2518 80.0185 78.8078 79.8092C79.0126 79.6118 79.176 79.3757 79.2886 79.1145C79.4012 78.8533 79.4607 78.5724 79.4636 78.288C79.4636 78.288 78.7065 77.6841 78.24 77.6218C77.6362 77.6272 77.0354 77.7102 76.4528 77.8689Z" fill="#49535E"/>
<path d="M172.201 149.425L174.182 149.477C175.145 149.46 176.139 149.303 176.28 148.115C176.422 146.927 175.419 146.788 174.758 146.426L172.811 145.864C173.494 144.385 174.021 144.165 175.418 144.536C176.249 144.711 176.997 145.16 177.541 145.811C178.085 146.463 178.395 147.279 178.418 148.127C178.203 148.978 177.722 149.738 177.046 150.297C176.369 150.857 175.533 151.186 174.657 151.239C173.253 151.42 172.705 151.045 172.201 149.425Z" fill="#49535E"/>
<path d="M85.0312 60.6152C85.2805 58.7493 85.653 58.3856 87.1404 58.3329C87.8258 58.2648 88.5136 58.4379 89.0853 58.8222C89.6569 59.2065 90.0766 59.7779 90.2722 60.4384C90.378 60.8041 90.4099 61.1875 90.3657 61.5656C90.3215 61.9437 90.2021 62.309 90.0147 62.6404C89.8273 62.9718 89.5757 63.2625 89.2745 63.4954C88.9733 63.7282 88.6286 63.8986 88.2607 63.9964C87.9575 64.1712 87.6216 64.2818 87.2738 64.3213C86.926 64.3608 86.5737 64.3284 86.2389 64.226C85.9042 64.1236 85.5942 63.9536 85.328 63.7263C85.0618 63.499 84.8453 63.2195 84.6918 62.905C85.4302 62.7299 86.0401 62.6381 86.6651 62.4758C87.29 62.3135 88.5933 62.2586 88.5062 61.2806C88.419 60.3025 87.3577 60.2614 86.448 60.5476C85.5383 60.8339 85.4421 60.5919 85.0312 60.6152Z" fill="#49535E"/>
<path d="M140.464 101.193C141.253 101.736 141.973 102.372 142.608 103.088C143.719 104.801 143.235 106.211 141.195 106.257C139.835 106.17 138.506 105.812 137.286 105.204C136.3 104.81 136.48 103.962 137.146 102.738C138.141 103.614 139.106 104.631 140.724 104.311C140.906 103.28 139.002 102.69 140.464 101.193Z" fill="#49535E"/>
<path d="M146.287 51.0979C145.731 50.2416 144.137 49.755 145.541 48.3562L143.188 47.4495C143.959 46.9492 144.387 46.6714 144.851 46.9178C146.641 47.1633 148.414 47.5158 150.162 47.9737C150.445 48.1118 150.685 48.3242 150.856 48.5882C151.027 48.8521 151.124 49.1577 151.135 49.4722C151.166 50.3646 150.259 50.4668 149.679 50.4172C149.095 50.2946 148.49 50.3104 147.913 50.4632C147.336 50.6159 146.802 50.9015 146.355 51.2972L146.287 51.0979Z" fill="#49535E"/>
<path d="M171.815 59.2959C173.966 59.919 175.873 61.1878 177.279 62.9307C177.974 64.0011 179.069 64.751 179.95 65.6396C180.923 66.3867 181.609 67.4447 181.896 68.6369C180.223 67.6536 178.732 66.8564 177.341 65.9332C177.158 65.8128 177.001 65.6555 176.881 65.4712C176.762 65.2869 176.682 65.0797 176.646 64.8628C176.455 64.0379 176.061 63.2738 175.5 62.6391C174.939 62.0044 174.229 61.5191 173.434 61.2271C172.067 60.7148 172.11 60.6871 171.815 59.2959Z" fill="#49535E"/>
<path d="M150.838 97.0149C151.621 96.6714 152.424 96.3739 153.242 96.1238C154.249 95.844 155.145 95.2619 155.811 94.4561C156.787 93.3353 157.038 92.5031 156.346 91.2486C156.096 90.8633 156.286 90.3132 156.182 89.5898C156.887 89.7575 157.516 90.1548 157.97 90.7192C158.425 91.2835 158.679 91.9829 158.692 92.7074C158.904 93.9701 158.244 94.6415 157.287 95.3236C155.468 96.6696 153.301 97.4641 151.043 97.6121L150.838 97.0149Z" fill="#49535E"/>
<path d="M185.744 140.754C186.398 141.088 187.082 141.357 187.788 141.558C187.955 141.54 188.116 141.483 188.257 141.391C188.399 141.3 188.517 141.176 188.601 141.03C188.688 140.67 188.637 140.291 188.458 139.966C188.264 139.667 187.812 139.534 187.618 139.234C187.327 138.876 187.076 138.489 186.867 138.078C187.338 137.772 187.895 137.411 188.473 137.644C189.154 137.986 189.733 138.503 190.148 139.143C190.563 139.783 190.801 140.522 190.835 141.284C190.795 141.819 190.559 142.321 190.174 142.695C189.788 143.068 189.28 143.288 188.743 143.311C188.05 143.459 187.327 143.344 186.714 142.989C186.101 142.633 185.641 142.062 185.425 141.388L185.744 140.754Z" fill="#49535E"/>
<path d="M174.173 56.3655C168.408 53.0545 162.244 50.4908 155.831 48.7361C162.553 49.4582 168.922 52.1077 174.173 56.3655Z" fill="#49535E"/>
<path d="M116.071 94.084C116.96 95.4542 119.028 94.2334 119.245 96.1617C117.541 97.755 116.762 97.774 115.35 96.2559C114.956 95.8901 114.583 95.5024 114.232 95.0951C114.073 94.8762 113.961 94.6274 113.901 94.3637C113.842 94.1001 113.837 93.8272 113.887 93.5615C113.937 93.2958 114.04 93.0431 114.19 92.8186C114.341 92.5941 114.535 92.4025 114.762 92.2557C115.747 91.6164 116.046 91.4217 117.443 93.0104C117.228 93.1787 116.999 93.3275 116.758 93.4551C116.547 93.6839 116.317 93.8944 116.071 94.084Z" fill="#49535E"/>
<path d="M193.926 139.764C193.815 138.375 194.045 136.948 192.768 136.012C192.768 136.012 192.49 135.584 192.693 135.147L193.165 130.155C194.502 130.809 194.695 131.292 194.96 135.076C195.309 137.771 195.069 138.9 193.926 139.764Z" fill="#49535E"/>
<path d="M132.901 88.6965C132.694 89.0703 132.457 89.4273 132.194 89.7641C131.016 91.1373 131.247 91.9613 132.924 92.5764L135.207 93.4681C134.469 93.8818 133.633 94.0905 132.787 94.0727C131.941 94.0549 131.115 93.8111 130.394 93.3667C130.068 93.1193 129.805 92.7972 129.63 92.427C129.454 92.0569 129.37 91.6499 129.385 91.2403C129.399 90.8308 129.512 90.4308 129.714 90.0743C129.916 89.7177 130.201 89.415 130.545 89.1917L132.386 87.9965L132.901 88.6965Z" fill="#49535E"/>
<path d="M202.019 169.201C198.817 170.55 199.255 170.569 200.157 173.27C198.877 173.736 198.088 173.457 197.675 172.447C197.459 171.553 197.55 170.611 197.936 169.776C198.321 168.94 198.978 168.259 199.799 167.843C200.879 167.445 201.399 167.778 202.019 169.201Z" fill="#49535E"/>
<path d="M134.935 53.1112C132.967 51.9544 130.624 52.5629 129.373 50.6362C128.279 50.9202 127.185 51.204 125.908 51.4857C126.067 50.0434 127.199 50.0997 127.897 49.7684C129.648 48.9969 131.392 48.7776 132.814 50.5932C133.458 51.2237 134.168 51.783 134.932 52.2615C134.954 52.5442 134.955 52.8283 134.935 53.1112Z" fill="#49535E"/>
</g>
</svg>
