<svg width="260" height="335" viewBox="0 0 260 335" fill="none" xmlns="http://www.w3.org/2000/svg">
<g opacity="0.3">
<path d="M151.766 310.124C148.776 308.392 145.953 306.388 143.33 304.138C139.087 300.263 135.27 295.945 131.946 291.257C128.66 286.957 125.532 282.578 122.285 278.258C121.216 276.812 120.127 275.425 119.039 274.037C113.839 267.326 108.447 260.761 102.864 254.34C101.597 252.893 100.548 251.189 99.3204 249.723C98.2395 248.427 97.0684 247.208 95.8159 246.076C94.0245 244.372 92.4728 242.432 91.2032 240.31C88.6695 236.327 86.1952 232.364 83.82 228.302C82.7909 226.242 81.841 224.34 80.7328 222.121C80.0995 220.853 79.4662 219.584 78.7537 218.158C77.7501 216.178 76.8647 214.14 76.1022 212.056L77.3705 210.927C76.5196 209.223 76.0648 207.321 75.3129 205.518C73.4333 200.763 71.4546 196.008 69.575 191.253C67.6954 186.498 65.5586 181.03 63.6395 175.899C62.2151 172.055 60.9689 168.172 59.6039 164.348C57.962 159.673 56.2804 155.017 54.5988 150.361C52.9173 145.705 51.5126 142 49.8505 137.879C48.584 135.343 47.3174 132.807 46.3678 130.113C45.4182 127.418 44.4682 125.714 43.657 123.495C43.2959 122.496 43.0894 121.447 43.0445 120.385C42.9319 119.324 42.44 118.339 41.6591 117.611C40.5421 116.345 39.6153 114.923 38.9077 113.39C37.7202 111.013 36.5328 108.635 35.3454 106.258C33.6304 103.055 32.3971 99.6169 31.6855 96.0544C31.2112 93.7167 30.519 91.4385 30.0843 89.081C29.3926 85.5151 28.8991 81.9493 28.2867 78.3438C28.2114 77.9993 28.1849 77.6458 28.2079 77.2939C28.4678 76.2568 28.4061 75.1653 28.0311 74.1641C27.7642 73.042 27.7043 71.8805 27.8544 70.737C28.1131 68.1818 28.253 65.5869 28.4919 63.0911L28.6113 61.7442C29.148 57.8619 31.0116 54.3566 31.786 50.5537L33.6678 50.6537C34.7184 48.9902 34.1252 46.8109 35.3937 45.0882C35.9104 45.015 36.437 45.0629 36.932 45.2282C37.4269 45.3934 37.8767 45.6715 38.2457 46.0404C39.5923 47.0512 40.8001 48.1809 42.008 49.1125C42.4192 49.4668 42.7969 49.8581 43.1365 50.2816C43.4057 50.594 43.7525 50.8301 44.1419 50.9659C44.5313 51.1017 44.9496 51.1325 45.3547 51.0552C49.1951 56.4648 52.9959 61.7951 56.7571 67.1452C59.3513 70.6222 61.394 74.4784 62.8133 78.5778C62.9991 79.3483 63.3578 80.0665 63.8622 80.678C64.5384 81.389 64.9864 82.286 65.1485 83.2537C65.4168 84.8261 65.7799 86.3808 66.2359 87.9094C67.5725 93.2269 68.4578 98.6476 68.8827 104.114C69.1638 107.106 69.0022 110.123 68.4031 113.067C68.1691 114.267 68.082 115.491 68.1439 116.712C68.4989 119.902 68.9333 123.051 69.4667 126.201C70.9422 135.477 73.525 144.543 77.1597 153.204C77.9513 154.789 78.3665 156.513 79.0392 158.157C79.7119 159.802 80.3846 161.644 81.2554 163.289C83.2344 167.251 85.0353 170.857 86.4993 174.879C87.0132 176.106 87.6082 177.298 88.2804 178.446C89.7054 181.299 91.5463 183.895 93.1298 186.669C93.5439 187.249 93.8644 187.891 94.0797 188.571C94.3573 189.87 94.874 191.106 95.6033 192.216C98.3105 196.78 101.285 201.18 104.511 205.393C108.649 210.803 112.786 216.114 117.419 221.326C119.359 223.624 120.844 226.299 122.962 228.459C123.239 229.014 123.576 229.688 124.487 229.728C125.101 228.876 123.695 228.143 124.706 227.093C124.972 227.292 125.218 227.518 125.439 227.767C125.795 228.48 126.151 229.194 126.507 229.907C129.211 234.779 132.205 239.483 135.474 243.995C136.704 245.739 138.046 247.4 139.493 248.969C142.176 251.917 144.65 255.049 146.897 258.342C147.68 259.513 148.311 260.778 148.777 262.107C150.043 265.24 152.03 268.03 154.577 270.251C157.429 272.788 160.3 275.265 163.29 277.782C165.309 279.645 167.19 281.627 169.071 283.609C169.816 284.383 170.323 285.354 170.533 286.407C170.743 287.46 170.647 288.551 170.257 289.552C169.845 291.088 169.078 292.506 168.017 293.691C164.826 297.215 161.754 300.977 158.701 304.779C156.896 307.136 154.504 308.979 151.766 310.124ZM65.2113 118.672L65.4094 118.573L65.2706 118.89L65.4487 119.246L65.2113 118.672ZM48.5378 64.2692C48.4089 64.2359 48.2738 64.2336 48.1438 64.2627C48.0138 64.2917 47.8925 64.3512 47.79 64.4362C47.6874 64.5212 47.6066 64.6294 47.554 64.7518C47.5014 64.8742 47.4786 65.0073 47.4875 65.1402C47.4113 65.4866 47.4562 65.8487 47.6147 66.166C47.7731 66.4833 48.0356 66.7367 48.3583 66.8838C48.774 67.0007 49.1977 67.0869 49.6259 67.1419C49.7843 67.4589 49.9624 67.8156 50.0811 68.0534C50.425 70.0766 51.3617 71.9523 52.7727 73.4427C55.5422 77.3341 58.0167 81.4273 60.1754 85.688C60.3535 86.0446 60.5712 86.4805 61.0863 86.4213C61.7341 85.5649 62.1618 84.5626 62.3315 83.5023C62.5012 82.442 62.4079 81.3562 62.0597 80.3404C60.3878 75.6677 58.0118 71.2778 55.0139 67.3228C54.8951 67.085 54.6774 66.6491 54.0434 67.0648C54.4063 68.3873 55.0248 69.6258 55.864 70.7104C56.4577 71.8992 57.0514 73.088 57.6451 74.2768C58.3154 75.4388 58.8089 76.6943 59.1093 78.0016C58.0407 75.8618 56.7342 73.8406 55.5664 71.7998L47.5109 57.4545C47.239 57.2209 46.9399 57.0213 46.6198 56.8598C46.427 57.5262 46.4075 58.2309 46.5632 58.9069C46.7189 59.5829 47.0446 60.208 47.5094 60.723C48.9621 62.6051 49.7359 64.9231 49.7051 67.3004C49.2499 66.389 48.775 65.438 48.2802 64.4473C47.7855 63.4566 48.1423 62.9815 47.0133 62.7036C47.7064 63.1992 48.1221 63.7342 48.5378 64.2692ZM155.329 273.638C155.158 273.148 154.925 272.682 154.636 272.251C153.171 270.706 151.686 269.219 150.181 267.693C150.181 267.693 149.745 267.614 149.349 267.515C149.701 268.282 150.239 268.949 150.913 269.457C152.358 270.864 153.844 272.251 155.329 273.638C156.18 274.451 156.932 275.263 157.764 276.036L164.476 282.042C164.615 282.319 165.11 282.616 165.585 282.181C163.15 279.882 160.794 277.642 158.418 275.462C157.841 274.906 157.211 274.408 156.537 273.976C156.22 273.738 155.744 273.777 155.329 273.638ZM57.1207 94.6401C58.0718 94.1651 58.4683 93.2739 59.0827 92.5214C59.5272 92.0273 59.833 91.4244 59.969 90.7738C60.105 90.1233 60.0663 89.4483 59.857 88.8175C59.5649 87.427 59.1067 86.0768 58.4921 84.7958C56.9286 81.6652 54.8699 78.7326 52.9894 75.7604C52.6059 75.3944 52.1805 75.0751 51.7221 74.8089C52.6717 77.4043 53.4829 79.5243 54.2148 81.6838C55.509 84.775 56.2646 88.0649 56.4487 91.411C55.8752 89.4694 55.262 87.5477 54.7677 85.5666C53.8638 81.8765 52.529 78.3056 50.791 74.9273C50.6041 74.4282 50.3653 73.9501 50.0786 73.5008C49.722 73.6789 49.6227 74.075 49.6028 74.3325C48.6698 78.6423 48.0914 83.0212 47.8733 87.4253C47.6196 88.9683 47.7788 90.551 48.3348 92.0125C48.8908 93.474 49.8237 94.7623 51.0388 95.7465C51.3251 96.0815 51.6803 96.3505 52.0803 96.5353C52.4802 96.7202 52.9154 96.8164 53.356 96.8173C54.1396 96.9582 54.9478 96.8168 55.6371 96.4182C56.3263 96.0196 56.852 95.3896 57.1207 94.6401ZM42.5563 62.7015C41.6021 59.5167 40.0357 56.5486 37.9449 53.9636C37.5284 55.0133 37.4888 55.0331 37.944 55.8455C39.275 58.514 40.2972 61.3257 40.9907 64.226C39.605 62.2445 39.1901 59.8276 37.6461 57.5291C37.4755 58.0253 37.3493 58.5357 37.2691 59.0543C37.1763 61.0784 37.2615 63.1067 37.5237 65.1159C37.5563 66.4291 37.9093 67.7145 38.552 68.8602C40.7634 72.3781 42.4937 76.1763 43.697 80.1535C44.4095 81.5801 44.805 83.165 45.4382 84.6312C45.5965 84.9482 45.834 85.4238 46.3689 85.3052C46.5022 85.1018 46.6088 84.8821 46.6861 84.6516C47.1628 81.938 47.6394 79.2244 48.0171 76.5108C48.2358 74.7677 48.197 73.0047 48.3364 71.4002C48.3803 70.5966 48.1879 69.7977 47.7829 69.1022C46.981 67.6291 46.42 66.0373 46.1211 64.387C46.0188 63.6865 45.8121 63.0054 45.508 62.3662C44.3994 60.7413 43.1918 59.2154 42.0238 57.6698C42.0238 57.6698 41.5682 57.5508 41.0929 57.3921C41.8449 58.8979 42.2404 60.3837 42.7746 61.7507C42.8206 61.9148 42.8247 62.0878 42.7866 62.2539C42.7485 62.42 42.6693 62.5739 42.5563 62.7015ZM33.4109 91.7766C32.8144 89.9765 32.0457 88.2382 31.1155 86.5856C30.9172 86.9817 30.6794 87.1995 30.6793 87.3976C31.1563 90.814 31.8829 94.1908 32.8535 97.501L32.9723 97.7387C34.0139 99.2603 34.7095 100.992 35.0102 102.811C35.6435 104.079 35.9599 105.505 36.5337 106.753C37.1076 108.002 37.9586 109.607 38.6711 111.033C38.9198 111.73 39.3104 112.369 39.8181 112.908C40.3259 113.447 40.9397 113.874 41.6211 114.164C42.1557 114.64 41.2836 115.67 42.4919 115.908C42.6228 115.749 42.7359 115.577 42.8289 115.393C43.2659 112.699 43.7426 109.986 44.0806 107.292C44.4186 104.598 44.5983 101.488 44.7383 98.6951C44.7781 98.2122 44.7199 97.7264 44.5669 97.2667C44.4139 96.807 44.1694 96.3831 43.8481 96.0204C41.3734 93.147 38.9581 90.1944 36.4833 87.3209C35.533 86.2112 34.3846 85.2004 33.2362 83.9916C33.0779 83.6745 32.6223 83.7536 32.3051 84.2091C34.0467 87.6962 36.2439 91.0053 38.4804 94.9879C35.8274 91.9559 34.6405 88.6869 32.0667 85.7144C32.1653 86.6059 32.1255 87.0219 32.2244 87.4181C32.3233 87.8143 33.1743 89.3202 33.2729 90.4097C33.4004 90.8534 33.4471 91.3164 33.4109 91.7766ZM55.3807 130.315C55.7768 130.513 56.2124 130.89 56.5294 130.83C58.2849 130.531 60.024 130.142 61.7396 129.664C62.9481 129.308 63.1465 128.714 62.7311 127.387C62.6214 127.064 62.4683 126.757 62.2759 126.475C60.6154 122.348 58.4623 118.436 55.8633 114.825C52.9533 110.782 50.1027 106.76 47.1927 102.717C47.0344 102.4 46.7771 101.885 46.0638 102.241C47.6587 110.429 50.8452 118.224 55.4425 125.184C53.4551 122.715 51.7859 120.006 50.4743 117.12C48.9702 114.108 47.9614 110.899 46.7348 107.749C46.6744 107.336 46.5221 106.941 46.2891 106.595C46.0561 106.249 45.7485 105.959 45.3887 105.747C45.2062 106.226 45.0538 106.715 44.9324 107.213C44.6144 109.55 44.3756 111.947 43.9981 114.264C43.6541 116.283 43.6464 118.345 43.9755 120.366C44.7117 124.292 46.0814 128.073 48.031 131.559C48.4976 132.472 49.1521 133.276 49.9514 133.918C52.6457 133.265 52.844 132.869 51.7158 130.808C51.4783 130.333 51.2409 129.857 51.0034 129.382C50.1449 128.148 49.589 126.73 49.381 125.241C50.3111 127.104 51.3009 128.491 52.2114 129.917C52.4821 130.372 52.808 130.791 53.1815 131.166C53.3392 131.323 53.5529 131.411 53.7757 131.412C53.9985 131.412 54.2122 131.323 54.37 131.166L55.3807 130.315ZM83.8447 175.512C82.7373 172.371 81.3394 169.339 79.6693 166.457C79.6693 166.457 79.5702 166.259 79.1741 166.259C79.1677 166.611 79.1941 166.962 79.2528 167.309C79.7674 168.339 80.282 169.37 80.3805 170.558C80.4992 170.796 80.2613 171.212 80.2215 171.529L78.3421 166.279C77.7077 165.011 77.4603 163.585 77.6309 162.178C77.7898 161.405 77.4531 161.128 76.3045 160.414C75.8475 163.464 75.549 166.436 74.993 169.387C74.5326 172.629 74.2796 175.898 74.2357 179.172C74.2295 180.058 74.3221 180.942 74.5118 181.807C74.9465 184.263 75.5 186.66 75.9346 189.117C76.1104 190.273 76.7366 191.313 77.6765 192.01C77.9514 192.219 78.1747 192.489 78.3291 192.798C78.4835 193.107 78.5648 193.447 78.567 193.793C78.872 195.456 79.4824 197.048 80.3674 198.489C81.3174 200.391 82.3464 202.451 83.455 204.076C83.6319 204.333 83.7717 204.613 83.8706 204.908C83.6513 204.866 83.4445 204.775 83.2661 204.641C83.0876 204.507 82.9421 204.334 82.8409 204.135C81.9306 202.312 81.0202 200.49 80.1098 198.667C79.4249 197.04 78.5549 195.498 77.517 194.07C75.7263 191.989 74.6391 189.396 74.4105 186.66C73.8813 184.334 73.5445 181.969 73.4036 179.588C73.4425 176.489 73.649 173.394 74.0219 170.318C74.1306 168.533 74.3698 166.759 74.7375 165.009C75.1731 162.846 75.3339 160.636 75.216 158.433C74.8938 156.508 74.848 154.547 75.0801 152.609C75.1183 152.264 75.0637 151.915 74.9221 151.599L72.5879 144.546C70.9567 139.955 69.7392 135.228 68.9497 130.42C68.6141 127.766 68.0211 125.19 67.5072 122.575C67.1708 121.902 67.0917 121.743 66.0024 121.247C65.8043 122.625 65.7043 124.015 65.7033 125.407C65.7323 128.856 66.1831 132.289 67.0456 135.629C68.5291 140.384 70.171 145.059 71.7535 149.715C71.9514 150.112 72.2087 150.627 71.5548 151.102C70.2294 147.159 68.8644 143.336 67.5786 139.472C67.0493 137.886 66.6071 136.273 66.2537 134.638C65.5169 130.905 65.0355 127.126 64.8129 123.327C64.5743 121.583 64.1501 119.869 63.5475 118.215C63.5217 118.103 63.4702 117.997 63.397 117.908C63.3238 117.818 63.2308 117.746 63.1254 117.698C63.0201 117.65 62.9051 117.627 62.7894 117.631C62.6736 117.635 62.5604 117.665 62.4583 117.72C62.2122 117.937 62.0625 118.244 62.0419 118.571C62.457 120.493 62.8919 122.355 63.3466 124.257C63.7622 125.089 63.7618 126.179 64.0585 127.07C64.2188 127.365 64.3189 127.689 64.3527 128.022C64.3866 128.356 64.3536 128.693 64.2557 129.014C64.1578 129.335 63.997 129.633 63.7826 129.891C63.5682 130.149 63.3045 130.362 63.007 130.517C62.6693 130.736 62.4139 131.061 62.2811 131.441C62.1482 131.821 62.1454 132.234 62.273 132.616C62.4509 133.567 62.8071 134.478 63.0443 135.449C63.2816 136.42 63.7568 136.876 63.1027 137.747C62.584 135.569 61.8415 133.451 60.8871 131.427L59.3022 131.723L57.6777 132.039C57.8159 133.01 57.875 133.822 57.9736 134.714L56.4096 132.673C55.4192 132.672 55.003 133.128 55.1017 133.821C55.2311 134.694 55.4294 135.555 55.6948 136.396C55.8984 136.883 55.9052 137.43 55.7139 137.922C55.2587 137.01 55.18 135.861 54.8437 134.89C54.568 134.435 54.228 134.021 53.8341 133.662L51.0995 135.622C51.4585 136.544 51.6912 137.51 51.7915 138.494C51.7564 139.816 51.9917 141.13 52.483 142.357C53.8481 146.082 55.3518 149.787 56.7565 153.492C57.7853 156.147 58.933 158.742 59.7439 161.456C61.8206 168.39 64.5511 175.146 67.0834 181.902C69.6158 188.658 72.5245 195.573 75.4332 202.488C77.0557 206.331 78.8764 210.076 80.4593 213.939C80.6861 214.508 81.0285 215.024 81.4647 215.454C81.9009 215.883 82.4216 216.218 82.9937 216.437C84.895 217.17 86.717 218.043 88.6182 218.876C90.5195 219.708 93.2723 221.057 95.6886 221.83C100.522 223.379 104.837 226.225 108.164 230.057C108.713 230.745 109.315 231.387 109.966 231.979C111.673 233.653 113.217 235.484 114.579 237.449C114.907 237.748 115.156 238.123 115.304 238.541C115.452 238.959 115.495 239.407 115.43 239.846C115.376 240.45 115.172 241.031 114.836 241.536C114.5 242.041 114.043 242.454 113.507 242.737C113.452 241.894 113.23 241.071 112.853 240.316C112.475 239.56 111.951 238.888 111.31 238.338C109.251 236.066 107.139 233.82 104.974 231.601C103.41 229.956 101.727 228.271 100.183 226.666C100.183 226.666 99.4897 226.368 99.8069 225.913C101.621 227.163 103.242 228.672 104.618 230.392C106.202 231.977 107.707 233.801 109.271 235.148C110.671 236.96 112.213 238.656 113.884 240.221C113.885 239.528 114.043 239.053 113.865 238.795C112.697 237.25 111.47 235.684 110.242 234.218C109.015 232.751 108.421 232.256 107.51 231.324C104.147 227.648 99.9301 224.857 95.2323 223.197C93.0735 222.542 90.9742 221.511 88.974 220.579C86.9737 219.647 85.9043 219.191 84.3793 218.517C83.8098 218.356 83.2261 218.249 82.6363 218.199C83.2897 218.814 83.5074 219.052 83.7649 219.27C85.3338 220.699 87.077 221.924 88.9531 222.917C90.9335 223.908 92.7355 225.236 94.7357 226.168C96.6491 227.088 98.5132 228.107 100.32 229.221C104.312 231.909 107.714 235.382 110.319 239.427C109.793 239.255 109.35 238.895 109.072 238.417C108.834 237.941 108.616 237.505 108.102 237.168C104.284 232.725 99.5115 229.201 94.1411 226.861C93.4919 226.574 92.8633 226.243 92.2598 225.87L85.0514 221.35C84.7211 221.246 84.3835 221.166 84.0413 221.112C86.7385 226.468 90.1771 231.418 94.2558 235.815C93.4039 235.993 92.909 235.398 92.4933 234.863C90.1968 231.95 87.8607 229.057 85.6634 226.045C84.3568 224.321 83.2088 222.32 82.0607 220.616C81.9084 221.139 81.9431 221.7 82.159 222.2C82.6147 222.86 82.9746 223.58 83.2277 224.34C83.532 226.084 84.2514 227.728 85.3251 229.135C88.2548 233.547 91.2439 237.946 94.2924 242.332C94.8985 243.196 95.5954 243.994 96.3712 244.71C96.8948 245.265 97.5527 245.675 98.2814 245.901C99.0101 246.127 99.7848 246.161 100.53 245.999C102.749 245.485 105.027 245.09 107.246 244.675C107.58 244.554 107.899 244.394 108.197 244.2C107.865 242.967 107.16 241.867 106.178 241.05C105.287 240.059 104.436 239.048 103.505 238.077C102.536 237.353 101.704 236.46 101.05 235.442C101.637 235.568 102.182 235.84 102.635 236.235C104.298 237.88 105.842 239.584 107.446 241.209C107.889 241.759 108.366 242.281 108.871 242.774C108.97 242.973 109.466 242.874 109.802 242.953C109.862 241.884 109.05 241.447 108.714 240.774C108.377 240.1 107.486 239.505 106.912 238.851C106.338 238.197 105.645 237.999 105.527 236.771C107.823 238.553 109.844 240.663 111.526 243.033C111.664 243.311 111.823 243.628 111.961 243.905C110.01 245.196 107.772 245.991 105.443 246.22C103.762 246.462 102.109 246.872 100.51 247.445C100.993 248.864 101.776 250.162 102.806 251.25C104.33 253.113 105.954 254.876 107.498 256.68C110.686 260.385 113.695 264.23 117.08 267.737C119.406 270.282 121.562 272.976 123.534 275.803C127.454 281.173 131.215 286.82 135.174 291.972C137.416 294.929 139.857 297.729 142.48 300.354C144.559 302.435 146.955 304.16 149.173 306.023C149.533 306.274 149.91 306.499 150.301 306.697C151.016 307.211 151.882 307.471 152.762 307.435C153.641 307.4 154.484 307.071 155.155 306.501C155.594 306.202 156.005 305.864 156.383 305.491C157.87 303.808 159.317 302.145 160.684 300.422C160.979 299.972 161.2 299.477 161.339 298.957C158.582 296.495 155.958 293.888 153.478 291.148C154.265 291.674 155.007 292.264 155.696 292.913C156.646 293.824 157.597 294.736 158.626 295.608C159.691 296.634 161.034 297.323 162.488 297.591C164.578 295.912 166.46 293.991 168.097 291.868C170.099 288.938 170 287.65 167.466 285.153C166.001 283.706 164.357 282.497 162.872 281.11C161.387 279.722 159.902 278.335 158.417 276.948L149.606 268.525C149.256 268.259 148.878 268.033 148.477 267.851C148.394 267.856 148.312 267.878 148.237 267.915C148.162 267.953 148.096 268.005 148.041 268.069C147.985 268.128 147.944 268.201 147.923 268.281C147.902 268.361 147.902 268.445 147.922 268.524C148.257 269.026 148.628 269.503 149.031 269.951C151.981 272.884 154.971 275.797 157.881 278.75C160.444 281.536 163.336 283.998 166.495 286.083C166.495 286.083 166.594 286.282 166.336 286.658C166.078 287.034 165.564 286.301 165.207 286.083C162.79 284.439 160.542 282.56 158.495 280.474C155.089 277.224 151.723 273.954 148.219 270.505C147.768 270.077 147.277 269.692 146.753 269.356C146.52 269.216 146.245 269.163 145.977 269.206C145.709 269.25 145.464 269.387 145.287 269.593C144.733 269.87 144.851 270.504 145.148 270.999C145.207 271.167 145.287 271.326 145.386 271.475C146.867 273.352 148.622 274.995 150.593 276.35C149.84 276.726 149.246 276.131 148.711 275.656C147.563 274.546 146.375 273.456 145.306 272.406C144.839 271.871 144.23 271.48 143.551 271.276C142.871 271.072 142.147 271.065 141.463 271.255C139.386 271.74 137.221 271.698 135.164 271.133C134.828 271.054 134.471 270.935 134.729 270.261C134.987 269.588 136.571 270.282 137.482 270.322C139.528 270.504 141.584 270.122 143.428 269.219C145.272 268.315 146.834 266.924 147.944 265.196C148.226 264.848 148.402 264.425 148.451 263.979C148.5 263.534 148.421 263.083 148.222 262.681C147.767 261.622 147.252 260.59 146.679 259.59C145.669 258.163 144.6 256.717 143.432 255.369C139.381 250.898 135.662 246.136 132.306 241.121C131.952 240.734 131.537 240.406 131.078 240.15C131.107 241.676 131.604 243.156 132.503 244.39C132.997 245.231 133.433 246.105 133.809 247.005C135.132 249.904 136.715 252.676 138.539 255.288C138.737 255.634 138.915 255.991 139.074 256.358C138.36 256.714 138.103 256.1 137.885 255.763L133.986 249.145C133.808 248.788 133.57 248.313 132.877 248.708C133.373 254.089 134.673 259.364 136.732 264.359C136.219 263.631 135.819 262.829 135.545 261.982C133.832 257.519 132.612 252.882 131.907 248.153C131.622 245.131 130.833 242.178 129.573 239.417C129.435 239.139 129.237 238.743 128.86 238.881C128.478 240.869 128.726 242.926 129.571 244.765C130.34 246.652 130.787 248.654 130.895 250.688C131.052 253.085 131.329 255.423 131.387 257.82C131.447 260.299 131.873 262.756 132.651 265.11C132.928 265.665 132.948 266.299 133.086 266.873C132.903 266.82 132.732 266.729 132.585 266.606C132.439 266.484 132.319 266.331 132.235 266.16C131.461 264.562 130.985 262.837 130.831 261.068C130.654 258.235 130.517 255.383 130.359 252.59C130.165 250.354 129.548 248.176 128.54 246.171C127.991 244.87 127.637 243.495 127.492 242.09L127.097 239.217C126.895 238.169 126.409 237.196 125.692 236.404C123.574 234.046 121.634 231.549 119.456 228.874C119.834 229.526 120.171 230.201 120.465 230.895C120.564 231.093 120.306 231.469 120.227 231.806C120.148 232.142 119.732 231.508 119.653 231.35C116.382 226.615 112.853 222.063 109.081 217.716C107.438 215.715 105.953 213.634 104.429 211.574C102.905 209.513 101.559 207.511 100.153 205.49C98.7477 203.469 97.9558 202.478 96.9661 200.893C95.5607 198.674 94.2544 196.356 92.8688 194.077C92.5042 193.57 92.1005 193.094 91.6612 192.65C91.4914 192.896 91.4037 193.19 91.4107 193.489C91.4176 193.787 91.5189 194.076 91.7 194.314C93.0458 197.009 94.6689 199.565 96.094 202.022C98.9365 206.918 102.16 211.582 105.734 215.972C107.516 218.052 109.139 220.311 110.802 222.452C111.078 222.907 111.317 223.384 111.515 223.878C111.752 224.354 112.346 224.651 112.029 225.503C111.613 224.67 110.861 224.056 110.366 223.363C109.317 221.956 108.327 220.469 107.199 219.102C102.488 213.577 98.2812 207.642 94.6284 201.368C93.5202 199.148 92.0552 197.107 90.7885 194.967C90.5863 194.571 90.26 194.252 89.8595 194.059C89.459 193.866 89.0063 193.809 88.5704 193.897C87.0054 194.134 85.4404 194.272 83.8953 194.449C83.499 194.647 83.0235 194.885 82.5283 194.884C82.0331 194.884 82.4091 195.439 82.4685 195.558C83.9924 198.609 85.5163 201.66 87.0797 204.791C86.1944 203.929 85.4703 202.916 84.9417 201.799C83.6254 198.841 81.8184 196.128 79.5971 193.774L81.38 193.477C83.3808 193.221 85.4213 192.944 87.4418 192.827C88.4174 192.769 89.3638 192.472 90.1968 191.961C91.0299 191.45 91.7238 190.741 92.2171 189.897C92.4592 189.579 92.6001 189.195 92.6215 188.796C92.6429 188.397 92.5438 188.001 92.337 187.659C91.4266 185.836 90.5163 184.013 89.3682 182.309C87.458 179.228 85.835 175.978 84.5195 172.6C83.6092 170.778 82.6988 168.955 82.0658 166.993C81.7696 166.252 81.4122 165.536 80.9972 164.854C80.6079 163.926 79.996 163.11 79.2155 162.476C80.0071 164.061 80.2838 165.309 80.7389 166.418C81.9263 168.796 82.7968 171.332 83.8653 173.769C83.9941 174.042 84.0592 174.341 84.0557 174.643C84.0521 174.945 83.98 175.242 83.8447 175.512ZM59.8439 116.946C60.8306 116.396 61.9133 116.041 63.0336 115.898C63.9638 115.67 64.8773 115.38 65.7676 115.027C66.1356 114.862 66.4538 114.603 66.6903 114.277C66.9268 113.95 67.0735 113.567 67.1155 113.166C67.7356 110.856 67.9775 108.462 67.8319 106.075C67.4967 102.826 67.0624 99.5771 66.7668 96.3085C66.2942 92.7203 65.4595 89.1892 64.2758 85.7691C64.2758 85.7691 64.1372 85.4916 63.9987 85.2143C63.7489 85.5404 63.5237 85.8846 63.3247 86.244C62.2251 89.4203 60.6976 92.4319 58.7844 95.1955C58.0325 96.286 57.3632 97.4312 56.7821 98.6215C56.5443 98.7402 56.3855 99.4136 56.5241 99.5919C57.0584 100.662 56.5431 101.414 56.2653 102.345C55.2245 104.895 55.0017 107.705 55.6277 110.387C55.736 110.512 55.8109 110.662 55.8454 110.823C55.5478 111.714 56.0626 112.349 56.498 113.022L60.9716 119.898C61.0904 120.136 61.2883 120.532 61.7242 120.314C61.7256 119.639 61.5534 118.974 61.2242 118.384C60.8949 117.795 60.4197 117.299 59.8439 116.946ZM45.5153 89.1476C45.1198 87.5627 44.9025 86.3345 44.5069 85.1458C44.1113 83.9571 43.3001 81.8372 42.667 80.1729C42.5326 79.764 42.3392 79.3769 42.0931 79.0237C41.6775 78.1916 40.9845 77.4979 40.351 76.626L41.0047 76.5471C41.0047 76.5471 41.0047 76.5471 40.8464 76.2301C39.2191 74.5491 37.9409 72.5624 37.0855 70.3848C36.7688 69.7507 36.7296 68.8791 35.6601 68.6211C36.0955 69.4929 36.2139 70.4239 36.471 71.2362C37.7567 75.1986 39.0821 79.1411 40.348 83.0639C40.5063 83.3809 40.7439 83.8565 40.1296 84.2127C39.6744 83.3013 39.6551 82.2713 39.3584 81.3798C37.6768 76.8229 35.9555 72.2859 34.2739 67.7291C34.1354 67.4025 33.9768 67.0849 33.7989 66.7781C33.8012 66.7392 33.7934 66.7005 33.776 66.6658C33.7586 66.631 33.7323 66.6013 33.6999 66.5798L33.3433 66.758C33.1218 67.3789 32.9428 68.0142 32.8076 68.6594C32.6683 69.9667 32.5884 71.2938 32.5086 72.621C32.4287 73.9481 32.4477 75.7706 32.5459 77.5534C32.5745 78.1706 32.7318 78.7751 33.0079 79.3279C33.284 79.8806 33.6726 80.3695 34.1489 80.7632C35.8034 82.3604 37.6451 83.7515 39.634 84.9058C41.5609 85.8034 43.265 87.1166 44.6241 88.751C44.5647 88.7312 45.0202 88.8502 45.5153 89.1476ZM30.4841 81.2567C31.185 81.5497 31.8664 81.8875 32.5239 82.2679C33.1807 82.7151 33.7969 83.2191 34.3654 83.7742C35.3158 84.7519 36.2067 85.7427 37.0382 86.7468C38.424 88.4312 39.8098 90.3137 41.1957 91.8991C42.5816 93.4844 44.6605 95.6643 46.2442 97.6459C47.4248 98.969 48.2309 100.583 48.5795 102.322C48.9075 103.419 49.4231 104.452 50.1034 105.373C50.3544 105.666 50.6481 105.92 50.9746 106.126C51.2051 106.065 51.4208 105.957 51.6086 105.81C52.032 105.03 52.2114 104.141 52.1235 103.258C52.0356 102.375 51.6845 101.538 51.1157 100.857C48.76 97.5283 46.8006 94.0014 44.2269 90.8308C43.1206 89.3335 41.7439 88.0563 40.1679 87.0652C37.7257 85.6306 35.4133 83.9857 33.2569 82.1494C32.561 81.6265 31.8186 81.1686 31.0389 80.7815C30.8213 80.2466 30.5636 80.7219 30.4841 81.2567ZM31.1624 71.0159C31.4399 70.4812 31.5786 70.3624 31.5985 70.204C32.1362 67.4506 32.3963 64.6502 32.3749 61.8449C32.3386 61.409 32.3522 60.9705 32.4152 60.5377C32.4606 60.2305 32.6087 59.9477 32.8354 59.7355C33.0622 59.5233 33.3542 59.3943 33.6637 59.3695C34.3768 59.4094 34.4359 60.0235 34.5347 60.5188C34.6335 61.0141 34.8511 61.7471 35.0292 62.3018C35.3122 62.7124 35.6231 63.103 35.9596 63.4709C35.9555 62.59 35.8495 61.7126 35.6439 60.856C35.1054 58.4398 34.1978 56.1209 32.9531 53.9811C32.8541 53.783 32.5372 53.7433 32.1808 53.5252L31.0701 56.5555C29.7402 59.4643 29.0562 62.6266 29.065 65.825C29.149 66.2289 29.1887 66.6407 29.1833 67.0532C29.0635 69.0935 28.9437 71.1338 28.9032 73.1344C28.9223 74.9605 29.637 76.7106 30.9016 78.0281C31.1632 77.3258 31.2807 76.5779 31.247 75.8292C31.2133 75.0804 31.0291 74.346 30.7055 73.67C30.4767 73.1905 30.3361 72.6739 30.2903 72.1446C29.9282 69.7021 29.9227 67.2198 30.2738 64.7757C30.4392 64.4042 30.6454 64.0522 30.8884 63.7261C30.6001 66.1555 30.6925 68.615 31.1624 71.0159ZM35.7841 57.3698C36.3008 56.3575 36.5727 55.2382 36.5781 54.1017C36.7766 53.1114 36.4007 51.9623 37.3718 51.0317C38.8823 52.2801 40.2924 53.6451 41.5892 55.1143C42.6511 56.7584 43.9676 58.2233 45.4895 59.4542C45.7164 58.7529 45.7829 58.0097 45.6838 57.2793C45.5847 56.5489 45.3227 55.8502 44.917 55.2347C44.34 54.3506 43.6911 53.5155 42.9769 52.7379C41.7366 50.9045 39.9485 49.5101 37.8681 48.7539C37.6303 48.8726 37.3533 48.3179 37.0364 48.08C36.7196 47.8422 36.4028 47.6043 36.0463 47.3863C35.1723 49.1423 34.6978 51.0701 34.6571 53.0311C34.7531 54.4743 35.1221 55.8861 35.7447 57.1915L35.7841 57.3698ZM109.458 216.092C109.376 215.903 109.284 215.717 109.181 215.538C107.974 213.715 106.766 211.792 105.579 210.009C101.818 204.461 97.6602 199.111 94.4935 193.266C94.2476 192.795 93.9191 192.372 93.5235 192.017C93.5235 192.017 93.2857 192.136 92.9689 191.997C92.652 191.858 92.929 192.512 93.0082 192.671C97.2133 200.133 101.957 207.279 107.201 214.051C107.817 214.869 108.583 215.561 109.458 216.092ZM54.6604 103.295C53.5308 104.206 53.2531 105.038 53.133 107.672C53.0931 108.286 52.9146 108.92 53.8455 109.099L54.0833 108.98L54.8781 103.632C54.8196 103.511 54.7465 103.398 54.6604 103.295ZM111.715 218.926L112.032 218.768L111.379 218.054L111.141 218.173L111.715 218.926ZM51.612 98.5795C51.612 98.5795 51.612 98.5794 51.7109 98.7775L51.9487 98.6588L51.612 98.5795ZM54.3651 99.1353C54.3651 99.1353 54.2068 98.8183 53.9493 98.8974L53.5926 99.0756L54.0877 99.373L54.3651 99.1353Z" fill="#49535E"/>
<path d="M140.439 216.463C138.241 216.225 138.26 216.165 136.775 214.58C133.35 210.767 130.282 206.648 127.61 202.274C127.023 201.268 126.361 200.308 125.63 199.401C123.809 197.043 121.889 194.685 119.968 192.327C118.211 190.095 116.742 187.652 115.594 185.055C115.315 184.6 115.159 184.082 115.139 183.549C115.11 182.932 114.953 182.328 114.677 181.775C114.401 181.222 114.012 180.733 113.536 180.34C110.549 176.276 107.309 172.404 103.835 168.747C102.37 167.201 100.905 165.655 99.4793 164.09C96.4394 160.777 94.2281 156.791 93.027 152.459C92.9005 151.12 92.2796 149.877 91.2855 148.972C90.8435 148.541 90.4875 148.03 90.2363 147.466C87.5551 143.089 85.2575 138.488 83.3691 133.715C82.9733 132.923 82.8152 132.012 82.5779 131.14C81.5928 127.562 80.3702 124.054 78.9182 120.64C78.7364 120.062 78.6367 119.462 78.6219 118.857C78.484 117.292 78.4253 115.687 78.228 114.102C77.9517 112.264 77.9525 110.394 78.2305 108.556C78.767 104.971 79.2639 101.405 79.8598 97.84C79.9302 97.615 80.0448 97.4063 80.1969 97.2261L81.5039 97.8606L82.8704 98.614C82.752 97.782 82.6532 97.2868 82.5543 96.7915C82.4555 96.2962 82.1981 96.0782 82.337 95.6623C82.4758 95.2464 83.0502 95.306 83.3472 95.7023C84.753 97.0302 86.1389 98.4174 87.5051 99.765C88.1189 100.399 88.8119 100.994 89.4653 101.608L90.456 101.113L91.1297 100.777C92.1109 101.196 92.9696 101.858 93.6247 102.7C95.7235 104.721 97.8024 106.802 99.9409 108.804C102.12 110.769 103.848 113.182 105.009 115.878C106.217 118.136 107.065 120.569 107.521 123.089C107.727 123.947 108.127 124.747 108.689 125.427C110.232 127.924 111.737 130.44 113.518 132.917C115.293 135.3 116.856 137.832 118.19 140.486C120.012 143.725 121.542 147.12 122.761 150.631C123.207 151.871 123.799 153.055 124.522 154.157C126.541 157.506 128.639 160.815 130.678 164.104C132.717 167.393 135.39 170.069 137.627 173.16C137.825 173.556 138.241 173.794 138.478 174.171C141.264 178.17 144.419 181.898 147.902 185.308L157.01 194.622C157.316 194.885 157.648 195.117 158 195.316C158.773 194.583 158.317 193.87 158.298 193.236C158.278 192.602 157.566 191.275 158.695 190.859C159.824 190.444 159.844 191.771 160.299 192.385C160.754 193 161.328 194.446 162.12 195.338C163.671 197.893 165.391 200.342 167.267 202.669C170.222 206.3 173.539 209.62 177.167 212.578L182.711 217.137C183.073 217.396 183.405 217.696 183.701 218.029C186.086 220.677 188.88 222.926 191.978 224.688C194.473 226.215 197.028 227.662 199.602 229.05C203.86 231.33 208.138 233.649 212.534 235.81C215.366 237.218 218.337 238.408 221.328 239.539C224.318 240.669 227.606 242.196 230.953 243.346C234.332 244.644 237.528 246.377 240.459 248.501C242.617 250.047 244.835 251.514 246.994 253.06C248.668 254.071 249.999 255.563 250.815 257.341C251.209 258.144 251.701 258.896 252.279 259.58C252.576 260.174 253.17 260.67 253.566 261.264C254.086 261.919 254.41 262.707 254.501 263.537C254.591 264.368 254.445 265.208 254.079 265.959C253.405 267.385 252.988 268.93 252.334 270.395C251.315 272.853 249.717 275.027 247.676 276.732C245.734 278.296 243.95 279.979 242.107 281.642C241.667 282.197 241.038 282.57 240.34 282.691C239.642 282.811 238.924 282.67 238.323 282.294C237.844 282.062 237.38 281.797 236.937 281.501C235.891 280.823 234.719 280.364 233.491 280.152L221.667 277.096C218.106 276.102 214.645 274.781 211.328 273.15L198.04 266.369C196.951 265.774 195.881 265.12 194.851 264.446C193.558 263.345 191.894 262.778 190.197 262.859C189.59 262.827 189.006 262.621 188.514 262.264C185.048 260.281 181.563 258.259 178.196 256.178C177.203 255.594 176.269 254.917 175.404 254.156C171.048 250.39 167.128 246.209 163.148 242.008C162.198 240.997 161.188 239.966 160.158 238.995C159.03 238.109 158.223 236.877 157.862 235.488C157.648 234.916 157.277 234.415 156.793 234.041C154.892 232.218 152.932 230.375 150.992 228.572C148.177 226 145.605 223.174 143.31 220.129C142.459 218.822 141.37 217.633 140.439 216.463ZM84.626 114.62C84.4278 114.719 84.1701 115.096 84.2097 115.274C84.5653 117.275 84.9011 119.236 85.3756 121.177C85.4722 121.628 85.686 122.044 85.9954 122.385C86.3049 122.726 86.6989 122.98 87.1377 123.119C87.2547 122.23 87.0814 121.327 86.6437 120.544C85.9513 118.563 85.2787 116.621 84.626 114.62L83.9927 113.352C84.0311 113.575 84.1343 113.782 84.2895 113.947C84.3366 114.198 84.4096 114.444 84.5071 114.68L84.626 114.62ZM120.573 169.25C120.989 170.082 121.424 170.954 121.86 171.826C121.962 172.011 122.1 172.173 122.267 172.302C122.434 172.432 122.625 172.526 122.83 172.579C124.672 172.897 126.474 173.135 128.178 173.374C128.574 173.357 128.96 173.248 129.307 173.057C129.244 172.843 129.143 172.642 129.01 172.463C128.793 172.027 128.317 171.67 127.941 171.313C126.694 170.203 125.367 169.133 124.218 168.221C124.784 168.393 125.323 168.639 125.823 168.955C126.912 169.748 127.862 170.66 128.892 171.532C129.395 172.021 129.946 172.459 130.535 172.84C131.565 173.415 132.655 173.712 133.626 172.683C133.607 172.233 133.494 171.792 133.292 171.389C133.091 170.986 132.807 170.63 132.458 170.345C129.309 166.974 125.75 164.011 121.864 161.525C120.344 160.632 118.941 159.553 117.686 158.314C117.155 157.607 116.424 157.076 115.587 156.788C115.191 157.478 115.084 158.297 115.289 159.066C115.585 161.245 115.881 163.424 116.138 165.623C116.276 166.792 116.256 167.94 116.473 169.07C116.715 170.184 117.046 171.277 117.462 172.339C117.562 172.64 117.767 172.896 118.039 173.06C118.312 173.224 118.634 173.284 118.947 173.231C119.508 173.149 120.063 173.037 120.611 172.895C121.028 172.043 120.612 171.409 120.414 170.716C120.339 170.249 120.353 169.771 120.454 169.309L120.573 169.25ZM140.602 208.263C142.245 209.175 142.541 211.156 143.888 212.266C144.957 212.524 145.552 211.731 146.186 211.118C146.568 210.896 146.868 210.555 147.04 210.148C147.211 209.741 147.246 209.289 147.138 208.86C146.764 205.843 145.367 203.046 143.18 200.935C138.072 196.369 132.089 192.889 125.595 190.705C124.208 190.209 122.881 189.436 121.535 188.821L120.03 188.187C120.208 188.543 120.049 188.821 120.346 188.821C122.413 191.277 124.844 193.403 127.554 195.123C130.305 196.892 132.747 199.102 134.781 201.664C134.107 201.244 133.471 200.767 132.88 200.236C130.803 198.31 128.549 196.585 126.147 195.083C124.911 194.221 123.722 193.295 122.583 192.308C122.201 191.999 121.837 191.668 121.494 191.317C121.846 192.608 122.52 193.787 123.453 194.745C126.68 198.629 129.472 202.83 132.362 206.932C133.985 209.29 135.846 211.43 137.628 213.61C137.976 213.906 138.354 214.165 138.756 214.383C140.217 214.05 141.576 213.371 142.719 212.404C142.215 210.924 141.459 209.543 140.483 208.322L140.602 208.263ZM112.422 147.377C112.62 148.467 113.431 149.398 113.173 150.666C113.157 150.845 113.178 151.025 113.233 151.196C113.289 151.367 113.379 151.525 113.497 151.66C113.616 151.796 113.76 151.905 113.923 151.983C114.085 152.061 114.261 152.105 114.44 152.112C116.296 152.119 118.135 151.756 119.849 151.045C121.156 150.392 121.355 149.501 120.86 148.411C120.366 147.321 119.435 145.558 118.723 144.131C117.094 140.321 115 136.727 112.488 133.432C111.372 131.943 110.348 130.388 109.42 128.775C108.628 127.19 107.837 125.605 107.065 124.06C106.827 123.584 106.57 123.069 105.778 123.267L105.361 124.118C103.826 129.3 103.7 134.798 104.997 140.045C105.522 141.541 106.233 142.966 107.115 144.284C107.143 144.386 107.194 144.48 107.264 144.559C107.333 144.638 107.419 144.701 107.516 144.743C107.613 144.785 107.718 144.805 107.823 144.801C107.928 144.797 108.031 144.77 108.125 144.721C108.066 143.909 107.967 143.017 107.908 141.809C108.643 144.238 109.869 146.491 111.51 148.427L112.422 147.377ZM167.505 243.297L166.475 243.812C169.727 247.227 173.15 250.475 176.731 253.542C177.49 254.141 178.291 254.684 179.128 255.168C182.336 257.031 185.584 258.776 188.831 260.62C189.355 260.952 189.953 261.149 190.572 261.194C191.19 261.24 191.81 261.131 192.377 260.879C194.65 259.878 196.744 258.514 198.579 256.841C198.884 256.533 199.102 256.151 199.213 255.732C199.121 255.386 198.959 255.063 198.738 254.781C199.468 254.941 200.21 255.034 200.957 255.059C201.611 255.079 201.928 254.228 201.453 253.673C200.978 253.118 200.878 253.316 200.621 253.098C200.852 252.964 201.114 252.891 201.381 252.888C201.648 252.885 201.912 252.95 202.146 253.079C202.452 253.256 202.802 253.344 203.155 253.334C203.508 253.323 203.852 253.215 204.147 253.02C204.94 252.625 204.425 251.793 204.663 251.179C205.107 251.316 205.566 251.403 206.03 251.437C206.822 251.338 207.575 250.665 207.536 250.189C207.483 249.689 207.251 249.224 206.883 248.882C204.429 246.699 201.715 244.828 198.803 243.312C195.867 242.06 192.679 241.516 189.494 241.723C186.542 241.662 183.512 241.542 180.501 241.263C177.49 240.984 174.004 240.547 170.775 240.228C170.775 240.228 170.498 240.367 170.339 240.446C170.386 240.682 170.495 240.901 170.656 241.08C173.575 242.504 176.644 243.595 179.806 244.333C183.451 244.988 187.056 245.663 190.759 246.438C191.105 246.473 191.445 246.553 191.77 246.676C191.868 246.874 192.522 246.696 192.423 247.29C188.848 247.039 185.295 246.547 181.786 245.819C178.299 245.199 174.892 244.194 171.626 242.824C169.093 242.018 166.786 240.626 164.893 238.76C164.754 238.482 164.14 238.541 163.288 238.323C164.349 240.298 165.727 242.085 167.367 243.614L167.505 243.297ZM234.575 249.41C233.585 249.409 233.05 248.636 232.278 248.18C231.505 247.724 231.525 247.764 231.109 248.418C231.992 250.316 233.153 252.072 234.553 253.629C237.716 256.861 240.444 260.492 242.67 264.428C243.105 265.3 243.541 266.172 243.917 266.925C243.572 267.596 243.293 268.299 243.084 269.024C242.547 272.114 241.1 274.966 240.405 277.937C240.504 278.135 240.207 278.63 239.692 278.293C239.907 277.54 240.001 276.758 239.97 275.976C239.495 275.025 240.447 274.352 240.685 273.54C240.753 273.279 240.725 273.003 240.605 272.763C240.484 272.522 240.281 272.333 240.032 272.232C239.324 271.864 238.589 271.552 237.833 271.3C238.685 271.221 239.477 271.419 240.25 271.38C240.505 271.387 240.757 271.331 240.986 271.217C241.214 271.103 241.41 270.935 241.558 270.727C242.05 269.701 242.353 268.593 242.451 267.459C242.471 266.904 241.857 266.27 241.54 265.636C241.224 265.002 242.313 264.507 241.799 263.774C241.284 263.041 240.215 261.595 239.562 260.485C239.361 259.992 239.014 259.573 238.568 259.282C238.122 258.992 237.598 258.844 237.067 258.86C236.571 258.859 236.056 258.522 235.581 258.364C234.195 257.769 232.789 257.233 231.382 256.599C231.382 256.599 230.669 256.559 230.987 255.806C231.898 256.143 232.829 256.421 233.72 256.719C234.611 257.016 235.522 257.849 236.829 257.691C236.276 255.789 234.632 254.976 233.82 253.549C232.991 252.193 232.051 250.907 231.009 249.705C229.98 248.437 228.851 247.169 227.703 245.861L227.545 243.959L226.833 243.424L225.09 242.71C217.989 240.004 211.07 236.845 204.374 233.251C199.007 230.337 193.641 227.423 188.531 224.033C188.12 223.825 187.689 223.659 187.244 223.537L183.815 227.874C183.815 228.963 184.646 229.538 185.676 230.113C184.805 230.251 184.171 229.676 183.458 229.339C183.149 229.167 182.8 229.077 182.445 229.081C182.091 229.084 181.744 229.18 181.437 229.358C180.864 229.596 180.308 229.874 179.773 230.189C177.817 231.405 175.694 232.332 173.473 232.94C172.931 233.149 172.335 233.169 171.781 232.996C171.228 232.823 170.749 232.467 170.423 231.988C170.186 231.612 169.988 231.214 169.829 230.799C167.155 226.758 165.126 222.327 163.813 217.663C162.33 212.215 160.669 206.806 159.641 201.18C159.446 199.502 158.669 197.946 157.444 196.781C156.317 195.722 155.247 194.604 154.237 193.432C151.663 190.658 149.228 187.765 146.456 185.089C143.684 182.414 142.1 180.234 139.922 177.757C138.992 176.687 138.18 175.557 137.25 174.487C137.072 174.131 136.438 173.754 136.18 173.833C134.756 173.911 133.352 174.212 132.02 174.722C132.258 175.198 132.456 175.594 132.653 175.99C133.307 177.298 134.415 178.428 135.306 179.617C135.563 180.132 136.157 180.528 136.573 180.964C135.702 181.003 135.405 180.31 134.969 179.735C133.96 178.408 132.91 177.1 131.901 175.772C131.559 175.312 131.105 174.947 130.58 174.714C130.056 174.481 129.481 174.388 128.91 174.444C127.425 174.443 125.919 174.204 124.453 174.144C122.988 174.084 121.621 174.024 120.195 174.043C119.351 174.126 118.517 174.278 117.699 174.498C117.52 174.141 117.402 173.903 117.283 173.666C116.526 171.604 116.079 169.44 115.959 167.247C115.762 164.87 115.486 162.532 115.13 160.135C115.138 159.665 115.033 159.2 114.822 158.779C114.612 158.358 114.304 157.994 113.923 157.718C112.898 160.222 111.295 162.448 109.245 164.213C109.33 165.157 109.768 166.035 110.472 166.67C112.234 169.107 114.015 171.485 115.817 173.903C115.341 173.68 114.905 173.379 114.53 173.011C112.748 170.831 110.986 168.592 109.244 166.392C108.903 165.991 108.51 165.638 108.076 165.342C107.977 165.144 107.481 165.341 106.907 165.381C109.104 168.789 111.619 171.643 113.459 174.932C112.43 173.862 111.559 172.712 110.569 171.424C109.789 170.047 108.654 168.904 107.282 168.115C107.868 169.199 108.522 170.245 109.242 171.245C112.726 175.446 115.576 180.162 119.219 184.284C120.139 185.347 121.167 186.31 122.288 187.158C123.894 188.172 125.625 188.972 127.437 189.537C130.729 190.619 133.829 192.212 136.627 194.256C139.577 196.496 142.448 198.874 145.101 201.312C145.583 201.71 145.968 202.211 146.23 202.778C147.081 204.482 147.952 206.226 148.505 208.128C149.059 210.03 149.158 210.624 147.592 212.049C147.156 212.267 146.681 212.505 146.324 212.98L145.135 214.168C146.632 216.488 148.422 218.606 150.461 220.469C150.124 220.39 149.728 220.39 149.47 220.172C148.863 219.653 148.287 219.097 147.748 218.507C146.857 217.516 146.045 216.486 145.115 215.515C144.873 215.203 144.564 214.95 144.211 214.775C143.857 214.6 143.469 214.507 143.075 214.504C142.718 214.682 142.124 214.979 142.341 215.414C142.537 215.91 142.776 216.387 143.054 216.841C144.261 218.268 145.449 219.655 146.736 221.042C147.773 221.993 148.614 223.137 149.211 224.411C149.48 224.974 149.864 225.473 150.339 225.877C153.131 228.691 156.002 231.466 158.794 234.28C159.719 235.243 160.925 235.888 162.24 236.124C163.289 236.342 164.26 236.699 165.29 236.977C168.034 237.987 170.865 238.744 173.747 239.239C175.767 239.418 177.808 239.637 179.769 239.995C183.354 240.59 186.99 240.83 190.623 240.713C192.916 240.588 195.212 240.884 197.398 241.588C201.356 243.167 204.989 245.466 208.111 248.367C209.359 249.378 209.18 250.507 208.149 251.517C206.205 253.454 203.997 255.107 201.59 256.426C201.194 256.624 200.798 256.822 200.401 257.02C200.237 257.085 200.094 257.196 199.99 257.34C199.886 257.483 199.825 257.653 199.815 257.83C199.804 258.007 199.844 258.183 199.931 258.338C200.017 258.493 200.146 258.62 200.302 258.704C200.975 259.259 201.747 259.715 202.46 260.25L200.717 259.932C199.962 259.709 199.195 259.531 198.419 259.396C198.293 259.39 198.168 259.423 198.06 259.49C197.953 259.558 197.869 259.656 197.819 259.772C197.77 259.889 197.757 260.018 197.783 260.142C197.808 260.265 197.871 260.379 197.963 260.466C198.178 260.747 198.448 260.983 198.755 261.159C199.666 261.695 200.577 262.23 201.449 262.785C200.854 263.082 200.399 262.765 199.943 262.547C199.488 262.328 197.844 261.615 196.794 261.198C195.745 260.782 195.467 260.92 194.456 262.366C195.486 263.556 196.782 264.486 198.238 265.081C202.476 267.322 206.754 269.443 211.032 271.565C216.86 274.427 222.965 276.687 229.253 278.308C232.103 278.936 234.914 279.731 237.67 280.689C238.514 281.097 239.465 281.227 240.387 281.06C241.309 280.893 242.154 280.438 242.801 279.761C244.625 277.959 246.685 276.434 248.509 274.633C249.694 273.481 250.703 272.159 251.502 270.712C252.171 269.269 252.754 267.788 253.247 266.276C253.646 265.38 253.77 264.387 253.605 263.421C253.44 262.455 252.992 261.559 252.318 260.848C251.15 259.401 250.062 257.915 248.993 256.369C248.239 255.271 247.293 254.318 246.201 253.555C242.189 250.635 237.929 248.075 233.467 245.903C233.005 245.656 232.521 245.45 232.022 245.288C231.903 245.05 231.328 244.991 231.11 245.743L234.773 249.41L234.575 249.41ZM171.711 229.413C171.896 229.716 172.055 230.034 172.186 230.364C172.364 230.777 172.691 231.108 173.103 231.288C173.515 231.468 173.98 231.486 174.404 231.336C174.923 231.239 175.434 231.101 175.93 230.921C177.413 230.328 178.845 229.613 180.21 228.783C182.119 227.657 183.73 226.089 184.906 224.21C185.203 223.815 185.346 223.327 185.31 222.835C185.274 222.344 185.06 221.882 184.71 221.535C183.267 219.744 181.626 218.122 179.819 216.7C178.175 215.491 176.651 214.123 175.146 212.795C173.295 211.276 171.549 209.634 169.919 207.88C167.484 205.086 165.326 202.054 163.069 199.121C162.218 198.012 161.426 196.823 160.575 195.713C160.456 195.475 160.04 195.436 159.466 195.178C159.762 197.06 159.821 198.664 160.137 200.19C160.868 203.934 161.777 207.639 162.707 211.284C163.735 215.409 165.003 219.471 166.504 223.448C167.527 225.992 168.835 228.411 170.403 230.66C170.601 231.057 170.799 231.453 171.493 230.958L171.711 229.413ZM111.149 159.202C111.293 159.212 111.438 159.188 111.571 159.132C111.704 159.077 111.823 158.991 111.917 158.881C112.011 158.771 112.079 158.642 112.114 158.501C112.149 158.361 112.151 158.215 112.12 158.074C112.094 157.464 111.932 156.869 111.646 156.33C110.933 154.904 109.844 153.715 108.953 152.427C108.775 152.07 108.26 151.832 108.716 151.159C109.059 151.398 109.377 151.67 109.667 151.971C110.122 152.883 110.914 153.676 111.527 154.508C111.786 154.877 112.1 155.205 112.458 155.479C112.695 155.546 112.948 155.525 113.171 155.42C113.27 155.342 113.349 155.242 113.404 155.129C113.459 155.016 113.488 154.892 113.488 154.766C113.458 154.509 113.339 154.271 113.152 154.093C112.133 152.13 110.78 150.36 109.153 148.861L95.8473 136.693C95.7042 136.505 95.5178 136.354 95.304 136.254C95.0902 136.154 94.8552 136.107 94.6193 136.117C95.4505 137.782 95.8459 139.565 96.4196 141.209C97.6263 144.617 98.7538 148.064 100.139 151.432C100.96 153.19 101.92 154.879 103.009 156.485C103.781 158.03 105.068 159.318 106.097 160.785C106.394 161.379 106.73 162.053 107.344 162.489C107.463 162.602 107.61 162.684 107.769 162.725C107.928 162.767 108.096 162.768 108.255 162.727C108.453 162.628 108.691 162.113 108.612 161.856C108.138 160.452 107.569 159.082 106.911 157.754C106.099 156.13 105.288 154.505 104.159 153.039C104.742 153.467 105.211 154.032 105.525 154.683C105.882 155.397 106.218 156.07 106.574 156.784C106.93 157.497 107.208 158.052 107.524 158.686C107.884 159.421 108.422 160.054 109.088 160.529C109.254 159.144 108.955 157.743 108.238 156.547C107.393 155.327 106.727 153.992 106.259 152.584C108.932 154.962 109.545 157.478 111.149 159.202ZM94.0047 137.365C93.727 138.098 93.5486 138.336 93.5089 138.553C93.4722 139.438 93.485 140.324 93.5473 141.208C93.8828 143.862 93.5449 146.457 93.8407 149.132C93.9202 150.981 94.3565 152.797 95.1258 154.48C96.5111 157.254 98.3126 159.771 100.015 162.386C100.508 163.002 101.13 163.503 101.837 163.853C101.955 164.091 102.57 163.834 102.986 163.774C102.946 162.705 102.234 162.269 101.897 161.595C101.561 160.921 100.65 160.089 100.096 159.277C99.4929 158.516 99.0549 157.639 98.8092 156.701C99.3311 157.288 99.8201 157.903 100.274 158.544C101.715 160.57 103.473 162.35 105.481 163.815C105.675 163.892 105.884 163.927 106.092 163.917C106.3 163.907 106.504 163.852 106.69 163.756C107.126 163.539 107.106 163.004 106.809 162.608C106.235 161.458 105.166 160.507 104.473 159.417C103.009 157.079 101.623 154.701 100.317 152.284C98.9389 149.804 97.8565 147.171 97.0916 144.438C96.5361 142.586 95.8755 140.767 95.1132 138.99C94.7907 138.418 94.4198 137.874 94.0047 137.365ZM89.4625 107.65C89.438 107.999 89.4312 108.35 89.4422 108.7L90.5292 114.148C90.7861 115.356 91.1421 116.565 91.3 117.773C91.4407 119.003 91.8025 120.198 92.368 121.299C93.6346 123.836 94.9012 126.372 96.1678 128.908C96.3529 129.198 96.5955 129.448 96.8806 129.641C97.0291 129.718 97.1923 129.764 97.3595 129.774C97.5267 129.784 97.6942 129.759 97.8512 129.701C98.0634 129.454 98.1702 129.134 98.1487 128.81C97.9916 128.394 97.7927 127.996 97.555 127.621L95.319 122.549C96.8234 124.768 98.1892 127.007 99.555 129.246C99.555 129.246 99.7927 129.127 100.268 129.286C99.2887 126.492 98.0567 123.793 96.5873 121.222C97.8542 123.065 98.9627 124.987 100.091 126.85C100.29 127.344 100.528 127.821 100.803 128.276C100.803 128.276 101.279 128.435 101.516 128.415C101.593 128.413 101.668 128.394 101.736 128.359C101.805 128.325 101.865 128.277 101.913 128.217C101.99 127.424 101.957 126.624 101.815 125.84C100.63 122.022 98.538 118.548 95.7184 115.715C94.0446 114.025 92.5518 112.166 91.264 110.166C90.9571 109.141 90.2889 108.261 89.3833 107.689L89.4625 107.65ZM81.5124 122.265C81.5124 122.265 81.3537 122.641 81.4131 122.76C81.9471 124.523 82.5208 126.267 83.1142 128.05C83.7076 129.833 84.4197 132.052 85.1715 134.053C85.9233 136.054 86.5367 137.481 87.2886 139.184C88.4406 141.737 89.8254 144.178 91.4253 146.476C91.5246 145.882 91.6436 145.624 91.6041 145.446C90.6562 141.726 89.1484 138.172 87.1322 134.906L88.4004 133.876C88.7171 134.51 88.9545 134.986 89.1722 135.422C89.8055 136.69 90.4388 137.958 91.1513 139.384C91.3096 139.701 91.7651 139.82 92.1612 140.118C93.2518 137.543 92.2032 135.146 92.9768 132.729C92.2424 131.673 91.2274 130.842 90.0463 130.331C86.5513 128.427 83.6107 125.647 81.5124 122.265ZM93.7718 126.985C93.8399 125.874 93.4868 124.777 92.7828 123.914C91.8916 122.483 91.2556 120.907 90.9031 119.258C90.1439 115.616 88.8858 112.096 87.1642 108.798C86.2142 106.896 85.1851 104.835 84.3144 103.091C84.1256 102.831 83.8824 102.614 83.6016 102.457C83.3242 102.596 83.126 102.695 83.1854 102.913C83.2833 105.29 82.569 107.726 84.0933 109.886C84.9756 113.038 86.1137 116.112 87.4961 119.079C88.1875 120.712 88.9806 122.3 89.871 123.834C90.1979 124.605 90.6819 125.299 91.2922 125.872C91.9024 126.445 92.6255 126.885 93.4152 127.163L93.7718 126.985ZM103.796 124.751C104.331 124.138 103.797 123.86 103.698 123.464C103.599 123.068 103.579 122.434 103.421 121.919C103.17 121.174 102.817 120.467 102.372 119.819C99.606 115.181 96.2228 110.942 92.3152 107.215C91.3364 106.311 90.5196 105.245 89.9 104.065C88.7761 102.063 87.2206 100.337 85.3463 99.0113C85.3463 99.0113 85.1085 99.1301 84.8313 98.9715C84.5595 100.156 84.6914 101.397 85.206 102.498C85.7679 104.876 86.746 107.137 88.095 109.175C88.2993 108.698 88.4031 108.185 88.3999 107.667C88.3967 107.149 88.2867 106.637 88.0766 106.164C87.5027 105.014 86.9288 103.865 86.5729 102.36C87.2263 103.073 87.4041 104.024 88.1569 104.044C89.8404 104.441 90.2557 105.768 90.9287 107.017C91.9178 109.352 93.267 111.519 94.927 113.437C97.2914 115.835 99.3585 118.51 101.084 121.403C101.777 122.492 102.608 123.661 103.439 124.93L103.796 124.751ZM124.263 157.901L123.946 158.059L122.006 155.067C121.576 154.399 121.107 153.757 120.601 153.145C120.444 152.925 120.216 152.767 119.956 152.698C119.695 152.63 119.419 152.654 119.175 152.768C118.739 152.986 118.639 153.481 118.976 154.155C119.214 154.728 119.491 155.284 119.807 155.819C120.064 156.334 120.539 156.691 121.292 157.603C120.393 157.225 119.662 156.536 119.233 155.66C118.619 154.927 118.065 154.115 117.372 153.421C116.679 152.728 116.401 153.064 116.183 154.015C115.964 154.966 116.638 154.926 116.856 155.362C117.073 155.798 117.667 156.294 118.103 156.769C119.57 158.168 121.183 159.404 122.915 160.456C124.776 161.606 126.479 163.033 128.301 164.301C128.479 164.658 129.053 164.817 129.49 164.104C129.094 163.311 128.678 162.479 128.243 161.607C126.493 158.846 124.913 155.981 123.512 153.028C123.278 152.547 122.906 152.147 122.443 151.878C122.344 151.68 121.79 151.858 121.492 151.957C121.195 152.056 121.156 152.472 121.235 152.631C121.484 153.28 121.795 153.904 122.165 154.493C122.422 155.702 123.154 156.871 124.104 157.98L124.263 157.901ZM104.689 121.186C105.009 120.967 105.282 120.685 105.49 120.357C105.698 120.03 105.838 119.663 105.901 119.28C105.964 118.897 105.949 118.506 105.857 118.128C105.765 117.751 105.597 117.397 105.365 117.086C104.751 115.858 103.88 114.709 102.989 113.322C101.158 111.185 99.1224 109.234 96.9107 107.495C95.7227 106.306 94.5545 105.156 93.2873 104.007C92.9487 103.75 92.5558 103.573 92.1386 103.491C92.1386 103.491 91.6235 103.749 91.5839 103.768C91.6541 104.106 91.8109 104.421 92.0391 104.68C93.3801 106.756 94.9398 108.683 96.6915 110.426C97.3624 111.006 97.9371 111.688 98.394 112.448C100.275 115.222 102.076 118.036 103.917 120.829C104.045 121.016 104.183 121.195 104.332 121.364L104.689 121.186ZM81.0876 98.6131C80.6706 100.752 80.452 102.396 80.0946 104.06C79.2213 108.482 79.1588 113.026 79.9101 117.471C79.9293 117.828 80.0217 118.178 80.1817 118.498C80.3417 118.819 80.5659 119.103 80.8402 119.333C81.7522 120.051 82.8154 120.553 83.9496 120.8C83.9676 118.67 83.5225 116.561 82.645 114.619C82.3414 113.793 82.1293 112.936 82.0124 112.064C81.4929 108.21 81.3884 104.312 81.7008 100.436C81.7638 100.184 81.7359 99.917 81.622 99.6831C81.3545 99.3577 81.0561 99.059 80.7309 98.7912L81.0876 98.6131ZM103.115 140.44C103.334 138.102 103.315 137.964 102.285 136.597C100.263 133.896 97.7913 131.563 94.9789 129.7C91.9689 127.737 88.8201 125.893 85.7506 124.01C85.7506 124.01 85.1564 123.911 84.5622 123.812C85.5751 125.698 87.1636 127.211 89.0964 128.132C91.9296 129.606 94.4829 131.565 96.6409 133.92C98.1676 135.256 99.4709 136.829 100.501 138.577C100.674 139.08 100.972 139.531 101.367 139.888C101.761 140.245 102.24 140.496 102.759 140.618L103.115 140.44ZM99.7916 131.505C100.007 132.125 100.376 132.682 100.864 133.122C101.352 133.562 101.944 133.871 102.583 134.021C102.861 132.793 103.337 131.764 102.744 130.575C102.146 130.526 101.544 130.599 100.976 130.789C100.407 130.98 99.8827 131.284 99.435 131.683L99.7916 131.505ZM92.2981 143.862C92.4027 143.656 92.4626 143.43 92.4739 143.199C92.4851 142.969 92.4475 142.738 92.3634 142.523C92.2793 142.308 92.1508 142.113 91.9861 141.951C91.8214 141.789 91.6243 141.664 91.4078 141.583C90.8922 142.633 91.2882 143.227 92.2981 143.862Z" fill="#49535E"/>
</g>
</svg>
