<svg width="117" height="83" viewBox="0 0 117 83" fill="none" xmlns="http://www.w3.org/2000/svg">
<g opacity="0.3">
<path d="M53.4557 82.945C50.7745 82.9752 48.0938 82.8534 45.4264 82.58C44.8181 82.58 44.2403 82.3367 43.6624 82.2759C42.1721 82.2759 40.621 82.1238 39.1611 81.8805C36.6064 81.4851 34.0516 80.9681 31.4969 80.4815C30.5616 80.3757 29.654 80.0972 28.8204 79.6602C28.7028 79.6159 28.5731 79.6159 28.4555 79.6602C27.7465 79.5751 27.0573 79.3694 26.4177 79.052C25.3228 78.4437 24.1062 78.0483 23.0113 77.3488C21.9164 76.6493 20.9128 76.3148 19.9699 75.7369C18.4188 74.7941 16.9286 73.76 15.4079 72.6955C14.7692 72.3001 14.1 71.9351 13.4918 71.5093C12.336 70.6881 11.1499 69.8365 10.055 68.9241C8.96725 68.0862 7.95004 67.1605 7.01358 66.1564C5.53427 64.7391 4.16187 63.2143 2.90768 61.5943C2.01276 60.0977 1.40427 58.4476 1.11327 56.7282C0.759209 54.9969 0.585985 53.2336 0.596288 51.4665C0.596288 50.2804 0.596288 49.1247 0.596288 47.9385C0.58696 47.7566 0.627324 47.5756 0.71305 47.4148C0.798776 47.2541 0.926642 47.1197 1.08292 47.0261C1.9041 46.5091 2.69485 45.9921 3.54644 45.5054C4.68648 44.7353 5.78301 43.9027 6.83111 43.0115C7.70855 42.2861 8.48585 41.4474 9.1426 40.5175C9.24722 40.3393 9.40749 40.2003 9.59879 40.1221C10.0615 39.8883 10.539 39.6852 11.0282 39.5139C11.7886 39.2097 12.549 38.8447 13.3397 38.6014C14.6171 38.206 15.8944 37.8715 17.1718 37.5673C19.9247 37.0011 22.6071 36.1341 25.1707 34.9821L29.9762 32.762C30.78 32.3467 31.5617 31.8899 32.318 31.3933C33.5346 30.5721 34.6903 29.6294 35.9677 28.869C37.8534 27.7437 39.7998 26.7096 41.7463 25.6755C43.6928 24.6414 44.7878 24.094 46.5213 23.3944C48.2549 22.6949 49.1977 22.3908 50.5359 21.9042C51.8741 21.4176 53.8815 20.5964 55.4934 19.8361C56.2233 19.4711 57.0445 19.2582 57.8049 18.954C59.6297 18.2241 61.4545 17.4333 63.2794 16.7338C64.6176 16.2168 65.9558 15.7606 67.3245 15.274C67.839 15.0398 68.3671 14.8366 68.906 14.6657C70.3354 14.2399 71.7953 13.8749 73.1943 13.4187C74.5934 12.9625 75.5057 12.5063 76.6615 12.0197L77.3002 11.746C78.6689 11.2289 80.0679 10.7423 81.4365 10.1948C82.1504 9.94785 82.8509 9.6636 83.535 9.34323L88.2796 7.18386L90.7736 6.08891C91.4731 5.78477 92.1422 5.45026 92.8417 5.17653C93.5412 4.90281 95.0924 4.38576 96.2177 3.92955C97.343 3.47334 98.4683 2.92589 99.5936 2.40885C100.719 1.89182 101.388 1.58772 102.3 1.22276C103.213 0.857791 104.064 0.614423 104.946 0.310284C105.216 0.17163 105.527 0.138442 105.82 0.21719C106.112 0.295937 106.365 0.481 106.528 0.736124C107.11 1.36599 107.658 2.02585 108.17 2.71301C109.022 4.11205 109.782 5.60234 110.543 7.09262C111.303 8.58291 112.033 10.134 112.702 11.746C113.371 13.3579 113.645 14.0574 114.071 15.2435C114.844 17.2128 115.434 19.249 115.835 21.3263C116.069 22.472 116.241 23.6294 116.352 24.7936C116.352 26.1622 116.595 27.5308 116.595 28.9298C116.595 30.3288 116.382 32.3058 116.26 33.9785C116.204 34.8349 116.103 35.6877 115.956 36.5333C115.652 38.0236 115.318 39.5747 114.983 41.0346C114.831 41.7341 114.588 42.4336 114.375 43.1332C113.689 45.4202 112.751 47.6237 111.577 49.7026C110.695 51.3449 109.721 52.9569 108.748 54.5384C107.161 57.4407 105.106 60.0611 102.665 62.2939C101.753 63.1455 100.962 64.0883 100.05 64.9399C99.1374 65.7915 98.5291 66.2173 97.7992 66.856C97.0693 67.4947 96.978 67.5555 96.5826 67.9205C95.7155 68.7042 94.7553 69.3784 93.7237 69.9278L89.4658 72.3609L84.8125 74.8549C84.3259 75.1286 83.8088 75.3719 83.3221 75.676C82.1519 76.3504 80.9196 76.9106 79.6421 77.3488C78.608 77.7138 77.6043 78.17 76.6007 78.5349C75.597 78.8999 74.8671 79.1432 74.0155 79.3865L70.1834 80.451L67.142 81.1506L63.766 81.85C63.3098 81.85 62.8536 81.85 62.367 82.0325L59.6601 82.3671L53.4557 82.945ZM73.681 78.6262L74.6846 78.322C74.5054 78.2786 74.3178 78.2839 74.1413 78.3374C73.9649 78.3909 73.8059 78.4906 73.681 78.6262C73.3464 78.6262 72.9815 78.6262 72.7381 78.8391H72.1907C69.9705 79.4169 67.6894 79.5082 65.4692 80.1773C64.2574 80.4689 63.0282 80.6822 61.7891 80.816L61.3025 80.9681V81.1809H62.5495L71.035 79.5082C71.5982 79.3509 72.1474 79.1474 72.6773 78.8999L73.681 78.6262ZM18.9359 61.716C19.24 61.9897 19.5138 62.2938 19.8179 62.5372L20.8215 63.3584C20.8637 63.5076 20.925 63.6507 21.004 63.7841L24.0454 66.5823C24.0454 66.5823 24.2583 66.5823 24.4712 66.5823C24.6841 66.5823 24.2887 66.3085 24.1974 66.2477C23.5892 65.6394 23.0114 65.0312 22.3727 64.4837C21.734 63.9362 21.369 63.6929 20.852 63.2975C20.3349 62.9021 20.2133 62.3243 19.7875 61.9289C18.182 60.3693 16.707 58.6808 15.3774 56.8802C15.3774 56.8802 15.3774 56.6977 15.3774 56.5761C15.2125 56.4714 15.0595 56.349 14.9212 56.2111L11.8798 51.5578C11.1499 50.3412 10.4808 49.1246 9.78126 47.9081C9.50754 47.4214 9.23382 46.9349 8.92968 46.4483C9.02927 47.0919 9.22402 47.7171 9.50755 48.3035C10.055 49.3071 10.7241 50.2804 11.3324 51.3449L12.9748 53.9605L14.6171 56.3328C14.676 56.4532 14.775 56.5494 14.8971 56.6049C15.0192 56.6604 15.1567 56.6718 15.2862 56.6369C15.2862 56.9107 15.2862 57.2452 15.2862 57.4581C15.9249 58.3705 16.594 59.3133 17.2935 60.1649C17.993 61.0165 18.2971 61.1685 18.7838 61.6856C18.718 61.5802 18.6215 61.4976 18.5074 61.4486C18.3932 61.3997 18.2668 61.3868 18.1451 61.4119C18.1451 61.9289 18.5101 62.081 18.7534 62.3851C18.9648 62.6674 19.2099 62.9228 19.4833 63.1455C19.757 63.3584 19.9092 63.7841 20.487 63.8754C20.3182 63.5873 20.1138 63.3217 19.8787 63.0847C19.4768 62.7018 19.1652 62.2343 18.9663 61.716H18.9359ZM30.4931 76.5885C30.2391 76.5289 29.9938 76.4369 29.7632 76.3148C29.1267 75.9545 28.3817 75.8357 27.6647 75.9802C26.5394 76.2235 25.3836 76.3451 24.2279 76.5276H23.8629C23.9602 76.7248 24.1213 76.8832 24.3201 76.9771C24.519 77.071 24.7437 77.0948 24.9578 77.0447C26.8189 77.105 28.6799 76.921 30.4931 76.4972C30.4931 76.8014 30.4932 77.0143 30.2194 77.0751L28.8509 77.3184L26.6306 77.7441C26.8365 77.9802 27.0955 78.164 27.3863 78.2803C27.6771 78.3967 27.9914 78.4422 28.3033 78.4132C29.7328 78.4132 31.1622 78.1092 32.5613 77.9267C32.8654 77.9267 33.1696 77.7441 33.5042 78.1395C32.4397 78.5045 31.3751 78.5957 30.189 78.9911C31.1914 79.4382 32.287 79.6364 33.3825 79.569C34.5991 79.4169 35.8156 79.1432 37.0321 78.9303L33.717 77.8962L30.4931 76.5885ZM1.66079 52.5006C1.66079 52.166 1.66079 51.8315 1.66079 51.497H1.47832V52.5006C1.40043 53.724 1.49254 54.9523 1.75203 56.1503C2.01155 58.1723 2.77494 60.0965 3.97219 61.7465C5.08687 63.1747 6.28533 64.5356 7.5611 65.8219C9.26747 67.6057 11.1644 69.1967 13.2181 70.5665C14.4346 71.4181 15.7424 72.1176 16.9286 72.9996C17.5445 73.4701 18.3169 73.6877 19.0879 73.6079C19.5132 73.578 19.9401 73.578 20.3653 73.6079L21.9164 73.7904V73.9728C21.1865 74.3682 20.2741 73.9729 19.3921 74.3987C19.6962 74.6724 19.9091 74.8548 20.2741 74.7027C20.4532 74.6101 20.6505 74.5582 20.852 74.5507L24.0454 74.8244L24.4712 75.0373C23.4204 75.3136 22.3314 75.4164 21.2474 75.3415C21.3866 75.5789 21.5956 75.7676 21.8459 75.8819C22.0963 75.9962 22.3758 76.0305 22.6464 75.9802L27.2085 75.5848H27.6039L26.8131 75.1286C25.5053 74.4595 24.1367 73.7904 22.8289 73.0604C22.2123 72.7322 21.6224 72.3559 21.0648 71.9352C20.7911 71.9352 20.6086 71.6005 20.8215 71.2051L21.3386 71.4181C22.9915 72.614 24.7652 73.6333 26.6306 74.4595C28.3338 75.2198 30.0065 76.0714 31.7401 76.771C35.126 78.0381 38.6168 79.0049 42.1721 79.6602C42.4847 79.7064 42.8023 79.7064 43.1149 79.6602C43.4427 79.6436 43.7689 79.7173 44.0578 79.8731C44.3922 80.1033 44.7788 80.2462 45.1826 80.2887C45.5863 80.3312 45.9942 80.272 46.3692 80.1165C46.6082 79.9582 46.8886 79.8738 47.1752 79.8738C47.4619 79.8738 47.7421 79.9582 47.9812 80.1165L48.407 80.2685C49.5019 80.4206 50.5664 80.6335 51.6613 80.7552C54.5833 81.0584 57.5289 81.0584 60.4509 80.7552L62.519 80.4206C61.395 80.3445 60.2671 80.3445 59.1431 80.4206C57.2429 80.5116 55.3384 80.4199 53.4557 80.1469C53.238 80.1399 53.025 80.0811 52.8346 79.9753C52.6442 79.8695 52.4817 79.7198 52.3608 79.5386C52.2736 79.415 52.1435 79.3282 51.9958 79.2953L50.171 79.0216C50.9617 79.4778 51.1138 79.569 51.205 79.8123H50.7184C49.6235 79.6299 48.4982 79.4778 47.4337 79.204C45.4872 78.7174 43.5711 78.1699 41.6247 77.6529C38.8015 76.7384 36.0639 75.5783 33.4433 74.1857C31.5457 73.233 29.7074 72.1667 27.9384 70.9923C25.1909 69.3569 22.666 67.3737 20.4261 65.092C19.4529 64.0579 18.4797 62.9935 17.5369 62.0506C16.9894 61.4728 16.442 60.8948 15.9249 60.2561C15.4079 59.6174 14.7388 58.7963 14.1001 58.0055C14.7388 58.0055 14.6475 58.7355 15.2558 58.5834L13.4005 56.1503C13.2485 55.9374 13.066 55.7853 12.9443 55.6028C12.0927 54.1733 11.2411 52.7439 10.3591 51.3449C10.0854 50.8582 9.78124 50.4021 9.4771 49.9458H9.29463C9.56835 50.4933 9.84207 51.1016 10.1462 51.649C11.1195 53.261 12.1231 54.8729 13.1876 56.4848C13.3055 56.6266 13.3821 56.7981 13.4089 56.9805C13.4357 57.163 13.4118 57.3492 13.3397 57.5189C13.1961 57.4054 13.0814 57.2596 13.0051 57.0931C12.3969 56.1807 11.7278 55.2683 11.1195 54.3255C10.1525 52.883 9.31774 51.3561 8.62552 49.7634C8.01724 48.3035 7.409 46.722 6.77031 45.3838C6.65628 45.1796 6.52393 44.9861 6.37492 44.8059C5.52333 45.2925 5.52334 45.2925 5.91873 45.9616C6.19179 46.4013 6.4356 46.8585 6.64863 47.3302C7.34815 49.003 8.04765 50.7062 8.71676 52.3789C8.91702 53.0322 9.18195 53.6639 9.50755 54.2647C10.5112 55.8766 11.6061 57.4581 12.5489 59.07L13.5526 60.5907C13.2788 60.317 12.9747 60.0737 12.7314 59.7999C12.0319 58.9179 11.3324 58.0663 10.6937 57.1539C9.99318 56.1926 9.37263 55.1754 8.83844 54.1125C7.86519 51.9531 7.01362 49.7329 6.1012 47.5431C5.82701 46.9239 5.44613 46.3577 4.9759 45.8704C4.64135 46.357 4.9759 46.722 4.9759 47.0261C5.64501 48.5772 6.37489 50.0675 7.01358 51.6795C7.37855 52.531 7.68271 53.413 7.98685 54.295C8.0781 54.4124 8.12765 54.5569 8.12765 54.7056C8.12765 54.8543 8.0781 54.9988 7.98685 55.1162C7.34816 53.626 6.7703 52.0748 6.19244 50.7974C5.61458 49.52 4.91504 47.9081 4.18511 46.4178L3.516 46.874C4.09386 48.2122 4.64134 49.4896 5.24962 50.767C5.99095 51.9904 6.45785 53.3602 6.61819 54.7816C6.50642 54.669 6.40473 54.5469 6.31412 54.4167C5.52336 52.5919 4.70213 50.7366 3.88095 48.9118C3.65728 48.4494 3.40328 48.0024 3.1206 47.5736C3.1206 47.5736 2.87728 47.391 2.72521 47.3302C2.76659 47.7303 2.83777 48.1268 2.93813 48.5164C3.51599 50.1587 4.09391 51.8011 4.70219 53.4434C4.97591 54.2342 5.34084 54.9642 5.61457 55.7549C5.88829 56.5457 5.79704 56.4848 5.88828 56.8498H5.73625C5.73625 56.8498 5.43213 56.6674 5.3713 56.5457C5.31047 56.424 4.91502 55.542 4.73254 55.025C4.03302 53.0177 3.33355 51.0104 2.60362 48.9422C2.53411 48.794 2.45269 48.6515 2.36025 48.5164C2.55183 52.1482 3.2269 55.7383 4.36759 59.1917C3.8251 58.7063 3.46102 58.0531 3.33352 57.3364C2.93814 55.8461 2.54278 54.295 2.11698 52.896C1.9345 52.7743 1.78239 52.6527 1.69114 52.5006H1.66079ZM113.584 38.0844C113.663 37.8356 113.724 37.5815 113.767 37.3241C113.767 37.0504 113.767 36.7462 113.767 36.4725C114.475 32.9999 114.608 29.4347 114.162 25.9189C113.888 23.5466 113.493 21.2351 113.037 18.8932C112.763 17.4334 112.246 16.0039 111.911 14.5136C111.539 12.9299 110.998 11.3903 110.299 9.9211C109.509 8.24833 108.839 6.51476 108.17 4.81158C107.769 3.65206 107.09 2.60807 106.193 1.77019C106.011 1.5877 105.859 1.37475 105.463 1.52682C106.102 2.65214 106.68 3.74709 107.319 4.81158C108.383 6.76309 109.288 8.79728 110.026 10.8944C110.421 12.0197 110.725 13.1754 111.09 14.3007C111.455 15.426 111.668 15.8518 111.911 16.6425C112.307 17.9503 112.55 19.2582 112.824 20.5964C113.022 21.5107 113.175 22.4344 113.28 23.3641C113.28 24.1853 113.28 25.0064 113.462 25.858L113.645 29.1123C113.679 29.49 113.605 29.8697 113.432 30.2072C113.281 29.9372 113.197 29.6345 113.189 29.3252C113.189 28.3215 113.189 27.2875 112.976 26.2838C112.793 24.7327 112.58 23.2424 112.337 21.6609C112.337 20.9006 112.033 20.1402 111.881 19.3799C111.841 19.1218 111.78 18.8674 111.698 18.6195C111.273 17.5246 111.12 16.3689 110.603 15.274C110.086 14.1791 109.296 12.0501 108.596 10.4685C108.123 9.42732 107.595 8.41208 107.015 7.42713C106.406 6.30182 105.737 5.23734 105.099 4.11203C104.794 3.56457 104.49 2.98675 104.156 2.4393C103.821 1.89185 103.7 1.73973 102.97 2.01346C102.24 2.28718 101.266 2.80423 100.415 3.1692L95.0924 5.35901L90.8953 7.06218L88.0667 8.33961L86.8806 8.91748L83.8392 10.3165C82.6227 10.8335 81.3757 11.3505 80.1591 11.8067C78.9426 12.263 77.5131 12.78 76.2053 13.2666L74.4109 14.027L73.1943 14.5136C71.7345 15.0915 70.1529 15.3044 68.7235 15.8519C67.294 16.3993 66.4728 16.6122 65.3779 17.0684C64.283 17.5246 63.5227 17.8591 62.5799 18.2545L61.8499 18.4978C61.5973 18.5477 61.352 18.6294 61.12 18.7411L58.6565 19.7448L54.6114 21.3871L51.57 22.6037C49.7147 23.3033 47.7987 23.8811 46.0043 24.7631L40.7426 27.3483C40.1952 27.622 39.6478 27.8957 39.1003 28.2303C38.0359 28.8689 36.9713 29.5685 35.9068 30.2376C34.8423 30.9067 33.6562 31.7887 32.5005 32.4578C31.5446 33.0813 30.525 33.6013 29.4591 34.009L29.1246 34.2218C28.6379 34.4651 28.1817 34.7692 27.6951 34.9821C26.661 35.4384 25.627 35.8338 24.6537 36.2596C22.9867 37.0015 21.2562 37.5918 19.4833 38.0235C18.7838 38.1756 18.0538 38.2973 17.3543 38.4798C16.6548 38.6623 15.864 38.9056 15.1037 39.1185H14.9517L15.5295 39.5442C13.6901 40.1784 12.0166 41.2178 10.6328 42.5856L11.6974 44.4105C12.5185 45.8704 13.2788 47.4519 14.1304 48.7597C14.982 50.0675 16.2595 52.2268 17.4152 53.8996C18.4835 55.4557 19.6411 56.9485 20.8823 58.3705C21.897 59.4459 22.9735 60.4615 24.1062 61.4119C24.7753 61.9897 25.5661 62.5068 26.2657 63.0542L27.2388 63.845L29.7024 65.7611C30.7973 66.5519 31.8618 67.4035 32.9871 68.1334C34.1124 68.8633 35.7243 69.6237 37.0626 70.4145C38.8858 71.5239 40.8499 72.3831 42.9021 72.9692C44.2403 73.3342 45.5785 73.7904 46.9471 74.125C48.3157 74.4595 49.5931 74.642 50.9313 74.8549C52.2695 75.0678 53.9727 75.3415 55.4022 75.5544C57.1385 75.8635 58.9004 76.006 60.6638 75.9802L65.1954 75.7369C68.5412 75.5386 71.8723 75.1425 75.1712 74.5507C77.2325 74.1895 79.2653 73.6813 81.254 73.03C83.1915 72.5226 85.0757 71.8301 86.8806 70.9619C88.3709 70.1711 89.922 69.6541 91.4731 68.8633C92.6841 68.2064 93.8341 67.443 94.9098 66.5823C96.1264 65.6394 97.2518 64.5749 98.4075 63.5409C99.5632 62.5068 100.688 61.3511 101.783 60.2258C102.878 59.1004 103.73 58.0664 104.825 56.9715C105.099 56.6673 105.555 56.424 105.646 56.0591C105.954 55.3816 106.299 54.7215 106.68 54.0821L107.562 52.1661C108.723 50.0477 109.74 47.8529 110.603 45.5967C110.908 44.7755 111.212 43.9847 111.485 43.1939C111.759 42.4032 112.063 41.4908 112.337 40.6696C112.542 40.0528 112.704 39.4228 112.824 38.7839C113.067 36.8374 113.249 34.891 113.462 32.9749C113.449 32.7887 113.49 32.6025 113.582 32.4401C113.674 32.2777 113.813 32.1462 113.979 32.0624C113.993 32.1328 113.993 32.205 113.979 32.2754C114.006 32.5586 114.006 32.8437 113.979 33.1269C113.858 34.5868 113.584 36.3204 113.584 38.0844ZM56.9533 79.0216C57.2657 79.0706 57.5838 79.0706 57.8961 79.0216C59.0689 78.6735 60.2968 78.5497 61.5154 78.6566C62.0117 78.6871 62.5093 78.6871 63.0056 78.6566C65.1334 78.5394 67.2488 78.2547 69.3318 77.805C70.9741 77.3792 72.6773 77.075 74.3501 76.7101L76.6007 76.1626C77.209 76.0106 77.8477 75.9194 78.4255 75.7369C80.2808 75.1894 82.1056 74.642 83.9304 74.0033C85.0298 73.6831 86.0984 73.2658 87.1239 72.7563C88.2938 72.1253 89.4308 71.435 90.5303 70.6882L94.9098 67.6468C94.9798 67.63 95.0528 67.63 95.1227 67.6468C96.0261 67.3089 96.8457 66.7798 97.5255 66.0956C99.1982 64.6358 100.871 63.0543 102.453 61.564C103.723 60.3441 104.902 59.0327 105.981 57.6406C106.994 56.234 107.928 54.7718 108.779 53.2609C109.721 51.6186 110.543 49.885 111.485 48.2427C112.679 45.9636 113.608 43.5553 114.253 41.0649C114.766 39.3215 115.083 37.526 115.196 35.7121C115.196 34.6172 115.439 33.5223 115.561 32.4578C115.683 31.3933 115.835 30.6025 115.865 29.6597C115.895 28.7169 115.865 27.8045 115.865 26.8617C115.877 25.0194 115.672 23.182 115.257 21.3871C114.831 19.836 114.466 18.3457 113.949 16.7338C113.432 15.1218 112.611 13.2362 111.911 11.5026C111.778 11.2093 111.625 10.9249 111.455 10.651C111.466 10.9631 111.527 11.2713 111.637 11.5635C112.002 12.6888 112.398 13.7837 112.732 14.909C113.067 16.0343 113.128 16.7338 113.432 17.6158C113.859 18.9213 114.154 20.2662 114.314 21.6305C114.648 23.6074 114.831 25.6147 115.074 27.7133C115.328 30.0519 115.277 32.4134 114.922 34.7389C114.649 36.7766 114.284 38.7839 113.919 40.8217C113.71 41.849 113.446 42.8643 113.128 43.8631C112.793 44.8971 112.367 45.8704 111.942 46.9044C111.729 47.3911 111.485 47.8777 111.242 48.3643L109.356 51.7707C109.251 51.9261 109.129 52.0689 108.991 52.1964H108.839C109.235 51.3144 109.569 50.4325 109.995 49.5809C110.421 48.7293 110.938 47.8472 111.364 46.9652C111.743 46.1111 112.078 45.2381 112.367 44.3497C112.894 42.897 113.241 41.3853 113.402 39.8484C113.292 40.1365 113.201 40.4311 113.128 40.7304L112.215 43.2244C111.729 44.5626 111.273 45.9007 110.725 47.239C110.178 48.5772 109.6 49.4288 109.083 50.5845C108.233 52.4713 107.279 54.3091 106.224 56.0894L105.95 56.4544C105.19 57.306 104.369 58.1272 103.699 59.0396C102.525 60.5578 101.234 61.9814 99.837 63.2975C98.1461 64.9389 96.3367 66.4536 94.4233 67.8292C92.9087 69.0524 91.2424 70.0746 89.4658 70.8706C88.7359 71.1748 87.9755 71.4789 87.276 71.8439C85.9929 72.5337 84.6218 73.0453 83.2005 73.3646H82.9876C81.5582 73.7904 80.1591 74.2466 78.7297 74.6419C77.8072 74.8812 76.8733 75.0741 75.9316 75.2198C74.1067 75.5239 72.2819 75.8585 70.4571 76.1018C68.6323 76.3452 67.5982 76.2843 66.1687 76.3451C65.3171 76.3451 64.4655 76.3451 63.614 76.3451C62.7624 76.3451 62.0628 76.558 61.272 76.6188C59.7458 76.7861 58.2059 76.7861 56.6796 76.6188C55.1589 76.3451 53.6381 76.1931 52.0566 75.9194C50.4751 75.6456 48.4374 75.311 46.6429 74.9156C45.4872 74.6723 44.3923 74.2466 43.267 73.912C42.1417 73.5775 41.4118 73.3949 40.5298 72.9996C39.6478 72.6042 38.34 71.9655 37.2755 71.4181L35.2074 70.2928C34.812 70.0495 34.447 69.7758 34.0212 69.5629C32.6634 68.8573 31.3709 68.0329 30.1586 67.0993C28.927 65.9649 27.5933 64.9468 26.1744 64.0579C25.5357 63.5104 24.8666 62.9934 24.2583 62.4156C23.3969 61.787 22.6289 61.0395 21.9773 60.1953C21.8155 59.903 21.5986 59.6448 21.3386 59.435C20.6579 58.8738 20.0725 58.2062 19.605 57.4581C19.521 57.3138 19.4188 57.1809 19.3008 57.0627C18.7838 56.4848 18.206 55.907 17.7193 55.2683C16.7765 53.9605 15.8336 52.6527 14.982 51.2841C14.1304 49.9154 13.0051 47.9994 11.9406 46.357C11.5757 45.7487 11.2108 45.1709 10.8762 44.5626C10.5417 43.9543 10.2679 43.2851 9.96374 42.6769C9.84758 42.5303 9.71489 42.3977 9.56834 42.2816L8.71676 43.1332C8.32137 43.5894 8.32137 43.5893 8.71676 44.1368L10.9675 47.969C11.9407 49.6113 12.8835 51.2536 13.8567 52.8656C14.2521 53.5651 14.6779 54.2342 15.1341 54.9033C16.0161 56.1503 16.8373 57.3972 17.7801 58.5834C18.723 59.7695 19.5442 60.5299 20.4566 61.6248L25.0795 66.5518C25.2315 66.7343 25.4141 66.9472 25.4141 67.1297C25.4141 67.3122 25.1708 67.4643 25.0491 67.6468L25.5053 68.0422C25.6711 68.2467 25.8872 68.4047 26.1325 68.5007C26.3777 68.5966 26.6437 68.6273 26.9043 68.5896C27.1172 68.5896 27.391 68.5896 27.6039 68.8633C27.8168 69.137 28.6075 69.5932 29.1549 69.8974C29.7024 70.2015 30.9493 70.7489 31.8009 71.2051C32.8697 71.6064 33.89 72.1267 34.8423 72.7563C35.0159 72.8832 35.212 72.9761 35.4202 73.03L38.9482 74.277L40.8035 75.0373C42.0683 75.6008 43.3814 76.0487 44.7268 76.3756C45.548 76.3756 46.3693 76.558 47.1905 76.7405C48.4678 77.0142 49.7148 77.3487 50.9922 77.6529L53.4253 78.17L56.4667 78.6566C56.4971 78.2308 56.862 78.3829 56.8316 79.0216H56.9533ZM41.2293 79.7211L39.1003 79.2345C38.9191 79.2038 38.734 79.2038 38.5528 79.2345L36.0589 79.8123L35.0552 80.1165C37.0017 80.9377 38.8874 80.1165 40.8035 80.1165C40.9184 79.9847 41.0203 79.8421 41.1077 79.6907L41.2293 79.7211ZM47.312 80.1469C47.1296 80.6335 46.7038 80.5727 46.278 80.5727H45.913L43.6928 80.9376L43.2975 81.0897C45.1317 81.4378 47.0238 81.3228 48.8024 80.7552V80.603L47.312 80.1469ZM104.46 1.43558C105.038 2.37842 105.524 3.38208 106.041 4.47698C106.558 5.57188 107.258 6.39306 107.866 7.3359C107.032 5.20989 105.884 3.221 104.46 1.43558ZM81.2844 75.5544C80.9465 75.6943 80.6013 75.8161 80.2504 75.9194L74.3196 77.4096C74.1718 77.4682 74.0294 77.5395 73.8939 77.6225V77.805C76.4953 77.4746 79.0237 76.714 81.3757 75.5544H81.2844ZM73.4072 77.7746H73.0119C71.9087 78.0388 70.7918 78.2419 69.6663 78.3829C68.9027 78.4354 68.1578 78.6423 67.4765 78.9911C69.5487 79.0318 71.6046 78.6165 73.4985 77.7746H73.4072ZM47.5554 81.7284C48.9565 81.8869 50.3745 81.6662 51.6613 81.0897C51.1734 80.8934 50.6285 80.8934 50.1406 81.0897L48.4678 81.5155L47.5554 81.7284ZM45.0614 77.0142C46.9845 77.5175 48.934 77.9135 50.901 78.2004C49.0288 77.6159 47.1033 77.2185 45.1527 77.0142H45.0614ZM13.2181 39.6051C12.0963 39.9554 11.0074 40.4032 9.96374 40.9433C10.1158 41.5516 10.2983 41.6428 10.6633 41.3083C11.305 40.694 12.0587 40.2087 12.8835 39.8788C12.8835 39.8788 13.2181 39.7572 13.2181 39.6051ZM40.9555 80.4815V80.6639C41.8914 80.654 42.822 80.5211 43.7232 80.2685C42.8412 79.6907 41.9593 80.4206 41.0164 80.4815H40.9555ZM42.1721 77.0142V76.8013L39.4957 75.9497V76.1018L42.1721 77.0142ZM48.2549 78.5654L45.8218 78.0483V78.2004L48.2549 78.5654ZM58.5044 81.6068C57.8049 81.3026 57.7744 81.3026 57.379 81.85L58.5044 81.6068ZM32.3484 72.4826C32.0747 71.9047 32.0443 71.8743 31.5881 72.1784C31.6675 72.2915 31.783 72.3743 31.9156 72.413C32.0483 72.4517 32.1902 72.4441 32.318 72.3913L32.3484 72.4826ZM110.543 9.55615H110.695L110.117 8.36996H109.965L110.543 9.55615ZM62.0628 79.5082H63.8269H62.0628ZM39.6173 80.8464V81.0593H40.104C40.104 81.0593 40.104 81.0593 40.104 80.816L39.6173 80.8464ZM44.0882 77.5617H43.6928H44.0882ZM49.0152 78.8086H48.7719C48.7719 78.8086 48.9849 78.7782 49.0761 78.8086H49.0152Z" fill="#49535E"/>
<path d="M60.0858 41.581C60.2982 42.4194 60.2982 43.2974 60.0858 44.1358C59.8871 44.5837 59.6637 45.0203 59.4167 45.4436C58.7795 46.5601 57.9915 47.5836 57.0749 48.485C56.8377 48.7873 56.7187 49.1658 56.7403 49.5495C57.4358 49.8136 58.2041 49.8136 58.8996 49.5495C59.4387 49.403 60.0077 49.4078 60.5442 49.5634C61.0807 49.719 61.5639 50.0193 61.941 50.4315C62.5989 51.0501 63.4237 51.4624 64.3133 51.6176C65.0805 51.7353 65.8642 51.6848 66.6099 51.4694C67.3557 51.2541 68.0457 50.8791 68.6321 50.3706C68.9206 50.1965 69.2413 50.0828 69.5749 50.0361C70.7615 49.916 71.9601 50.0296 73.103 50.3706C73.6421 50.4889 74.2058 50.4022 74.6845 50.1273C75.2849 49.7812 75.8547 49.3844 76.3876 48.9412L77.3913 48.2112C77.7563 47.9679 78.0908 47.6942 78.4862 47.4813C78.8398 47.3279 79.2062 47.2058 79.5811 47.1164C79.812 47.0697 80.0498 47.0697 80.2806 47.1164C81.4549 47.1796 82.6151 46.8359 83.5654 46.1431C83.6974 46.0669 83.8114 45.9631 83.8999 45.839L85.2381 43.3754C85.4206 43.1017 85.5726 42.7976 85.7855 42.5238C85.8369 42.4656 85.9001 42.4189 85.9709 42.3869C86.0417 42.355 86.1185 42.3385 86.1961 42.3385C86.2738 42.3385 86.3506 42.355 86.4214 42.3869C86.4922 42.4189 86.5554 42.4656 86.6068 42.5238L84.5994 46.0823C84.4999 46.2648 84.3654 46.4259 84.2037 46.5563C84.0419 46.6868 83.856 46.7841 83.6566 46.8427C83.1092 47.0556 82.5921 47.3596 82.0447 47.6334C81.2765 47.8303 80.4709 47.8303 79.7027 47.6334C79.5422 47.5886 79.372 47.5937 79.2144 47.648C79.0569 47.7024 78.9196 47.8033 78.8208 47.9375C77.8415 49.0981 77.284 50.556 77.2392 52.0739C77.2392 53.1079 77.2392 54.1724 77.2392 55.1153C77.2392 55.2673 77.2392 55.389 77.2392 55.5714C76.5133 53.62 76.4387 51.4861 77.0264 49.4887L75.4448 50.7052C74.8873 51.0926 74.2362 51.3236 73.5592 51.3743C73.2974 51.3828 73.0372 51.3308 72.7988 51.2223C72.0401 50.9787 71.2528 50.8355 70.457 50.7964C70.457 50.7964 70.457 50.9789 70.457 51.0094C71.0348 51.5264 71.0044 52.3171 71.2173 52.9558C71.4664 53.8045 71.5793 54.6874 71.5518 55.5714C71.4432 56.0968 71.2479 56.6004 70.974 57.0617C71.3085 57.0617 71.6735 56.6663 71.9168 57.2137C72.7663 55.501 73.2235 53.6204 73.255 51.7088C73.6808 51.7088 73.6808 52.0434 73.6808 52.2867C73.6954 54.0366 73.3323 55.7691 72.6163 57.3659C72.24 58.1925 71.678 58.921 70.974 59.4948C70.7002 59.4948 70.7611 59.2211 70.974 59.0082L71.856 57.7004L71.4302 57.9437C70.9132 58.3391 70.4569 58.7953 69.9399 59.1603C69.4903 59.4572 68.947 59.578 68.4139 59.4994C67.8808 59.4209 67.3955 59.1484 67.0506 58.7344L66.6856 58.3391L66.4119 58.1262C66.2754 58.6652 66.2754 59.2296 66.4119 59.7686C66.4119 60.316 66.9897 60.5593 67.3547 60.9547C67.1475 60.9958 66.9328 60.9745 66.7378 60.8932C66.5429 60.812 66.3765 60.6746 66.2598 60.4985C65.8888 59.9546 65.7169 59.2992 65.7732 58.6432C65.8855 56.8429 66.3614 55.0841 67.1722 53.4729C67.3243 53.1992 67.4459 52.9254 67.8413 52.895C67.9859 52.8551 68.1138 52.7698 68.2063 52.6516C68.5712 52.2563 68.8754 51.8306 69.3012 51.3135C69.1492 51.3135 69.0275 51.3135 68.9666 51.3135C68.0571 51.8592 67.0876 52.298 66.0774 52.6213C66.0296 52.6432 65.9777 52.6544 65.9252 52.6544C65.8727 52.6544 65.8209 52.6432 65.7732 52.6213C64.5253 52.6018 63.3061 52.2445 62.2452 51.5872C62.0117 51.4186 61.7975 51.2248 61.6065 51.0094C61.3356 50.7357 61.0056 50.5276 60.6419 50.401C60.2781 50.2745 59.8902 50.2329 59.5079 50.2794C59.5079 50.2794 60.1162 50.5836 60.2075 50.8269C60.3131 51.0665 60.3675 51.3254 60.3675 51.5872C60.3675 51.849 60.3131 52.108 60.2075 52.3476L58.8388 55.3585C58.7329 55.4949 58.6103 55.6175 58.4739 55.7235C58.1393 55.7235 58.2001 55.3586 58.3217 55.1153L59.5079 52.6516C59.6493 52.4515 59.7252 52.2125 59.7252 51.9674C59.7252 51.7223 59.6493 51.4832 59.5079 51.2831C59.1734 52.2259 58.8693 53.1383 58.5043 54.0508C58.1393 54.9632 57.744 55.8756 57.3486 56.788C57.2339 56.9901 57.0904 57.1745 56.9227 57.3354C56.649 57.6396 56.1624 57.7613 56.0407 58.2479C55.919 58.7345 55.7671 58.4304 55.6454 58.4304C54.9938 58.4251 54.3434 58.3742 53.6989 58.2782C53.386 58.1641 53.1118 57.9638 52.9081 57.7004C52.7318 57.4408 52.5792 57.166 52.4519 56.8792H52.2694C52.2694 57.0617 51.9653 57.2442 51.7828 57.0617C51.7368 56.9889 51.7125 56.9045 51.7125 56.8184C51.7125 56.7323 51.7368 56.6479 51.7828 56.5751C52.5586 54.5929 53.7043 52.7764 55.1588 51.2223C55.3591 51.0712 55.5729 50.9389 55.7974 50.8269C55.7274 51.227 55.5237 51.5916 55.2196 51.8609C54.9704 52.1206 54.7368 52.3948 54.52 52.6821C55.0675 52.2867 55.615 51.861 56.1928 51.496C56.7707 51.131 57.4094 50.8573 58.0177 50.4315H56.9836C56.2841 50.4315 55.9799 50.0057 56.0711 49.2757C56.1656 48.5616 56.5105 47.9042 57.0444 47.4205C57.9443 46.3914 58.7013 45.2456 59.295 44.0141C59.5457 43.6278 59.6581 43.1679 59.6139 42.7095C59.5697 42.2511 59.3716 41.8211 59.0517 41.4898C58.9645 41.3925 58.8617 41.3102 58.7476 41.2464C57.9302 40.7362 57.0642 40.3083 56.1624 39.9691C55.1669 39.7222 54.1465 39.5896 53.121 39.5737C52.626 39.5141 52.1257 39.5141 51.6307 39.5737C51.049 39.6951 50.4484 39.6951 49.8667 39.5737C49.6152 39.5287 49.3578 39.5287 49.1063 39.5737L46.3691 40.1516L45.183 40.5165C44.3314 40.8207 43.5102 41.1553 42.6586 41.5202L40.9859 42.2806C39.7857 42.821 38.8159 43.7692 38.2486 44.9569C37.9749 45.5652 37.5795 46.1735 37.3058 46.8122C37.0579 47.3733 36.8545 47.9529 36.6975 48.5458C35.9827 50.3195 35.7721 52.2562 36.0892 54.142C36.2111 55.214 36.5528 56.2494 37.0929 57.1834C37.4434 57.928 38.0176 58.5446 38.7353 58.9473C38.7353 58.6736 38.7353 58.4303 38.9177 58.187C39.0539 57.1302 39.362 56.1028 39.8301 55.1456C40.0517 54.5102 40.337 53.8988 40.6817 53.3208C41.2596 52.4387 41.8679 51.5568 42.5066 50.7356C42.6897 50.5303 42.9356 50.3912 43.206 50.3402C43.333 50.331 43.4564 50.2934 43.5669 50.2303C43.6774 50.1671 43.7724 50.08 43.8448 49.9753C44.6233 48.7666 45.5882 47.6888 46.7037 46.7818C46.7037 46.7818 46.7037 46.7818 46.8862 46.5385L46.4908 45.7173C46.1258 45.991 45.8217 46.204 45.5479 46.4473C44.5463 47.3167 43.6936 48.344 43.0235 49.4887C43.0235 49.4887 42.7802 49.4887 42.6586 49.4887C42.5932 49.3016 42.5814 49.1 42.6243 48.9065C42.6673 48.7131 42.7635 48.5355 42.902 48.3937C43.9969 47.2988 45.0005 46.1431 45.9433 45.0482C46.4214 44.5703 46.9293 44.1234 47.464 43.71H47.7986C47.9824 43.671 48.1576 43.5988 48.3156 43.4971C48.8398 43.0703 49.4573 42.7734 50.118 42.6307C50.7787 42.488 51.4638 42.5035 52.1174 42.6759C53.1835 42.8899 54.1776 43.3714 55.0066 44.075C55.2195 44.2271 55.4628 44.3182 55.767 44.5007C55.4324 45.5956 54.1855 45.5653 53.5468 46.356L53.7597 46.8427C52.173 47.4931 50.7801 48.5404 49.7146 49.8841C49.7146 49.1541 49.7146 49.0628 51.4178 47.6334H50.9008C50.4821 47.654 50.0653 47.7049 49.6538 47.7855C49.0095 47.9285 48.3348 47.8197 47.7681 47.4813C47.6236 47.3913 47.4512 47.357 47.2832 47.385C47.1153 47.413 46.9632 47.5013 46.8557 47.6334C46.217 48.2416 45.5784 48.8499 45.0005 49.519C44.18 50.4437 43.4752 51.4651 42.902 52.5604L42.6586 52.743C42.324 52.2564 42.6586 51.8913 42.6586 51.4351C42.4153 51.7392 42.1112 52.0434 41.8679 52.3779C40.8685 53.8701 40.0899 55.4989 39.5564 57.2137C39.3981 57.8947 39.2863 58.5858 39.2218 59.282C39.189 59.4506 39.2169 59.6254 39.3003 59.7756C39.3838 59.9258 39.5175 60.0418 39.6781 60.1031C40.173 60.3172 40.6809 60.5 41.1988 60.6505C41.9909 60.818 42.8093 60.818 43.6014 60.6505C43.5658 59.7226 43.7981 58.804 44.2705 58.0045C44.3002 57.8847 44.3002 57.7594 44.2705 57.6396C44.2163 56.6713 44.4491 55.7085 44.9396 54.8719C45.7256 53.1478 46.6835 51.5073 47.7986 49.9753C47.99 49.7227 48.2151 49.4976 48.4677 49.3062C48.711 49.732 48.4677 50.0057 48.3156 50.249C48.1405 50.5347 47.9475 50.8089 47.7378 51.0702C46.6526 52.6268 45.7447 54.2999 45.0309 56.0581C44.9846 56.3094 44.9846 56.5671 45.0309 56.8184C45.0185 57.5516 44.8309 58.2712 44.4834 58.917C44.3487 59.1969 44.2787 59.5035 44.2787 59.8142C44.2787 60.1248 44.3487 60.4315 44.4834 60.7114L47.8898 60.316C47.7215 58.778 48.1457 57.2335 49.076 55.9972C49.1636 56.0926 49.2122 56.2175 49.2122 56.347C49.2122 56.4766 49.1636 56.6013 49.076 56.6967C48.7332 57.4594 48.5077 58.2695 48.4069 59.0995C48.3614 59.3815 48.3614 59.669 48.4069 59.9511C48.4069 60.1608 48.4901 60.3619 48.6384 60.5102C48.7867 60.6585 48.9878 60.7418 49.1976 60.7418L50.11 60.9242C49.8527 60.304 49.776 59.6235 49.889 58.9615C50.0021 58.2996 50.3001 57.6831 50.7487 57.1834C51.0224 57.3963 50.7487 57.5788 50.7487 57.7613C50.5748 58.2793 50.4326 58.8074 50.323 59.3427C50.2717 59.7052 50.3146 60.0747 50.4478 60.4157C50.581 60.7567 50.7999 61.0576 51.0833 61.2893C51.4179 61.6238 51.6915 62.0496 52.0565 62.3537C52.4214 62.6578 52.9993 63.0229 53.6076 63.4486C53.3433 62.8782 53.2271 62.2503 53.2696 61.623C53.3121 60.9958 53.512 60.3894 53.8509 59.8598C53.8509 60.0727 54.003 60.2247 53.8509 60.3768C53.6382 61.2871 53.6382 62.2342 53.8509 63.1445C54.003 63.7224 53.8509 63.7831 54.5504 63.8744H55.0675C54.5712 63.1618 54.3154 62.3094 54.3375 61.4413C54.4863 60.5603 54.8406 59.7268 55.3716 59.0082C55.6757 59.5253 55.3716 59.8293 55.3716 60.1639C55.1789 60.6369 55.0263 61.1253 54.9154 61.6238C54.8554 61.907 54.8686 62.2009 54.9537 62.4776C55.0389 62.7543 55.1932 63.0048 55.402 63.2053C55.5003 63.2969 55.5736 63.4121 55.615 63.5399C55.615 64.0569 55.9799 63.9961 56.4361 63.9048C56.1678 63.3943 56.0053 62.8348 55.9583 62.2599C55.9112 61.6851 55.9807 61.1067 56.1624 60.5593C56.4426 59.8006 56.7677 59.0593 57.1357 58.3391C57.261 58.1449 57.4148 57.9706 57.5918 57.822H57.8352C57.9873 58.1262 57.8351 58.3391 57.6526 58.5824C56.9546 59.6001 56.5448 60.7876 56.4665 62.0192C56.5302 62.9287 56.9063 63.7882 57.531 64.4523C58.6968 65.1416 59.9725 65.6252 61.3023 65.8817C62.2512 66.0248 63.2204 65.9415 64.1308 65.6385H64.9216C66.2642 65.5292 67.5849 65.2323 68.845 64.7564C69.4837 64.6044 70.1224 64.7564 70.7611 64.4827C71.3998 64.209 72.6163 63.9353 73.5287 63.6616L74.5324 63.327L78.2734 62.1712C78.4268 62.0992 78.5699 62.0072 78.6991 61.8975C77.9132 60.5014 77.475 58.9366 77.4217 57.3354C77.407 57.1228 77.407 56.9094 77.4217 56.6967H77.6043L77.878 57.5179C78.1517 58.5824 78.3949 59.6469 78.6687 60.7114C78.7352 60.9341 78.827 61.1483 78.9424 61.3501C78.9743 61.41 79.0178 61.463 79.0703 61.5061C79.1227 61.5492 79.1832 61.5816 79.2481 61.6014C79.3131 61.6212 79.3813 61.628 79.4489 61.6214C79.5165 61.6148 79.582 61.5949 79.6419 61.563L81.1931 60.8939C80.7345 60.77 80.3113 60.5404 79.9574 60.2235C79.6036 59.9066 79.3289 59.5112 79.1553 59.069C78.8258 58.3568 78.6995 57.5674 78.7904 56.788C79.0587 57.1753 79.2545 57.6082 79.3682 58.0654C79.5396 58.5448 79.7429 59.0121 79.9765 59.4644C80.1148 59.6906 80.3007 59.884 80.5213 60.0311C80.7419 60.1781 80.9919 60.2754 81.2539 60.316L82.0142 60.5897C82.9571 60.316 83.8999 60.1031 84.8123 59.7381C85.7248 59.3732 86.181 58.9778 86.8805 58.7041C87.5059 58.3763 88.0633 57.9325 88.5229 57.3963C88.2903 57.1476 88.0242 56.9325 87.7321 56.7575C87.0122 56.3912 86.3726 55.8852 85.8504 55.2691C85.3282 54.6529 84.934 53.9389 84.6907 53.1687C84.1067 51.6635 83.7878 50.0686 83.7478 48.4546C83.7327 48.242 83.7327 48.0285 83.7478 47.8158C83.7478 47.8158 83.7478 47.8159 83.7478 47.5118C83.8751 47.6333 83.9783 47.7777 84.052 47.9375C84.052 48.4241 84.052 48.8803 84.052 49.3365C84.2648 50.9454 84.7159 52.5137 85.3902 53.9899C85.7868 54.7447 86.3608 55.3919 87.063 55.8756L88.7661 56.94C89.009 56.8185 89.2239 56.6475 89.3967 56.438C89.5696 56.2285 89.6967 55.9851 89.7698 55.7235C89.2528 55.4498 88.7357 55.2064 88.2795 54.9327C87.2999 54.3228 86.4888 53.4772 85.9203 52.4731C85.3518 51.4689 85.044 50.3383 85.0252 49.1845C85.0203 47.9849 85.0914 46.7863 85.2381 45.5957C85.2381 45.5957 85.2381 45.5957 85.2381 45.2915C85.2381 45.5957 85.2381 45.7477 85.2381 45.9302C85.2381 46.6905 85.2381 47.4205 85.2381 48.1809C85.1575 49.7255 85.5616 51.2567 86.3938 52.5604C87.1072 53.8134 88.2886 54.7322 89.6786 55.1153C89.8509 55.1661 90.035 55.1611 90.2043 55.101C90.3737 55.0409 90.5197 54.9288 90.6214 54.7807C91.173 54.057 91.8411 53.4301 92.5983 52.9254C93.0778 52.5581 93.5163 52.14 93.9061 51.6785C93.9513 51.5943 93.975 51.5003 93.975 51.4048C93.975 51.3092 93.9513 51.2151 93.9061 51.1309C93.4633 50.0182 93.1668 48.8528 93.0241 47.6638C93.0088 47.4106 93.0088 47.1567 93.0241 46.9035C93.4803 46.9035 93.4803 47.238 93.5411 47.4813C93.8149 48.6371 94.119 49.7928 94.4232 51.0702C94.6567 50.8902 94.8707 50.6864 95.0618 50.4619C96.0819 49.2507 97.0168 47.9702 97.8599 46.6297C98.2552 45.8086 98.7723 45.0482 99.1677 44.227C99.4224 43.6102 99.6458 42.9808 99.8368 42.3414C100.036 41.9906 100.18 41.611 100.263 41.2161C100.415 39.7562 100.506 38.1747 100.567 36.8365C100.536 36.427 100.475 36.0204 100.384 35.6199C100.232 34.9812 100.171 34.9204 99.411 34.5554C99.1373 34.89 98.8332 35.2549 98.5899 35.6199C98.4956 35.7301 98.4438 35.8703 98.4438 36.0153C98.4438 36.1603 98.4956 36.3004 98.5899 36.4106C99.0156 37.0189 99.4414 37.6576 99.8976 38.2659C99.8976 38.2659 99.8976 38.4484 99.8976 38.5092C99.8794 38.6798 99.8277 38.8452 99.7456 38.9958C99.7456 38.9958 99.4718 38.9959 99.411 38.7525L98.1337 36.7757C98.0223 36.5963 97.9003 36.4236 97.7686 36.2586L96.4 36.654C96.2176 37.3839 97.1603 37.5664 97.0995 38.2964C96.917 38.2964 96.765 38.2963 96.7042 38.0834C96.0191 37.3768 95.4076 36.6023 94.8794 35.7719C94.1297 34.7105 93.3172 33.6949 92.4462 32.7306C92.2029 32.4264 91.8379 32.1527 92.1117 31.6357C92.72 31.6357 92.7503 32.4873 93.389 32.761C93.2369 32.0615 93.0849 31.4532 92.9328 30.8145C93.2669 30.6231 93.5248 30.3223 93.6628 29.9629C93.7728 29.7103 93.9565 29.4967 94.1898 29.3502C94.4232 29.2037 94.6953 29.1311 94.9706 29.1417C96.7267 29.0113 98.4722 29.5069 99.8976 30.5407C99.8976 30.5407 99.8976 30.7536 99.8976 30.9969L99.259 30.7232C98.2616 30.0848 97.1238 29.6986 95.9439 29.5979C95.4601 29.5231 94.9677 29.5231 94.484 29.5979C94.2711 29.5979 94.119 29.8717 93.7541 30.115C94.0229 30.2203 94.2969 30.3117 94.5752 30.3887L96.3392 30.6929C96.8111 30.7803 97.2429 31.0163 97.5712 31.3665C97.8995 31.7167 98.1072 32.1627 98.164 32.6393C98.164 32.8218 98.164 33.0043 98.164 33.0652L99.7456 33.7343C99.8276 33.604 99.8794 33.457 99.8974 33.3042C99.9153 33.1513 99.8989 32.9964 99.8494 32.8507C99.7998 32.705 99.7183 32.5722 99.6109 32.4619C99.5035 32.3517 99.3729 32.2669 99.2285 32.2136C99.2285 32.2136 99.2285 32.2136 99.046 32.2136C99.0216 32.1612 99.0089 32.104 99.0089 32.0462C99.0089 31.9884 99.0216 31.9313 99.046 31.879C99.046 31.879 99.2589 31.6661 99.3198 31.6965C99.5889 31.7582 99.8533 31.8395 100.111 31.9398L100.384 31.3315C100.567 30.7233 100.78 30.1149 100.932 29.4762C101.076 29.0308 101.178 28.5725 101.236 28.1077C101.275 27.9306 101.247 27.7453 101.157 27.5879C101.067 27.4305 100.922 27.3122 100.749 27.2561C99.9531 26.8459 99.0384 26.7275 98.164 26.9215C97.9207 26.9215 97.647 27.0735 97.4037 26.7086C97.9777 26.3588 98.6516 26.2091 99.3198 26.2828C99.9965 26.3423 100.668 26.4541 101.327 26.6173C101.342 26.354 101.342 26.09 101.327 25.8266C101.28 25.6606 101.171 25.5189 101.023 25.4312C100.333 25.0994 99.5529 25.0032 98.8028 25.1575C98.0728 25.34 97.2516 25.4008 97.0083 26.4045H96.8562C96.8562 25.9787 96.8562 25.5833 96.8562 25.1575C96.8562 24.2451 96.5825 23.8192 95.5788 23.4847C95.8525 23.7888 96.0654 24.0017 96.2479 24.245C96.4108 24.449 96.5254 24.6872 96.5834 24.9417C96.6413 25.1962 96.641 25.4605 96.5825 25.7149C96.524 25.9693 96.409 26.2072 96.2457 26.4108C96.0824 26.6145 95.8753 26.7787 95.6397 26.8911C94.8794 27.2865 94.1494 27.6818 93.3587 28.0468C92.9137 28.2306 92.4563 28.3831 91.99 28.5031C91.5034 28.5031 91.2297 28.5031 91.1688 27.9252C91.1538 27.7735 91.1538 27.6206 91.1688 27.4689C91.3295 25.7436 92.1592 24.1497 93.4803 23.0285C94.0862 22.5542 94.637 22.0135 95.1226 21.4166C95.5003 20.9705 95.9646 20.6057 96.4874 20.3443C97.0102 20.0829 97.5805 19.9304 98.164 19.8959C98.4073 19.8959 98.6811 19.8959 98.8636 20.2C97.8903 20.5042 96.765 20.4738 96.0351 21.3558L95.1226 22.3898C95.3833 22.5163 95.6693 22.582 95.959 22.582C96.2487 22.582 96.5348 22.5163 96.7954 22.3898C97.6768 21.9261 98.6585 21.6859 99.6544 21.6903H100.05C99.9845 21.0963 99.7643 20.53 99.411 20.048C99.2828 19.7614 99.0657 19.5238 98.7917 19.3703C98.5178 19.2169 98.2016 19.1559 97.8903 19.1963C97.3428 19.1963 96.765 19.1963 96.1871 19.1963C95.9397 19.2068 95.6989 19.2801 95.4876 19.4092C94.7072 19.8842 94.034 20.5161 93.5105 21.2647C92.987 22.0134 92.6245 22.8625 92.4462 23.7584C92.3774 23.9322 92.2853 24.096 92.1725 24.245C92.1649 23.0633 92.4918 21.9035 93.1153 20.8996C93.8932 19.8529 94.946 19.0422 96.1567 18.5577C96.6737 19.4092 97.3124 18.5576 97.9511 18.7401C97.4341 17.8581 96.7346 17.5844 95.3963 17.6756C95.3963 17.6756 95.3963 17.4932 95.3963 17.4019C95.3906 17.3311 95.3906 17.2599 95.3963 17.1891C95.1834 16.7025 94.7273 16.672 94.3319 16.672C93.6559 16.5791 92.9702 16.5791 92.2942 16.672C91.716 16.7793 91.1814 17.0518 90.755 17.4567C90.3286 17.8615 90.0286 18.3813 89.8914 18.953C89.7698 19.6627 89.6785 20.3622 89.6177 21.0516C89.4079 22.5285 89.5221 24.0334 89.9523 25.4617C90.3781 26.6782 90.8343 27.8947 91.3209 29.1113C91.736 30.0677 91.8832 31.119 91.7467 32.1527C91.7467 32.7914 91.5338 33.3996 91.3818 34.0383C92.7609 34.852 94.0029 35.8785 95.0618 37.0797C94.6056 37.0797 94.3927 36.9277 94.119 36.7452L91.0776 34.4946C90.7713 34.6098 90.5092 34.8188 90.329 35.092C90.1487 35.3651 90.0594 35.6884 90.0739 36.0153C90.1511 37.0479 90.006 38.085 89.6482 39.0567C89.3572 40.1445 88.7024 41.0997 87.7929 41.7635C87.5618 41.9138 87.3035 42.0172 87.0325 42.0677C86.9609 42.1005 86.8832 42.1174 86.8045 42.1174C86.7257 42.1174 86.6479 42.1005 86.5763 42.0677C86.4242 41.8243 86.5764 41.6723 86.8197 41.581C87.3195 41.4103 87.7407 41.0646 88.0058 40.6078C88.8637 39.452 89.284 38.0295 89.192 36.5931C89.1391 35.942 89.3469 35.2965 89.7698 34.7987C90.3868 34.0854 90.7817 33.2073 90.906 32.2724C91.0303 31.3376 90.8785 30.3868 90.4693 29.5371C90.0131 28.5335 89.6786 27.4994 89.2832 26.4957L89.0095 25.9787L88.7966 26.6478C88.5645 26.5015 88.3678 26.3057 88.2206 26.0743C88.0733 25.8429 87.9792 25.5817 87.945 25.3095C87.7932 23.9465 87.7322 22.5748 87.7625 21.2036C87.7474 20.0212 87.9858 18.8494 88.462 17.767C88.645 17.1871 88.9444 16.6507 89.3419 16.1905C89.7393 15.7303 90.2264 15.356 90.7735 15.0905C91.7674 14.7708 92.7841 14.5267 93.8148 14.3605C94.2247 14.3827 94.6223 14.5084 94.9706 14.7256C95.7918 15.1514 96.5825 15.6683 97.4037 16.0941C98.7008 16.7594 99.8254 17.7174 100.688 18.8923C101.417 19.9542 102.019 21.0973 102.483 22.2986C103.039 23.7312 103.288 25.2648 103.213 26.7998C103.22 27.3029 103.117 27.8015 102.909 28.2597C102.631 28.8052 102.495 29.4119 102.513 30.0238C102.542 30.1745 102.542 30.3292 102.513 30.48C102.307 30.2599 102.165 29.9882 102.101 29.6938C102.036 29.3994 102.053 29.093 102.148 28.8071C102.817 27.0855 102.817 25.1759 102.148 23.4543C101.84 22.4044 101.432 21.3861 100.932 20.413C100.365 19.0114 99.4918 17.7541 98.3769 16.7328C97.4037 16.0941 96.3392 15.5771 95.3355 14.9993C95.156 14.9529 94.9677 14.9529 94.7881 14.9993L92.2334 15.6684C91.5807 15.8607 91.0191 16.2817 90.6518 16.8545C90.1619 17.5322 89.8126 18.3012 89.6246 19.116C89.4365 19.9309 89.4135 20.7752 89.5569 21.599V21.0212C89.5694 20.8186 89.5694 20.6155 89.5569 20.413C89.6428 19.3539 89.9319 18.3213 90.4085 17.3716C90.4378 17.2384 90.5132 17.1199 90.6214 17.037C91.4401 16.2502 92.5275 15.8043 93.6628 15.79C93.8441 15.82 94.029 15.82 94.2102 15.79C94.7532 15.6836 95.3138 15.7112 95.8437 15.8702C96.3736 16.0291 96.8569 16.3148 97.2516 16.7024C97.3565 16.7748 97.4686 16.8359 97.5861 16.8849C98.6152 17.3352 99.4994 18.0615 100.141 18.9835C100.531 19.4897 100.839 20.0542 101.053 20.6562C101.507 21.4753 101.893 22.3296 102.209 23.211C102.752 24.7932 102.918 26.4802 102.696 28.138C102.617 28.9858 102.38 29.8112 101.996 30.5712C101.738 31.1158 101.583 31.7037 101.54 32.3048C101.419 33.4427 101.481 34.5926 101.722 35.7112C101.799 36.561 101.799 37.416 101.722 38.2659C101.729 39.4691 101.566 40.6672 101.236 41.8243C101.068 42.3685 100.854 42.8976 100.597 43.4059C99.9531 44.9081 99.1474 46.3358 98.1945 47.6638C97.5254 48.5154 96.9474 49.4582 96.3392 50.3402L96.0351 50.7964L92.5679 54.1723L91.625 55.1153C90.8647 55.9364 90.1347 56.8488 89.3135 57.6091C87.4623 59.2512 85.2218 60.3924 82.805 60.9242C82.4999 61.0039 82.2042 61.1161 81.923 61.2588C79.8513 62.1707 77.729 62.9627 75.5665 63.6311C74.2587 64.0569 72.9509 64.4827 71.6431 64.8477C71.1823 64.9582 70.7151 65.0395 70.244 65.091L68.6626 65.4255H68.1455L66.2294 65.8514H65.8644C64.6175 65.8514 63.4009 66.1859 62.1539 66.3076C61.029 66.377 59.9059 66.146 58.8996 65.6385L56.5273 64.5739C56.1771 64.4467 55.8041 64.395 55.4325 64.4219C54.2022 64.4628 53.0036 64.0269 52.0869 63.2053C51.5478 62.724 50.9789 62.2772 50.3838 61.8672C49.4165 61.2403 48.2816 60.922 47.1294 60.9547C46.1866 60.9547 45.2742 61.1372 44.3314 61.2588C43.2225 61.426 42.0948 61.426 40.9859 61.2588C39.6826 61.1095 38.4856 60.4676 37.6403 59.4644C36.9196 58.7215 36.3055 57.8822 35.8155 56.9705C35.3175 55.9102 35.0284 54.7641 34.9639 53.5946C34.8652 51.9244 35.0924 50.2508 35.633 48.6674C35.8763 48.0287 35.9675 47.2988 36.2716 46.6905C36.8799 45.5044 37.5491 44.3791 38.2182 43.2234L38.4919 42.9497C39.4692 42.0969 40.5922 41.4272 41.807 40.9727L45.3046 39.6345L45.7609 39.4825L48.6501 38.9654C48.8815 38.9244 49.1183 38.9244 49.3497 38.9654C50.8289 39.0414 52.3109 39.0414 53.7901 38.9654C54.8567 38.9796 55.9027 39.262 56.8315 39.7866C57.0477 39.9461 57.2936 40.0606 57.5548 40.1233C57.816 40.1859 58.0872 40.1956 58.3522 40.1516L59.6904 41.6115L60.0858 41.581ZM50.3533 46.873C51.509 46.873 51.8132 46.6906 52.1782 46.2343H51.0224C50.8697 46.2357 50.7218 46.287 50.6009 46.3803C50.4801 46.4737 50.3931 46.604 50.3533 46.7514H48.9239L50.3533 46.873ZM69.8791 52.3779C69.0379 53.2077 68.4566 54.2646 68.2063 55.4193C68.1143 55.7893 68.1193 56.1768 68.2205 56.5443C68.3217 56.9119 68.5158 57.2471 68.7841 57.5179C69.3316 57.5179 69.575 56.8792 70.0008 56.6055C70.2405 56.4502 70.4326 56.2317 70.556 55.9741C70.6794 55.7165 70.7294 55.4298 70.7002 55.1456C70.7514 54.1374 70.4623 53.1412 69.8791 52.3171V52.3779ZM54.0943 44.6529C53.5157 44.1712 52.8234 43.8456 52.0834 43.7072C51.3434 43.5687 50.5802 43.6221 49.8667 43.8621C49.5527 43.9421 49.2646 44.1017 49.0302 44.3254C48.7958 44.5491 48.623 44.8295 48.5285 45.1395C48.3156 45.7174 48.5285 45.991 49.1976 45.9606C50.6845 45.7283 52.1495 45.3722 53.5772 44.8961L54.0943 44.6529ZM57.6526 52.5604C57.3204 52.6851 57.004 52.8485 56.7098 53.047C56.1155 53.5449 55.5566 54.0835 55.0371 54.659C54.7402 55.0131 54.5038 55.414 54.3375 55.8452C54.155 56.3014 54.3376 56.6663 54.7026 56.9705C55.0675 57.2746 55.25 56.9705 55.4933 56.9705C55.7321 56.8979 55.9516 56.7729 56.1358 56.6045C56.32 56.4361 56.4642 56.2286 56.5578 55.9972C56.7403 55.5106 57.014 55.0544 57.1661 54.5677C57.5321 53.9651 57.7021 53.2637 57.6526 52.5604ZM93.389 27.2864C93.6019 27.2864 93.754 27.2864 93.8453 27.2864L96.3696 26.1003C96.4814 25.9901 96.5649 25.8544 96.613 25.7049C96.6751 25.4558 96.6586 25.1936 96.5661 24.9541C96.4736 24.7146 96.3094 24.5094 96.0959 24.3667C95.8984 24.2615 95.6714 24.2253 95.451 24.2639C95.2306 24.3025 95.0294 24.4136 94.8794 24.5796C94.2197 25.2381 93.7202 26.0393 93.4194 26.9215C93.4194 26.9215 93.4194 27.104 93.389 27.2864ZM95.1835 31.514C95.4932 32.5291 96.0837 33.4358 96.8867 34.1296C96.9653 34.1749 97.0544 34.1989 97.1452 34.1989C97.2359 34.1989 97.3251 34.1749 97.4037 34.1296C97.5925 34.0818 97.7662 33.987 97.9086 33.8541C98.051 33.7212 98.1575 33.5544 98.2182 33.3693C98.2789 33.1842 98.2918 32.9868 98.2557 32.7953C98.2197 32.6039 98.1358 32.4247 98.012 32.2744C97.8072 31.9791 97.5062 31.764 97.1604 31.666C96.5566 31.5709 95.9467 31.5201 95.3355 31.514H95.1835ZM101.418 23.1197C101.418 22.6939 101.418 22.3899 100.84 22.5115C100.7 22.5394 100.555 22.5394 100.415 22.5115C99.5132 22.3511 98.5839 22.4899 97.7686 22.9068V23.0894C98.2248 23.9106 98.2857 23.9105 99.1068 23.6064C99.4364 23.4593 99.7842 23.357 100.141 23.3022L101.418 23.1197ZM101.905 24.975C101.722 23.8497 101.601 23.6976 100.658 23.7584C100.048 23.7931 99.445 23.9056 98.8636 24.093C98.2553 24.2755 98.2857 24.3363 98.4377 25.0358C98.9857 24.7712 99.5837 24.6262 100.192 24.6105C100.8 24.5947 101.405 24.7086 101.966 24.9446L101.905 24.975ZM96.2784 34.8899L96.1263 35.1028C96.2744 35.1539 96.4094 35.237 96.5217 35.3462C96.6018 35.4506 96.7022 35.5375 96.8168 35.602C96.9314 35.6665 97.0579 35.7071 97.1887 35.7213C97.3195 35.7355 97.4517 35.723 97.5775 35.6847C97.7033 35.6464 97.8201 35.583 97.9207 35.4982C98.4528 35.194 98.8938 34.7529 99.1981 34.2208C99.1981 34.2208 99.1981 33.9167 99.1981 33.6734L98.4377 34.525C97.7382 35.2853 97.647 35.3157 96.7042 34.9812L96.2784 34.8899ZM68.2975 58.4912C67.9813 58.0942 67.7062 57.6662 67.4764 57.2137C67.3533 56.7851 67.2618 56.348 67.2027 55.906C66.8985 57.7004 67.2027 58.3999 68.3584 58.3999L68.2975 58.4912ZM53.5468 54.9631C52.9081 55.6018 52.8777 55.7235 53.2427 56.3621C53.4252 55.8451 53.5164 55.3585 53.6076 54.9631H53.5468ZM89.7698 24.5492H89.5873C89.5873 24.8533 89.5873 25.1575 89.5873 25.4617H89.7698V24.5492ZM47.3728 45.839V45.5652V45.839Z" fill="#49535E"/>
<path d="M27.9684 35.7742C27.7555 35.2571 27.9684 35.105 28.3638 34.9834C29.2097 34.4792 30.0829 34.0224 30.9793 33.6148C32.569 32.8505 34.1036 31.9765 35.5719 30.9992C35.9067 30.7986 36.2519 30.6159 36.6059 30.4517C37.8833 29.9651 38.9478 29.0223 40.1948 28.4444C42.3846 27.3799 44.3919 25.9809 46.6729 25.0076C47.8591 24.521 48.9844 23.8823 50.1705 23.3349C50.7788 23.0612 51.4479 22.9091 52.0866 22.6962L54.9151 21.6925C56.6183 21.0234 58.3215 20.3847 59.9943 19.6852C61.667 18.9857 62.7011 18.4991 64.0697 17.9212C65.4383 17.3433 66.1987 17.0392 67.1111 16.6742L71.7036 15.184C72.464 14.9711 73.2243 14.8798 73.9542 14.6061C75.5662 14.0282 76.9956 13.42 78.6988 12.8117C79.7025 12.4163 80.7365 12.0817 81.7402 11.6255L87.823 8.76659L89.2524 8.15837L96.5214 5.11697C98.0852 4.40253 99.7451 3.92093 101.448 3.68752C101.762 3.657 102.078 3.657 102.391 3.68752C102.239 4.20455 101.874 4.17415 101.6 4.26539C101.327 4.35663 100.171 4.53903 99.4715 4.75193C98.772 4.96483 97.7988 5.32985 96.9776 5.6644L92.598 7.48926C91.5842 7.8745 90.5704 8.30024 89.5566 8.76659C89.5566 8.76659 89.222 8.91871 89.222 9.00995C89.222 9.5574 88.6746 9.77029 88.3096 10.044C86.8149 11.2093 85.4938 12.5815 84.3862 14.1195C83.1969 15.9801 82.1789 17.9447 81.3448 19.9893C80.6149 21.6317 79.8241 23.2436 79.003 24.8251C78.2625 26.099 77.1324 27.1013 75.7791 27.6841H75.5966L72.7681 28.5965C72.5839 28.6458 72.3915 28.6559 72.2032 28.6265C72.0148 28.5971 71.8347 28.5286 71.6744 28.4256C71.5141 28.3225 71.3771 28.1871 71.2721 28.0279C71.1672 27.8688 71.0965 27.6896 71.0649 27.5016C70.9805 27.0435 71.0025 26.5722 71.129 26.124C71.2556 25.6758 71.4834 25.2626 71.7949 24.9164C72.3727 23.9431 72.981 23.0307 73.5893 22.0879C73.8383 21.6954 74.1126 21.3195 74.4104 20.9626C75.0667 20.124 75.571 19.177 75.9007 18.1645C76.0601 17.7164 76.1122 17.2373 76.0528 16.7655C76.0534 16.5061 75.9666 16.2541 75.8067 16.05C75.6467 15.8459 75.4227 15.7016 75.1708 15.6402C74.1744 15.3744 73.1258 15.3744 72.1294 15.6402C71.2668 15.8078 70.4288 16.0836 69.6354 16.4613C68.6926 16.9479 67.6281 17.1912 66.594 17.5866L62.7923 19.1682L58.7473 20.7801L55.4322 22.1487C54.5198 22.5137 53.6073 22.8787 52.6645 23.1524C50.7965 23.7128 48.9922 24.467 47.2813 25.403L43.5403 27.3495L40.4989 28.8398L39.1303 29.7522L37.0926 30.8776L33.3516 33.0977C32.9562 33.341 32.5 33.5236 32.1046 33.7365L28.4246 35.5917C28.2777 35.6647 28.1251 35.7257 27.9684 35.7742ZM87.6405 9.92233C87.4583 9.90724 87.2753 9.90724 87.0931 9.92233L84.0517 11.2606C83.1393 11.6559 82.2573 12.1426 81.3145 12.5075C79.885 13.0854 78.4251 13.572 76.9956 14.1195L75.262 14.8494L75.5357 15.0623C75.9311 15.1923 76.2744 15.4455 76.5152 15.7849C76.7561 16.1242 76.8818 16.5319 76.874 16.9479C76.8466 18.2408 76.4219 19.4938 75.6574 20.5368C74.7146 22.1183 73.6197 23.5782 72.616 25.2205C72.3687 25.6122 72.1452 26.0184 71.9469 26.4371C71.8348 26.6313 71.7758 26.8516 71.7758 27.0758C71.7758 27.3001 71.8348 27.5203 71.9469 27.7145C72.0937 27.8661 72.2859 27.9659 72.4943 27.9988C72.7028 28.0317 72.9163 27.996 73.1027 27.897L75.2012 27.1062C76.3505 26.7394 77.3454 26.0012 78.0297 25.0076C78.4786 24.3397 78.8752 23.6381 79.2159 22.909C79.7633 21.8141 80.3716 20.7193 80.8582 19.5636C81.6595 17.619 82.6799 15.7721 83.8996 14.0587C84.6733 12.8288 85.6268 11.7216 86.7281 10.7739C87.0347 10.5027 87.3194 10.2077 87.5797 9.89189L88.2488 9.61818C87.7926 9.55735 87.7926 9.55737 87.6405 9.92233Z" fill="#49535E"/>
<path d="M35.2681 35.2268C35.4254 35.0851 35.599 34.9626 35.7851 34.8619C37.3363 34.1928 38.8265 33.4932 40.4688 32.9458C42.3255 32.2288 44.0834 31.2783 45.7 30.1173C46.5221 29.608 47.3753 29.1508 48.2548 28.7486L52.087 26.863L53.4556 26.1026C54.4068 25.5623 55.4312 25.1627 56.497 24.9165C57.8668 24.5105 59.1611 23.8839 60.3291 23.0612C60.8708 22.6512 61.4639 22.3137 62.0932 22.0575C63.389 21.5184 64.6144 20.824 65.7428 19.9894C66.8228 19.1965 67.9732 18.5042 69.1796 17.9213L71.3694 16.8568C72.0017 16.5497 72.7098 16.4335 73.4072 16.5223C73.8912 16.5919 74.3564 16.7574 74.7757 17.0089C74.9207 17.0976 75.0285 17.236 75.0789 17.3983C75.1292 17.5606 75.1188 17.7357 75.0494 17.8908C74.7762 18.9249 74.3233 19.903 73.7113 20.7802C73.3464 21.2972 73.0422 21.9055 72.6468 22.4226C72.2514 22.9396 71.1565 24.2778 70.457 25.2206C69.7102 26.1942 69.0197 27.2096 68.3889 28.262C67.853 29.2354 67.6907 30.371 67.9326 31.4555L69.5142 30.8777C69.7854 30.7502 70.0813 30.684 70.381 30.684C70.6806 30.684 70.9765 30.7502 71.2477 30.8777C71.8326 31.1339 72.4644 31.2662 73.103 31.2662C73.7416 31.2662 74.3733 31.1339 74.9582 30.8777C76.1626 30.4267 77.2163 29.6469 77.9996 28.627C78.9083 27.5575 79.732 26.4186 80.4631 25.2206C81.7253 23.1934 82.6786 20.9896 83.2917 18.6816C83.6223 17.6001 84.1144 16.5747 84.7515 15.6402C85.544 14.4519 86.3967 13.3048 87.3063 12.2035C88.3641 11.0176 89.6325 10.0379 91.0472 9.31409L93.3282 8.15844C93.5721 8.05 93.8271 7.96837 94.0886 7.91508V8.0672C93.961 8.20467 93.8182 8.3271 93.6628 8.43215L90.8952 9.83117C90.7277 9.90725 90.5736 10.01 90.439 10.1353C88.1993 11.7293 86.3486 13.8086 85.0252 16.2181C84.4556 17.0584 83.9957 17.968 83.6566 18.9249L83.3829 19.8982C82.9754 21.2895 82.425 22.6349 81.7405 23.9128C81.1931 24.7948 80.7369 25.6768 80.1894 26.5284C79.8186 27.1276 79.4017 27.6971 78.9424 28.2316C78.3053 29.0768 77.5587 29.8337 76.7223 30.4823C76.1882 30.9342 75.551 31.2475 74.867 31.3946C74.0409 31.5224 73.2083 31.6037 72.3731 31.638H71.7343C71.5519 32.7025 71.339 33.7061 71.1869 34.6794C70.9941 35.9141 70.5035 37.0832 69.7575 38.0857C69.2404 38.8461 68.7234 39.576 68.2672 40.3668C68.0889 40.7 67.9807 41.0662 67.9493 41.4428C67.9179 41.8194 67.964 42.1985 68.0847 42.5566C68.1075 42.7313 68.1952 42.8909 68.3305 43.0037C68.4658 43.1164 68.6387 43.1739 68.8146 43.1648H70.5482C70.3353 43.3473 70.2441 43.4994 70.0921 43.5298C69.7141 43.705 69.2974 43.7803 68.882 43.7483C68.4666 43.7164 68.0665 43.5783 67.7198 43.3473C67.5454 43.1573 67.42 42.9276 67.3547 42.6782C67.2635 42.2386 67.2708 41.7843 67.376 41.3479C67.4812 40.9114 67.6816 40.5037 67.963 40.1539C68.6321 39.2719 69.1491 38.2986 69.727 37.3862C70.243 36.573 70.5848 35.6617 70.7307 34.7097C70.7307 34.1015 70.974 33.4932 71.0957 32.8849C71.1253 32.6527 71.1253 32.4177 71.0957 32.1854C71.0957 31.4555 70.7612 31.1513 70.0921 31.3946C69.4696 31.6117 68.8687 31.8867 68.2976 32.2159C67.6589 32.5504 67.2635 32.4287 67.1722 31.6684C66.8972 30.2782 67.1813 28.8358 67.963 27.6538C69.1492 25.9202 70.3658 24.2778 71.704 22.6659C72.5239 21.5674 73.2755 20.4197 73.9546 19.2291C74.1256 18.9038 74.2485 18.5555 74.3195 18.195C74.502 17.5563 74.3195 17.2218 73.5288 17.1914C72.4672 17.2144 71.4257 17.4851 70.4874 17.9821C68.371 19.0901 66.3381 20.3506 64.4046 21.7535C63.8866 22.0908 63.3365 22.3761 62.7623 22.6051C61.8792 22.985 61.0425 23.4646 60.2683 24.0345C59.1062 24.7727 57.8472 25.3458 56.5274 25.7377C55.5741 26.0044 54.6554 26.3821 53.7901 26.863C52.4215 27.5929 51.0225 28.262 49.6234 28.9616C48.2244 29.6611 46.0042 30.9081 44.2706 32.003C43.3595 32.5676 42.4032 33.0558 41.4116 33.4628L37.7011 35.0443C37.1537 35.2572 36.5454 35.4093 35.998 35.5918H35.481L35.2681 35.2268Z" fill="#49535E"/>
<path d="M60.0854 41.6129V41.1566C60.4594 41.2844 60.7951 41.5049 61.061 41.7974C61.3269 42.0899 61.5144 42.4449 61.6061 42.8294C61.7886 43.681 61.8493 44.5326 62.0318 45.3842C62.1276 45.8338 62.2704 46.2721 62.4577 46.6919C62.7026 47.1351 63.1037 47.4712 63.583 47.6348C64.3785 48.0172 65.2843 48.1035 66.1377 47.8781C66.5331 47.8781 66.8981 47.574 67.3239 47.4827C68.9988 47.139 70.6381 46.6401 72.2205 45.9925C73.0417 45.7665 73.8742 45.5837 74.7145 45.445C76.0724 45.169 77.4129 44.8136 78.7291 44.3806C79.7944 43.8508 80.812 43.23 81.7705 42.5253C82.0747 42.3124 82.2267 41.8562 82.47 41.5216C82.7133 41.1871 83.2912 40.6396 83.6866 40.2138C84.6903 39.0885 86.0284 38.3281 86.9408 37.1724C87.6498 36.3723 88.2343 35.4702 88.6745 34.496C88.6745 34.1919 89.0698 33.9181 89.2523 33.5836C89.4348 33.249 89.9215 32.2454 90.2256 31.5459C90.4087 31.0033 90.4087 30.4156 90.2256 29.873C90.0689 29.4617 90.0689 29.0071 90.2256 28.5957C90.3777 28.5957 90.5601 28.7781 90.5905 28.8998C90.9119 29.4319 91.0967 30.0353 91.1285 30.6561C91.1603 31.277 91.0382 31.896 90.773 32.4583C90.1343 33.6748 89.5261 34.8914 88.7961 36.0775C87.9876 37.3721 86.9582 38.5147 85.7547 39.4534C85.1482 39.9483 84.5695 40.4764 84.0211 41.035C83.6645 41.4059 83.3485 41.8137 83.0783 42.2515C82.8022 42.7303 82.4166 43.1367 81.953 43.4376C80.9671 44.1908 79.8823 44.8049 78.7291 45.2625C77.4517 45.6275 76.1743 45.962 74.8665 46.2053C73.6332 46.3896 72.4277 46.7268 71.2777 47.209L70.9127 47.3611L67.8713 48.1823C67.6429 48.221 67.4187 48.2821 67.2022 48.3648C66.3452 48.7564 65.3826 48.8526 64.465 48.6385H63.9784C63.3035 48.5711 62.6706 48.28 62.1801 47.8116C61.6897 47.3432 61.3698 46.7243 61.2715 46.0533C61.2715 45.3233 60.9978 44.563 60.937 43.8027C60.7949 43.0379 60.4716 42.3182 59.9941 41.7041L60.0854 41.6129Z" fill="#49535E"/>
<path d="M90.2866 48.5763C91.1078 48.0897 91.1381 47.9681 90.834 47.2686C90.2992 45.8241 89.6376 44.4298 88.8571 43.1019C88.8257 42.9309 88.8257 42.7557 88.8571 42.5848C88.9043 42.5601 88.9564 42.546 89.0096 42.5436C89.0628 42.5411 89.116 42.5505 89.1653 42.5708C89.2145 42.5911 89.2588 42.6219 89.2949 42.6611C89.331 42.7003 89.3581 42.7469 89.3742 42.7977C89.7392 43.406 90.1346 43.9839 90.4387 44.6226C91.1982 46.0966 91.7703 47.6598 92.1419 49.2759C92.1419 49.58 92.3852 49.945 92.1419 50.2491C91.564 49.8538 91.9897 49.063 91.4119 48.6372L90.2258 50.3707C90.8645 51.1007 91.1686 52.2564 92.5068 52.0131C92.5068 52.6822 92.0202 52.9255 91.4728 52.591C90.8989 52.3241 90.4516 51.844 90.2258 51.2528C90.1715 51.1221 90.0998 50.9994 90.0129 50.8878L88.9788 51.192C88.9995 51.5961 89.1497 51.9827 89.4071 52.2949C89.6646 52.6071 90.0155 52.8282 90.4083 52.9256C90.7428 52.9256 91.1077 52.9256 91.2294 53.3818C90.8366 53.5184 90.4118 53.5335 90.0103 53.4249C89.6088 53.3164 89.2493 53.0894 88.9788 52.7735C88.7883 52.5284 88.6251 52.2633 88.4922 51.9828C88.3006 51.5107 87.9585 51.115 87.5189 50.8574C87.1883 50.7206 86.8962 50.505 86.6682 50.2293C86.4403 49.9536 86.2833 49.6263 86.2111 49.2759C86.2111 48.1506 86.2112 46.9949 85.9678 45.8695C85.8849 44.9825 86.0424 44.0894 86.424 43.2843C86.5838 43.2201 86.7546 43.188 86.9267 43.1899C87.0989 43.1919 87.269 43.2278 87.4272 43.2957C87.5854 43.3635 87.7287 43.4618 87.8489 43.5851C87.969 43.7085 88.0636 43.8543 88.1272 44.0142C88.487 44.645 88.883 45.2543 89.3133 45.8391C89.7481 46.4906 90.0002 47.2468 90.0433 48.0289C90.1111 48.217 90.1923 48.4 90.2866 48.5763ZM87.5189 44.7746C87.2853 45.9083 87.2853 47.0777 87.5189 48.2114C87.6149 48.5016 87.7822 48.763 88.0055 48.9717C88.2614 49.0622 88.5405 49.0622 88.7963 48.9717C88.902 48.9076 88.9905 48.8188 89.0541 48.7128C89.1177 48.6068 89.1545 48.4869 89.1613 48.3635C89.1847 47.8777 89.1123 47.392 88.9484 46.934C88.6451 46.3032 88.2997 45.6935 87.9143 45.1092C87.7975 44.9811 87.6646 44.8686 87.5189 44.7746ZM87.5189 49.793C87.9751 50.4317 88.188 50.4924 88.7354 50.1883L87.5189 49.793Z" fill="#49535E"/>
<path d="M58.1391 38.9362C57.8778 39.0209 57.6014 39.0485 57.3285 39.017C57.0557 38.9855 56.7927 38.8957 56.5576 38.7537C55.2311 38.3148 53.8483 38.0689 52.4517 38.0237H51.5089C50.8398 38.0237 50.1707 38.0237 49.5015 38.0237C47.92 38.2062 46.4602 38.328 44.757 38.5713C43.481 38.6452 42.2407 39.0204 41.1377 39.6661L40.864 39.8183C40.0428 40.8827 38.8871 41.643 38.0355 42.6771C36.8613 44.0068 36.0081 45.5885 35.5416 47.3001C35.1766 48.6687 34.8725 50.0677 34.5075 51.4667C34.157 52.8026 34.157 54.2063 34.5075 55.5422C34.6596 56.1505 34.8724 56.7283 35.0549 57.3366C35.0705 57.4781 35.0705 57.6209 35.0549 57.7625C34.842 57.7625 34.69 57.7624 34.5987 57.5191C34.4693 57.3267 34.3574 57.1232 34.2642 56.9109C33.3858 54.84 33.2567 52.5276 33.8992 50.3718C34.2642 49.1857 34.4466 47.9388 34.842 46.7526C35.4687 44.8199 36.5063 43.0457 37.8834 41.5518C37.8834 41.5518 38.0963 41.3389 38.0963 41.2173C38.0963 40.6394 38.5525 40.3353 38.9479 40.0007C40.0721 39.1747 41.3409 38.566 42.6889 38.2062C44.3259 37.8869 45.9818 37.6736 47.6463 37.5676C49.0981 37.2839 50.5794 37.1817 52.0563 37.2634C53.5354 37.335 54.9935 37.6431 56.3751 38.1759L57.2572 38.48C57.6525 38.5713 57.835 38.7537 58.1391 38.9362Z" fill="#49535E"/>
<path d="M90.0739 59.0081C89.7369 59.5195 89.2767 59.9378 88.7357 60.2246C87.5125 61.0211 86.2074 61.6839 84.8427 62.2015C83.9303 62.5665 83.1091 63.1443 82.2271 63.5093C81.3012 63.8634 80.357 64.1681 79.3987 64.4218L74.6541 65.6383L73.1637 66.0337C71.3389 66.5203 69.5141 67.0069 67.6588 67.4327C66.247 67.8083 64.7994 68.0326 63.3401 68.1018C62.8839 68.1018 62.4276 68.1018 61.9714 68.1018C60.9273 68.1026 59.8935 67.8958 58.93 67.4935C58.93 67.4935 58.7172 67.2502 58.5955 67.1286C58.4739 67.0069 58.93 66.8549 59.1125 66.8853L60.5724 67.0678C61.1537 67.1787 61.7447 67.2297 62.3364 67.2198C64.1572 67.1365 65.9679 66.9026 67.7501 66.5203L73.6808 64.9692C75.5665 64.513 77.4522 64.148 79.3074 63.631C80.6287 63.3451 81.8999 62.8633 83.0787 62.2015C83.9478 61.7471 84.8413 61.3409 85.7552 60.985C86.9109 60.3767 88.0362 59.738 89.1615 59.0993L89.9523 58.7039L90.0739 59.0081Z" fill="#49535E"/>
<path d="M95.3354 43.4982C95.4952 44.1517 95.7958 44.7623 96.216 45.2876C96.6363 45.8129 97.166 46.2402 97.7685 46.5396C97.4339 46.9958 97.1298 46.8437 96.8561 46.6917C96.2132 46.3199 95.7027 45.7562 95.3962 45.0797C95.2137 44.6843 95.092 44.2585 94.9096 43.8327H93.3889C93.3889 44.2281 93.5409 44.5931 93.6018 44.9277H93.4497C92.659 43.772 91.9594 42.5858 91.2295 41.3084H91.8378C91.8378 41.0043 91.8378 40.6697 91.8378 40.3656C91.8378 39.4228 91.5641 38.4495 91.4729 37.5067C91.4609 37.2544 91.5132 37.0033 91.6249 36.7768C91.648 36.7126 91.6842 36.654 91.7313 36.6048C91.7785 36.5556 91.8354 36.5168 91.8985 36.491C91.9616 36.4652 92.0294 36.4529 92.0975 36.455C92.1656 36.4571 92.2326 36.4734 92.294 36.503L94.8792 37.5371C95.3678 37.7337 95.7917 38.0627 96.1034 38.4872C96.415 38.9117 96.602 39.4148 96.6432 39.9398L97.3123 40.0919C97.0493 41.4152 96.3539 42.6134 95.3354 43.4982ZM92.5677 37.7804C92.5947 38.4632 92.7823 39.13 93.1151 39.7268C93.3884 40.2871 93.7035 40.8261 94.058 41.3389C94.3621 41.7342 94.6663 41.7038 95.0617 41.3389C95.2864 41.1357 95.458 40.8805 95.5614 40.5958C95.6648 40.311 95.697 40.0053 95.655 39.7053C95.613 39.4053 95.4981 39.12 95.3204 38.8746C95.1428 38.6292 94.9077 38.4311 94.6358 38.2975C93.9703 38.0751 93.2892 37.9023 92.5982 37.7804H92.5677ZM92.8111 41.0955C92.8111 42.2208 92.9936 42.8291 93.6627 43.0724C94.3318 43.3157 94.4533 43.0724 94.9096 42.5554C94.4686 42.5098 94.0467 42.3515 93.6846 42.0959C93.3224 41.8402 93.0321 41.4957 92.8414 41.0955H92.8111Z" fill="#49535E"/>
<path d="M81.0109 49.4593L80.6459 47.9994C80.8439 48.0943 81.0194 48.2302 81.161 48.3979C81.3025 48.5657 81.4069 48.7616 81.4671 48.9727C81.6823 49.6094 81.8549 50.2597 81.9841 50.9192C82.197 52.0141 82.3491 53.1394 82.5316 54.2343C82.5316 54.5993 82.5316 54.9338 82.5316 55.1467C82.2063 55.418 81.9013 55.7128 81.6191 56.0287C81.5218 56.1867 81.3814 56.3137 81.2143 56.3945C81.0473 56.4753 80.8606 56.5067 80.6763 56.4849H79.7639C79.7639 56.4849 79.3685 56.4849 79.3381 56.3024C79.3077 56.1199 78.7298 55.6941 78.4257 55.4204C78.1283 55.1248 77.9004 54.7668 77.7583 54.3723C77.6163 53.9778 77.5638 53.5567 77.6046 53.1394C77.5316 52.0927 77.7306 51.045 78.1823 50.098C78.4025 49.6594 78.6462 49.233 78.9123 48.8206C79.1861 48.4557 79.5206 48.4557 79.9159 48.8206C80.3113 49.1856 80.3418 49.216 80.5547 49.3681C80.7676 49.5201 80.7676 49.2768 81.0109 49.4593ZM81.3151 54.0822C81.5048 53.4189 81.5025 52.7154 81.3087 52.0533C81.115 51.3912 80.7375 50.7976 80.2201 50.3413L80.6763 51.5274C80.95 52.379 81.5279 53.1394 81.3454 54.1126C80.9835 54.8125 80.4498 55.409 79.7944 55.8462C80.9805 55.8462 81.0413 55.8462 81.2846 54.7817C81.3106 54.5495 81.3208 54.3158 81.3151 54.0822ZM79.1556 50.4021C78.7729 50.9688 78.5413 51.6239 78.4828 52.3052C78.4242 52.9865 78.5407 53.6714 78.8211 54.2951C79.1252 54.9034 79.6727 54.9946 80.0681 54.2951C80.2566 54.0522 80.3535 53.7507 80.3418 53.4435C80.1754 52.3776 79.8255 51.3486 79.3077 50.4021H79.1556Z" fill="#49535E"/>
<path d="M24.076 55.5409L24.7754 55.9971C25.4152 56.2791 26.0351 56.6042 26.6307 56.9703L30.3717 59.7685C32.198 61.2916 34.1068 62.7131 36.0894 64.0264C37.1843 64.6651 38.188 65.4559 39.2829 66.125C39.9216 66.5203 40.6819 66.7941 41.351 67.1895C42.9409 68.1165 44.6102 68.9002 46.339 69.5313C47.2346 69.7895 48.1502 69.9726 49.0762 70.0787C49.5324 70.0787 49.9582 70.0788 50.384 70.3221C50.5672 70.3777 50.7414 70.4597 50.9011 70.5654V70.7478H50.1103C48.5174 70.6796 46.9414 70.393 45.4265 69.8963C43.7469 69.2516 42.1285 68.4576 40.5907 67.524C39.8303 67.0374 38.9788 66.6724 38.2184 66.2162C36.7585 65.2734 35.177 64.3609 33.8692 63.3268C32.5614 62.2928 30.8279 60.985 29.3072 59.7988C28.2528 58.9472 27.1579 58.1261 26.0224 57.3353C25.5662 57.0007 25.0188 56.7878 24.5626 56.4837C24.3051 56.308 24.0874 56.08 23.9238 55.8146C23.9238 55.8146 24.0455 55.7234 24.076 55.5409Z" fill="#49535E"/>
<path d="M96.0959 53.3815C96.7346 52.4082 97.4038 51.4654 98.012 50.3401C99.0713 48.6828 99.9968 46.9437 100.78 45.1393C100.962 44.7439 101.175 44.3485 101.388 43.9531C102.283 42.2122 102.752 40.2839 102.757 38.3265C102.757 36.7146 102.757 35.1027 102.909 33.4907C102.909 33.1866 102.909 32.7912 103.365 32.6999C103.821 32.6087 103.517 32.852 103.517 32.9128C103.517 33.9165 103.517 34.9202 103.517 35.9542C103.593 36.8549 103.593 37.7604 103.517 38.6611C103.463 39.8779 103.258 41.0833 102.909 42.2499C102.003 44.5434 100.915 46.7606 99.6544 48.8802C99.107 49.7926 98.4378 50.6746 97.8296 51.587L96.613 53.199C96.5026 53.2876 96.3795 53.3593 96.248 53.4118L96.0959 53.3815Z" fill="#49535E"/>
<path d="M57.7131 42.5258C57.5872 42.5803 57.4455 42.5854 57.316 42.5404C57.1864 42.4953 57.0785 42.4034 57.0136 42.2825C56.8659 42.0469 56.6552 41.8572 56.4053 41.735C55.4321 41.4309 54.4588 41.1876 53.3639 40.9443C52.2879 40.7493 51.1856 40.7493 50.1096 40.9443H48.741C47.29 41.2169 45.8726 41.6451 44.5135 42.2217C43.2426 42.8747 42.0135 43.606 40.8333 44.4115C40.4185 44.755 40.0321 45.1313 39.6777 45.5368L39.0086 46.1146C38.674 45.8713 38.7652 45.6889 39.0086 45.5064C39.3156 44.8674 39.7752 44.3138 40.3468 43.8945C41.53 43.0662 42.7586 42.3047 44.0268 41.6134C45.0146 41.2045 46.0311 40.869 47.0682 40.6097C48.8104 40.1907 50.5991 39.9965 52.3907 40.0319C53.5455 40.0308 54.6868 40.2799 55.7362 40.7618C55.9602 40.8923 56.2087 40.975 56.4661 41.0051C57.3481 41.218 57.6219 41.5222 57.7131 42.5258Z" fill="#49535E"/>
<path d="M83.1698 35.0725C83.5956 35.6808 83.1698 36.2283 83.1698 36.7149C82.636 38.0144 81.6689 39.089 80.4326 39.7563C80.155 39.9587 79.8281 40.0829 79.4861 40.1156C79.1441 40.1483 78.7995 40.0884 78.4886 39.9423C78.1776 39.7961 77.9117 39.5691 77.7187 39.2849C77.5256 39.0007 77.4125 38.6697 77.3912 38.3268C77.1814 37.4621 77.267 36.552 77.6345 35.7416C77.9278 34.9878 78.1716 34.2157 78.3645 33.4302C78.4767 32.952 78.5277 32.4614 78.5165 31.9703C78.488 31.4985 78.4167 31.0303 78.3036 30.5713C78.6381 30.5713 78.7598 30.7538 78.851 30.9363C79.1258 31.4698 79.2219 32.0776 79.1248 32.6699C78.9177 33.8125 78.6019 34.9328 78.1819 36.0154C77.9011 36.6668 77.8268 37.3886 77.9691 38.0835C78.3036 39.3001 79.216 39.8779 80.4326 38.9655C81.5318 38.1294 82.3746 37.0021 82.8657 35.7113C82.9761 35.5028 83.0776 35.2896 83.1698 35.0725Z" fill="#49535E"/>
<path d="M84.2653 36.3826C84.6911 35.7743 84.9649 35.3181 85.2995 34.8923C85.7837 34.1506 86.0415 33.2841 86.0415 32.3984C86.0415 31.5127 85.7837 30.6461 85.2995 29.9044C84.8187 29.2056 84.1971 28.6151 83.4746 28.1708C83.1774 27.9627 82.9608 27.6587 82.8611 27.3098C82.7614 26.961 82.7848 26.5884 82.9272 26.2547C82.9585 26.1986 83.0022 26.1502 83.0548 26.1134C83.1075 26.0765 83.1678 26.052 83.2313 26.0418C83.3316 26.1058 83.4068 26.2026 83.4442 26.3156C83.4592 26.4164 83.4592 26.5188 83.4442 26.6197C83.4442 27.1367 83.6267 27.3801 84.0525 27.6538C84.9183 28.1457 85.6335 28.8644 86.1212 29.7326C86.6089 30.6008 86.8506 31.5855 86.8202 32.5809C86.7829 33.3107 86.5867 34.0237 86.2452 34.6699C85.9037 35.316 85.4252 35.8797 84.8432 36.3217C84.8432 36.3217 84.5391 36.3522 84.2653 36.3826Z" fill="#49535E"/>
<path d="M64.1307 44.0163C63.9178 44.0163 63.8267 44.0163 63.8267 43.6513C63.7817 43.3692 63.7817 43.0818 63.8267 42.7997C64.0627 42.0477 64.3575 41.3155 64.7086 40.6099C65.5955 39.0276 66.6129 37.522 67.75 36.1087C68.2913 35.3163 68.7693 34.4824 69.1795 33.6148L69.4532 33.1281C69.5285 33.1456 69.5985 33.1807 69.6576 33.2306C69.7166 33.2805 69.7629 33.3437 69.7926 33.415C69.8223 33.4863 69.8347 33.5638 69.8285 33.6408C69.8224 33.7179 69.798 33.7923 69.7573 33.858C69.5825 34.4046 69.3371 34.9261 69.0274 35.4092C68.2367 36.5649 67.4155 37.6902 66.5639 38.7851C65.8916 39.6497 65.3392 40.6012 64.9215 41.6136C64.7086 42.4044 64.4349 43.1951 64.1307 44.0163Z" fill="#49535E"/>
<path d="M104.459 14.7562C104.459 14.3 104.247 13.8134 104.125 13.3572C103.953 12.2801 103.72 11.2139 103.425 10.1637C103.164 9.38243 102.806 8.63661 102.361 7.94349C102.07 7.52328 101.678 7.1832 101.22 6.95462C100.763 6.72605 100.256 6.61636 99.7453 6.63571C98.9755 6.59013 98.2036 6.59013 97.4338 6.63571C97.1601 6.63571 96.8559 6.63569 96.643 6.42279C96.4301 6.20989 96.6431 6.24031 96.7951 6.24031C98.3448 5.66215 100.051 5.66215 101.6 6.24031C102.431 6.70146 103.068 7.44645 103.395 8.33888C104.08 9.97076 104.471 11.7108 104.551 13.4788C104.551 13.8438 104.551 14.2391 104.551 14.6345L104.459 14.7562Z" fill="#49535E"/>
</g>
</svg>
